<?xml version="1.0" encoding="utf-8"?>
<!-- Generator: Adobe Illustrator 25.0.0, SVG Export Plug-In . SVG Version: 6.00 Build 0)  -->
<svg version="1.1" id="图层_1" xmlns="http://www.w3.org/2000/svg" xmlns:xlink="http://www.w3.org/1999/xlink" x="0px" y="0px"
	 width="694.5px" height="694.5px" viewBox="0 0 694.5 694.5" enable-background="new 0 0 694.5 694.5" xml:space="preserve">
<rect fill="#FFFFFF" width="1.4" height="694.5"/>
<rect x="693.1" y="15.7" fill="#FFFFFF" width="1.4" height="678.8"/>
<rect x="0" y="693.1" fill="#FFFFFF" width="694.5" height="1.4"/>
<rect x="559.1" fill="#FFFFFF" width="1.4" height="694.5"/>
<rect x="417.4" fill="#FFFFFF" width="1.4" height="694.5"/>
<rect x="275.7" y="15.7" fill="#FFFFFF" width="1.4" height="678.8"/>
<rect x="133.9" y="14.2" fill="#FFFFFF" width="1.4" height="680.3"/>
<rect x="21.1" y="0" fill="#FFFFFF" width="0.4" height="694.5"/>
<rect x="49.4" y="0" fill="#FFFFFF" width="0.4" height="694.5"/>
<rect x="77.8" y="14.2" fill="#FFFFFF" width="0.4" height="680.3"/>
<rect x="106.1" y="14.2" fill="#FFFFFF" width="0.4" height="680.3"/>
<rect x="162.8" y="15.7" fill="#FFFFFF" width="0.4" height="678.8"/>
<rect x="191.1" y="15.7" fill="#FFFFFF" width="0.4" height="678.8"/>
<rect x="219.5" y="15.7" fill="#FFFFFF" width="0.4" height="678.8"/>
<rect x="247.8" y="15.7" fill="#FFFFFF" width="0.4" height="678.8"/>
<rect x="304.5" y="15.7" fill="#FFFFFF" width="0.4" height="678.8"/>
<rect x="332.9" y="0" fill="#FFFFFF" width="0.4" height="694.5"/>
<rect x="361.2" y="0" fill="#FFFFFF" width="0.4" height="694.5"/>
<rect x="389.6" y="0" fill="#FFFFFF" width="0.4" height="694.5"/>
<rect x="446.3" y="0" fill="#FFFFFF" width="0.4" height="694.5"/>
<rect x="474.6" y="0" fill="#FFFFFF" width="0.4" height="694.5"/>
<rect x="502.9" y="0" fill="#FFFFFF" width="0.4" height="694.5"/>
<rect x="531.3" y="0" fill="#FFFFFF" width="0.4" height="694.5"/>
<rect x="588" y="0" fill="#FFFFFF" width="0.4" height="694.5"/>
<rect x="616.3" y="15.7" fill="#FFFFFF" width="0.4" height="678.8"/>
<rect x="644.7" y="15.7" fill="#FFFFFF" width="0.4" height="678.8"/>
<rect x="673" y="15.7" fill="#FFFFFF" width="0.4" height="678.8"/>
<rect x="0" y="559.1" fill="#FFFFFF" width="694.5" height="1.4"/>
<rect x="0" y="417.4" fill="#FFFFFF" width="694.5" height="1.4"/>
<rect x="0" y="275.7" fill="#FFFFFF" width="694.5" height="1.4"/>
<rect x="0" y="133.9" fill="#FFFFFF" width="694.5" height="1.4"/>
<rect x="0" y="21.1" fill="#FFFFFF" width="694.5" height="0.4"/>
<rect x="0" y="49.4" fill="#FFFFFF" width="694.5" height="0.4"/>
<rect x="0" y="77.8" fill="#FFFFFF" width="694.5" height="0.4"/>
<rect x="0" y="106.1" fill="#FFFFFF" width="694.5" height="0.4"/>
<rect x="0" y="162.8" fill="#FFFFFF" width="694.5" height="0.4"/>
<rect x="0" y="191.1" fill="#FFFFFF" width="694.5" height="0.4"/>
<rect x="0" y="219.5" fill="#FFFFFF" width="694.5" height="0.4"/>
<rect x="0" y="247.8" fill="#FFFFFF" width="694.5" height="0.4"/>
<rect x="0" y="304.5" fill="#FFFFFF" width="694.5" height="0.4"/>
<rect x="0" y="332.9" fill="#FFFFFF" width="694.5" height="0.4"/>
<rect x="0" y="361.2" fill="#FFFFFF" width="694.5" height="0.4"/>
<rect x="0" y="389.6" fill="#FFFFFF" width="694.5" height="0.4"/>
<rect x="0" y="446.3" fill="#FFFFFF" width="694.5" height="0.4"/>
<rect x="0" y="474.6" fill="#FFFFFF" width="694.5" height="0.4"/>
<rect x="0" y="502.9" fill="#FFFFFF" width="694.5" height="0.4"/>
<rect x="0" y="531.3" fill="#FFFFFF" width="694.5" height="0.4"/>
<rect x="0" y="588" fill="#FFFFFF" width="694.5" height="0.4"/>
<rect x="0" y="616.3" fill="#FFFFFF" width="694.5" height="0.4"/>
<rect x="0" y="644.7" fill="#FFFFFF" width="694.5" height="0.4"/>
<rect x="0" y="673" fill="#FFFFFF" width="694.5" height="0.4"/>
<polygon fill="#FFFFFF" points="694.5,15.7 588.1,15.7 588.1,0 589.6,0 589.6,14 694.5,14 "/>
<polygon fill="#FFFFFF" points="327.5,15.7 69.4,15.7 69.4,0 70.9,0 70.9,14 326,14 326,0 327.5,0 "/>
<rect x="327.5" y="0" fill="#FFFFFF" width="260.9" height="1.4"/>
<rect x="0" y="0" fill="#FFFFFF" width="69.4" height="1.4"/>
</svg>
