<svg xmlns="http://www.w3.org/2000/svg" xmlns:xlink="http://www.w3.org/1999/xlink" fill="none" version="1.1" width="765.3599853515625" height="765.3599853515625" viewBox="0 0 765.3599853515625 765.3599853515625"><defs><clipPath id="master_svg0_135_15603"><rect x="0" y="0" width="765.3599853515625" height="765.3599853515625" rx="0"/></clipPath></defs><g clip-path="url(#master_svg0_135_15603)"><g><g><path d="M763.96002,0L0,0L0,720L31.18,720L31.18,765.35999L765.35999,765.35999L765.35999,0L763.96002,0ZM763.96002,763.96002L32.580002,763.96002L32.580002,718.61005C32.580002,718.61005,1.4000015,718.60004,1.4000015,718.60004L1.4000015,1.4L763.96002,1.4L763.96002,763.96002Z" fill="#FFFFFF" fill-opacity="1" style="mix-blend-mode:passthrough"/></g></g><g><g><rect x="27.729999542236328" y="0.6200000047683716" width="1.399999976158142" height="718.6099853515625" rx="0" fill="#FFFFFF" fill-opacity="1" style="mix-blend-mode:passthrough"/></g><g><rect x="56.630001068115234" y="0.6200000047683716" width="0.4000000059604645" height="764.0599975585938" rx="0" fill="#FFFFFF" fill-opacity="1" style="mix-blend-mode:passthrough"/></g><g><rect x="84.93000030517578" y="0.6200000047683716" width="0.4000000059604645" height="764.0599975585938" rx="0" fill="#FFFFFF" fill-opacity="1" style="mix-blend-mode:passthrough"/></g><g><rect x="113.33000564575195" y="0.6200000047683716" width="0.4000000059604645" height="764.0599975585938" rx="0" fill="#FFFFFF" fill-opacity="1" style="mix-blend-mode:passthrough"/></g><g><rect x="141.63000869750977" y="0.6200000047683716" width="0.4000000059604645" height="764.0599975585938" rx="0" fill="#FFFFFF" fill-opacity="1" style="mix-blend-mode:passthrough"/></g><g><rect x="169.42999649047852" y="0.6200000047683716" width="1.399999976158142" height="764.0599975585938" rx="0" fill="#FFFFFF" fill-opacity="1" style="mix-blend-mode:passthrough"/></g><g><rect x="169.42999649047852" y="0.6200000047683716" width="1.399999976158142" height="764.0599975585938" rx="0" fill="#FFFFFF" fill-opacity="1" style="mix-blend-mode:passthrough"/></g><g><rect x="198.33000564575195" y="0.6200000047683716" width="0.4000000059604645" height="764.0599975585938" rx="0" fill="#FFFFFF" fill-opacity="1" style="mix-blend-mode:passthrough"/></g><g><rect x="226.63000869750977" y="0.6200000047683716" width="0.4000000059604645" height="764.0599975585938" rx="0" fill="#FFFFFF" fill-opacity="1" style="mix-blend-mode:passthrough"/></g><g><rect x="255.03000259399414" y="0.6200000047683716" width="0.4000000059604645" height="764.0599975585938" rx="0" fill="#FFFFFF" fill-opacity="1" style="mix-blend-mode:passthrough"/></g><g><rect x="283.3299903869629" y="0.6200000047683716" width="0.4000000059604645" height="764.0599975585938" rx="0" fill="#FFFFFF" fill-opacity="1" style="mix-blend-mode:passthrough"/></g><g><rect x="311.1299934387207" y="0.6200000047683716" width="1.399999976158142" height="764.0599975585938" rx="0" fill="#FFFFFF" fill-opacity="1" style="mix-blend-mode:passthrough"/></g><g><rect x="311.1299934387207" y="0.6200000047683716" width="1.399999976158142" height="764.0599975585938" rx="0" fill="#FFFFFF" fill-opacity="1" style="mix-blend-mode:passthrough"/></g><g><rect x="340.0299873352051" y="0.6200000047683716" width="0.4000000059604645" height="764.0599975585938" rx="0" fill="#FFFFFF" fill-opacity="1" style="mix-blend-mode:passthrough"/></g><g><rect x="368.3299751281738" y="0.6200000047683716" width="0.4000000059604645" height="764.0599975585938" rx="0" fill="#FFFFFF" fill-opacity="1" style="mix-blend-mode:passthrough"/></g><g><rect x="396.7299995422363" y="0.6200000047683716" width="0.4000000059604645" height="764.0599975585938" rx="0" fill="#FFFFFF" fill-opacity="1" style="mix-blend-mode:passthrough"/></g><g><rect x="425.0299873352051" y="0.6200000047683716" width="0.4000000059604645" height="764.0599975585938" rx="0" fill="#FFFFFF" fill-opacity="1" style="mix-blend-mode:passthrough"/></g><g><rect x="452.8299751281738" y="0.6200000047683716" width="1.399999976158142" height="764.0599975585938" rx="0" fill="#FFFFFF" fill-opacity="1" style="mix-blend-mode:passthrough"/></g><g><rect x="452.8299751281738" y="0.6200000047683716" width="1.399999976158142" height="764.0599975585938" rx="0" fill="#FFFFFF" fill-opacity="1" style="mix-blend-mode:passthrough"/></g><g><rect x="481.7299995422363" y="0.6200000047683716" width="0.4000000059604645" height="764.0599975585938" rx="0" fill="#FFFFFF" fill-opacity="1" style="mix-blend-mode:passthrough"/></g><g><rect x="510.0299873352051" y="0.6200000047683716" width="0.4000000059604645" height="764.0599975585938" rx="0" fill="#FFFFFF" fill-opacity="1" style="mix-blend-mode:passthrough"/></g><g><rect x="538.4299812316895" y="0.6200000047683716" width="0.4000000059604645" height="764.0599975585938" rx="0" fill="#FFFFFF" fill-opacity="1" style="mix-blend-mode:passthrough"/></g><g><rect x="566.7299995422363" y="0.6200000047683716" width="0.4000000059604645" height="764.0599975585938" rx="0" fill="#FFFFFF" fill-opacity="1" style="mix-blend-mode:passthrough"/></g><g><rect x="594.5300483703613" y="0.6200000047683716" width="1.399999976158142" height="764.0599975585938" rx="0" fill="#FFFFFF" fill-opacity="1" style="mix-blend-mode:passthrough"/></g><g><rect x="594.5300483703613" y="0.6200000047683716" width="1.399999976158142" height="764.0599975585938" rx="0" fill="#FFFFFF" fill-opacity="1" style="mix-blend-mode:passthrough"/></g><g><rect x="623.4300117492676" y="0.6200000047683716" width="0.4000000059604645" height="764.0599975585938" rx="0" fill="#FFFFFF" fill-opacity="1" style="mix-blend-mode:passthrough"/></g><g><rect x="651.7299995422363" y="0.6200000047683716" width="0.4000000059604645" height="764.0599975585938" rx="0" fill="#FFFFFF" fill-opacity="1" style="mix-blend-mode:passthrough"/></g><g><rect x="680.1300239562988" y="0.6200000047683716" width="0.4000000059604645" height="764.0599975585938" rx="0" fill="#FFFFFF" fill-opacity="1" style="mix-blend-mode:passthrough"/></g><g><rect x="708.4300117492676" y="0.6200000047683716" width="0.4000000059604645" height="764.0599975585938" rx="0" fill="#FFFFFF" fill-opacity="1" style="mix-blend-mode:passthrough"/></g><g><rect x="736.2299995422363" y="0.6200000047683716" width="1.399999976158142" height="764.0599975585938" rx="0" fill="#FFFFFF" fill-opacity="1" style="mix-blend-mode:passthrough"/></g><g><rect x="736.2299995422363" y="0.6200000047683716" width="1.399999976158142" height="764.0599975585938" rx="0" fill="#FFFFFF" fill-opacity="1" style="mix-blend-mode:passthrough"/></g></g><g><g><rect x="31.839999318122864" y="736.4799995422363" width="733" height="1.399999976158142" rx="0" fill="#FFFFFF" fill-opacity="1" style="mix-blend-mode:passthrough"/></g><g><rect x="0.6200000047683716" y="708.5800361633301" width="764.219970703125" height="0.4000000059604645" rx="0" fill="#FFFFFF" fill-opacity="1" style="mix-blend-mode:passthrough"/></g><g><rect x="0.6200000047683716" y="680.2800483703613" width="764.219970703125" height="0.4000000059604645" rx="0" fill="#FFFFFF" fill-opacity="1" style="mix-blend-mode:passthrough"/></g><g><rect x="0.6200000047683716" y="651.8800239562988" width="764.219970703125" height="0.4000000059604645" rx="0" fill="#FFFFFF" fill-opacity="1" style="mix-blend-mode:passthrough"/></g><g><rect x="0.6200000047683716" y="623.5800361633301" width="764.219970703125" height="0.4000000059604645" rx="0" fill="#FFFFFF" fill-opacity="1" style="mix-blend-mode:passthrough"/></g><g><rect x="0.6200000047683716" y="594.6800117492676" width="764.219970703125" height="1.399999976158142" rx="0" fill="#FFFFFF" fill-opacity="1" style="mix-blend-mode:passthrough"/></g><g><rect x="0.6200000047683716" y="594.6800117492676" width="764.219970703125" height="1.399999976158142" rx="0" fill="#FFFFFF" fill-opacity="1" style="mix-blend-mode:passthrough"/></g><g><rect x="0.6200000047683716" y="566.7800483703613" width="764.219970703125" height="0.4000000059604645" rx="0" fill="#FFFFFF" fill-opacity="1" style="mix-blend-mode:passthrough"/></g><g><rect x="0.6200000047683716" y="538.4799690246582" width="764.219970703125" height="0.4000000059604645" rx="0" fill="#FFFFFF" fill-opacity="1" style="mix-blend-mode:passthrough"/></g><g><rect x="0.6200000047683716" y="510.0799751281738" width="764.219970703125" height="0.4000000059604645" rx="0" fill="#FFFFFF" fill-opacity="1" style="mix-blend-mode:passthrough"/></g><g><rect x="0.6200000047683716" y="481.7799873352051" width="764.219970703125" height="0.4000000059604645" rx="0" fill="#FFFFFF" fill-opacity="1" style="mix-blend-mode:passthrough"/></g><g><rect x="0.6200000047683716" y="452.8799934387207" width="764.219970703125" height="1.399999976158142" rx="0" fill="#FFFFFF" fill-opacity="1" style="mix-blend-mode:passthrough"/></g><g><rect x="0.6200000047683716" y="452.8799934387207" width="764.219970703125" height="1.399999976158142" rx="0" fill="#FFFFFF" fill-opacity="1" style="mix-blend-mode:passthrough"/></g><g><rect x="0.6200000047683716" y="424.9799995422363" width="764.219970703125" height="0.4000000059604645" rx="0" fill="#FFFFFF" fill-opacity="1" style="mix-blend-mode:passthrough"/></g><g><rect x="0.6200000047683716" y="396.67998123168945" width="764.219970703125" height="0.4000000059604645" rx="0" fill="#FFFFFF" fill-opacity="1" style="mix-blend-mode:passthrough"/></g><g><rect x="0.6200000047683716" y="368.2799873352051" width="764.219970703125" height="0.4000000059604645" rx="0" fill="#FFFFFF" fill-opacity="1" style="mix-blend-mode:passthrough"/></g><g><rect x="0.6200000047683716" y="339.9799995422363" width="764.219970703125" height="0.4000000059604645" rx="0" fill="#FFFFFF" fill-opacity="1" style="mix-blend-mode:passthrough"/></g><g><rect x="0.6200000047683716" y="311.0799751281738" width="764.219970703125" height="1.399999976158142" rx="0" fill="#FFFFFF" fill-opacity="1" style="mix-blend-mode:passthrough"/></g><g><rect x="0.6200000047683716" y="311.0799751281738" width="764.219970703125" height="1.399999976158142" rx="0" fill="#FFFFFF" fill-opacity="1" style="mix-blend-mode:passthrough"/></g><g><rect x="0.6200000047683716" y="283.1799964904785" width="764.219970703125" height="0.4000000059604645" rx="0" fill="#FFFFFF" fill-opacity="1" style="mix-blend-mode:passthrough"/></g><g><rect x="0.6200000047683716" y="254.88000869750977" width="764.219970703125" height="0.4000000059604645" rx="0" fill="#FFFFFF" fill-opacity="1" style="mix-blend-mode:passthrough"/></g><g><rect x="0.6200000047683716" y="226.47999954223633" width="764.219970703125" height="0.4000000059604645" rx="0" fill="#FFFFFF" fill-opacity="1" style="mix-blend-mode:passthrough"/></g><g><rect x="0.6200000047683716" y="198.17999649047852" width="764.219970703125" height="0.4000000059604645" rx="0" fill="#FFFFFF" fill-opacity="1" style="mix-blend-mode:passthrough"/></g><g><rect x="0.6200000047683716" y="169.28000259399414" width="764.219970703125" height="1.399999976158142" rx="0" fill="#FFFFFF" fill-opacity="1" style="mix-blend-mode:passthrough"/></g><g><rect x="0.6200000047683716" y="169.28000259399414" width="764.219970703125" height="1.399999976158142" rx="0" fill="#FFFFFF" fill-opacity="1" style="mix-blend-mode:passthrough"/></g><g><rect x="0.6200000047683716" y="141.38000869750977" width="764.219970703125" height="0.4000000059604645" rx="0" fill="#FFFFFF" fill-opacity="1" style="mix-blend-mode:passthrough"/></g><g><rect x="0.6200000047683716" y="113.08000564575195" width="764.219970703125" height="0.4000000059604645" rx="0" fill="#FFFFFF" fill-opacity="1" style="mix-blend-mode:passthrough"/></g><g><rect x="0.6200000047683716" y="84.68000030517578" width="764.219970703125" height="0.4000000059604645" rx="0" fill="#FFFFFF" fill-opacity="1" style="mix-blend-mode:passthrough"/></g><g><rect x="0.6200000047683716" y="56.380001068115234" width="764.219970703125" height="0.4000000059604645" rx="0" fill="#FFFFFF" fill-opacity="1" style="mix-blend-mode:passthrough"/></g><g><rect x="0.6200000047683716" y="27.479999542236328" width="764.219970703125" height="1.399999976158142" rx="0" fill="#FFFFFF" fill-opacity="1" style="mix-blend-mode:passthrough"/></g><g><rect x="0.6200000047683716" y="27.479999542236328" width="764.219970703125" height="1.399999976158142" rx="0" fill="#FFFFFF" fill-opacity="1" style="mix-blend-mode:passthrough"/></g></g></g></svg>