<?xml version="1.0" encoding="utf-8"?>
<!-- Generator: Adobe Illustrator 25.0.0, SVG Export Plug-In . SVG Version: 6.00 Build 0)  -->
<svg version="1.1" id="图层_1" xmlns="http://www.w3.org/2000/svg" xmlns:xlink="http://www.w3.org/1999/xlink" x="0px" y="0px"
	 viewBox="0 0 921.3 921.3" style="enable-background:new 0 0 921.3 921.3;" xml:space="preserve">
<rect y="899.8" style="fill:#FFFFFF;" width="921.3" height="0.4"/>
<rect y="871.5" style="fill:#FFFFFF;" width="921.3" height="0.4"/>
<rect y="843.1" style="fill:#FFFFFF;" width="921.3" height="0.4"/>
<rect y="814.3" style="fill:#FFFFFF;" width="921.3" height="1.4"/>
<rect y="919.9" style="fill:#FFFFFF;" width="921.3" height="1.4"/>
<rect y="786.4" style="fill:#FFFFFF;" width="921.3" height="0.4"/>
<rect y="758.1" style="fill:#FFFFFF;" width="921.3" height="0.4"/>
<rect y="729.7" style="fill:#FFFFFF;" width="921.3" height="0.4"/>
<rect y="701.4" style="fill:#FFFFFF;" width="921.3" height="0.4"/>
<rect y="672.5" style="fill:#FFFFFF;" width="921.3" height="1.4"/>
<rect y="644.7" style="fill:#FFFFFF;" width="921.3" height="0.4"/>
<rect y="616.3" style="fill:#FFFFFF;" width="921.3" height="0.4"/>
<rect y="588" style="fill:#FFFFFF;" width="921.3" height="0.4"/>
<rect y="559.6" style="fill:#FFFFFF;" width="921.3" height="0.4"/>
<rect y="530.8" style="fill:#FFFFFF;" width="921.3" height="1.4"/>
<rect y="502.9" style="fill:#FFFFFF;" width="921.3" height="0.4"/>
<rect y="474.6" style="fill:#FFFFFF;" width="921.3" height="0.4"/>
<rect y="446.3" style="fill:#FFFFFF;" width="921.3" height="0.4"/>
<rect y="417.9" style="fill:#FFFFFF;" width="921.3" height="0.4"/>
<rect y="389.1" style="fill:#FFFFFF;" width="921.3" height="1.4"/>
<rect y="361.2" style="fill:#FFFFFF;" width="921.3" height="0.4"/>
<rect y="332.9" style="fill:#FFFFFF;" width="921.3" height="0.4"/>
<rect y="304.5" style="fill:#FFFFFF;" width="921.3" height="0.4"/>
<rect y="276.2" style="fill:#FFFFFF;" width="921.3" height="0.4"/>
<rect y="247.3" style="fill:#FFFFFF;" width="921.3" height="1.4"/>
<rect y="219.5" style="fill:#FFFFFF;" width="921.3" height="0.4"/>
<rect y="191.1" style="fill:#FFFFFF;" width="921.3" height="0.4"/>
<rect y="162.8" style="fill:#FFFFFF;" width="921.3" height="0.4"/>
<rect y="134.4" style="fill:#FFFFFF;" width="921.3" height="0.4"/>
<rect y="105.6" style="fill:#FFFFFF;" width="921.3" height="1.4"/>
<rect y="0" style="fill:#FFFFFF;" width="921.3" height="1.4"/>
<rect y="77.8" style="fill:#FFFFFF;" width="921.3" height="0.4"/>
<rect y="49.4" style="fill:#FFFFFF;" width="921.3" height="0.4"/>
<rect y="21.1" style="fill:#FFFFFF;" width="921.3" height="0.4"/>
<rect x="21.1" y="0" style="fill:#FFFFFF;" width="0.4" height="921.3"/>
<rect x="49.4" y="0" style="fill:#FFFFFF;" width="0.4" height="921.3"/>
<rect x="77.8" y="0" style="fill:#FFFFFF;" width="0.4" height="921.3"/>
<rect x="105.6" y="0" style="fill:#FFFFFF;" width="1.4" height="921.3"/>
<rect y="0" style="fill:#FFFFFF;" width="1.4" height="921.3"/>
<rect x="134.4" y="0" style="fill:#FFFFFF;" width="0.4" height="921.3"/>
<rect x="162.8" y="0" style="fill:#FFFFFF;" width="0.4" height="921.3"/>
<rect x="191.1" y="0" style="fill:#FFFFFF;" width="0.4" height="921.3"/>
<rect x="219.5" y="0" style="fill:#FFFFFF;" width="0.4" height="921.3"/>
<rect x="247.3" y="0" style="fill:#FFFFFF;" width="1.4" height="921.3"/>
<rect x="276.2" y="0" style="fill:#FFFFFF;" width="0.4" height="921.3"/>
<rect x="304.5" y="0" style="fill:#FFFFFF;" width="0.4" height="921.3"/>
<rect x="332.9" y="0" style="fill:#FFFFFF;" width="0.4" height="921.3"/>
<rect x="361.2" y="0" style="fill:#FFFFFF;" width="0.4" height="921.3"/>
<rect x="389.1" y="0" style="fill:#FFFFFF;" width="1.4" height="921.3"/>
<rect x="417.9" y="0" style="fill:#FFFFFF;" width="0.4" height="921.3"/>
<rect x="446.3" y="0" style="fill:#FFFFFF;" width="0.4" height="921.3"/>
<rect x="474.6" y="0" style="fill:#FFFFFF;" width="0.4" height="921.3"/>
<rect x="502.9" y="0" style="fill:#FFFFFF;" width="0.4" height="921.3"/>
<rect x="530.8" y="0" style="fill:#FFFFFF;" width="1.4" height="921.3"/>
<rect x="559.6" y="0" style="fill:#FFFFFF;" width="0.4" height="921.3"/>
<rect x="588" y="0" style="fill:#FFFFFF;" width="0.4" height="921.3"/>
<rect x="616.3" y="0" style="fill:#FFFFFF;" width="0.4" height="921.3"/>
<rect x="644.7" y="0" style="fill:#FFFFFF;" width="0.4" height="921.3"/>
<rect x="672.5" y="0" style="fill:#FFFFFF;" width="1.4" height="921.3"/>
<rect x="701.4" y="0" style="fill:#FFFFFF;" width="0.4" height="921.3"/>
<rect x="729.7" y="0" style="fill:#FFFFFF;" width="0.4" height="921.3"/>
<rect x="758.1" y="0" style="fill:#FFFFFF;" width="0.4" height="921.3"/>
<rect x="786.4" y="0" style="fill:#FFFFFF;" width="0.4" height="921.3"/>
<rect x="814.3" y="0" style="fill:#FFFFFF;" width="1.4" height="921.3"/>
<rect x="919.9" y="0" style="fill:#FFFFFF;" width="1.4" height="921.3"/>
<rect x="843.1" y="0" style="fill:#FFFFFF;" width="0.4" height="921.3"/>
<rect x="871.5" y="0" style="fill:#FFFFFF;" width="0.4" height="921.3"/>
<rect x="899.8" y="0" style="fill:#FFFFFF;" width="0.4" height="921.3"/>
</svg>
