<?xml version="1.0" encoding="utf-8"?>
<!-- Generator: Adobe Illustrator 25.0.0, SVG Export Plug-In . SVG Version: 6.00 Build 0)  -->
<svg version="1.1" id="图层_1" xmlns="http://www.w3.org/2000/svg" xmlns:xlink="http://www.w3.org/1999/xlink" x="0px" y="0px"
	 viewBox="0 0 793.7 793.7" style="enable-background:new 0 0 793.7 793.7;" xml:space="preserve">
<rect y="14" style="fill:#FFFFFF;" width="793.7" height="0.4"/>
<rect x="14" y="0" style="fill:#FFFFFF;" width="0.4" height="793.7"/>
<rect x="41.8" y="0" style="fill:#FFFFFF;" width="1.4" height="793.7"/>
<rect x="70.7" y="0" style="fill:#FFFFFF;" width="0.4" height="793.7"/>
<rect x="99" y="0" style="fill:#FFFFFF;" width="0.4" height="793.7"/>
<rect x="127.4" y="0" style="fill:#FFFFFF;" width="0.4" height="793.7"/>
<rect x="155.7" y="0" style="fill:#FFFFFF;" width="0.4" height="793.7"/>
<rect x="183.6" y="0" style="fill:#FFFFFF;" width="1.4" height="793.7"/>
<rect x="212.4" y="0" style="fill:#FFFFFF;" width="0.4" height="793.7"/>
<rect x="240.7" y="0" style="fill:#FFFFFF;" width="0.4" height="793.7"/>
<rect x="269.1" y="0" style="fill:#FFFFFF;" width="0.4" height="793.7"/>
<rect x="297.4" y="0" style="fill:#FFFFFF;" width="0.4" height="793.7"/>
<rect x="325.3" y="0" style="fill:#FFFFFF;" width="1.4" height="793.7"/>
<rect x="354.1" y="0" style="fill:#FFFFFF;" width="0.4" height="793.7"/>
<rect x="382.5" y="0" style="fill:#FFFFFF;" width="0.4" height="793.7"/>
<rect x="410.8" y="0" style="fill:#FFFFFF;" width="0.4" height="793.7"/>
<rect x="439.2" y="0" style="fill:#FFFFFF;" width="0.4" height="793.7"/>
<rect x="467" y="0" style="fill:#FFFFFF;" width="1.4" height="793.7"/>
<rect x="495.9" y="0" style="fill:#FFFFFF;" width="0.4" height="793.7"/>
<rect x="524.2" y="0" style="fill:#FFFFFF;" width="0.4" height="793.7"/>
<rect x="552.6" y="0" style="fill:#FFFFFF;" width="0.4" height="793.7"/>
<rect x="580.9" y="0" style="fill:#FFFFFF;" width="0.4" height="793.7"/>
<rect x="608.7" y="0" style="fill:#FFFFFF;" width="1.4" height="793.7"/>
<rect x="637.6" y="0" style="fill:#FFFFFF;" width="0.4" height="793.7"/>
<rect x="665.9" y="0" style="fill:#FFFFFF;" width="0.4" height="793.7"/>
<rect x="694.3" y="0" style="fill:#FFFFFF;" width="0.4" height="793.7"/>
<rect x="722.6" y="0" style="fill:#FFFFFF;" width="0.4" height="793.7"/>
<rect x="750.5" y="0" style="fill:#FFFFFF;" width="1.4" height="793.7"/>
<rect x="792.3" y="0" style="fill:#FFFFFF;" width="1.4" height="793.7"/>
<rect y="0" style="fill:#FFFFFF;" width="1.4" height="793.7"/>
<rect x="779.3" y="0" style="fill:#FFFFFF;" width="0.4" height="793.7"/>
<rect y="41.8" style="fill:#FFFFFF;" width="793.7" height="1.4"/>
<rect y="0" style="fill:#FFFFFF;" width="793.7" height="1.4"/>
<rect y="792.3" style="fill:#FFFFFF;" width="793.7" height="1.4"/>
<rect y="70.7" style="fill:#FFFFFF;" width="793.7" height="0.4"/>
<rect y="99" style="fill:#FFFFFF;" width="793.7" height="0.4"/>
<rect y="127.4" style="fill:#FFFFFF;" width="793.7" height="0.4"/>
<rect y="155.7" style="fill:#FFFFFF;" width="793.7" height="0.4"/>
<rect y="183.6" style="fill:#FFFFFF;" width="793.7" height="1.4"/>
<rect y="212.4" style="fill:#FFFFFF;" width="793.7" height="0.4"/>
<rect y="240.7" style="fill:#FFFFFF;" width="793.7" height="0.4"/>
<rect y="269.1" style="fill:#FFFFFF;" width="793.7" height="0.4"/>
<rect y="297.4" style="fill:#FFFFFF;" width="793.7" height="0.4"/>
<rect y="325.3" style="fill:#FFFFFF;" width="793.7" height="1.4"/>
<rect y="354.1" style="fill:#FFFFFF;" width="793.7" height="0.4"/>
<rect y="382.5" style="fill:#FFFFFF;" width="793.7" height="0.4"/>
<rect y="410.8" style="fill:#FFFFFF;" width="793.7" height="0.4"/>
<rect y="439.2" style="fill:#FFFFFF;" width="793.7" height="0.4"/>
<rect y="467" style="fill:#FFFFFF;" width="793.7" height="1.4"/>
<rect y="495.9" style="fill:#FFFFFF;" width="793.7" height="0.4"/>
<rect y="524.2" style="fill:#FFFFFF;" width="793.7" height="0.4"/>
<rect y="552.6" style="fill:#FFFFFF;" width="793.7" height="0.4"/>
<rect y="580.9" style="fill:#FFFFFF;" width="793.7" height="0.4"/>
<rect y="608.7" style="fill:#FFFFFF;" width="793.7" height="1.4"/>
<rect y="637.6" style="fill:#FFFFFF;" width="793.7" height="0.4"/>
<rect y="665.9" style="fill:#FFFFFF;" width="793.7" height="0.4"/>
<rect y="694.3" style="fill:#FFFFFF;" width="793.7" height="0.4"/>
<rect y="722.6" style="fill:#FFFFFF;" width="793.7" height="0.4"/>
<rect y="750.5" style="fill:#FFFFFF;" width="793.7" height="1.4"/>
<rect y="779.3" style="fill:#FFFFFF;" width="793.7" height="0.4"/>
</svg>
