<?xml version="1.0" encoding="utf-8"?>
<!-- Generator: Adobe Illustrator 25.0.0, SVG Export Plug-In . SVG Version: 6.00 Build 0)  -->
<svg version="1.1" id="图层_1_x5F_复制" xmlns="http://www.w3.org/2000/svg" xmlns:xlink="http://www.w3.org/1999/xlink"
	 x="0px" y="0px" width="864.6px" height="864.6px" viewBox="0 0 864.6 864.6" enable-background="new 0 0 864.6 864.6"
	 xml:space="preserve">
<rect x="0" y="843.1" fill="#FFFFFF" width="830.6" height="0.4"/>
<rect x="0.4" y="814.8" fill="#FFFFFF" width="863.1" height="0.4"/>
<rect x="0" y="785.9" fill="#FFFFFF" width="863.8" height="1.4"/>
<rect x="0" y="758.1" fill="#FFFFFF" width="863.8" height="0.4"/>
<rect x="0" y="729.7" fill="#FFFFFF" width="863.8" height="0.4"/>
<rect x="0" y="701.4" fill="#FFFFFF" width="863.8" height="0.4"/>
<rect x="0" y="673" fill="#FFFFFF" width="863.8" height="0.4"/>
<rect x="0" y="644.2" fill="#FFFFFF" width="863.8" height="1.4"/>
<rect x="0" y="616.3" fill="#FFFFFF" width="863.8" height="0.4"/>
<rect x="0" y="588" fill="#FFFFFF" width="863.8" height="0.4"/>
<rect x="0" y="559.6" fill="#FFFFFF" width="863.8" height="0.4"/>
<rect x="0" y="531.3" fill="#FFFFFF" width="863.8" height="0.4"/>
<rect x="0" y="502.4" fill="#FFFFFF" width="863.8" height="1.4"/>
<rect x="0.1" y="474.6" fill="#FFFFFF" width="863.7" height="0.4"/>
<rect x="0" y="446.3" fill="#FFFFFF" width="863.8" height="0.4"/>
<rect x="0.1" y="417.9" fill="#FFFFFF" width="863.7" height="0.4"/>
<rect x="0" y="389.6" fill="#FFFFFF" width="863.8" height="0.4"/>
<rect x="0" y="360.7" fill="#FFFFFF" width="863.8" height="1.4"/>
<rect x="0" y="332.9" fill="#FFFFFF" width="863.8" height="0.4"/>
<rect x="0" y="304.5" fill="#FFFFFF" width="863.8" height="0.4"/>
<rect x="0" y="276.2" fill="#FFFFFF" width="863.8" height="0.4"/>
<rect x="0" y="247.8" fill="#FFFFFF" width="863.8" height="0.4"/>
<rect x="0" y="219" fill="#FFFFFF" width="863.8" height="1.4"/>
<rect x="0" y="191.1" fill="#FFFFFF" width="863.8" height="0.4"/>
<rect x="0" y="162.8" fill="#FFFFFF" width="863.8" height="0.4"/>
<rect x="0" y="134.4" fill="#FFFFFF" width="863.8" height="0.4"/>
<rect x="0" y="106.1" fill="#FFFFFF" width="863.8" height="0.4"/>
<rect x="0" y="77.3" fill="#FFFFFF" width="863.8" height="1.4"/>
<rect y="863.2" fill="#FFFFFF" width="830.6" height="1.4"/>
<rect x="141.7" fill="#FFFFFF" width="722.8" height="1.4"/>
<rect y="14.2" fill="#FFFFFF" width="141.7" height="1.4"/>
<rect x="829.2" y="834.8" fill="#FFFFFF" width="35.4" height="1.4"/>
<rect x="829.2" y="834.8" fill="#FFFFFF" width="1.4" height="29.7"/>
<rect x="141.7" y="0" fill="#FFFFFF" width="1.4" height="15.6"/>
<rect x="0" y="14.5" fill="#FFFFFF" width="1.4" height="850"/>
<rect x="863.2" fill="#FFFFFF" width="1.4" height="836.2"/>
<rect x="0" y="49.4" fill="#FFFFFF" width="863.8" height="0.4"/>
<rect x="0" y="21.1" fill="#FFFFFF" width="864.6" height="0.4"/>
<rect x="21.1" y="15.2" fill="#FFFFFF" width="0.4" height="849.3"/>
<rect x="49.4" y="15.2" fill="#FFFFFF" width="0.4" height="849.3"/>
<rect x="77.3" y="15.2" fill="#FFFFFF" width="1.4" height="849.3"/>
<rect x="106.1" y="15.2" fill="#FFFFFF" width="0.4" height="849.3"/>
<rect x="134.4" y="15.2" fill="#FFFFFF" width="0.4" height="849.3"/>
<rect x="162.8" y="0" fill="#FFFFFF" width="0.4" height="864.6"/>
<rect x="191.1" y="0" fill="#FFFFFF" width="0.4" height="864.6"/>
<rect x="219" y="0" fill="#FFFFFF" width="1.4" height="864.6"/>
<rect x="247.8" y="0" fill="#FFFFFF" width="0.4" height="864.6"/>
<rect x="276.2" y="0" fill="#FFFFFF" width="0.4" height="864.6"/>
<rect x="304.5" y="0" fill="#FFFFFF" width="0.4" height="864.6"/>
<rect x="332.9" y="0" fill="#FFFFFF" width="0.4" height="864.6"/>
<rect x="360.7" y="0" fill="#FFFFFF" width="1.4" height="864.6"/>
<rect x="389.6" y="0" fill="#FFFFFF" width="0.4" height="864.6"/>
<rect x="417.9" y="0" fill="#FFFFFF" width="0.4" height="864.6"/>
<rect x="446.3" y="0" fill="#FFFFFF" width="0.4" height="864.6"/>
<rect x="474.6" y="0" fill="#FFFFFF" width="0.4" height="864.6"/>
<rect x="502.4" y="0" fill="#FFFFFF" width="1.4" height="864.6"/>
<rect x="531.3" y="0" fill="#FFFFFF" width="0.4" height="864.6"/>
<rect x="559.6" y="0" fill="#FFFFFF" width="0.4" height="864.6"/>
<rect x="588" y="0" fill="#FFFFFF" width="0.4" height="864.6"/>
<rect x="616.3" y="0" fill="#FFFFFF" width="0.4" height="864.6"/>
<rect x="644.2" y="0" fill="#FFFFFF" width="1.4" height="864.6"/>
<rect x="673" y="0" fill="#FFFFFF" width="0.4" height="864.6"/>
<rect x="701.4" y="0" fill="#FFFFFF" width="0.4" height="864.6"/>
<rect x="729.7" y="0" fill="#FFFFFF" width="0.4" height="864.6"/>
<rect x="758.1" y="0" fill="#FFFFFF" width="0.4" height="864.6"/>
<rect x="785.9" y="0" fill="#FFFFFF" width="1.4" height="864.6"/>
<rect x="814.8" y="0" fill="#FFFFFF" width="0.4" height="864.6"/>
<rect x="843.1" y="0" fill="#FFFFFF" width="0.4" height="835.3"/>
</svg>
