<?xml version="1.0" encoding="utf-8"?>
<!-- Generator: Adobe Illustrator 25.0.0, SVG Export Plug-In . SVG Version: 6.00 Build 0)  -->
<svg version="1.1" id="图层_1" xmlns="http://www.w3.org/2000/svg" xmlns:xlink="http://www.w3.org/1999/xlink" x="0px" y="0px"
	 viewBox="0 0 496.1 510.2" style="enable-background:new 0 0 496.1 510.2;" xml:space="preserve">
<rect x="0" y="14" style="fill:#FFFFFF;" width="496.1" height="0.4"/>
<rect x="0" y="41.8" style="fill:#FFFFFF;" width="496.1" height="1.4"/>
<rect x="0" style="fill:#FFFFFF;" width="496.1" height="1.4"/>
<rect x="0" y="508.8" style="fill:#FFFFFF;" width="496.1" height="1.4"/>
<rect x="0" y="70.7" style="fill:#FFFFFF;" width="496.1" height="0.4"/>
<rect x="0" y="99" style="fill:#FFFFFF;" width="496.1" height="0.4"/>
<rect x="0" y="127.4" style="fill:#FFFFFF;" width="496.1" height="0.4"/>
<rect x="0" y="155.7" style="fill:#FFFFFF;" width="496.1" height="0.4"/>
<rect x="0" y="183.6" style="fill:#FFFFFF;" width="496.1" height="1.4"/>
<rect x="0" y="212.4" style="fill:#FFFFFF;" width="496.1" height="0.4"/>
<rect x="0" y="240.7" style="fill:#FFFFFF;" width="496.1" height="0.4"/>
<rect x="0" y="269.1" style="fill:#FFFFFF;" width="496.1" height="0.4"/>
<rect x="0" y="297.4" style="fill:#FFFFFF;" width="496.1" height="0.4"/>
<rect x="0" y="325.3" style="fill:#FFFFFF;" width="496.1" height="1.4"/>
<rect x="0" y="354.1" style="fill:#FFFFFF;" width="496.1" height="0.4"/>
<rect x="0" y="382.5" style="fill:#FFFFFF;" width="496.1" height="0.4"/>
<rect x="0" y="410.8" style="fill:#FFFFFF;" width="496.1" height="0.4"/>
<rect x="0" y="439.2" style="fill:#FFFFFF;" width="496.1" height="0.4"/>
<rect x="0" y="467" style="fill:#FFFFFF;" width="496.1" height="1.4"/>
<rect x="0" y="495.9" style="fill:#FFFFFF;" width="496.1" height="0.4"/>
<rect x="6.9" y="0" style="fill:#FFFFFF;" width="0.4" height="510.2"/>
<rect x="34.7" y="0" style="fill:#FFFFFF;" width="1.4" height="510.2"/>
<rect x="63.6" y="0" style="fill:#FFFFFF;" width="0.4" height="510.2"/>
<rect x="91.9" y="0" style="fill:#FFFFFF;" width="0.4" height="510.2"/>
<rect x="120.3" y="0" style="fill:#FFFFFF;" width="0.4" height="510.2"/>
<rect x="148.6" y="0" style="fill:#FFFFFF;" width="0.4" height="510.2"/>
<rect x="176.5" y="0" style="fill:#FFFFFF;" width="1.4" height="510.2"/>
<rect x="205.3" y="0" style="fill:#FFFFFF;" width="0.4" height="510.2"/>
<rect x="233.7" y="0" style="fill:#FFFFFF;" width="0.4" height="510.2"/>
<rect x="262" y="0" style="fill:#FFFFFF;" width="0.4" height="510.2"/>
<rect x="290.4" y="0" style="fill:#FFFFFF;" width="0.4" height="510.2"/>
<rect x="318.2" y="0" style="fill:#FFFFFF;" width="1.4" height="510.2"/>
<rect x="347" y="0" style="fill:#FFFFFF;" width="0.4" height="510.2"/>
<rect x="375.4" y="0" style="fill:#FFFFFF;" width="0.4" height="510.2"/>
<rect x="403.7" y="0" style="fill:#FFFFFF;" width="0.4" height="510.2"/>
<rect x="432.1" y="0" style="fill:#FFFFFF;" width="0.4" height="510.2"/>
<rect x="459.9" y="0" style="fill:#FFFFFF;" width="1.4" height="510.2"/>
<rect x="494.7" y="0" style="fill:#FFFFFF;" width="1.4" height="510.2"/>
<rect y="0" style="fill:#FFFFFF;" width="1.4" height="510.2"/>
<rect x="488.8" y="0" style="fill:#FFFFFF;" width="0.4" height="510.2"/>
</svg>
