<?xml version="1.0" standalone="no"?><!DOCTYPE svg PUBLIC "-//W3C//DTD SVG 1.1//EN" "http://www.w3.org/Graphics/SVG/1.1/DTD/svg11.dtd"><svg t="1687832492956" class="icon" viewBox="0 0 1024 1024" version="1.1" xmlns="http://www.w3.org/2000/svg" p-id="10887" xmlns:xlink="http://www.w3.org/1999/xlink" width="200" height="200"><path d="M972.146238 0.005962h-3.629346c-15.683959 0.907336-246.277047 15.683959-374.341111 93.714898-27.479334 16.850535-36.16384 49.12579-41.867098 104.602935a94.362995 94.362995 0 0 0-67.920617-31.627158 85.16001 85.16001 0 0 0-52.625517 18.924447c-47.051878 37.330416-207.391197 171.356977-277.256107 332.862872C68.698334 717.320267 82.826859 863.66068 83.474957 869.752797c0 1.555434 0.907336 2.981248 1.166575 4.536682-47.959214 61.439642-77.123602 104.732555-80.364089 109.398857a25.9239 25.9239 0 0 0 7.129073 35.515743A25.9239 25.9239 0 0 0 25.9239 1024a25.9239 25.9239 0 0 0 21.387217-11.406516c0-1.036956 27.479334-40.830142 72.716539-98.899677h1.685053A250.295251 250.295251 0 0 0 181.467298 920.304401c99.547775 0 305.902016-38.88585 570.325793-296.958271C987.570958 393.012282 1019.716594 99.294498 1023.086701 58.723595A47.829595 47.829595 0 0 0 1023.994038 51.853762a51.070082 51.070082 0 0 0-51.8478-51.8478zM716.406968 586.404573C461.575034 835.533249 267.405025 868.456602 181.467298 868.456602c-10.499179 0-18.794827 0-25.9239-1.166576 87.363542-107.195325 220.353147-251.202588 368.378615-349.972645a25.9239 25.9239 0 0 0-28.51629-42.644815c-145.173838 97.214624-272.200947 232.148522-361.89764 338.825369a795.215623 795.215623 0 0 1 67.531759-274.274859c64.809749-151.136335 221.001245-280.626214 262.220245-312.901469a33.182592 33.182592 0 0 1 20.998359-8.166029c45.237205 0 81.401045 108.750759 100.195872 108.75076h1.944293c16.202437-7.517931 9.591843-173.560508 34.349167-188.72599C741.034672 64.815712 972.146238 51.853762 972.146238 51.853762s-19.054066 303.180007-255.73927 534.550811z" fill="#4479FB" p-id="10888"></path></svg>