<?xml version="1.0" encoding="utf-8"?>
<!-- Generator: Adobe Illustrator 25.0.0, SVG Export Plug-In . SVG Version: 6.00 Build 0)  -->
<svg version="1.1" id="图层_1" xmlns="http://www.w3.org/2000/svg" xmlns:xlink="http://www.w3.org/1999/xlink" x="0px" y="0px"
	 width="20px" height="20px" viewBox="0 0 20 20" enable-background="new 0 0 20 20" xml:space="preserve">
<path fill="#4479FB" d="M19,0L19,0c-0.4,0-4.9,0.3-7.4,1.8c-0.5,0.3-0.7,1-0.8,2C10.4,3.5,10,3.3,9.5,3.3c-0.4,0-0.7,0.1-1,0.4
	C7.5,4.4,4.4,7,3,10.1C1.3,14,1.6,16.9,1.6,17c0,0,0,0.1,0,0.1c-0.9,1.2-1.5,2-1.6,2.1c-0.1,0.2-0.1,0.5,0.1,0.7
	C0.3,20,0.4,20,0.5,20c0.2,0,0.3-0.1,0.4-0.2c0,0,0.5-0.8,1.4-1.9h0C2.8,17.9,3.2,18,3.5,18c1.9,0,6-0.8,11.1-5.8
	c4.6-4.5,5.2-10.2,5.3-11c0,0,0-0.1,0-0.1C20,0.5,19.6,0,19,0C19,0,19,0,19,0z M14,11.5C9,16.3,5.2,17,3.5,17c-0.2,0-0.4,0-0.5,0
	c1.7-2.1,4.3-4.9,7.2-6.8c0.2-0.2,0.2-0.5,0-0.7c-0.1-0.2-0.4-0.2-0.6-0.1c-2.8,1.9-5.3,4.5-7.1,6.6c0.1-1.9,0.6-3.7,1.3-5.4
	c1.3-3,4.3-5.5,5.1-6.1c0.1-0.1,0.3-0.2,0.4-0.2c0.9,0,1.6,2.1,2,2.1h0c0.3-0.1,0.2-3.4,0.7-3.7C14.5,1.3,19,1,19,1
	S18.6,6.9,14,11.5L14,11.5z"/>
</svg>
