<?xml version="1.0" encoding="utf-8"?>
<!-- Generator: Adobe Illustrator 25.0.0, SVG Export Plug-In . SVG Version: 6.00 Build 0)  -->
<svg version="1.1" id="图层_1" xmlns="http://www.w3.org/2000/svg" xmlns:xlink="http://www.w3.org/1999/xlink" x="0px" y="0px"
	 viewBox="0 0 128 128" enable-background="new 0 0 128 128" xml:space="preserve">
<g>
	<path fill="#174CCE" d="M5.5,24.6v68.3l15.9-41.4c1-2.4,3.3-4,6-4h76.2v-8.6H51.1c-1.2,0-2.2-1-2.2-2.2V29c0-4.2-3.4-7.5-7.5-7.5
		H8.7C6.9,21.5,5.5,22.9,5.5,24.6z"/>
	<path fill="#174CCE" d="M28.9,53.1h91.7c1.3,0,2.2,1.3,1.8,2.5l-15.1,42c-1.9,5.4-7.1,9-12.8,9H9.5c-1.7,0-2.9-1.7-2.3-3.3l19-48.3
		C26.6,53.8,27.7,53.1,28.9,53.1z"/>
</g>
</svg>
