<?xml version="1.0" encoding="utf-8"?>
<!-- Generator: Adobe Illustrator 25.0.0, SVG Export Plug-In . SVG Version: 6.00 Build 0)  -->
<svg version="1.1" id="图层_1" xmlns="http://www.w3.org/2000/svg" xmlns:xlink="http://www.w3.org/1999/xlink" x="0px" y="0px"
	 viewBox="0 0 128 128" enable-background="new 0 0 128 128" xml:space="preserve">
<path fill="#174CCE" d="M57.6,106.5c-13.7,0-27.4,0-41.1,0c-7.2,0-11-3.6-11-10.8c0-22.6,0-39.5,0-62.1c0-7.7,4.4-12,12.1-12
	c7.3,0,30.6,0,37.9,0c7.6,0,9.1,9.7,10.8,14.2c1.1,3,3.1,3.6,6,3.6c13.5-0.2,23.8-0.1,37.3-0.1c8.5,0,12.7,4.2,12.7,12.7
	c0,18.8,0,24.1,0,42.8c0,8.1-3.5,11.6-11.5,11.6C97.4,106.5,71.1,106.5,57.6,106.5z"/>
<g>
</g>
<g>
</g>
<g>
</g>
<g>
</g>
<g>
</g>
<g>
</g>
</svg>
