<?xml version="1.0" encoding="utf-8"?>
<!-- Generator: Adobe Illustrator 25.0.0, SVG Export Plug-In . SVG Version: 6.00 Build 0)  -->
<svg version="1.1" id="图层_1" xmlns="http://www.w3.org/2000/svg" xmlns:xlink="http://www.w3.org/1999/xlink" x="0px" y="0px"
	 viewBox="0 0 16 16" enable-background="new 0 0 16 16" xml:space="preserve">
<path fill="#808080" d="M2,1v4h4v10h4V5h4V1H2z M3.1,2h1.4l2,2H5.1L3.1,2z M5.2,2h1.4L9,4.3v1.4L5.2,2z M7.4,2h1.4l2,2H9.4L7.4,2z
	 M9.5,2h1.4l2,2h-1.4L9.5,2z M11.6,2H13v1.4L11.6,2z M3,2.6L4.4,4H3V2.6z M7,4.5l2,2v1.4l-2-2V4.5z M7,6.6l2,2V10L7,8V6.6z M7,8.7
	l2,2v1.4l-2-2V8.7z M7,10.8l2,2V14H8.8L7,12.2V10.8z M7,13l1,1H7V13z"/>
<path fill="#4479FB" d="M3.5,10C2.1,10,1,11.1,1,12.5S2.1,15,3.5,15S6,13.9,6,12.5S4.9,10,3.5,10z M3.6,11c0.7,0.1,1.3,0.6,1.4,1.4
	L3.6,11z M3,11l1.9,2c-0.1,0.3-0.3,0.6-0.6,0.8l-2.1-2.1C2.4,11.4,2.7,11.1,3,11L3,11z M2,12.2L3.8,14c-0.1,0-0.2,0-0.3,0
	C2.7,14,2,13.3,2,12.5C2,12.4,2,12.3,2,12.2z"/>
</svg>
