<?xml version="1.0" encoding="utf-8"?>
<!-- Generator: Adobe Illustrator 25.0.0, SVG Export Plug-In . SVG Version: 6.00 Build 0)  -->
<svg version="1.1" id="图层_1" xmlns="http://www.w3.org/2000/svg" xmlns:xlink="http://www.w3.org/1999/xlink" x="0px" y="0px"
	 viewBox="0 0 16 16" enable-background="new 0 0 16 16" xml:space="preserve">
<path fill="#808080" d="M1,0v4.7L3.4,7H7v7.3l-1-1V7.5H5v6L7.5,16H12V7h4V2.5L13.6,0H1z M2.7,1h10.6l1,1H3.7L2.7,1z M2,1.7l1,1v2.7
	l-1-1V1.7z M4,3h11v3h-4v9H8V6H4V3z"/>
<path fill="#4479FB" d="M2.5,10C2,10,2,10.5,2,11v1H1c-0.5,0-1,0-1,0.5S0.5,13,1,13h1v1c0,0.5,0,1,0.5,1S3,14.5,3,14v-1h1
	c0.5,0,1,0,1-0.5S4.5,12,4,12H3v-1C3,10.5,3,10,2.5,10z"/>
</svg>
