<?xml version="1.0" encoding="utf-8"?>
<!-- Generator: Adobe Illustrator 25.0.0, SVG Export Plug-In . SVG Version: 6.00 Build 0)  -->
<svg version="1.1" id="图层_1" xmlns="http://www.w3.org/2000/svg" xmlns:xlink="http://www.w3.org/1999/xlink" x="0px" y="0px"
	 viewBox="0 0 16 16" enable-background="new 0 0 16 16" xml:space="preserve">
<path fill="#808080" d="M0,0v6h5v10h5.3H11v-0.7V6h5V0H0z M1,1h14v3.3l-1-1V1.5h-1V3H8v10H6.5v1h1.8l1,1H6V5L4,3H1.5v1h2.1l1,1H1V1z
	 M9.7,4h3.6l1,1h-3.6L9.7,4z M9,4.7l1,1v8.6l-1-1V4.7z"/>
<path fill="#4479FB" d="M1,12c-0.5,0-1,0-1,0.5S0.5,13,1,13h3c0.5,0,1,0,1-0.5S4.5,12,4,12H1z"/>
</svg>
