<?xml version="1.0" encoding="utf-8"?>
<!-- Generator: Adobe Illustrator 25.0.0, SVG Export Plug-In . SVG Version: 6.00 Build 0)  -->
<svg version="1.1" id="图层_1" xmlns="http://www.w3.org/2000/svg" xmlns:xlink="http://www.w3.org/1999/xlink" x="0px" y="0px"
	 viewBox="0 0 16 16" enable-background="new 0 0 16 16" xml:space="preserve">
<g id="add_x5F_modifer_3_">
	<path fill="#4479FB" d="M11.2,1.2c-1.9,0-3.5,1.6-3.5,3.5s1.6,3.5,3.5,3.5c1.9,0,3.5-1.6,3.5-3.5C14.7,2.8,13.2,1.2,11.2,1.2z"/>
	<path fill="#4479FB" d="M11.2,9.5c-2.6,0-4.7-2.1-4.7-4.7c0-0.2,0-0.3,0-0.5H2.8C1.9,4.3,1.2,5,1.2,5.9v7.3c0,0.9,0.7,1.6,1.6,1.6
		h7.3c0.9,0,1.6-0.7,1.6-1.6V9.4C11.5,9.4,11.4,9.5,11.2,9.5z"/>
</g>
<g>
</g>
<g>
</g>
<g>
</g>
<g>
</g>
<g>
</g>
<g>
</g>
</svg>
