<?xml version="1.0" encoding="utf-8"?>
<!-- Generator: Adobe Illustrator 25.0.0, SVG Export Plug-In . SVG Version: 6.00 Build 0)  -->
<svg version="1.1" id="图层_1" xmlns="http://www.w3.org/2000/svg" xmlns:xlink="http://www.w3.org/1999/xlink" x="0px" y="0px"
	 viewBox="0 0 16 16" enable-background="new 0 0 16 16" xml:space="preserve">
<g id="add_x5F_modifer_6_">
	<path fill="#4479FB" d="M11.1,9.4c-2.5,0-4.5-2-4.5-4.5c0-0.1,0-0.3,0-0.4H3c-0.8,0-1.5,0.7-1.5,1.5v7c0,0.8,0.7,1.5,1.5,1.5h7
		c0.8,0,1.5-0.7,1.5-1.5V9.4C11.4,9.4,11.3,9.4,11.1,9.4z"/>
	<path fill="#4479FB" d="M13.8,5.1V4.5l0.6-0.4C14.4,3.7,14.2,3.3,14,3l-0.8,0.1l-0.4-0.4L13,2c-0.3-0.2-0.7-0.4-1.1-0.5l-0.4,0.6
		h-0.6l-0.4-0.6C10,1.6,9.6,1.8,9.3,2l0.1,0.8L9,3.2L8.3,3C8,3.4,7.9,3.7,7.8,4.1l0.6,0.4v0.6L7.8,5.6C7.9,6,8.1,6.4,8.3,6.7L9,6.6
		L9.5,7L9.3,7.7c0.3,0.2,0.7,0.4,1.1,0.5l0.4-0.6h0.6l0.4,0.6c0.4-0.1,0.8-0.2,1.1-0.5l-0.1-0.8l0.4-0.4L14,6.7
		c0.2-0.3,0.4-0.7,0.5-1.1L13.8,5.1z M11.1,6.2c-0.7,0-1.3-0.6-1.3-1.3s0.6-1.3,1.3-1.3c0.7,0,1.3,0.6,1.3,1.3S11.9,6.2,11.1,6.2z"
		/>
</g>
<g>
</g>
<g>
</g>
<g>
</g>
<g>
</g>
<g>
</g>
<g>
</g>
</svg>
