<?xml version="1.0" encoding="utf-8"?>
<!-- Generator: Adobe Illustrator 25.0.0, SVG Export Plug-In . SVG Version: 6.00 Build 0)  -->
<svg version="1.1" id="图层_1" xmlns="http://www.w3.org/2000/svg" xmlns:xlink="http://www.w3.org/1999/xlink" x="0px" y="0px"
	 viewBox="0 0 128 128" enable-background="new 0 0 128 128" xml:space="preserve">
<g>
	<g>
		<path fill="#174CCE" d="M31.3,47.5c0-5.4,0-10.8,0-16.2c13.6,0,27.2,0,40.9,0c0,5.4,0,10.8,0,16.2C58.6,47.5,45,47.5,31.3,47.5z"
			/>
		<path fill="#174CCE" d="M31.3,55.9c5.4,0,10.8,0,16.3,0c0,13.6,0,27.2,0,40.9c-5.4,0-10.8,0-16.3,0C31.3,83.2,31.3,69.6,31.3,55.9
			z"/>
		<path fill="#174CCE" d="M72.2,55.8c0,13.6,0,27.1,0,40.8c-5.4,0-10.8,0-16.3,0c0-13.6,0-27.1,0-40.8
			C61.3,55.8,66.7,55.8,72.2,55.8z"/>
		<path fill="#174CCE" d="M80.5,47.5c0-5.4,0-10.8,0-16.2c5.4,0,10.8,0,16.3,0c0,5.4,0,10.8,0,16.2C91.3,47.5,86,47.5,80.5,47.5z"/>
		<path fill="#174CCE" d="M96.8,96.7c-5.5,0-10.8,0-16.3,0c0-5.4,0-10.8,0-16.3c5.4,0,10.8,0,16.3,0C96.8,85.9,96.8,91.2,96.8,96.7z
			"/>
		<path fill="#174CCE" d="M80.5,72.1c0-5.4,0-10.8,0-16.2c5.4,0,10.8,0,16.3,0c0,5.4,0,10.8,0,16.2C91.3,72.1,85.9,72.1,80.5,72.1z"
			/>
	</g>
	<g>
		<path fill="#174CCE" d="M108.3,13.5c3.4,0,6.2,2.8,6.2,6.2v88.6c0,3.4-2.8,6.2-6.2,6.2H19.7c-3.4,0-6.2-2.8-6.2-6.2V19.7
			c0-3.4,2.8-6.2,6.2-6.2H108.3 M108.3,5.5H19.7c-7.8,0-14.2,6.3-14.2,14.2v88.6c0,7.8,6.3,14.2,14.2,14.2h88.6
			c7.8,0,14.2-6.3,14.2-14.2V19.7C122.5,11.9,116.2,5.5,108.3,5.5L108.3,5.5z"/>
	</g>
</g>
</svg>
