<?xml version="1.0" encoding="utf-8"?>
<!-- Generator: Adobe Illustrator 25.0.0, SVG Export Plug-In . SVG Version: 6.00 Build 0)  -->
<svg version="1.1" id="图层_1" xmlns="http://www.w3.org/2000/svg" xmlns:xlink="http://www.w3.org/1999/xlink" x="0px" y="0px"
	 viewBox="0 0 16 16" enable-background="new 0 0 16 16" xml:space="preserve">
<g>
	<g>
		<g>
			<path fill="#ED0000" d="M8,9.4C7.2,9.4,6.6,8.8,6.6,8V4.3C6.6,3.6,7.2,3,8,3s1.4,0.6,1.4,1.4V8C9.4,8.8,8.8,9.4,8,9.4z"/>
		</g>
		<circle fill="#ED0000" cx="8" cy="11.7" r="1.4"/>
	</g>
	<path fill="#ED0000" d="M8,1.9c3.3,0,6.1,2.7,6.1,6.1c0,3.3-2.7,6.1-6.1,6.1S1.9,11.3,1.9,8C1.9,4.7,4.7,1.9,8,1.9 M8,0.9
		C4.1,0.9,0.9,4.1,0.9,8c0,3.9,3.2,7.1,7.1,7.1c3.9,0,7.1-3.2,7.1-7.1C15.1,4.1,11.9,0.9,8,0.9L8,0.9z"/>
</g>
<g>
</g>
<g>
</g>
<g>
</g>
<g>
</g>
<g>
</g>
<g>
</g>
</svg>
