<?xml version="1.0" encoding="utf-8"?>
<!-- Generator: Adobe Illustrator 25.0.0, SVG Export Plug-In . SVG Version: 6.00 Build 0)  -->
<svg version="1.1" id="图层_1" xmlns="http://www.w3.org/2000/svg" xmlns:xlink="http://www.w3.org/1999/xlink" x="0px" y="0px"
	 viewBox="0 0 16 16" enable-background="new 0 0 16 16" xml:space="preserve">
<g>
	<g>
		<path fill="#4479FB" d="M14.7,13.3l-4-4C12.3,7,11.8,3.7,9.4,2S3.7,0.9,2,3.3S0.9,9,3.3,10.7c1.8,1.3,4.2,1.3,6,0l4,4
			c0.4,0.4,1,0.3,1.3,0C15,14.3,15,13.7,14.7,13.3L14.7,13.3z M2.5,6.3c0-2.1,1.7-3.9,3.9-3.9s3.9,1.7,3.9,3.9s-1.7,3.9-3.9,3.9l0,0
			C4.2,10.2,2.5,8.5,2.5,6.3z"/>
	</g>
</g>
<g>
</g>
<g>
</g>
<g>
</g>
<g>
</g>
<g>
</g>
<g>
</g>
</svg>
