<?xml version="1.0" encoding="utf-8"?>
<!-- Generator: Adobe Illustrator 25.0.0, SVG Export Plug-In . SVG Version: 6.00 Build 0)  -->
<svg version="1.1" id="图层_1" xmlns="http://www.w3.org/2000/svg" xmlns:xlink="http://www.w3.org/1999/xlink" x="0px" y="0px"
	 width="16px" height="16px" viewBox="0 0 16 16" enable-background="new 0 0 16 16" xml:space="preserve">
<path fill="#808080" d="M10.3,12.6c-0.6-0.8-0.9-1.3-0.9-1.7c0-0.3-0.1-0.3-0.4,0.2c-0.2,0.3-0.2,0.8-0.1,1.2
	C8.3,11.9,7.6,10,7.7,9.1c-2.3,1.5-3,4.8-2.7,6.9c-2-1.4-3.7-3-3.7-5.4c0-2.5,2.5-4.1,2.6-6.4c0-0.8,0-0.8,0.6-0.1
	c0.8,1,1.4,1.9,1.1,3c0.5-0.4,0.7-1.1,0.9-1.7C6.9,3.4,6.7,1.6,6,0c2.6,0.7,4.6,3.6,4.6,5.7l0,0.5C11.3,5.2,12,4.4,13,4
	c-0.2,2.4,1.8,4.5,1.7,6.8S13.2,15.4,11,16C11.8,14.8,10.9,13.4,10.3,12.6z"/>
<path fill="#4479FB" d="M9,11.1c-0.2,0.3-0.2,0.8-0.1,1.2C8.3,12,7.7,10.4,7.7,9.5c0-0.2,0-0.3,0-0.3c0.8-2.5-1.8-2-1.2-3.7
	C6.9,3.4,6.7,1.6,6,0c2.6,0.7,4.6,3.6,4.6,5.7l0,0.5C10.6,7.7,10.6,8.7,9,11.1z"/>
</svg>
