<?xml version="1.0" encoding="utf-8"?>
<!-- Generator: Adobe Illustrator 25.0.0, SVG Export Plug-In . SVG Version: 6.00 Build 0)  -->
<svg version="1.1" id="图层_1" xmlns="http://www.w3.org/2000/svg" xmlns:xlink="http://www.w3.org/1999/xlink" x="0px" y="0px"
	 viewBox="0 0 16 16" enable-background="new 0 0 16 16" xml:space="preserve">
<g>
	<path fill="#808080" d="M11.6,2.1v4.1h-1.5H9.7L9.4,6.5L8,7.9L6.6,6.5L6.3,6.2H5.9H4.4V2.1H11.6 M12.5,1.1H3.4v6.1h2.5l2.1,2l2.1-2
		h2.5V1.1L12.5,1.1z"/>
	<polygon fill="#4479FB" points="4.1,14.9 5,14 3.4,12.5 8,12.5 8,11.3 3.4,11.3 5,9.8 4.1,8.9 1.1,11.9 	"/>
	<polygon fill="#4479FB" points="11.9,8.9 11,9.8 12.5,11.3 8,11.3 8,12.5 12.5,12.5 11,14 11.9,14.9 14.9,11.9 	"/>
</g>
<g>
</g>
<g>
</g>
<g>
</g>
<g>
</g>
<g>
</g>
<g>
</g>
</svg>
