<?xml version="1.0" encoding="utf-8"?>
<!-- Generator: Adobe Illustrator 25.0.0, SVG Export Plug-In . SVG Version: 6.00 Build 0)  -->
<svg version="1.1" id="图层_1" xmlns="http://www.w3.org/2000/svg" xmlns:xlink="http://www.w3.org/1999/xlink" x="0px" y="0px"
	 width="18px" height="18px" viewBox="0 0 18 18" enable-background="new 0 0 18 18" xml:space="preserve">
<g>
	<path fill="#C6C6C6" d="M2,16.5c-0.3,0-0.5-0.2-0.5-0.5V2c0-0.3,0.2-0.5,0.5-0.5h14c0.3,0,0.5,0.2,0.5,0.5v14
		c0,0.3-0.2,0.5-0.5,0.5H2z"/>
	<g>
		<path fill="#808080" d="M16,2l0,14L2,16L2,2H16 M16,1H2C1.4,1,1,1.4,1,2v14c0,0.5,0.4,1,1,1h14c0.5,0,1-0.4,1-1V2
			C17,1.4,16.6,1,16,1L16,1z"/>
	</g>
</g>
</svg>
