<?xml version="1.0" encoding="utf-8"?>
<!-- Generator: Adobe Illustrator 25.0.0, SVG Export Plug-In . SVG Version: 6.00 Build 0)  -->
<svg version="1.1" id="图层_1" xmlns="http://www.w3.org/2000/svg" xmlns:xlink="http://www.w3.org/1999/xlink" x="0px" y="0px"
	 width="18px" height="18px" viewBox="0 0 18 18" enable-background="new 0 0 18 18" xml:space="preserve">
<path fill="#174CCE" d="M16,17H2c-0.5,0-1-0.4-1-1V2c0-0.5,0.4-1,1-1h14c0.5,0,1,0.4,1,1v14C17,16.6,16.6,17,16,17z"/>
<path fill="#FFFFFF" d="M14,9.5H4C3.7,9.5,3.5,9.3,3.5,9v0c0-0.3,0.2-0.5,0.5-0.5h10c0.3,0,0.5,0.2,0.5,0.5v0
	C14.5,9.3,14.3,9.5,14,9.5z"/>
</svg>
