<?xml version="1.0" encoding="utf-8"?>
<!-- Generator: Adobe Illustrator 25.0.0, SVG Export Plug-In . SVG Version: 6.00 Build 0)  -->
<svg version="1.1" id="图层_1" xmlns="http://www.w3.org/2000/svg" xmlns:xlink="http://www.w3.org/1999/xlink" x="0px" y="0px"
	 viewBox="0 0 16 16" enable-background="new 0 0 16 16" xml:space="preserve">
<g>
	<path fill="#4479FB" d="M8,5.2C6.4,5.2,5.2,6.4,5.2,8s1.3,2.8,2.8,2.8c1.6,0,2.8-1.3,2.8-2.8S9.6,5.2,8,5.2z M8,9.7
		C7,9.7,6.3,8.9,6.3,8C6.3,7,7,6.3,8,6.3S9.7,7,9.7,8C9.7,8.9,8.9,9.7,8,9.7z"/>
	<path fill="#4479FB" d="M13.6,8.6V7.3L15,6.4c-0.2-0.8-0.5-1.6-1-2.3l-1.6,0.3l-0.9-0.9L11.8,2c-0.7-0.5-1.5-0.8-2.3-1L8.6,2.4H7.3
		L6.4,1C5.6,1.2,4.8,1.5,4.1,2l0.3,1.6L3.5,4.5L2,4.1C1.5,4.9,1.2,5.6,1,6.5l1.4,0.9v1.3L1,9.5c0.2,0.8,0.5,1.6,1,2.3l1.6-0.3
		l0.9,0.9L4.1,14c0.7,0.5,1.5,0.8,2.3,1l0.9-1.4h1.3L9.5,15c0.8-0.2,1.6-0.5,2.3-1l-0.3-1.6l0.9-0.9l1.6,0.3c0.5-0.7,0.8-1.5,1-2.3
		L13.6,8.6z M12.7,8c0,0.3,0,0.6-0.1,0.9l0.9,0.9l-0.2,0.8l-1.4-0.1c-0.4,0.6-0.8,1-1.4,1.4v1.3l-0.7,0.4L9,12.5
		c-0.3,0.1-0.7,0.1-1,0.1c-0.3,0-0.6,0-0.9-0.1l-1,1l-0.8-0.2l0.1-1.4c-0.5-0.3-1-0.8-1.4-1.3H2.8L2.3,9.9L3.4,9
		C3.4,8.7,3.3,8.3,3.3,8c0-0.3,0-0.6,0.1-0.9l-1-1l0.2-0.8L4,5.5c0.3-0.5,0.8-1,1.3-1.4V2.8L6,2.4l0.9,1.1C7.3,3.4,7.6,3.3,8,3.3
		c0.3,0,0.6,0,0.9,0.1l0.9-0.9l0.8,0.2L10.4,4c0.6,0.3,1.1,0.8,1.4,1.4h1.3L13.6,6l-1.1,0.9C12.6,7.3,12.7,7.6,12.7,8z"/>
</g>
<g>
</g>
<g>
</g>
<g>
</g>
<g>
</g>
<g>
</g>
<g>
</g>
</svg>
