<?xml version="1.0" encoding="utf-8"?>
<!-- Generator: Adobe Illustrator 25.0.0, SVG Export Plug-In . SVG Version: 6.00 Build 0)  -->
<svg version="1.1" id="图层_1" xmlns="http://www.w3.org/2000/svg" xmlns:xlink="http://www.w3.org/1999/xlink" x="0px" y="0px"
	 viewBox="0 0 16 16" enable-background="new 0 0 16 16" xml:space="preserve">
<g>
	<path fill="#4479FB" d="M8,15c-3.9,0-7-3.1-7-7s3.1-7,7-7s7,3.1,7,7S11.9,15,8,15z M8,2.4C4.9,2.4,2.4,4.9,2.4,8s2.5,5.6,5.6,5.6
		s5.6-2.5,5.6-5.6C13.6,4.9,11.1,2.4,8,2.4z"/>
	<polygon fill="#4479FB" points="11.5,7.2 8.8,7.2 8.8,4.5 7.2,4.5 7.2,7.2 4.5,7.2 4.5,8.8 7.2,8.8 7.2,11.5 8.8,11.5 8.8,8.8 
		11.5,8.8 	"/>
</g>
<g>
</g>
<g>
</g>
<g>
</g>
<g>
</g>
<g>
</g>
<g>
</g>
</svg>
