<?xml version="1.0" encoding="utf-8"?>
<!-- Generator: Adobe Illustrator 25.0.0, SVG Export Plug-In . SVG Version: 6.00 Build 0)  -->
<svg version="1.1" id="图层_1" xmlns="http://www.w3.org/2000/svg" xmlns:xlink="http://www.w3.org/1999/xlink" x="0px" y="0px"
	 viewBox="0 0 16 16" enable-background="new 0 0 16 16" xml:space="preserve">
<g>
	<g>
		<path fill="#4479FB" d="M4.9,7.8H1.5c-0.3,0-0.5-0.2-0.5-0.5s0.2-0.5,0.5-0.5h3.4c0.3,0,0.5,0.2,0.5,0.5S5.2,7.8,4.9,7.8z"/>
	</g>
	<g>
		<path fill="#4479FB" d="M4.9,13.4H1.5c-0.3,0-0.5-0.2-0.5-0.5c0-0.3,0.2-0.5,0.5-0.5h3.4c0.3,0,0.5,0.2,0.5,0.5
			C5.4,13.2,5.2,13.4,4.9,13.4z"/>
	</g>
	<g>
		<path fill="#4479FB" d="M13.1,2.5H1.5C1.3,2.5,1.1,2.3,1.1,2c0-0.3,0.2-0.5,0.5-0.5h11.6c0.3,0,0.5,0.2,0.5,0.5
			C13.6,2.3,13.4,2.5,13.1,2.5z"/>
	</g>
	<path fill="#4479FB" d="M14,10.2V9.3l0.9-0.6c-0.1-0.6-0.3-1.1-0.7-1.6l-1.1,0.2l-0.6-0.6l0.2-1c-0.5-0.3-1-0.5-1.6-0.6L10.6,6H9.8
		L9.2,5.1C8.7,5.2,8.1,5.4,7.7,5.8l0.2,1.1L7.3,7.4l-1-0.2c-0.3,0.5-0.5,1-0.6,1.6l0.9,0.6v0.8l-0.9,0.6c0.1,0.6,0.3,1.1,0.7,1.6
		l1.1-0.2l0.6,0.6l-0.2,1c0.5,0.3,1,0.5,1.6,0.6l0.6-0.9h0.8l0.6,0.9c0.6-0.1,1.1-0.3,1.6-0.7l-0.2-1.1l0.6-0.6l1,0.2
		c0.3-0.5,0.5-1,0.6-1.6L14,10.2z M9.4,11.4H8.7L7.4,8.2h0.8l0.8,2.1l0.7-2.1h0.8L9.4,11.4z M12.9,11c-0.1,0.1-0.3,0.3-0.5,0.3
		c-0.2,0.1-0.4,0.1-0.6,0.1c-0.3,0-0.6-0.1-0.8-0.2c-0.2-0.1-0.4-0.3-0.5-0.6l0.6-0.3c0.1,0.1,0.2,0.3,0.3,0.3
		c0.1,0.1,0.3,0.1,0.4,0.1c0.1,0,0.2,0,0.3-0.1c0.1,0,0.1-0.1,0.1-0.2c0-0.1,0-0.1-0.1-0.2c-0.1,0-0.1-0.1-0.2-0.1
		c-0.1,0-0.2-0.1-0.3-0.1c-0.2-0.1-0.4-0.1-0.5-0.2c-0.1-0.1-0.2-0.2-0.3-0.3c-0.1-0.1-0.1-0.3-0.1-0.5c0-0.2,0.1-0.4,0.2-0.6
		c0.1-0.1,0.3-0.3,0.4-0.3c0.2-0.1,0.4-0.1,0.6-0.1c0.3,0,0.5,0.1,0.7,0.2C12.8,8.4,13,8.6,13,8.9l-0.6,0.3c0-0.1-0.1-0.2-0.2-0.3
		c-0.1-0.1-0.2-0.1-0.4-0.1c-0.1,0-0.2,0-0.3,0.1c-0.1,0.1-0.1,0.1-0.1,0.2c0,0.1,0,0.1,0.1,0.2c0.1,0,0.1,0.1,0.2,0.1
		c0.1,0,0.2,0.1,0.3,0.1c0.2,0.1,0.4,0.1,0.5,0.2s0.2,0.2,0.3,0.3c0.1,0.1,0.1,0.3,0.1,0.5C13.1,10.7,13,10.9,12.9,11z"/>
</g>
<g>
</g>
<g>
</g>
<g>
</g>
<g>
</g>
<g>
</g>
<g>
</g>
</svg>
