<?xml version="1.0" encoding="utf-8"?>
<!-- Generator: Adobe Illustrator 25.0.0, SVG Export Plug-In . SVG Version: 6.00 Build 0)  -->
<svg version="1.1" id="图层_1" xmlns="http://www.w3.org/2000/svg" xmlns:xlink="http://www.w3.org/1999/xlink" x="0px" y="0px"
	 width="128px" height="128px" viewBox="0 0 128 128" enable-background="new 0 0 128 128" xml:space="preserve">
<path fill="#808080" d="M118.2,34.7L94.5,10.3c-1.2-1.3-2.9-2-4.7-2H50.9c-3.6,0-6.6,3-6.6,6.7v32.7l5.1-1.5V15
	c0-0.9,0.7-1.6,1.5-1.6h38.9c0.2,0,0.4,0.1,0.7,0.2v12.2H58.6c-1.4,0-2.5,1.1-2.5,2.5s1.1,2.5,2.5,2.5h31.9v7.9h24.4
	c0.1,0.2,0.1,0.4,0.1,0.6v53.9c0,0.9-0.7,1.6-1.5,1.6H50.9c-0.8,0-1.5-0.7-1.5-1.6v-9.2l-5.1,1.5v7.8c0,3.7,3,6.7,6.6,6.7h62.6
	c3.6,0,6.6-3,6.6-6.7V39.4C120.1,37.6,119.4,36,118.2,34.7z"/>
<g>
	<path fill="#808080" d="M102.3,46.9H58.6c-1.4,0-2.5-1.1-2.5-2.5c0-1.4,1.1-2.5,2.5-2.5h43.7c1.4,0,2.5,1.1,2.5,2.5
		C104.9,45.7,103.7,46.9,102.3,46.9z"/>
</g>
<g>
	<path fill="#808080" d="M68.1,112.1H24.4c-1.4,0-2.5-1.1-2.5-2.5c0-1.4,1.1-2.5,2.5-2.5h43.7c1.4,0,2.5,1.1,2.5,2.5
		C70.6,110.9,69.5,112.1,68.1,112.1z"/>
</g>
<g>
	<path fill="#808080" d="M102.3,62.9H78.6c-1.4,0-2.5-1.1-2.5-2.5c0-1.4,1.1-2.5,2.5-2.5h23.7c1.4,0,2.5,1.1,2.5,2.5
		C104.9,61.7,103.7,62.9,102.3,62.9z"/>
</g>
<g>
	<path fill="#808080" d="M102.3,78.9H86.7c-1.4,0-2.5-1.1-2.5-2.5c0-1.4,1.1-2.5,2.5-2.5h15.6c1.4,0,2.5,1.1,2.5,2.5
		C104.9,77.8,103.7,78.9,102.3,78.9z"/>
</g>
<g>
	<path fill="#808080" d="M77.5,120.1H14.9c-3.6,0-6.6-3-6.6-6.7V35c0-3.7,3-6.7,6.6-6.7h31.9v5.1H14.9c-0.8,0-1.5,0.7-1.5,1.6v78.3
		c0,0.9,0.7,1.6,1.5,1.6h62.6c0.8,0,1.5-0.7,1.5-1.6V97.5h5.1v15.8C84.1,117.1,81.2,120.1,77.5,120.1z"/>
</g>
<g>
	<path fill="#808080" d="M39.9,46.9H24.2c-1.4,0-2.5-1.1-2.5-2.5c0-1.4,1.1-2.5,2.5-2.5h15.6c1.4,0,2.5,1.1,2.5,2.5
		C42.4,45.7,41.3,46.9,39.9,46.9z"/>
</g>
<g>
	<path fill="#808080" d="M39.9,59.1H24.2c-1.4,0-2.5-1.1-2.5-2.5s1.1-2.5,2.5-2.5h15.6c1.4,0,2.5,1.1,2.5,2.5S41.3,59.1,39.9,59.1z"
		/>
</g>
<path id="path1427_2_" fill="#4479FB" d="M61.9,43.3L84,65.4L61.9,87.5L56.4,82l12.7-12.7H51.4c-8.6,0-15.5,7-15.5,15.5v15.5h-7.8
	V84.9c0-12.9,10.4-23.3,23.3-23.3h17.8L56.4,48.8L61.9,43.3z"/>
</svg>
