<?xml version="1.0" encoding="UTF-8" standalone="no"?>
<!-- Generator: Adobe Illustrator 23.0.3, SVG Export Plug-In . SVG Version: 6.00 Build 0)  -->

<svg
   version="1.0"
   id="Layer_1"
   x="0px"
   y="0px"
   viewBox="0 0 128 128"
   enable-background="new 0 0 128 128"
   xml:space="preserve"
   sodipodi:docname="convert_file.svg"
   inkscape:version="1.1 (c68e22c387, 2021-05-23)"
   xmlns:inkscape="http://www.inkscape.org/namespaces/inkscape"
   xmlns:sodipodi="http://sodipodi.sourceforge.net/DTD/sodipodi-0.dtd"
   xmlns="http://www.w3.org/2000/svg"
   xmlns:svg="http://www.w3.org/2000/svg"><defs
   id="defs1064">
	
	
</defs><sodipodi:namedview
   id="namedview1062"
   pagecolor="#505050"
   bordercolor="#eeeeee"
   borderopacity="1"
   inkscape:pageshadow="0"
   inkscape:pageopacity="0"
   inkscape:pagecheckerboard="0"
   showgrid="false"
   inkscape:zoom="4.8782082"
   inkscape:cx="62.830447"
   inkscape:cy="67.750287"
   inkscape:window-width="1920"
   inkscape:window-height="1001"
   inkscape:window-x="3191"
   inkscape:window-y="-9"
   inkscape:window-maximized="1"
   inkscape:current-layer="Layer_1" />
<g
   id="g1046"
   style="stroke:none;stroke-opacity:1;fill:#808080;fill-opacity:1">
		<path
   fill="#ed6b21"
   d="M 115.76,51.2 107.7,43.14 C 105.23,40.67 100.73,38.8 97.23,38.8 h -50.8 c -4.2,0 -7.62,3.42 -7.62,7.62 v 66.04 c 0,4.2 3.42,7.62 7.62,7.62 h 66.04 c 4.2,0 7.62,-3.42 7.62,-7.62 v -50.8 c 0,-3.49 -1.86,-7.99 -4.33,-10.46 z m -4.34,2.84 h -6.57 v -6.57 z m 3.59,58.43 c 0,1.4 -1.14,2.54 -2.54,2.54 H 46.43 c -1.4,0 -2.54,-1.14 -2.54,-2.54 V 46.42 c 0,-1.4 1.14,-2.54 2.54,-2.54 h 50.8 c 0.74,0 1.63,0.18 2.54,0.46 v 12.24 c 0,1.4 1.14,2.54 2.54,2.54 h 12.24 c 0.28,0.91 0.46,1.8 0.46,2.54 z"
   id="path1036"
   style="stroke:none;stroke-opacity:1;fill:#808080;fill-opacity:1" />
		<path
   fill="#ed6b21"
   d="m 53.97,59.13 h 35.72 c 1.4,0 2.54,-1.14 2.54,-2.54 0,-1.4 -1.14,-2.54 -2.54,-2.54 H 53.97 c -1.4,0 -2.54,1.14 -2.54,2.54 0,1.4 1.13,2.54 2.54,2.54 z"
   id="path1038"
   style="stroke:none;stroke-opacity:1;fill:#808080;fill-opacity:1" />
		<path
   fill="#ed6b21"
   d="M 104.93,69.29 H 53.97 c -1.4,0 -2.54,1.14 -2.54,2.54 0,1.4 1.14,2.54 2.54,2.54 h 50.96 c 1.4,0 2.54,-1.14 2.54,-2.54 0,-1.4 -1.14,-2.54 -2.54,-2.54 z"
   id="path1040"
   style="stroke:none;stroke-opacity:1;fill:#808080;fill-opacity:1" />
		<path
   fill="#ed6b21"
   d="M 104.93,84.53 H 53.97 c -1.4,0 -2.54,1.14 -2.54,2.54 0,1.4 1.14,2.54 2.54,2.54 h 50.96 c 1.4,0 2.54,-1.14 2.54,-2.54 0,-1.4 -1.14,-2.54 -2.54,-2.54 z"
   id="path1042"
   style="stroke:none;stroke-opacity:1;fill:#808080;fill-opacity:1" />
		<path
   fill="#ed6b21"
   d="M 104.93,99.77 H 53.97 c -1.4,0 -2.54,1.14 -2.54,2.54 0,1.4 1.14,2.54 2.54,2.54 h 50.96 c 1.4,0 2.54,-1.14 2.54,-2.54 0,-1.4 -1.14,-2.54 -2.54,-2.54 z"
   id="path1044"
   style="stroke:none;stroke-opacity:1;fill:#808080;fill-opacity:1" />
	</g><g
   id="g1058">
		<path
   fill="#808080"
   d="M 85.27,20.71 77.21,12.65 C 74.74,10.18 70.24,8.31 66.74,8.31 h -50.8 c -4.2,0 -7.62,3.42 -7.62,7.62 v 66.04 c 0,4.2 3.42,7.62 7.62,7.62 h 17.78 c 1.4,0 2.54,-1.14 2.54,-2.54 0,-1.4 -1.14,-2.54 -2.54,-2.54 H 15.94 c -1.4,0 -2.54,-1.14 -2.54,-2.54 V 15.94 c 0,-1.4 1.14,-2.54 2.54,-2.54 h 50.8 c 0.74,0 1.63,0.18 2.54,0.46 V 26.1 c 0,1.4 1.14,2.54 2.54,2.54 h 12.45 c 0.16,0.49 0.25,0.93 0.25,1.27 v 3.81 c 0,1.4 1.14,2.54 2.54,2.54 1.4,0 2.54,-1.14 2.54,-2.54 v -3.81 c 0.01,-2.77 -1.85,-6.72 -4.33,-9.2 z m -10.9,-3.72 6.57,6.57 h -6.57 z"
   id="path1048" />
		<path
   fill="#808080"
   d="M 59.21,23.56 H 23.48 c -1.4,0 -2.54,1.14 -2.54,2.54 0,1.4 1.14,2.54 2.54,2.54 H 59.2 c 1.4,0 2.54,-1.14 2.54,-2.54 0,-1.4 -1.13,-2.54 -2.53,-2.54 z"
   id="path1050" />
		<path
   fill="#808080"
   d="m 28.73,38.8 h -5.24 c -1.4,0 -2.54,1.14 -2.54,2.54 0,1.4 1.14,2.54 2.54,2.54 h 5.24 c 1.4,0 2.54,-1.14 2.54,-2.54 0,-1.4 -1.14,-2.54 -2.54,-2.54 z"
   id="path1052" />
		<path
   fill="#808080"
   d="m 28.73,54.04 h -5.24 c -1.4,0 -2.54,1.14 -2.54,2.54 0,1.4 1.14,2.54 2.54,2.54 h 5.24 c 1.4,0 2.54,-1.14 2.54,-2.54 0,-1.4 -1.14,-2.54 -2.54,-2.54 z"
   id="path1054" />
		<path
   fill="#808080"
   d="m 28.73,69.29 h -5.24 c -1.4,0 -2.54,1.14 -2.54,2.54 0,1.4 1.14,2.54 2.54,2.54 h 5.24 c 1.4,0 2.54,-1.14 2.54,-2.54 0,-1.4 -1.14,-2.54 -2.54,-2.54 z"
   id="path1056" />
	</g>
<path
   d="M 104.85,54.04 82.71545,76.15908 60.58864,54.03226 66.08342,48.53747 78.78283,61.23685 V 43.51678 C 78.76993,34.93742 71.81821,27.98568 63.23888,27.97284 H 47.69494 v -7.77197 h 15.54394 c 12.87167,0.0129 23.30304,10.44422 23.31591,23.31591 V 61.33793 L 99.34746,48.54524 Z"
   id="path1427"
   style="stroke-width:0.233159;fill:#ed6b21;fill-opacity:1" /></svg>
