<?xml version="1.0" encoding="utf-8"?>
<!-- Generator: Adobe Illustrator 25.0.0, SVG Export Plug-In . SVG Version: 6.00 Build 0)  -->
<svg version="1.1" id="图层_1" xmlns="http://www.w3.org/2000/svg" xmlns:xlink="http://www.w3.org/1999/xlink" x="0px" y="0px"
	 viewBox="0 0 16 16" enable-background="new 0 0 16 16" xml:space="preserve">
<g>
	<path fill="#4479FB" d="M8,15c-3.9,0-7-3.1-7-7s3.1-7,7-7s7,3.1,7,7S11.9,15,8,15z M8,2.4C4.9,2.4,2.4,4.9,2.4,8s2.5,5.6,5.6,5.6
		s5.6-2.5,5.6-5.6C13.6,4.9,11.1,2.4,8,2.4z"/>
	<circle fill="#4479FB" cx="8" cy="8" r="0.9"/>
	<path fill="#4479FB" d="M8,3.4c-0.6,0-1.2,0.1-1.7,0.3L7.1,7c0.5-0.5,1.3-0.4,1.8,0.1l0.8-3.4C9.2,3.5,8.6,3.4,8,3.4z"/>
	<path fill="#4479FB" d="M12.6,8.7L9.3,7.7c0.1,0.7-0.3,1.4-1,1.5l2.5,2.4C11.8,10.9,12.4,9.9,12.6,8.7z"/>
	<path fill="#4479FB" d="M3.4,8.6c0.2,1.2,0.8,2.3,1.7,3l2.4-2.4C6.9,9,6.5,8.3,6.7,7.6L3.4,8.6z"/>
</g>
<g>
</g>
<g>
</g>
<g>
</g>
<g>
</g>
<g>
</g>
<g>
</g>
</svg>
