<?xml version="1.0" encoding="utf-8"?>
<!-- Generator: Adobe Illustrator 25.0.0, SVG Export Plug-In . SVG Version: 6.00 Build 0)  -->
<svg version="1.1" id="图层_1" xmlns="http://www.w3.org/2000/svg" xmlns:xlink="http://www.w3.org/1999/xlink" x="0px" y="0px"
	 viewBox="0 0 128 128" enable-background="new 0 0 128 128" xml:space="preserve">
<g>
	<path fill="#174CCE" d="M84.5,23.7l20,20c0.7,0.7,0.7,1.8,0,2.4c-0.3,0.3-0.8,0.5-1.2,0.5h-20c-1,0-1.7-0.8-1.7-1.7v-20
		c0-0.9,0.8-1.7,1.7-1.7C83.8,23.1,84.2,23.3,84.5,23.7"/>
	<path fill="#174CCE" d="M87.6,13.6c2.1,0,4.2,0.9,5.7,2.4l19,19.7c1.4,1.5,2.2,3.4,2.2,5.5l0,46.7c0,5-4.1,9.1-9.1,9.1H51.8
		c-5,0-9.1-4.1-9.1-9.1V22.6c0-5,4.1-9.1,9.1-9.1H87.6 M87.6,5.6H51.8c-9.4,0-17.1,7.6-17.1,17.1V88c0,9.4,7.6,17.1,17.1,17.1h53.7
		c9.4,0,17.1-7.6,17.1-17.1l0-46.7c0-4.1-1.6-8.1-4.4-11l-19-19.7C96,7.4,91.9,5.6,87.6,5.6L87.6,5.6z"/>
	<path fill="#174CCE" d="M85.3,105v0.4c0,5-4.1,9.1-9.1,9.1H22.6c-5,0-9.1-4.1-9.1-9.1V40.1c0-5,4.1-9.1,9.1-9.1h12.1h0v-8h0H22.6
		c-9.4,0-17.1,7.6-17.1,17.1v65.3c0,9.4,7.6,17.1,17.1,17.1h53.7c9.4,0,17.1-7.6,17.1-17.1V105H85.3z"/>
	<g>
		<path fill="#174CCE" d="M99.9,68.1H57.3c-2.2,0-4-1.8-4-4c0-2.2,1.8-4,4-4h42.6c2.2,0,4,1.8,4,4C103.9,66.3,102.2,68.1,99.9,68.1z
			"/>
	</g>
	<g>
		<path fill="#174CCE" d="M99.9,85.6H57.3c-2.2,0-4-1.8-4-4s1.8-4,4-4h42.6c2.2,0,4,1.8,4,4S102.2,85.6,99.9,85.6z"/>
	</g>
</g>
</svg>
