<?xml version="1.0" encoding="utf-8"?>
<!-- Generator: Adobe Illustrator 25.0.0, SVG Export Plug-In . SVG Version: 6.00 Build 0)  -->
<svg version="1.1" id="图层_1" xmlns="http://www.w3.org/2000/svg" xmlns:xlink="http://www.w3.org/1999/xlink" x="0px" y="0px"
	 viewBox="0 0 128 128" enable-background="new 0 0 128 128" xml:space="preserve">
<g>
	<path fill="#4479FB" d="M44.9,119.9c-6.4,0-9.1-2.7-9.1-9c0-22.1,0-44.2,0-66.3c0-6,2.6-8.7,8.6-8.7c22.3,0,44.5,0,66.8,0
		c6.2,0,8.7,2.6,8.7,8.8c0,22.1,0,44.2,0,66.3c0,6.2-2.7,8.9-9,8.9c-11.1,0-22.2,0-33.3,0C66.7,119.9,55.8,119.9,44.9,119.9z
		 M97.6,80.9c0.7,0,1.3,0,2,0c1.8-0.2,3-1.1,3-3c0-2-1.3-3-3.3-3c-5,0-9.9,0-14.9,0c-1.1,0-2.1,0-3.6,0c0-1.4,0-2.7,0-4
		c0-4.5,0-9.1,0-13.6c0-2.9-1-4.2-3.1-4.2c-2.1,0-2.9,1.2-2.9,4.3c0,5.7,0,11.4,0,17.4c-4.2,0-8.3,0-12.3,0c-1.9,0-3.8,0-5.7,0
		c-2.4,0.1-3.9,1.3-3.7,3.1c0.2,2.2,1.5,3.1,3.7,3.1c5.1-0.1,10.3,0,15.4,0c0.7,0,1.5,0,2.6,0c0,1.5,0,2.9,0,4.2c0,4.6,0,9.3,0,13.9
		c0,2,0.8,3.4,2.9,3.6c1.8,0.2,3.1-1.4,3.1-3.7c0-5.9,0-11.9,0-18.1C86.7,80.9,92.2,80.9,97.6,80.9z"/>
	<path fill="#4479FB" d="M92.1,29.8c0-5.3,0.2-10.3-0.1-15.3c-0.2-3.3-2.9-5.7-6.2-6.1c-1-0.1-2-0.1-3-0.1c-21.8,0-43.5,0-65.3,0
		c-7,0-9.5,2.5-9.5,9.6c0,21.7,0,43.4,0,65c0,6.9,2.5,9.5,9.4,9.5c4,0,7.9,0,12.2,0c0-1.1,0-2,0-2.8c0-14.8,0-29.6,0-44.4
		c0-9.8,5.4-15.2,15.2-15.2c14.8,0,29.6,0,44.4,0C90.2,29.8,91.1,29.8,92.1,29.8z"/>
</g>
<g>
</g>
<g>
</g>
<g>
</g>
<g>
</g>
<g>
</g>
<g>
</g>
</svg>
