<?xml version="1.0" encoding="utf-8"?>
<!-- Generator: Adobe Illustrator 25.0.0, SVG Export Plug-In . SVG Version: 6.00 Build 0)  -->
<svg version="1.1" id="图层_1" xmlns="http://www.w3.org/2000/svg" xmlns:xlink="http://www.w3.org/1999/xlink" x="0px" y="0px"
	 width="16px" height="16px" viewBox="0 0 16 16" enable-background="new 0 0 16 16" xml:space="preserve">
<path fill="#4479FB" d="M14.6,13.1l-1.4-7.3c-0.1-0.6-0.7-1.1-1.4-1.1H9.5C9.9,4.3,10,3.9,10,3.4c0-1.1-0.9-2-2-2s-2,0.9-2,2
	c0,0.5,0.2,1,0.5,1.3H4.1c-0.7,0-1.2,0.5-1.4,1.1l-1.4,7.3c-0.2,0.8,0.5,1.6,1.4,1.6h10.5C14.1,14.7,14.8,13.9,14.6,13.1z M8,2.3
	c0.6,0,1,0.5,1,1s-0.5,1-1,1s-1-0.5-1-1S7.4,2.3,8,2.3z M13.6,13.5c0,0-0.1,0.1-0.3,0.1H2.7c-0.2,0-0.3-0.1-0.3-0.1
	c0-0.1-0.1-0.1-0.1-0.2L3.8,6c0-0.2,0.2-0.3,0.4-0.3h7.7c0.2,0,0.4,0.1,0.4,0.3l1.4,7.3C13.7,13.4,13.6,13.5,13.6,13.5z"/>
<g>
	<path fill="#4479FB" d="M6.9,12c-0.2-0.4-0.4-0.7-0.6-0.9c-0.2-0.2-0.4-0.4-0.6-0.6H5.4v1.6H4.5V8.2h0.9v1.6h0.2l1.1-1.6h1
		l-1.3,1.9c0.3,0.3,0.6,0.6,0.8,0.8c0.2,0.3,0.5,0.7,0.7,1.1H6.9z"/>
	<path fill="#4479FB" d="M11.5,11.9C11.3,12,11.1,12,11,12.1c-0.2,0-0.4,0.1-0.7,0.1c-0.4,0-0.8-0.1-1.1-0.2
		c-0.3-0.2-0.6-0.4-0.8-0.7c-0.2-0.3-0.3-0.6-0.3-1c0-0.4,0.1-0.8,0.3-1.1c0.2-0.3,0.4-0.6,0.8-0.7c0.3-0.2,0.7-0.3,1.1-0.3
		c0.2,0,0.4,0,0.6,0.1c0.2,0,0.4,0.1,0.5,0.1V9c-0.4-0.1-0.7-0.2-1-0.2c-0.4,0-0.7,0.1-1,0.3C9.1,9.4,9,9.7,9,10.2
		c0,0.3,0.1,0.5,0.2,0.7c0.1,0.2,0.3,0.3,0.5,0.4c0.2,0.1,0.4,0.1,0.7,0.1c0.2,0,0.3,0,0.4,0v-0.9h-0.4V9.8h1.2V11.9z"/>
</g>
</svg>
