<?xml version="1.0" encoding="utf-8"?>
<!-- Generator: Adobe Illustrator 25.0.0, SVG Export Plug-In . SVG Version: 6.00 Build 0)  -->
<svg version="1.1" id="图层_1" xmlns="http://www.w3.org/2000/svg" xmlns:xlink="http://www.w3.org/1999/xlink" x="0px" y="0px"
	 width="16px" height="16px" viewBox="0 0 16 16" enable-background="new 0 0 16 16" xml:space="preserve">
<g>
	<path fill="#808080" d="M14.2,8.1h-0.9c0,0,0,0,0,0.1v2.1c0,0.3-0.2,0.5-0.5,0.5s-0.5-0.2-0.5-0.5V8.2c0,0,0,0,0-0.1h-0.9
		c0,0,0,0,0,0.1v1.4c0,0.3-0.2,0.5-0.5,0.5s-0.5-0.2-0.5-0.5V8.2c0,0,0,0,0-0.1H9.5c0,0,0,0,0,0.1v2.1c0,0.3-0.2,0.5-0.5,0.5
		s-0.5-0.2-0.5-0.5V8.2c0,0,0,0,0-0.1H7.5c0,0,0,0,0,0.1v1.4c0,0.3-0.2,0.5-0.5,0.5S6.5,9.9,6.5,9.6V8.2c0,0,0,0,0-0.1H5.6
		c0,0,0,0,0,0.1v2.1c0,0.3-0.2,0.5-0.5,0.5s-0.5-0.2-0.5-0.5V8.2c0,0,0,0,0-0.1H3.7c0,0,0,0,0,0.1v1.4c0,0.3-0.2,0.5-0.5,0.5
		S2.7,9.9,2.7,9.6V8.2c0,0,0,0,0-0.1H1.8c-0.3,0-0.6,0.3-0.6,0.6v2.7c0,0.3,0.3,0.6,0.6,0.6h12.4c0.3,0,0.6-0.3,0.6-0.6V8.7
		C14.8,8.4,14.5,8.1,14.2,8.1z"/>
	<line fill="none" stroke="#808080" stroke-linecap="round" stroke-miterlimit="10" x1="1.6" y1="5" x2="14.5" y2="5"/>
	<polyline fill="none" stroke="#808080" stroke-linecap="round" stroke-linejoin="round" stroke-miterlimit="10" points="13.8,4 
		14.7,5 13.8,6 	"/>
	<polyline fill="none" stroke="#808080" stroke-linecap="round" stroke-linejoin="round" stroke-miterlimit="10" points="2.2,6 
		1.3,5 2.2,4 	"/>
</g>
</svg>
