<?xml version="1.0" encoding="utf-8"?>
<!-- Generator: Adobe Illustrator 25.0.0, SVG Export Plug-In . SVG Version: 6.00 Build 0)  -->
<svg version="1.1" id="图层_1" xmlns="http://www.w3.org/2000/svg" xmlns:xlink="http://www.w3.org/1999/xlink" x="0px" y="0px"
	 width="16px" height="16px" viewBox="0 0 16 16" enable-background="new 0 0 16 16" xml:space="preserve">
<polyline fill="none" stroke="#808080" stroke-linecap="round" stroke-miterlimit="10" points="14.5,3.5 14.5,1.5 12.5,1.5 "/>
<polyline fill="none" stroke="#808080" stroke-linecap="round" stroke-miterlimit="10" points="3.5,1.5 1.5,1.5 1.5,3.5 "/>
<polyline fill="none" stroke="#808080" stroke-linecap="round" stroke-miterlimit="10" points="1.5,12.5 1.5,14.5 3.5,14.5 "/>
<polyline fill="none" stroke="#808080" stroke-linecap="round" stroke-miterlimit="10" points="12.5,14.5 14.5,14.5 14.5,12.5 "/>
<rect x="7.1" y="2" fill="#4479FB" width="2" height="2.1"/>
<path fill="#4479FB" d="M10,14H6.2v-0.8l0.1,0c0.2-0.1,0.4-0.1,0.4-0.2C6.8,13,6.9,13,7,12.9C7,12.8,7,12.7,7.1,12.5
	c0-0.2,0.1-0.5,0.1-0.8V7.9c0-0.4,0-0.7,0-0.9c0-0.2,0-0.4-0.1-0.5C7,6.5,6.9,6.4,6.8,6.4C6.7,6.3,6.5,6.3,6.2,6.2l-0.2,0V5.4
	l2.2-0.1H9v6.4c0,0.5,0,0.8,0.1,1c0,0.2,0.1,0.3,0.2,0.3c0.1,0.1,0.3,0.2,0.6,0.2l0.2,0L10,14L10,14z"/>
</svg>
