<?xml version="1.0" encoding="utf-8"?>
<!-- Generator: Adobe Illustrator 25.0.0, SVG Export Plug-In . SVG Version: 6.00 Build 0)  -->
<svg version="1.1" id="图层_1" xmlns="http://www.w3.org/2000/svg" xmlns:xlink="http://www.w3.org/1999/xlink" x="0px" y="0px"
	 width="16px" height="16px" viewBox="0 0 16 16" enable-background="new 0 0 16 16" xml:space="preserve">
<rect x="7.4" y="4.5" fill="#4479FB" width="1.2" height="1.2"/>
<path fill="#4479FB" d="M9.1,11.5H6.9v-0.5l0.1,0C7.1,11,7.2,11,7.3,11c0,0,0.1-0.1,0.1-0.1c0,0,0.1-0.1,0.1-0.2c0-0.1,0-0.3,0-0.5
	V8c0-0.2,0-0.4,0-0.5c0-0.1,0-0.2-0.1-0.3c0-0.1-0.1-0.1-0.1-0.1C7.2,7,7.1,7,7,7l-0.1,0V6.5l1.3,0h0.4v3.7c0,0.3,0,0.5,0,0.6
	c0,0.1,0.1,0.2,0.1,0.2c0.1,0,0.2,0.1,0.3,0.1l0.1,0V11.5L9.1,11.5z"/>
<polyline fill="none" stroke="#808080" stroke-linecap="round" stroke-miterlimit="10" points="4.5,2.5 2.5,2.5 2.5,13.5 4.5,13.5 
	"/>
<polyline fill="none" stroke="#808080" stroke-linecap="round" stroke-miterlimit="10" points="11.5,13.5 13.5,13.5 13.5,2.5 
	11.5,2.5 "/>
</svg>
