<?xml version="1.0" encoding="utf-8"?>
<!-- Generator: Adobe Illustrator 25.0.0, SVG Export Plug-In . SVG Version: 6.00 Build 0)  -->
<svg version="1.1" id="图层_1" xmlns="http://www.w3.org/2000/svg" xmlns:xlink="http://www.w3.org/1999/xlink" x="0px" y="0px"
	 width="16px" height="16px" viewBox="0 0 16 16" enable-background="new 0 0 16 16" xml:space="preserve">
<circle fill="#4479FB" cx="8" cy="8" r="2"/>
<g>
	<path fill="#808080" d="M13.7,8.6V7.3L15,6.4c-0.2-0.9-0.5-1.7-1-2.4l-1.6,0.3l-0.9-0.9l0.3-1.6c-0.7-0.5-1.5-0.8-2.4-1L8.6,2.3
		H7.3L6.4,0.9C5.5,1.1,4.7,1.4,4,1.9l0.3,1.6l-0.8,1L1.9,4.1c-0.5,0.7-0.8,1.5-1,2.4l1.4,0.9v1.3L0.9,9.6c0.2,0.9,0.5,1.7,1,2.4
		l1.6-0.3l0.9,0.9l-0.3,1.6c0.7,0.5,1.5,0.8,2.4,1l0.9-1.4h1.3L9.6,15c0.9-0.2,1.7-0.5,2.4-1l-0.3-1.6l0.9-0.9l1.6,0.3
		c0.5-0.7,0.8-1.5,1-2.4L13.7,8.6z M12.7,8c0,0.3,0,0.6-0.1,0.9l0.9,0.9l-0.2,0.8L12,10.5c-0.4,0.6-0.8,1.1-1.4,1.4v1.3l-0.7,0.4
		l-0.9-1c-0.3,0.1-0.7,0.1-1,0.1s-0.6,0-0.9-0.1l-1,1l-0.8-0.2L5.5,12c-0.5-0.3-1-0.8-1.4-1.3H2.7L2.3,10l1.1-1
		C3.3,8.7,3.3,8.3,3.3,8s0-0.6,0.1-0.9l-1-1l0.2-0.8L4,5.5c0.3-0.5,0.8-1,1.3-1.4V2.7L6,2.3l0.9,1.1C7.3,3.3,7.6,3.3,8,3.3
		c0.3,0,0.6,0,0.9,0.1l0.9-0.9l0.8,0.2L10.5,4c0.6,0.4,1.1,0.8,1.4,1.4h1.3L13.6,6l-1.1,0.9C12.7,7.3,12.7,7.6,12.7,8z"/>
</g>
</svg>
