<?xml version="1.0" encoding="utf-8"?>
<!-- Generator: Adobe Illustrator 25.0.0, SVG Export Plug-In . SVG Version: 6.00 Build 0)  -->
<svg version="1.1" id="图层_1" xmlns="http://www.w3.org/2000/svg" xmlns:xlink="http://www.w3.org/1999/xlink" x="0px" y="0px"
	 viewBox="0 0 128 128" enable-background="new 0 0 128 128" xml:space="preserve">
<g>
	<path fill="#174CCE" d="M95,10.6c0.8-1.8-0.1-4-1.9-4.8c-1.7-0.7-3.7-0.1-4.6,1.5L46.9,79.4c-4.1-3.2-9.2-5-14.7-5
		c-13.2,0-24,10.7-24,24c0,13.2,10.7,24,24,24c7.4,0,14.2-3.5,18.5-8.8l0,0l0,0c2.7-3.4,4.7-7.5,5.2-12.1L95,10.6z M32.2,108
		c-5.3,0-9.6-4.3-9.6-9.6s4.3-9.6,9.6-9.6s9.6,4.3,9.6,9.6S37.5,108,32.2,108z"/>
	<path fill="#174CCE" d="M72.1,101.4c0.6,4.6,2.4,8.8,5.2,12.1l0,0l0,0c4.4,5.4,11.1,8.8,18.5,8.8c13.2,0,24-10.7,24-24
		c0-13.2-10.7-24-24-24c-5.5,0-10.6,1.9-14.7,5L39.6,7.3c-0.9-1.6-2.9-2.2-4.6-1.5c-1.8,0.8-2.6,3-1.9,4.8L72.1,101.4z M86.2,98.4
		c0-5.3,4.3-9.6,9.6-9.6c5.3,0,9.6,4.3,9.6,9.6s-4.3,9.6-9.6,9.6C90.5,108,86.2,103.7,86.2,98.4z"/>
</g>
</svg>
