<?xml version="1.0" encoding="utf-8"?>
<!-- Generator: Adobe Illustrator 25.0.0, SVG Export Plug-In . SVG Version: 6.00 Build 0)  -->
<svg version="1.1" id="图层_1" xmlns="http://www.w3.org/2000/svg" xmlns:xlink="http://www.w3.org/1999/xlink" x="0px" y="0px"
	 viewBox="0 0 128 128" enable-background="new 0 0 128 128" xml:space="preserve">
<g>
	<g id="cut_2_">
		<g>
			<path fill="#174CCE" d="M119,65.5h-10c-0.8,0-1.5-0.7-1.5-1.5s0.7-1.5,1.5-1.5h10c0.8,0,1.5,0.7,1.5,1.5S119.8,65.5,119,65.5z
				 M99,65.5H89c-0.8,0-1.5-0.7-1.5-1.5s0.7-1.5,1.5-1.5h10c0.8,0,1.5,0.7,1.5,1.5S99.8,65.5,99,65.5z M79,65.5H69
				c-0.8,0-1.5-0.7-1.5-1.5s0.7-1.5,1.5-1.5h10c0.8,0,1.5,0.7,1.5,1.5S79.8,65.5,79,65.5z M59,65.5H49c-0.8,0-1.5-0.7-1.5-1.5
				s0.7-1.5,1.5-1.5h10c0.8,0,1.5,0.7,1.5,1.5S59.8,65.5,59,65.5z M39,65.5H29c-0.8,0-1.5-0.7-1.5-1.5s0.7-1.5,1.5-1.5h10
				c0.8,0,1.5,0.7,1.5,1.5S39.8,65.5,39,65.5z M19,65.5H9c-0.8,0-1.5-0.7-1.5-1.5s0.7-1.5,1.5-1.5h10c0.8,0,1.5,0.7,1.5,1.5
				S19.8,65.5,19,65.5z"/>
		</g>
		<g>
			<g>
				<path fill="#174CCE" d="M110,51.5H20c-1.9,0-3.5-1.6-3.5-3.5V10c0-1.9,1.6-3.5,3.5-3.5h90c1.9,0,3.5,1.6,3.5,3.5v38
					C113.5,49.9,111.9,51.5,110,51.5z"/>
			</g>
			<g>
				<path fill="#174CCE" d="M110,121.5H20c-1.9,0-3.5-1.6-3.5-3.5V80c0-1.9,1.6-3.5,3.5-3.5h90c1.9,0,3.5,1.6,3.5,3.5v38
					C113.5,119.9,111.9,121.5,110,121.5z"/>
			</g>
		</g>
	</g>
</g>
<g>
</g>
<g>
</g>
<g>
</g>
<g>
</g>
<g>
</g>
<g>
</g>
</svg>
