<?xml version="1.0" encoding="utf-8"?>
<!-- Generator: Adobe Illustrator 25.0.0, SVG Export Plug-In . SVG Version: 6.00 Build 0)  -->
<svg version="1.1" id="Layer_1" xmlns="http://www.w3.org/2000/svg" xmlns:xlink="http://www.w3.org/1999/xlink" x="0px" y="0px"
	 viewBox="0 0 16 16" enable-background="new 0 0 16 16" xml:space="preserve">
<path fill="#4479FB" d="M3.1,10.4H0.6C0.3,10.4,0,10.1,0,9.8c0-0.3,0.3-0.6,0.6-0.6h2.5c0.3,0,0.6,0.3,0.6,0.6
	C3.6,10.1,3.4,10.4,3.1,10.4z"/>
<path fill="#4479FB" d="M12.1,10.4H9.6C9.3,10.4,9,10.1,9,9.8c0-0.3,0.3-0.6,0.6-0.6h2.5c0.3,0,0.6,0.3,0.6,0.6
	C12.7,10.1,12.4,10.4,12.1,10.4z"/>
<path fill="#4479FB" d="M7.6,10.4H5.1c-0.3,0-0.6-0.3-0.6-0.6c0-0.3,0.3-0.6,0.6-0.6h2.5c0.3,0,0.6,0.3,0.6,0.6
	C8.2,10.1,7.9,10.4,7.6,10.4z"/>
<g>
	<path fill="#808080" d="M11,12c-0.3,0-0.5,0.2-0.5,0.5v0.6v0.3c0,0.3-0.2,0.5-0.5,0.5H2.7c-0.3,0-0.5-0.2-0.5-0.5v-0.3v-0.6
		C2.2,12.2,2,12,1.7,12c-0.3,0-0.5,0.2-0.5,0.5v0.6v0.3c0,0.9,0.7,1.6,1.6,1.6h7.2c0.9,0,1.6-0.7,1.6-1.6v-0.3v-0.6
		C11.5,12.2,11.3,12,11,12z"/>
	<path fill="#808080" d="M9.9,4.5H2.8c-0.9,0-1.6,0.7-1.6,1.6v0.3V7c0,0.3,0.2,0.5,0.5,0.5C2,7.6,2.2,7.3,2.2,7V6.5V6.1
		c0-0.3,0.2-0.5,0.5-0.5h7.2c0.3,0,0.5,0.2,0.5,0.5v0.3V7c0,0.3,0.2,0.5,0.5,0.5c0.3,0,0.5-0.2,0.5-0.5V6.5V6.1
		C11.5,5.2,10.8,4.5,9.9,4.5z"/>
</g>
</svg>
