<?xml version="1.0" encoding="utf-8"?>
<!-- Generator: Adobe Illustrator 25.0.0, SVG Export Plug-In . SVG Version: 6.00 Build 0)  -->
<svg version="1.1" id="Layer_1" xmlns="http://www.w3.org/2000/svg" xmlns:xlink="http://www.w3.org/1999/xlink" x="0px" y="0px"
	 viewBox="0 0 16 16" enable-background="new 0 0 16 16" xml:space="preserve">
<path fill="#4479FB" d="M7.2,10.9H5.5c-0.6,0-1.1-0.5-1.1-1.1s0.5-1.1,1.1-1.1h1.7c0.6,0,1.1,0.5,1.1,1.1S7.8,10.9,7.2,10.9z"/>
<g>
	<path fill="#808080" d="M11,15c-0.3,0-0.5-0.2-0.5-0.5v-0.6v-0.3c0-0.3-0.2-0.5-0.5-0.5H2.7c-0.3,0-0.5,0.2-0.5,0.5v0.3v0.6
		C2.2,14.8,2,15,1.7,15c-0.3,0-0.5-0.2-0.5-0.5v-0.6v-0.3c0-0.9,0.7-1.6,1.6-1.6h7.2c0.9,0,1.6,0.7,1.6,1.6v0.3v0.6
		C11.5,14.8,11.3,15,11,15z"/>
	<path fill="#808080" d="M9.9,7.6H2.8C1.9,7.6,1.2,6.9,1.2,6V5.7V5.1c0-0.3,0.2-0.5,0.5-0.5c0.3,0,0.5,0.2,0.5,0.5v0.6V6
		c0,0.3,0.2,0.5,0.5,0.5h7.2c0.3,0,0.5-0.2,0.5-0.5V5.7V5.1c0-0.3,0.2-0.5,0.5-0.5c0.3,0,0.5,0.2,0.5,0.5v0.6V6
		C11.5,6.9,10.8,7.6,9.9,7.6z"/>
</g>
</svg>
