<?xml version="1.0" encoding="utf-8"?>
<!-- Generator: Adobe Illustrator 25.0.0, SVG Export Plug-In . SVG Version: 6.00 Build 0)  -->
<svg version="1.1" id="图层_1" xmlns="http://www.w3.org/2000/svg" xmlns:xlink="http://www.w3.org/1999/xlink" x="0px" y="0px"
	 viewBox="0 0 16 16" enable-background="new 0 0 16 16" xml:space="preserve">
<g>
	<path fill="#4479FB" d="M8,5.1c1.5,0,3,0,4.5,0c0.3,0,0.3,0.1,0.3,0.3c-0.1,0.9-0.2,1.7-0.3,2.6c-0.1,0.8-0.2,1.5-0.3,2.3
		c-0.1,0.8-0.2,1.6-0.3,2.3c0,0.4-0.1,0.7-0.1,1.1c-0.1,0.6-0.6,1-1.2,1c-1.7,0-3.4,0-5.2,0c-0.6,0-1.1-0.5-1.2-1.1
		C4.2,13,4.1,12.5,4,11.9c-0.1-0.6-0.2-1.3-0.2-1.9C3.7,9.3,3.6,8.6,3.5,7.9C3.4,7.2,3.3,6.5,3.3,5.8c0-0.1,0-0.3-0.1-0.4
		c0-0.2,0.1-0.3,0.2-0.3C5,5.1,6.5,5.1,8,5.1C8,5.1,8,5.1,8,5.1z M7.3,9.7c-0.4,0.4-0.7,0.7-1.1,1.1C6,11,6,11.3,6.2,11.5
		c0.2,0.2,0.5,0.2,0.7,0c0.1-0.1,0.2-0.2,0.3-0.3C7.4,11,7.7,10.7,8,10.4c0.1,0.1,0.1,0.1,0.1,0.2c0.3,0.3,0.7,0.7,1,1
		c0.1,0.1,0.3,0.2,0.5,0.1c0.2-0.1,0.3-0.2,0.3-0.4c0-0.2,0-0.3-0.1-0.5C9.4,10.5,9,10.1,8.7,9.7c0,0,0.1-0.1,0.1-0.1
		c0.3-0.3,0.7-0.7,1-1c0.2-0.2,0.2-0.5,0-0.7c-0.2-0.2-0.5-0.2-0.7,0c-0.3,0.3-0.7,0.7-1,1C8.1,9,8,9,8,9C7.6,8.7,7.3,8.3,6.9,7.9
		c-0.2-0.2-0.5-0.2-0.7,0C6,8.1,6,8.4,6.2,8.6C6.6,9,6.9,9.3,7.3,9.7z"/>
	<path fill="#4479FB" d="M6.4,2.4c0-0.3,0-0.5,0-0.7c0-0.3,0.1-0.5,0.4-0.5c0.8,0,1.5,0,2.3,0c0.3,0,0.5,0.2,0.5,0.5
		c0,0.2,0,0.5,0,0.7c0.1,0,0.1,0,0.2,0c1.1,0,2.2,0,3.4,0c0.4,0,0.5,0.1,0.5,0.5c0,0.2,0,0.5,0,0.7c0,0.3-0.2,0.4-0.4,0.4
		c-0.7,0-1.4,0-2.2,0c-2.7,0-5.5,0-8.2,0c-0.3,0-0.5-0.2-0.5-0.5c0-0.2,0-0.5,0-0.7c0-0.3,0.2-0.4,0.4-0.4c0.2,0,0.5,0,0.7,0
		c0.9,0,1.8,0,2.8,0C6.3,2.4,6.4,2.4,6.4,2.4z"/>
</g>
<g>
</g>
<g>
</g>
<g>
</g>
<g>
</g>
<g>
</g>
<g>
</g>
</svg>
