<?xml version="1.0" encoding="utf-8"?>
<!-- Generator: Adobe Illustrator 25.0.0, SVG Export Plug-In . SVG Version: 6.00 Build 0)  -->
<svg version="1.1" id="图层_1" xmlns="http://www.w3.org/2000/svg" xmlns:xlink="http://www.w3.org/1999/xlink" x="0px" y="0px"
	 viewBox="0 0 128 128" enable-background="new 0 0 128 128" xml:space="preserve">
<path fill="#174CCE" d="M64,5.5C31.7,5.5,5.5,31.7,5.5,64s26.2,58.5,58.5,58.5s58.5-26.2,58.5-58.5S96.3,5.5,64,5.5z M86.9,78.2
	c1.8,1.6,2.5,3.6,1.9,5.9c-0.6,2.4-1.9,4-4.3,4.6c-2.4,0.7-4.5,0.1-6.2-1.6C74,83,69.8,78.7,65.6,74.5c-0.6-0.4-1-1.2-1.6-1.9
	c-3.9,4-7.6,7.6-11.1,11.3c-1,1-2.2,2.2-3.3,3.3c-2.7,2.7-6.4,2.7-8.9,0c-2.5-2.7-2.2-6.4,0.4-9.1c4.6-4.6,9.2-9.3,13.9-14.1
	c-4.6-4.6-9.3-9.2-13.9-13.9c-2.8-2.8-3-6.7-0.4-9.2c2.5-2.7,6.4-2.5,9.2,0.3c4.6,4.6,9.2,9.3,13.9,14.1c0.6-0.4,0.9-0.7,1.3-1.2
	c4.3-4.2,8.6-8.5,12.9-12.8c2.8-2.8,6.5-3,9.1-0.4c2.7,2.7,2.5,6.4-0.3,9.2c-4.3,4.3-8.5,8.6-12.8,12.8c-0.4,0.3-1,0.6-1.6,1
	C77.5,68.9,82.1,73.6,86.9,78.2z"/>
</svg>
