<?xml version="1.0" encoding="utf-8"?>
<!-- Generator: Adobe Illustrator 25.0.0, SVG Export Plug-In . SVG Version: 6.00 Build 0)  -->
<svg version="1.1" id="Layer_1" xmlns="http://www.w3.org/2000/svg" xmlns:xlink="http://www.w3.org/1999/xlink" x="0px" y="0px"
	 viewBox="0 0 16 16" enable-background="new 0 0 16 16" xml:space="preserve">
<g>
	<path fill="#4479FB" d="M9,12H7c-0.6,0-1-0.4-1-1V5c0-0.6,0.4-1,1-1h2c0.6,0,1,0.4,1,1v6C10,11.6,9.6,12,9,12z"/>
</g>
<g>
	<path fill="none" stroke="#808080" stroke-linecap="round" stroke-miterlimit="10" d="M1.5,6.5h2v-3c0-1.1,0.9-2,2-2h5
		c1.1,0,2,0.9,2,2v3h2"/>
</g>
<g>
	<path fill="none" stroke="#808080" stroke-linecap="round" stroke-miterlimit="10" d="M1.5,9.5h2v3c0,1.1,0.9,2,2,2h5
		c1.1,0,2-0.9,2-2v-3h2"/>
</g>
</svg>
