<?xml version="1.0" encoding="utf-8"?>
<!-- Generator: Adobe Illustrator 25.0.0, SVG Export Plug-In . SVG Version: 6.00 Build 0)  -->
<svg version="1.1" id="图层_1" xmlns="http://www.w3.org/2000/svg" xmlns:xlink="http://www.w3.org/1999/xlink" x="0px" y="0px"
	 viewBox="0 0 348.9 348.9" enable-background="new 0 0 348.9 348.9" xml:space="preserve">
<g>
	<path fill="#4479FB" d="M311.7,63.2L197.6,176.6c-0.9,0.9-2.1,1.6-3.4,1.9L150.3,189c-0.6,0.1-1.1,0.2-1.7,0.2
		c-1.9,0-3.8-0.8-5.2-2.2c-1.8-1.8-2.4-4.5-1.7-6.9l11.5-41H66.7c-4,0-7.2-3.2-7.2-7.2c0-4,3.2-7.2,7.2-7.2h92.3
		c0.2,0,0.3,0.1,0.5,0.1L194.7,90h-128c-4,0-7.2-3.2-7.2-7.2s3.2-7.2,7.2-7.2h138.1c1.3,0,2.4,0.4,3.5,1l58.8-58L248.6,0H17.9v348.9
		h313V82.4L311.7,63.2z M116.5,188.1H66.7c-4,0-7.2-3.2-7.2-7.2s3.2-7.2,7.2-7.2h49.8c4,0,7.2,3.2,7.2,7.2S120.5,188.1,116.5,188.1z
		"/>
	<path fill="#4479FB" d="M169.1,135.6l-10.2,36.5l29.9-7.2L299.5,55l0,0l0,0l2-2l0,0L317,37.4c6.7-6.7,6.7-17.5,0-24.2
		c-6.7-6.7-17.5-6.7-24.2,0l-16.7,16.7L169.1,135.6z"/>
</g>
<g>
</g>
<g>
</g>
<g>
</g>
<g>
</g>
<g>
</g>
<g>
</g>
</svg>
