<?xml version="1.0" encoding="utf-8"?>
<!-- Generator: Adobe Illustrator 25.0.0, SVG Export Plug-In . SVG Version: 6.00 Build 0)  -->
<svg version="1.1" id="图层_1" xmlns="http://www.w3.org/2000/svg" xmlns:xlink="http://www.w3.org/1999/xlink" x="0px" y="0px"
	 viewBox="0 0 16 16" enable-background="new 0 0 16 16" xml:space="preserve">
<g>
	<g>
		<polygon fill="#4479FB" points="8,5.8 2.4,3.4 7.9,1 13.6,3.4 		"/>
	</g>
	<g>
		<polygon fill="#4479FB" points="8,6.4 3.5,4.5 2.4,4.9 8,7.3 13.6,4.9 12.5,4.5 		"/>
	</g>
	<g>
		<polygon fill="#4479FB" points="8,14.1 3.5,12.1 2.4,12.6 8,15 13.6,12.6 12.5,12.1 		"/>
	</g>
	<g>
		<polygon fill="#4479FB" points="8.4,9.1 8.4,10.7 9.2,10.7 8,11.9 6.8,10.7 7.6,10.7 7.6,9 2.4,11.3 8,13.7 13.6,11.3 		"/>
	</g>
	<polygon fill="#4479FB" points="9.2,8.7 8,7.5 6.8,8.7 7.6,8.7 7.6,9 7.9,8.9 8.4,9.1 8.4,8.7 	"/>
	<g>
		<path fill="#4479FB" d="M13,8.3V8l0.3-0.2c0-0.2-0.1-0.4-0.2-0.5l-0.4,0.1l-0.2-0.2l0.1-0.3c-0.2-0.1-0.3-0.2-0.5-0.2l-0.2,0.3
			h-0.3l-0.2-0.3c-0.2,0-0.4,0.1-0.5,0.2L11,7.2l-0.2,0.2l-0.3-0.1c-0.1,0.2-0.2,0.3-0.2,0.5L10.5,8v0.3l-0.3,0.2
			c0,0.2,0.1,0.4,0.2,0.5L10.8,9L11,9.2l-0.1,0.3c0.2,0.1,0.3,0.2,0.5,0.2l0.2-0.3h0.3l0.2,0.3c0.2,0,0.4-0.1,0.5-0.2l-0.1-0.4
			l0.2-0.2L13.1,9c0.1-0.2,0.2-0.3,0.2-0.5L13,8.3z M11.8,8.8c-0.3,0-0.6-0.3-0.6-0.6c0-0.3,0.3-0.6,0.6-0.6c0.3,0,0.6,0.3,0.6,0.6
			C12.4,8.5,12.1,8.8,11.8,8.8z"/>
	</g>
</g>
<g>
</g>
<g>
</g>
<g>
</g>
<g>
</g>
<g>
</g>
<g>
</g>
</svg>
