<?xml version="1.0" encoding="utf-8"?>
<!-- Generator: Adobe Illustrator 25.0.0, SVG Export Plug-In . SVG Version: 6.00 Build 0)  -->
<svg version="1.1" id="图层_1" xmlns="http://www.w3.org/2000/svg" xmlns:xlink="http://www.w3.org/1999/xlink" x="0px" y="0px"
	 viewBox="0 0 16 16" enable-background="new 0 0 16 16" xml:space="preserve">
<g>
	<path fill="#4479FB" d="M8,2c3.3,0,6,2.7,6,6s-2.7,6-6,6s-6-2.7-6-6S4.7,2,8,2 M8,1C4.1,1,1,4.1,1,8c0,3.9,3.1,7,7,7s7-3.1,7-7
		C15,4.1,11.9,1,8,1L8,1z"/>
	<g>
		<g>
			<path fill="#4479FB" d="M8,4C6.1,4,5.3,4.8,5.3,6.4v3.2C5.3,11.2,6.1,12,8,12s2.7-0.8,2.7-2.5V7.4H8v1.3h1.3v0.8
				c0,0.8-0.4,1.2-1.4,1.2c-1,0-1.2-0.4-1.2-1.2V6.4c0-0.7,0.2-1.2,1.2-1.2c1.1,0,1.3,0.4,1.3,1.1h1.4C10.7,4.7,9.9,4,8,4L8,4z"/>
		</g>
	</g>
</g>
<g>
</g>
<g>
</g>
<g>
</g>
<g>
</g>
<g>
</g>
<g>
</g>
</svg>
