<?xml version="1.0" encoding="utf-8"?>
<!-- Generator: Adobe Illustrator 25.0.0, SVG Export Plug-In . SVG Version: 6.00 Build 0)  -->
<svg version="1.1" id="图层_1" xmlns="http://www.w3.org/2000/svg" xmlns:xlink="http://www.w3.org/1999/xlink" x="0px" y="0px"
	 viewBox="0 0 40 40" enable-background="new 0 0 40 40" xml:space="preserve">
<path fill="#4479FB" d="M38.3,1.3L38.3,1.3c-1-0.9-2.2-1.3-3.4-1.3c-1.4,0-2.7,0.6-3.7,1.6L13.4,21.1c-0.2,0.2-0.3,0.4-0.4,0.6
	L10.9,28c-0.2,0.7-0.1,1.5,0.3,2.1c0.4,0.6,1.2,1,1.9,1h0c0.3,0,0.7-0.1,1-0.2l6.1-2.7c0.2-0.1,0.4-0.2,0.6-0.4L38.6,8.4
	C40.5,6.4,40.3,3.2,38.3,1.3z M14.9,26.9l1.2-3.7l0.1-0.1l2.3,2.1l-0.1,0.1L14.9,26.9z M36.1,6.1L20.9,22.6l-2.3-2.1L33.7,3.9
	c0.3-0.3,0.7-0.5,1.1-0.5c0.4,0,0.8,0.1,1,0.4l0,0C36.6,4.5,36.6,5.4,36.1,6.1L36.1,6.1z"/>
<path fill="#808080" d="M34.8,15.9c-0.9,0-1.7,0.8-1.7,1.7v14.6c0,2.4-2,4.4-4.4,4.4H7.9c-2.4,0-4.4-2-4.4-4.4V11.5
	c0-2.4,2-4.4,4.4-4.4H23c0.9,0,1.7-0.8,1.7-1.7S23.9,3.7,23,3.7H7.9c-4.3,0-7.8,3.5-7.8,7.8v20.7c0,4.3,3.5,7.8,7.8,7.8h20.8
	c4.3,0,7.8-3.5,7.8-7.8V17.6C36.6,16.6,35.8,15.9,34.8,15.9L34.8,15.9z"/>
</svg>
