<?xml version="1.0" encoding="utf-8"?>
<!-- Generator: Adobe Illustrator 25.0.0, SVG Export Plug-In . SVG Version: 6.00 Build 0)  -->
<svg version="1.1" id="图层_1" xmlns="http://www.w3.org/2000/svg" xmlns:xlink="http://www.w3.org/1999/xlink" x="0px" y="0px"
	 viewBox="0 0 16 16" enable-background="new 0 0 16 16" xml:space="preserve">
<g>
	<g>
		<g>
			<path fill="#4479FB" d="M8,10c-0.6,0-1-0.4-1-1V4c0-0.6,0.4-1,1-1s1,0.4,1,1v5C9,9.5,8.5,10,8,10z"/>
		</g>
		<circle fill="#4479FB" cx="8" cy="12" r="1"/>
	</g>
	<path fill="#808080" d="M8,1.7c3.4,0,6.2,2.8,6.2,6.2s-2.8,6.2-6.2,6.2S1.7,11.4,1.7,8S4.5,1.7,8,1.7 M8,1C4.1,1,1,4.1,1,8
		c0,3.9,3.1,7,7,7c3.9,0,7-3.1,7-7C15,4.1,11.9,1,8,1L8,1z"/>
</g>
<g>
</g>
<g>
</g>
<g>
</g>
<g>
</g>
<g>
</g>
<g>
</g>
</svg>
