<?xml version="1.0" encoding="utf-8"?>
<!-- Generator: Adobe Illustrator 25.0.0, SVG Export Plug-In . SVG Version: 6.00 Build 0)  -->
<svg version="1.1" id="图层_1" xmlns="http://www.w3.org/2000/svg" xmlns:xlink="http://www.w3.org/1999/xlink" x="0px" y="0px"
	 viewBox="0 0 16 16" enable-background="new 0 0 16 16" xml:space="preserve">
<g>
	<path fill="#808080" d="M15.4,12.8l-6.1-11C8.9,1.3,8.5,1,8,1S7,1.3,6.7,1.7l-6.1,11c-0.2,0.4-0.2,1,0,1.5C0.9,14.7,1.3,15,1.8,15
		h12.3c0.5,0,1-0.3,1.3-0.7C15.7,13.8,15.7,13.3,15.4,12.8z M1.8,13.5L8,2.5l6.1,11H1.8z M7.3,5.4h1.5v4.4H7.3V5.4z M8.7,12.8H7.3
		v-1.5h1.5v1.5H8.7z"/>
</g>
<g>
</g>
<g>
</g>
<g>
</g>
<g>
</g>
<g>
</g>
<g>
</g>
</svg>
