<?xml version="1.0" encoding="utf-8"?>
<!-- Generator: Adobe Illustrator 25.0.0, SVG Export Plug-In . SVG Version: 6.00 Build 0)  -->
<svg version="1.1" id="图层_1" xmlns="http://www.w3.org/2000/svg" xmlns:xlink="http://www.w3.org/1999/xlink" x="0px" y="0px"
	 viewBox="0 0 100 100" enable-background="new 0 0 100 100" xml:space="preserve">
<g>
	<g>
		<path fill="#4479FB" d="M50,92.8c-22.2,0-40.3-18.1-40.3-40.3c0-12.5,5.9-24.4,15.7-32c2.3-1.8,5.6-1.3,7.3,1
			c1.8,2.3,1.3,5.6-1,7.3c-7.3,5.6-11.7,14.5-11.7,23.7C20.2,69,33.6,82.4,50,82.4S79.8,69,79.8,52.6c0-9.4-4.3-18-11.9-23.7
			c-2.3-1.7-2.8-5-1-7.3c1.7-2.3,5-2.8,7.3-1c10.2,7.7,16,19.4,16,32C90.3,74.8,72.2,92.8,50,92.8z"/>
	</g>
	<g>
		<path fill="#4479FB" d="M50,53.2c-2.9,0-5.2-2.3-5.2-5.2V12.4c0-2.9,2.3-5.2,5.2-5.2s5.2,2.3,5.2,5.2V48
			C55.2,50.9,52.9,53.2,50,53.2z"/>
	</g>
</g>
<g>
</g>
<g>
</g>
<g>
</g>
<g>
</g>
<g>
</g>
<g>
</g>
</svg>
