<?xml version="1.0" encoding="utf-8"?>
<!-- Generator: Adobe Illustrator 25.0.0, SVG Export Plug-In . SVG Version: 6.00 Build 0)  -->
<svg version="1.1" id="图层_1" xmlns="http://www.w3.org/2000/svg" xmlns:xlink="http://www.w3.org/1999/xlink" x="0px" y="0px"
	 viewBox="0 0 16 16" enable-background="new 0 0 16 16" xml:space="preserve">
<path fill="#4479FB" d="M15,6.5c0-1-0.5-1.5-1.5-1.5C11.9,5,10.6,5,9,5C8.6,5,8.4,5,8.3,4.6C8.1,4,7.9,2.9,7,2.9c-0.9,0-3.7,0-4.6,0
	c-0.9,0-1.5,0.5-1.5,1.4c0,2.7,0,4.8,0,7.5c0,0.9,0.5,1.3,1.3,1.3c1.7,0,3.3,0,5,0c1.6,0,4.8,0,6.4,0c1,0,1.4-0.4,1.4-1.4
	C15,9.5,15,8.8,15,6.5z M7.8,10.9V9.6C6,10.1,5,12,5,12C5.3,8.2,7,7.7,7.8,7.7V6.5l2.5,2.2L7.8,10.9z"/>
</svg>
