<?xml version="1.0" encoding="utf-8"?>
<!-- Generator: Adobe Illustrator 25.0.0, SVG Export Plug-In . SVG Version: 6.00 Build 0)  -->
<svg version="1.1" id="图层_1" xmlns="http://www.w3.org/2000/svg" xmlns:xlink="http://www.w3.org/1999/xlink" x="0px" y="0px"
	 viewBox="0 0 16 16" enable-background="new 0 0 16 16" xml:space="preserve">
<g>
	<path fill="#4479FB" d="M13.5,6.5c-0.2,0-0.4,0.2-0.4,0.4v5.4c0,0.4-0.4,0.8-0.8,0.8H3.7c-0.4,0-0.8-0.4-0.8-0.8V5
		c0-0.4,0.4-0.8,0.8-0.8h7.9l-0.5,0.5c-0.2,0.2-0.2,0.5,0,0.6c0.1,0.1,0.2,0.1,0.3,0.1c0.1,0,0.2,0,0.3-0.1L13,4.1
		c0.1-0.1,0.1-0.2,0.1-0.3s0-0.2-0.1-0.3l-1.3-1.3C11.5,2,11.2,2,11,2.1c-0.2,0.2-0.2,0.5,0,0.6l0.5,0.5H3.7C2.8,3.3,2,4.1,2,5v7.3
		C2,13.2,2.8,14,3.7,14h8.6c0.9,0,1.7-0.8,1.7-1.7V6.9C14,6.7,13.8,6.5,13.5,6.5z"/>
	<g>
		<path fill="#4479FB" d="M8.2,10V8.8h2.4v2.4c-0.2,0.3-0.5,0.6-0.9,0.7c-0.4,0.2-0.9,0.3-1.4,0.3c-0.6,0-1.1-0.1-1.6-0.4
			c-0.5-0.3-0.8-0.6-1.1-1.1c-0.2-0.5-0.4-1-0.4-1.6c0-0.6,0.1-1.1,0.4-1.6C6,7.1,6.4,6.8,6.8,6.5s1-0.4,1.5-0.4
			c0.4,0,0.7,0.1,1.1,0.2c0.3,0.1,0.6,0.3,0.8,0.5c0.2,0.2,0.4,0.4,0.4,0.7L9.5,8.2C9.4,7.9,9.2,7.7,9,7.6C8.8,7.5,8.6,7.4,8.3,7.4
			C8,7.4,7.8,7.5,7.5,7.6C7.3,7.8,7.1,8,7,8.2c-0.1,0.3-0.2,0.6-0.2,1c0,0.6,0.1,1,0.4,1.3C7.5,10.9,7.9,11,8.4,11
			c0.4,0,0.7-0.1,0.9-0.3V10H8.2z"/>
	</g>
</g>
</svg>
