<?xml version="1.0" encoding="utf-8"?>
<!-- Generator: Adobe Illustrator 25.0.0, SVG Export Plug-In . SVG Version: 6.00 Build 0)  -->
<svg version="1.1" id="图层_1" xmlns="http://www.w3.org/2000/svg" xmlns:xlink="http://www.w3.org/1999/xlink" x="0px" y="0px"
	 viewBox="0 0 16 16" enable-background="new 0 0 16 16" xml:space="preserve">
<path fill="#4479FB" d="M13.3,4.9L9.6,1.3C9.5,1.1,9.2,1,8.9,1H3.7C3,1,2.4,1.6,2.4,2.3v11.4C2.4,14.4,3,15,3.7,15h8.6
	c0.7,0,1.3-0.6,1.3-1.3V5.7C13.6,5.4,13.5,5.1,13.3,4.9z M8.4,10.5V8.8C6,9.4,4.5,12,4.5,12C5,6.8,7.3,6.1,8.4,6.1V4.4l3.4,3
	L8.4,10.5z"/>
</svg>
