<?xml version="1.0" encoding="utf-8"?>
<!-- Generator: Adobe Illustrator 25.0.0, SVG Export Plug-In . SVG Version: 6.00 Build 0)  -->
<svg version="1.1" id="图层_1" xmlns="http://www.w3.org/2000/svg" xmlns:xlink="http://www.w3.org/1999/xlink" x="0px" y="0px"
	 viewBox="0 0 16 16" enable-background="new 0 0 16 16" xml:space="preserve">
<g>
	<path fill="#808080" d="M14.7,7.7C14.6,7.5,12.4,3.9,8,3.9S1.4,7.5,1.3,7.7L1.1,8l0.2,0.3c0.1,0.1,2.3,3.7,6.7,3.7s6.6-3.6,6.7-3.7
		L14.9,8L14.7,7.7z M8,10.7c-2.9,0-4.7-1.9-5.3-2.7C3.3,7.2,5.1,5.3,8,5.3s4.7,1.9,5.3,2.7C12.7,8.8,10.9,10.7,8,10.7z M8,6
		C6.8,6,6,6.8,6,8s0.9,2,2,2s2-0.9,2-2S9.1,6,8,6z M8,8.7C7.6,8.7,7.3,8.4,7.3,8c0-0.4,0.3-0.7,0.7-0.7S8.7,7.6,8.7,8
		C8.7,8.4,8.4,8.7,8,8.7z"/>
</g>
<g>
</g>
<g>
</g>
<g>
</g>
<g>
</g>
<g>
</g>
<g>
</g>
</svg>
