<?xml version="1.0" encoding="utf-8"?>
<!-- Generator: Adobe Illustrator 25.0.0, SVG Export Plug-In . SVG Version: 6.00 Build 0)  -->
<svg version="1.1" id="图层_1" xmlns="http://www.w3.org/2000/svg" xmlns:xlink="http://www.w3.org/1999/xlink" x="0px" y="0px"
	 viewBox="0 0 128 128" enable-background="new 0 0 128 128" xml:space="preserve">
<g>
	<path fill="#174CCE" d="M27.7,52.6c-3.7-3.7-3.7-9.6,0-13.3l0,0l31-31c3.7-3.7,9.6-3.7,13.3,0l0,0l31,31c3.7,3.7,3.7,9.6,0,13.3
		l0,0l-31,31c-3.7,3.7-9.6,3.7-13.3,0l0,0L27.7,52.6z M115.9,109.5V65.6l-13,10.1v33.8H90V88.1L77,98.2v11.3H57.5v-11l-13-10.1v21.1
		h-13V76.1L18.6,66v43.5h-13v13h116.8v-13H115.9z"/>
</g>
</svg>
