<?xml version="1.0" encoding="utf-8"?>
<!-- Generator: Adobe Illustrator 25.0.0, SVG Export Plug-In . SVG Version: 6.00 Build 0)  -->
<svg version="1.1" id="图层_1" xmlns="http://www.w3.org/2000/svg" xmlns:xlink="http://www.w3.org/1999/xlink" x="0px" y="0px"
	 viewBox="0 0 16 16" enable-background="new 0 0 16 16" xml:space="preserve">
<g>
	<path fill="#4479FB" d="M12.2,5.9c-0.4,0-0.7-0.3-0.7-0.7c-0.9,0-1.4-0.7-1.4-1.4l-0.7,0C8.5,3.8,8.1,3.1,8,2.5c0,0,0,0,0,0H8
		c0,0,0,0,0,0c0,0.7-0.5,1.3-1.4,1.3H5.9c0,0,0,0,0,0c0,0.7-0.4,1.4-1.3,1.4c0,0.4-0.3,0.6-0.7,0.6c-0.4,0-0.7-0.3-0.7-0.7
		c0-0.5,0.2-0.8,0.4-1c0.4-0.4,0.9-0.4,1-0.4c0-1,0.8-1.4,1.3-1.4h0.7c0-0.5,0.2-0.8,0.4-0.9c0.4-0.4,0.9-0.4,1-0.4h0
		c0.1,0,0.6,0,1,0.4c0.2,0.2,0.4,0.5,0.4,0.9h0.7c0.6,0,1.4,0.4,1.4,1.4c0.1,0,0.6,0,1,0.4c0.2,0.2,0.4,0.5,0.4,1
		C12.9,5.5,12.6,5.9,12.2,5.9z"/>
	<path fill="#808080" d="M3.2,10.2C2.8,9.8,2.8,9,3.2,8.5l0,0l3.9-3.9c0.5-0.5,1.2-0.5,1.7,0l0,0l3.9,3.9c0.5,0.5,0.5,1.2,0,1.7l0,0
		l-3.9,3.9c-0.5,0.5-1.2,0.5-1.7,0l0,0L3.2,10.2z"/>
</g>
<g>
</g>
<g>
</g>
<g>
</g>
<g>
</g>
<g>
</g>
<g>
</g>
</svg>
