<?xml version="1.0" encoding="UTF-8" standalone="no"?>
<!-- Generator: Adobe Illustrator 24.3.0, SVG Export Plug-In . SVG Version: 6.00 Build 0)  -->

<svg
   version="1.0"
   id="Layer_1"
   x="0px"
   y="0px"
   viewBox="0 0 128 128"
   enable-background="new 0 0 128 128"
   xml:space="preserve"
   sodipodi:docname="fuzzy_skin_painting2.svg"
   inkscape:version="1.2 (dc2aedaf03, 2022-05-15)"
   xmlns:inkscape="http://www.inkscape.org/namespaces/inkscape"
   xmlns:sodipodi="http://sodipodi.sourceforge.net/DTD/sodipodi-0.dtd"
   xmlns="http://www.w3.org/2000/svg"
   xmlns:svg="http://www.w3.org/2000/svg"><defs
   id="defs32">
	
</defs><sodipodi:namedview
   id="namedview30"
   pagecolor="#ffffff"
   bordercolor="#000000"
   borderopacity="0.25"
   inkscape:showpageshadow="2"
   inkscape:pageopacity="0.0"
   inkscape:pagecheckerboard="0"
   inkscape:deskcolor="#d1d1d1"
   showgrid="false"
   inkscape:zoom="6.484375"
   inkscape:cx="47.884337"
   inkscape:cy="64.231325"
   inkscape:window-width="2400"
   inkscape:window-height="1411"
   inkscape:window-x="2391"
   inkscape:window-y="-9"
   inkscape:window-maximized="1"
   inkscape:current-layer="Layer_1" />
<polyline
   fill="none"
   stroke="#174CCE"
   stroke-width="8"
   stroke-linecap="round"
   stroke-linejoin="round"
   stroke-miterlimit="10"
   points="   120,32 64,8 8,32 8,96 64,120  "
   id="polyline2" /><polyline
   fill="none"
   stroke="#174CCE"
   stroke-width="8"
   stroke-linecap="round"
   stroke-linejoin="round"
   stroke-miterlimit="10"
   points="   8,32 64,56 64,120  "
   id="polyline6" /><line
   fill="none"
   stroke="#174CCE"
   stroke-width="8"
   stroke-linecap="round"
   stroke-linejoin="round"
   stroke-miterlimit="10"
   x1="64"
   y1="56"
   x2="120"
   y2="32"
   id="line8" /><line
   fill="none"
   stroke="#174CCE"
   stroke-width="8"
   stroke-linecap="round"
   stroke-linejoin="round"
   stroke-miterlimit="10"
   x1="64"
   y1="120"
   x2="120"
   y2="96"
   id="line10" /><line
   fill="none"
   stroke="#174CCE"
   stroke-width="8"
   stroke-linecap="round"
   stroke-linejoin="round"
   stroke-miterlimit="10"
   x1="120"
   y1="96"
   x2="120"
   y2="32"
   id="line12" />
<path
   id="wave.svg"
   fill="#174CCE"
   d="m 12.703103,43.102401 c 0,0.01879 0,0.03758 0,0.03758 0,0.0094 0,0.0094 0,0.0094 0,0 0,0 0,-0.0094 0.01879,-0.01879 0.06577,-0.09395 0.234886,-0.150327 0.291259,-0.09395 0.789218,-0.09395 1.418712,0.159723 0.629495,0.244281 1.127454,0.629494 1.418712,0.958335 0.150327,0.187909 0.2067,0.291259 0.225491,0.338236 0.01879,2.687097 2.339465,5.129912 4.397068,5.93792 2.057602,0.817404 4.378276,0.2067 4.397067,-2.471001 0.01879,-0.02819 0.06577,-0.08456 0.225491,-0.140932 0.291259,-0.10335 0.789217,-0.09395 1.418712,0.150327 0.629494,0.253677 1.127453,0.63889 1.418712,0.967731 0.159722,0.178513 0.216095,0.291258 0.234886,0.32884 0.01879,2.687097 2.339465,5.129912 4.387672,5.947316 2.057602,0.817404 4.378277,0.197304 4.397067,-2.471002 0.01879,-0.02819 0.07516,-0.09395 0.234887,-0.140931 0.291258,-0.10335 0.779821,-0.09395 1.409316,0.150327 0.629495,0.253677 1.127453,0.63889 1.418712,0.96773 0.159723,0.178514 0.216095,0.281864 0.234886,0.328841 0.0094,1.456294 0.817404,2.86561 1.700575,3.861527 0.901963,1.024104 2.048207,1.832112 3.241428,2.301884 1.193222,0.469772 2.339466,0.573122 3.241428,0.263072 0.892568,-0.300654 1.700576,-1.089871 1.700576,-2.55556 0,-0.01879 0.0094,-0.131537 0.187909,-0.216095 0.187908,-0.09396 0.497958,-0.112746 0.911358,0.04698 0.413399,0.159722 0.732844,0.43219 0.911358,0.676472 0.187908,0.22549 0.187908,0.347631 0.187908,0.366422 0,1.465689 0.808009,2.893797 1.700576,3.899109 0.901962,1.014708 2.057602,1.822716 3.241428,2.301884 1.193221,0.469772 2.348861,0.573122 3.250823,0.263072 0.883172,-0.300654 1.69118,-1.089871 1.69118,-2.555561 l -3.288405,-1.305966 c 0,-0.01879 0,-0.02819 0,-0.03758 0,-0.0094 0,-0.0094 0,-0.0094 0,0 0,0 0,0.0094 -0.0094,0.02819 -0.06577,0.09395 -0.234886,0.150327 -0.291259,0.10335 -0.789218,0.09396 -1.418712,-0.159722 -0.629495,-0.244282 -1.127453,-0.629495 -1.418712,-0.958336 -0.150327,-0.178513 -0.2067,-0.291258 -0.225491,-0.32884 -0.01879,-2.687097 -2.339465,-5.139308 -4.397067,-5.947316 -2.057603,-0.817403 -4.368882,-0.2067 -4.397068,2.471002 -0.0094,0.02819 -0.06577,0.09395 -0.225491,0.140931 -0.291258,0.10335 -0.789217,0.09396 -1.418712,-0.150327 -0.629494,-0.253677 -1.127453,-0.63889 -1.418712,-0.96773 -0.159722,-0.178514 -0.216095,-0.281864 -0.22549,-0.328841 -0.01879,-1.456294 -0.817404,-2.86561 -1.700575,-3.861527 -0.901963,-1.024104 -2.057603,-1.832112 -3.250824,-2.301884 -1.183826,-0.469772 -2.339465,-0.573122 -3.241428,-0.272468 -0.892567,0.31005 -1.700575,1.089872 -1.700575,2.564956 0,0.0094 0,0.131537 -0.187909,0.216096 -0.178513,0.09395 -0.497959,0.112745 -0.911358,-0.04698 -0.404004,-0.159722 -0.723449,-0.441586 -0.911358,-0.676472 -0.178514,-0.22549 -0.187909,-0.347631 -0.187909,-0.366422 0,-1.465689 -0.808008,-2.893796 -1.700575,-3.899109 -0.892567,-1.024103 -2.048207,-1.832111 -3.241428,-2.301884 -1.193222,-0.469772 -2.339466,-0.573122 -3.241428,-0.263072 -0.892567,0.300654 -1.700576,1.089871 -1.700576,2.555561 0,0.01879 0,0.131536 -0.187908,0.216095 -0.187909,0.09395 -0.497959,0.112745 -0.911358,-0.04698 -0.4134,-0.159723 -0.72345,-0.432191 -0.911358,-0.667077 -0.187909,-0.234886 -0.187909,-0.357027 -0.187909,-0.375818 0,-1.465689 -0.808008,-2.884401 -1.700576,-3.899109 -0.901962,-1.014708 -2.048206,-1.822716 -3.241428,-2.292488 -1.193221,-0.479168 -2.339465,-0.582517 -3.250823,-0.272468 -0.883171,0.300654 -1.6911802,1.089872 -1.6911802,2.555561 z m 0,48.405324 c 0,0.01879 0,0.03758 0,0.04698 0,0 0,0.0094 0,0.0094 0,0 0,-0.0094 0,-0.0094 0.01879,-0.02819 0.06577,-0.09396 0.234886,-0.150327 0.291259,-0.10335 0.789218,-0.09396 1.418712,0.150327 0.629495,0.253677 1.127454,0.63889 1.418712,0.96773 0.150327,0.178514 0.2067,0.281864 0.225491,0.328841 0.01879,2.687097 2.339465,5.129914 4.397068,5.947314 2.057602,0.80801 4.378276,0.19731 4.397067,-2.471 0.01879,-0.02819 0.06577,-0.09395 0.225491,-0.150327 0.291259,-0.09396 0.789217,-0.09396 1.418712,0.159722 0.629494,0.253677 1.127453,0.638891 1.418712,0.967725 0.159722,0.17852 0.216095,0.28187 0.234886,0.32884 0.01879,2.6871 2.339465,5.12992 4.387672,5.93793 2.057602,0.8174 4.378277,0.2067 4.397067,-2.471 0.01879,-0.0282 0.07516,-0.0846 0.234887,-0.14094 0.291258,-0.10335 0.779821,-0.094 1.409316,0.15973 0.629495,0.24428 1.127453,0.62949 1.418712,0.95833 0.159723,0.17852 0.216095,0.29126 0.234886,0.32884 0.0094,1.4563 0.817404,2.86561 1.700575,3.87093 0.901963,1.0147 2.048207,1.82271 3.241428,2.29248 1.193222,0.46978 2.339466,0.57313 3.241428,0.27247 0.892568,-0.30065 1.700576,-1.08987 1.700576,-2.55556 0,-0.0188 0.0094,-0.13154 0.187909,-0.22549 0.187908,-0.0846 0.497958,-0.11275 0.911358,0.047 0.413399,0.16912 0.732844,0.44158 0.911358,0.67647 0.187908,0.23489 0.187908,0.34763 0.187908,0.36642 0,1.46569 0.808009,2.8938 1.700576,3.89911 0.901962,1.0241 2.057602,1.83211 3.241428,2.30188 1.193221,0.46978 2.348861,0.57313 3.250823,0.26308 0.883172,-0.30066 1.69118,-1.08048 1.69118,-2.55556 l -3.288405,-1.29658 c 0,-0.0282 0,-0.0376 0,-0.047 0,0 0,-0.009 0,-0.009 0,0 0,0 0,0.009 -0.0094,0.0282 -0.06577,0.094 -0.234886,0.15032 -0.291259,0.10335 -0.789218,0.094 -1.418712,-0.15032 -0.629495,-0.25368 -1.127453,-0.63889 -1.418712,-0.96773 -0.150327,-0.17852 -0.2067,-0.28187 -0.225491,-0.32884 -0.01879,-2.6871 -2.339465,-5.12992 -4.397067,-5.94732 -2.057603,-0.80801 -4.368882,-0.1973 -4.397068,2.471 -0.0094,0.0282 -0.06577,0.094 -0.225491,0.15033 -0.291258,0.0939 -0.789217,0.0939 -1.418712,-0.15972 -0.629494,-0.25368 -1.127453,-0.63889 -1.418712,-0.96773 -0.159722,-0.17852 -0.216095,-0.28187 -0.22549,-0.32884 -0.01879,-1.4469 -0.817404,-2.85622 -1.700575,-3.86153 -0.901963,-1.0241 -2.057603,-1.82272 -3.250824,-2.30189 -1.183826,-0.469768 -2.339465,-0.573118 -3.241428,-0.26307 -0.892567,0.30065 -1.700575,1.08987 -1.700575,2.55556 0,0.0188 0,0.13154 -0.187909,0.22549 -0.178513,0.0846 -0.497959,0.10335 -0.911358,-0.0564 -0.404004,-0.15972 -0.723449,-0.43219 -0.911358,-0.66708 -0.178514,-0.23488 -0.187909,-0.35702 -0.187909,-0.37581 0,-1.4657 -0.808008,-2.884405 -1.700575,-3.899113 -0.892567,-1.014708 -2.048207,-1.822716 -3.241428,-2.292488 -1.193222,-0.469772 -2.339466,-0.573122 -3.241428,-0.272468 -0.892567,0.300654 -1.700576,1.089871 -1.700576,2.555561 0,0.01879 0,0.131536 -0.187908,0.22549 -0.187909,0.08456 -0.497959,0.112745 -0.911358,-0.04698 -0.4134,-0.169118 -0.72345,-0.441586 -0.911358,-0.676472 -0.187909,-0.234886 -0.187909,-0.347631 -0.187909,-0.366422 0,-1.465689 -0.808008,-2.893797 -1.700576,-3.899109 -0.901962,-1.024104 -2.048206,-1.832112 -3.241428,-2.301884 -1.193221,-0.469772 -2.339465,-0.573122 -3.250823,-0.263072 -0.883171,0.300654 -1.6911802,1.080476 -1.6911802,2.55556 z m 0,-9.677306 c 0,0.01879 0,0.02819 0,0.03758 0,0.0094 0,0.0094 0,0.0094 0,0 0,0 0,-0.0094 0.01879,-0.01879 0.06577,-0.09395 0.234886,-0.150327 0.291259,-0.09395 0.789218,-0.09395 1.418712,0.159723 0.629495,0.244281 1.127454,0.629495 1.418712,0.958335 0.150327,0.178514 0.2067,0.291259 0.225491,0.328841 0.01879,2.687096 2.339465,5.139307 4.397068,5.947315 2.057602,0.817404 4.378276,0.2067 4.397067,-2.471001 0.01879,-0.02819 0.06577,-0.09395 0.225491,-0.140932 0.291259,-0.10335 0.789217,-0.09395 1.418712,0.150327 0.629494,0.253677 1.127453,0.63889 1.418712,0.967731 0.159722,0.178513 0.216095,0.281863 0.234886,0.32884 0.01879,2.687097 2.339465,5.129913 4.387672,5.947316 2.057602,0.817404 4.378277,0.197304 4.397067,-2.471002 0.01879,-0.02819 0.07516,-0.09395 0.234887,-0.150327 0.291258,-0.09395 0.779821,-0.08456 1.409316,0.159723 0.629495,0.253677 1.127453,0.63889 1.418712,0.967731 0.159723,0.178513 0.216095,0.281863 0.234886,0.32884 0.0094,1.456294 0.817404,2.86561 1.700575,3.861527 0.901963,1.024101 2.048207,1.832111 3.241428,2.301891 1.193222,0.46977 2.339466,0.57312 3.241428,0.26307 0.892568,-0.30065 1.700576,-1.08988 1.700576,-2.555565 0,-0.01879 0.0094,-0.131536 0.187909,-0.216095 0.187908,-0.09396 0.497958,-0.112746 0.911358,0.04698 0.413399,0.159722 0.732844,0.43219 0.911358,0.66707 0.187908,0.23489 0.187908,0.35703 0.187908,0.37582 0,1.46569 0.808009,2.8938 1.700576,3.89911 0.901962,1.01471 2.057602,1.82272 3.241428,2.30189 1.193221,0.46977 2.348861,0.57312 3.250823,0.26307 0.883172,-0.30065 1.69118,-1.08987 1.69118,-2.55556 l -3.288405,-1.30597 c 0,-0.0188 0,-0.0282 0,-0.0376 0,-0.009 0,-0.009 0,-0.009 0,0 0,0 0,0.009 -0.0094,0.0188 -0.06577,0.094 -0.234886,0.15033 -0.291259,0.0939 -0.789218,0.0939 -1.418712,-0.15972 -0.629495,-0.24429 -1.127453,-0.6295 -1.418712,-0.95834 -0.150327,-0.17851 -0.2067,-0.29126 -0.225491,-0.32884 -0.01879,-2.696493 -2.339465,-5.139309 -4.397067,-5.947317 -2.057603,-0.817403 -4.368882,-0.2067 -4.397068,2.471002 -0.0094,0.02819 -0.06577,0.08456 -0.225491,0.140931 -0.291258,0.10335 -0.789217,0.09395 -1.418712,-0.150327 -0.629494,-0.253677 -1.127453,-0.63889 -1.418712,-0.96773 -0.159722,-0.178514 -0.216095,-0.291259 -0.22549,-0.328841 -0.01879,-1.456294 -0.817404,-2.86561 -1.700575,-3.861527 -0.901963,-1.024103 -2.057603,-1.832112 -3.250824,-2.301884 -1.183826,-0.469772 -2.339465,-0.573122 -3.241428,-0.272468 -0.892567,0.31005 -1.700575,1.089872 -1.700575,2.564956 0,0.0094 0,0.131537 -0.187909,0.216096 -0.178513,0.09395 -0.497959,0.112745 -0.911358,-0.04698 -0.404004,-0.169118 -0.723449,-0.441585 -0.911358,-0.676471 -0.178514,-0.234887 -0.187909,-0.347632 -0.187909,-0.366423 0,-1.465689 -0.808008,-2.893796 -1.700575,-3.899109 -0.892567,-1.024103 -2.048207,-1.832111 -3.241428,-2.301883 -1.193222,-0.469773 -2.339466,-0.573123 -3.241428,-0.263073 -0.892567,0.300654 -1.700576,1.089872 -1.700576,2.555561 0,0.01879 0,0.131536 -0.187908,0.216095 -0.187909,0.09395 -0.497959,0.112745 -0.911358,-0.04698 -0.4134,-0.159723 -0.72345,-0.432191 -0.911358,-0.676472 -0.187909,-0.225491 -0.187909,-0.347632 -0.187909,-0.366423 0,-1.465689 -0.808008,-2.884401 -1.700576,-3.899109 -0.901962,-1.014707 -2.048206,-1.822716 -3.241428,-2.301883 -1.193221,-0.469772 -2.339465,-0.573122 -3.250823,-0.263073 -0.883171,0.300655 -1.6911802,1.089872 -1.6911802,2.555561 z m 0,-9.686703 c 0,0.01879 0,0.03758 0,0.04698 0,0 0,0.0094 0,0.0094 0,0 0,0 0,-0.0094 0.01879,-0.02819 0.06577,-0.09395 0.234886,-0.150327 0.291259,-0.10335 0.789218,-0.09396 1.418712,0.150327 0.629495,0.253677 1.127454,0.63889 1.418712,0.96773 0.150327,0.178514 0.2067,0.281864 0.225491,0.328841 0.01879,2.687097 2.339465,5.129912 4.397068,5.947316 2.057602,0.808008 4.378276,0.197304 4.397067,-2.471002 0.01879,-0.02819 0.06577,-0.09395 0.225491,-0.150327 0.291259,-0.09395 0.789217,-0.09395 1.418712,0.159722 0.629494,0.253677 1.127453,0.63889 1.418712,0.967731 0.159722,0.178513 0.216095,0.281863 0.234886,0.328841 0.01879,2.687096 2.339465,5.129912 4.387672,5.93792 2.057602,0.817403 4.378277,0.2067 4.397067,-2.461606 0.01879,-0.03758 0.07516,-0.09395 0.234887,-0.150327 0.291258,-0.10335 0.779821,-0.09396 1.409316,0.159722 0.629495,0.244282 1.127453,0.629495 1.418712,0.958335 0.159723,0.178514 0.216095,0.291259 0.234886,0.328841 0.0094,1.456294 0.817404,2.86561 1.700575,3.870923 0.901963,1.014707 2.048207,1.822716 3.241428,2.292488 1.193222,0.469772 2.339466,0.573122 3.241428,0.272468 0.892568,-0.300655 1.700576,-1.089872 1.700576,-2.555561 0,-0.01879 0.0094,-0.131536 0.187909,-0.225491 0.187908,-0.08456 0.497958,-0.112745 0.911358,0.04698 0.413399,0.169118 0.732844,0.441585 0.911358,0.676472 0.187908,0.234886 0.187908,0.347631 0.187908,0.366422 0,1.465689 0.808009,2.893796 1.700576,3.899109 0.901962,1.024103 2.057602,1.832111 3.241428,2.301884 1.193221,0.469772 2.348861,0.573122 3.250823,0.263072 0.883172,-0.300654 1.69118,-1.080476 1.69118,-2.555561 l -3.288405,-1.296571 c 0,-0.01879 0,-0.03758 0,-0.04698 0,0 0,-0.0094 0,-0.0094 0,0 0,0 0,0.0094 -0.0094,0.02819 -0.06577,0.09395 -0.234886,0.150327 -0.291259,0.10335 -0.789218,0.09395 -1.418712,-0.150327 -0.629495,-0.253677 -1.127453,-0.63889 -1.418712,-0.967731 -0.150327,-0.178513 -0.2067,-0.281863 -0.225491,-0.32884 -0.01879,-2.687097 -2.339465,-5.129912 -4.397067,-5.947316 -2.057603,-0.808008 -4.368882,-0.197304 -4.397068,2.471002 -0.0094,0.02819 -0.06577,0.09395 -0.225491,0.150327 -0.291258,0.09395 -0.789217,0.09395 -1.418712,-0.159723 -0.629494,-0.244281 -1.127453,-0.63889 -1.418712,-0.967731 -0.159722,-0.178513 -0.216095,-0.281863 -0.22549,-0.32884 -0.01879,-1.446898 -0.817404,-2.856215 -1.700575,-3.861527 -0.901963,-1.014708 -2.057603,-1.822716 -3.250824,-2.301884 -1.183826,-0.469772 -2.339465,-0.573122 -3.241428,-0.263072 -0.892567,0.300654 -1.700575,1.089871 -1.700575,2.55556 0,0.01879 0,0.131536 -0.187909,0.225491 -0.178513,0.08456 -0.497959,0.10335 -0.911358,-0.05637 -0.404004,-0.159722 -0.723449,-0.43219 -0.911358,-0.667076 -0.178514,-0.234886 -0.187909,-0.347632 -0.187909,-0.375818 0,-1.465689 -0.808008,-2.884401 -1.700575,-3.889714 -0.892567,-1.024103 -2.048207,-1.832111 -3.241428,-2.301883 -1.193222,-0.469772 -2.339466,-0.573122 -3.241428,-0.272468 -0.892567,0.310049 -1.700576,1.089871 -1.700576,2.55556 0,0.01879 0,0.131537 -0.187908,0.225491 -0.187909,0.09396 -0.497959,0.112745 -0.911358,-0.04698 -0.4134,-0.169118 -0.72345,-0.441586 -0.911358,-0.676472 -0.187909,-0.234886 -0.187909,-0.347631 -0.187909,-0.366422 0,-1.46569 -0.808008,-2.893797 -1.700576,-3.899109 -0.901962,-1.024104 -2.048206,-1.832112 -3.241428,-2.301884 -1.193221,-0.469772 -2.339465,-0.573122 -3.250823,-0.263072 -0.883171,0.300654 -1.6911802,1.080476 -1.6911802,2.55556 z m 0,-9.677306 c 0,0.01879 0,0.03758 0,0.03758 0,0.0094 0,0.0094 0,0.0094 0,0 0,0 0,-0.0094 0.01879,-0.01879 0.06577,-0.09395 0.234886,-0.150327 0.291259,-0.09395 0.789218,-0.09395 1.418712,0.159723 0.629495,0.244281 1.127454,0.629495 1.418712,0.958335 0.150327,0.178513 0.2067,0.291259 0.225491,0.328841 0.01879,2.687096 2.339465,5.139307 4.397068,5.947315 2.057602,0.817404 4.378276,0.2067 4.397067,-2.471001 0.01879,-0.02819 0.06577,-0.08456 0.225491,-0.140932 0.291259,-0.10335 0.789217,-0.09395 1.418712,0.150327 0.629494,0.253677 1.127453,0.63889 1.418712,0.967731 0.159722,0.178513 0.216095,0.291259 0.234886,0.32884 0.01879,2.687097 2.339465,5.129912 4.387672,5.947316 2.057602,0.817404 4.378277,0.197304 4.397067,-2.471002 0.01879,-0.02819 0.07516,-0.09395 0.234887,-0.150327 0.291258,-0.09395 0.779821,-0.08456 1.409316,0.159723 0.629495,0.253677 1.127453,0.63889 1.418712,0.967731 0.159723,0.178513 0.216095,0.281863 0.234886,0.32884 0.0094,1.456294 0.817404,2.86561 1.700575,3.861527 0.901963,1.024104 2.048207,1.832112 3.241428,2.301884 1.193222,0.469772 2.339466,0.573122 3.241428,0.263072 0.892568,-0.300654 1.700576,-1.089871 1.700576,-2.55556 0,-0.01879 0.0094,-0.131536 0.187909,-0.216095 0.187908,-0.09396 0.497958,-0.112746 0.911358,0.04698 0.413399,0.159722 0.732844,0.43219 0.911358,0.676472 0.187908,0.22549 0.187908,0.347631 0.187908,0.366422 0,1.465689 0.808009,2.893797 1.700576,3.899109 0.901962,1.014708 2.057602,1.822716 3.241428,2.301884 1.193221,0.469772 2.348861,0.573122 3.250823,0.263072 0.883172,-0.300654 1.69118,-1.089871 1.69118,-2.55556 l -3.288405,-1.305967 c 0,-0.01879 0,-0.02819 0,-0.03758 0,-0.0094 0,-0.0094 0,-0.0094 0,0 0,0 0,0.0094 -0.0094,0.01879 -0.06577,0.09395 -0.234886,0.150327 -0.291259,0.09396 -0.789218,0.09396 -1.418712,-0.159722 -0.629495,-0.244282 -1.127453,-0.629495 -1.418712,-0.958336 -0.150327,-0.178513 -0.2067,-0.291258 -0.225491,-0.32884 -0.01879,-2.687097 -2.339465,-5.139308 -4.397067,-5.947316 -2.057603,-0.817403 -4.368882,-0.2067 -4.397068,2.471002 -0.0094,0.02819 -0.06577,0.08456 -0.225491,0.140931 -0.291258,0.10335 -0.789217,0.09396 -1.418712,-0.150327 -0.629494,-0.253677 -1.127453,-0.63889 -1.418712,-0.96773 -0.159722,-0.178514 -0.216095,-0.291259 -0.22549,-0.328841 -0.01879,-1.456294 -0.817404,-2.86561 -1.700575,-3.861527 -0.901963,-1.024103 -2.057603,-1.832112 -3.250824,-2.301884 -1.183826,-0.469772 -2.339465,-0.573122 -3.241428,-0.263072 -0.892567,0.300654 -1.700575,1.080476 -1.700575,2.55556 0,0.0094 0,0.131537 -0.187909,0.216096 -0.178513,0.09395 -0.497959,0.112745 -0.911358,-0.04698 -0.404004,-0.159722 -0.723449,-0.441585 -0.911358,-0.676472 -0.178514,-0.234886 -0.187909,-0.347631 -0.187909,-0.366422 0,-1.465689 -0.808008,-2.893796 -1.700575,-3.899109 -0.892567,-1.024103 -2.048207,-1.832111 -3.241428,-2.301884 -1.193222,-0.469772 -2.339466,-0.573122 -3.241428,-0.263072 -0.892567,0.300654 -1.700576,1.089871 -1.700576,2.555561 0,0.01879 0,0.131536 -0.187908,0.216095 -0.187909,0.09395 -0.497959,0.112745 -0.911358,-0.04698 -0.4134,-0.159723 -0.72345,-0.432191 -0.911358,-0.667077 -0.187909,-0.234886 -0.187909,-0.357027 -0.187909,-0.375818 0,-1.465689 -0.808008,-2.884401 -1.700576,-3.899109 -0.901962,-1.014708 -2.048206,-1.822716 -3.241428,-2.301883 -1.193221,-0.469772 -2.339465,-0.573122 -3.250823,-0.263073 -0.883171,0.300654 -1.6911802,1.089872 -1.6911802,2.555561 z m 0,-9.686703 c 0,0.01879 0,0.03758 0,0.04698 0,0 0,0.0094 0,0.0094 0,0 0,0 0,-0.0094 0.01879,-0.02819 0.06577,-0.09396 0.234886,-0.150328 0.291259,-0.103349 0.789218,-0.09395 1.418712,0.150328 0.629495,0.253677 1.127454,0.63889 1.418712,0.96773 0.150327,0.178514 0.2067,0.281864 0.225491,0.328841 0.01879,2.687097 2.339465,5.129912 4.397068,5.947315 2.057602,0.808009 4.378276,0.197305 4.397067,-2.471001 0.01879,-0.02819 0.06577,-0.09396 0.225491,-0.150327 0.291259,-0.09396 0.789217,-0.09396 1.418712,0.159722 0.629494,0.253677 1.127453,0.63889 1.418712,0.967731 0.159722,0.178513 0.216095,0.281863 0.234886,0.32884 0.01879,2.687097 2.339465,5.129913 4.387672,5.937921 2.057602,0.817403 4.378277,0.2067 4.397067,-2.461606 0.01879,-0.03758 0.07516,-0.09395 0.234887,-0.150328 0.291258,-0.09395 0.779821,-0.09395 1.409316,0.159723 0.629495,0.244282 1.127453,0.629495 1.418712,0.958335 0.159723,0.178514 0.216095,0.291259 0.234886,0.328841 0.0094,1.456294 0.817404,2.86561 1.700575,3.870923 0.901963,1.014707 2.048207,1.822716 3.241428,2.292488 1.193222,0.469772 2.339466,0.582517 3.241428,0.272468 0.892568,-0.300655 1.700576,-1.089872 1.700576,-2.555561 0,-0.01879 0.0094,-0.131536 0.187909,-0.225491 0.187908,-0.08456 0.497958,-0.112745 0.911358,0.04698 0.413399,0.169118 0.732844,0.441585 0.911358,0.676471 0.187908,0.234887 0.187908,0.347632 0.187908,0.366423 0,1.465689 0.808009,2.893796 1.700576,3.899109 0.901962,1.024103 2.057602,1.832111 3.241428,2.301883 1.193221,0.469773 2.348861,0.573123 3.250823,0.263073 0.883172,-0.300654 1.69118,-1.080476 1.69118,-2.555561 l -3.288405,-1.296571 c 0,-0.01879 0,-0.03758 0,-0.04698 0,0 0,-0.0094 0,-0.0094 0,0 0,0.0094 0,0.0094 -0.0094,0.02819 -0.06577,0.09395 -0.234886,0.159722 -0.291259,0.09396 -0.789218,0.08456 -1.418712,-0.159722 -0.629495,-0.253677 -1.127453,-0.63889 -1.418712,-0.967731 -0.150327,-0.178513 -0.2067,-0.281863 -0.225491,-0.32884 -0.01879,-2.687097 -2.339465,-5.129913 -4.397067,-5.947316 -2.057603,-0.808008 -4.368882,-0.197304 -4.397068,2.471002 -0.0094,0.02819 -0.06577,0.09395 -0.225491,0.150327 -0.291258,0.09395 -0.789217,0.09395 -1.418712,-0.159723 -0.629494,-0.244281 -1.127453,-0.63889 -1.418712,-0.967731 -0.159722,-0.178513 -0.216095,-0.281863 -0.22549,-0.319445 -0.01879,-1.456293 -0.817404,-2.86561 -1.700575,-3.870922 -0.901963,-1.014708 -2.057603,-1.822716 -3.250824,-2.301884 -1.183826,-0.469772 -2.339465,-0.573122 -3.241428,-0.263072 -0.892567,0.300654 -1.700575,1.089871 -1.700575,2.55556 0,0.01879 0,0.131536 -0.187909,0.225491 -0.178513,0.08456 -0.497959,0.112745 -0.911358,-0.05637 -0.404004,-0.159722 -0.723449,-0.43219 -0.911358,-0.667076 -0.178514,-0.234886 -0.187909,-0.347632 -0.187909,-0.366423 0,-1.475084 -0.808008,-2.893796 -1.700575,-3.908504 -0.892567,-1.014708 -2.048207,-1.822716 -3.241428,-2.292488 -1.193222,-0.469773 -2.339466,-0.573122 -3.241428,-0.272468 -0.892567,0.310049 -1.700576,1.089871 -1.700576,2.55556 0,0.01879 0,0.131537 -0.187908,0.225491 -0.187909,0.09396 -0.497959,0.112745 -0.911358,-0.04698 -0.4134,-0.169118 -0.72345,-0.441586 -0.911358,-0.676472 -0.187909,-0.234886 -0.187909,-0.347631 -0.187909,-0.366422 0,-1.46569 -0.808008,-2.893797 -1.700576,-3.899109 -0.901962,-1.024104 -2.048206,-1.832112 -3.241428,-2.301884 -1.193221,-0.469772 -2.339465,-0.573122 -3.250823,-0.272468 -0.883171,0.31005 -1.6911802,1.089871 -1.6911802,2.564956 z"
   /></svg>
