<?xml version="1.0" encoding="utf-8"?>
<!-- Generator: Adobe Illustrator 25.0.0, SVG Export Plug-In . SVG Version: 6.00 Build 0)  -->
<svg version="1.1" id="Layer_1" xmlns="http://www.w3.org/2000/svg" xmlns:xlink="http://www.w3.org/1999/xlink" x="0px" y="0px"
	 viewBox="0 0 16 16" enable-background="new 0 0 16 16" xml:space="preserve">
<g id="hollowing">
	<g>
		<g>
			<path fill="#808080" d="M9.7,13.3c-0.1-0.1-0.2-0.1-0.3-0.1l-1.3,0.9c-0.1,0.1-0.2,0.1-0.3,0l-1.3-0.9c-0.1-0.1-0.2,0-0.3,0.1
				l-0.2,0.2c-0.1,0.1,0,0.2,0.1,0.3l1.7,1.1c0.1,0.1,0.2,0.1,0.3,0l1.7-1.1c0.1-0.1,0.1-0.2,0.1-0.3L9.7,13.3z"/>
		</g>
		<g>
			<path fill="#808080" d="M8.2,1.1c-0.1-0.1-0.2-0.1-0.3,0L2.2,4.9C2.1,5,2,5.1,2,5.2v1.6c0,0.1,0,0.3,0,0.4v3.6
				c0,0.1,0.1,0.2,0.2,0.3L5,13c0.1,0.1,0.2,0,0.3-0.1l0.2-0.2c0.1-0.1,0-0.2-0.1-0.3l-2.5-1.7c-0.1-0.1-0.2-0.2-0.2-0.3V7.2
				c0-0.1,0-0.3,0-0.4V5.6c0-0.1,0.1-0.2,0.2-0.3l5-3.3c0.1-0.1,0.2-0.1,0.3,0l5,3.3c0.1,0.1,0.2,0.2,0.2,0.3v1.2c0,0.1,0,0.3,0,0.4
				v3.2c0,0.1-0.1,0.2-0.2,0.3l-2.5,1.7c-0.1,0.1-0.1,0.2-0.1,0.3l0.2,0.2c0.1,0.1,0.2,0.1,0.3,0.1l2.8-1.9c0.1-0.1,0.2-0.2,0.2-0.3
				V7.2c0-0.1,0-0.3,0-0.4V5.2c0-0.1-0.1-0.2-0.2-0.3L8.2,1.1z"/>
		</g>
	</g>
	<g>
		<g>
			<path fill="#4479FB" d="M8.8,3.9c-0.1,0-0.1,0-0.2-0.1L8,3.4L7.4,3.8C7.2,4,7,3.9,6.9,3.7C6.8,3.6,6.8,3.4,7,3.2l0.8-0.5
				c0.1-0.1,0.3-0.1,0.4,0L9,3.2c0.2,0.1,0.2,0.3,0.1,0.5C9.1,3.8,8.9,3.9,8.8,3.9z"/>
		</g>
		<g>
			<path fill="#4479FB" d="M3.7,7.2c-0.2,0-0.4-0.2-0.4-0.4v-1c0-0.1,0.1-0.2,0.2-0.3L4.3,5C4.5,4.9,4.7,5,4.8,5.1s0.1,0.4-0.1,0.5
				L4.1,6.1v0.8C4.1,7.1,3.9,7.2,3.7,7.2z"/>
		</g>
		<g>
			<path fill="#4479FB" d="M4.5,11.1c-0.1,0-0.1,0-0.2-0.1l-0.8-0.6c-0.1-0.1-0.2-0.2-0.2-0.3v-1c0-0.2,0.2-0.4,0.4-0.4
				S4.1,9,4.1,9.2V10l0.7,0.4c0.2,0.1,0.2,0.3,0.1,0.5C4.8,11,4.6,11.1,4.5,11.1z"/>
		</g>
		<g>
			<path fill="#4479FB" d="M8,13.4c-0.1,0-0.1,0-0.2-0.1L7,12.8c-0.2-0.1-0.2-0.3-0.1-0.5s0.3-0.2,0.5-0.1L8,12.6l0.6-0.4
				c0.2-0.1,0.4-0.1,0.5,0.1s0.1,0.4-0.1,0.5l-0.8,0.5C8.1,13.4,8.1,13.4,8,13.4z"/>
		</g>
		<g>
			<path fill="#4479FB" d="M11.5,11.1c-0.1,0-0.2-0.1-0.3-0.2c-0.1-0.2-0.1-0.4,0.1-0.5l0.7-0.4V9.2c0-0.2,0.2-0.4,0.4-0.4
				s0.4,0.2,0.4,0.4v1c0,0.1-0.1,0.2-0.2,0.3L11.7,11C11.6,11.1,11.6,11.1,11.5,11.1z"/>
		</g>
		<g>
			<path fill="#4479FB" d="M12.3,7.2c-0.2,0-0.4-0.2-0.4-0.4V6.1l-0.7-0.4c-0.2-0.1-0.2-0.3-0.1-0.5s0.3-0.2,0.5-0.1l0.8,0.6
				c0.1,0.1,0.2,0.2,0.2,0.3v1C12.7,7.1,12.5,7.2,12.3,7.2z"/>
		</g>
	</g>
</g>
</svg>
