<?xml version="1.0" encoding="utf-8"?>
<!-- Generator: Adobe Illustrator 25.0.0, SVG Export Plug-In . SVG Version: 6.00 Build 0)  -->
<svg version="1.1" id="图层_1" xmlns="http://www.w3.org/2000/svg" xmlns:xlink="http://www.w3.org/1999/xlink" x="0px" y="0px"
	 viewBox="0 0 128 128" enable-background="new 0 0 128 128" xml:space="preserve">
<g id="hollow">
	<g>
		<g>
			<path fill="#FFFFFF" d="M64,121.9c-0.4,0-0.8-0.1-1.1-0.3L45,109.6c-0.9-0.6-1.2-1.8-0.5-2.8s1.9-1.2,2.8-0.6L64,117.5l17-11.3
				c0.9-0.6,2.2-0.4,2.8,0.6c0.6,0.9,0.4,2.2-0.6,2.8l-18.1,12.1C64.8,121.8,64.4,121.9,64,121.9z"/>
		</g>
		<g>
			<path fill="#FFFFFF" d="M91,103.9c-0.7,0-1.3-0.3-1.7-0.9c-0.6-0.9-0.4-2.2,0.6-2.8l20-13.4V41.1L64,10.5L18.1,41.1v45.8l20,13.4
				c0.9,0.6,1.2,1.8,0.5,2.8c-0.6,0.9-1.8,1.2-2.8,0.6L15,89.6c-0.6-0.4-0.9-1-0.9-1.7V40.1c0-0.7,0.3-1.3,0.9-1.7L62.9,6.5
				c0.7-0.4,1.6-0.4,2.2,0L113,38.4c0.6,0.4,0.9,1,0.9,1.7v47.9c0,0.7-0.3,1.3-0.9,1.7l-20.9,13.9C91.7,103.8,91.3,103.9,91,103.9z"
				/>
		</g>
	</g>
	<g>
		<g>
			<path fill="#4479FB" d="M67.3,23.8c-0.4,0-0.8-0.1-1.1-0.3L64,22l-2.2,1.5c-0.9,0.6-2.2,0.4-2.8-0.5c-0.6-0.9-0.4-2.2,0.5-2.8
				l3.3-2.2c0.7-0.5,1.6-0.5,2.2,0l3.3,2.2c0.9,0.6,1.2,1.9,0.6,2.8C68.6,23.5,68,23.8,67.3,23.8z"/>
		</g>
		<g>
			<path fill="#4479FB" d="M36.1,40.2c-0.7,0-1.3-0.3-1.7-0.9c-0.6-0.9-0.4-2.2,0.5-2.8l5.5-3.6c0.9-0.6,2.2-0.4,2.8,0.5
				c0.6,0.9,0.4,2.2-0.5,2.8l-5.5,3.6C36.9,40.1,36.5,40.2,36.1,40.2z M48.4,32c-0.7,0-1.3-0.3-1.7-0.9c-0.6-0.9-0.4-2.2,0.5-2.8
				l5.5-3.6c0.9-0.6,2.2-0.4,2.8,0.5s0.4,2.2-0.5,2.8l-5.5,3.6C49.2,31.9,48.8,32,48.4,32z"/>
		</g>
		<g>
			<path fill="#4479FB" d="M25.9,51c-1.1,0-2-0.9-2-2v-4c0-0.7,0.3-1.3,0.9-1.7l3.3-2.2c0.9-0.6,2.2-0.4,2.8,0.5s0.4,2.2-0.5,2.8
				L27.9,46V49C27.9,50.1,27,51,25.9,51z"/>
		</g>
		<g>
			<path fill="#4479FB" d="M25.9,70.3c-1.1,0-2-0.9-2-2v-8.6c0-1.1,0.9-2,2-2s2,0.9,2,2v8.6C27.9,69.4,27,70.3,25.9,70.3z"/>
		</g>
		<g>
			<path fill="#4479FB" d="M29.3,87.2c-0.4,0-0.8-0.1-1.1-0.3l-3.3-2.2c-0.6-0.4-0.9-1-0.9-1.7v-4c0-1.1,0.9-2,2-2s2,0.9,2,2V82
				l2.4,1.6c0.9,0.6,1.2,1.8,0.5,2.8C30.5,86.9,29.9,87.2,29.3,87.2z"/>
		</g>
		<g>
			<path fill="#4479FB" d="M53.8,103.6c-0.4,0-0.8-0.1-1.1-0.3l-5.5-3.6c-0.9-0.6-1.2-1.8-0.5-2.8c0.6-0.9,1.8-1.2,2.8-0.6L55,100
				c0.9,0.6,1.2,1.8,0.5,2.8C55.1,103.3,54.5,103.6,53.8,103.6z M41.5,95.4c-0.4,0-0.8-0.1-1.1-0.3L35,91.5
				c-0.9-0.6-1.2-1.8-0.5-2.8c0.6-0.9,1.9-1.2,2.8-0.6l5.5,3.6c0.9,0.6,1.2,1.8,0.5,2.8C42.8,95.1,42.2,95.4,41.5,95.4z"/>
		</g>
		<g>
			<path fill="#4479FB" d="M64,110.4c-0.4,0-0.8-0.1-1.1-0.3l-3.3-2.2c-0.9-0.6-1.2-1.8-0.5-2.8c0.6-0.9,1.8-1.2,2.8-0.6L64,106
				l2.2-1.5c0.9-0.6,2.2-0.4,2.8,0.6c0.6,0.9,0.4,2.2-0.6,2.8l-3.3,2.2C64.8,110.3,64.4,110.4,64,110.4z"/>
		</g>
		<g>
			<path fill="#4479FB" d="M74.2,103.6c-0.7,0-1.3-0.3-1.7-0.9c-0.6-0.9-0.4-2.2,0.6-2.8l5.5-3.6c0.9-0.6,2.2-0.4,2.8,0.6
				c0.6,0.9,0.4,2.2-0.6,2.8l-5.5,3.6C74.9,103.5,74.5,103.6,74.2,103.6z M86.4,95.4c-0.7,0-1.3-0.3-1.7-0.9
				c-0.6-0.9-0.4-2.2,0.6-2.8l5.5-3.6c0.9-0.6,2.2-0.4,2.8,0.6c0.6,0.9,0.4,2.2-0.6,2.8l-5.5,3.6C87.2,95.3,86.8,95.4,86.4,95.4z"/>
		</g>
		<g>
			<path fill="#4479FB" d="M98.7,87.2c-0.7,0-1.3-0.3-1.7-0.9c-0.6-0.9-0.4-2.2,0.6-2.8l2.4-1.6V79c0-1.1,0.9-2,2-2s2,0.9,2,2v4
				c0,0.7-0.3,1.3-0.9,1.7l-3.3,2.2C99.5,87.1,99.1,87.2,98.7,87.2z"/>
		</g>
		<g>
			<path fill="#4479FB" d="M102.1,70.3c-1.1,0-2-0.9-2-2v-8.6c0-1.1,0.9-2,2-2s2,0.9,2,2v8.6C104.1,69.4,103.2,70.3,102.1,70.3z"/>
		</g>
		<g>
			<path fill="#4479FB" d="M102.1,51c-1.1,0-2-0.9-2-2V46l-2.4-1.6c-0.9-0.6-1.2-1.8-0.6-2.8s1.8-1.2,2.8-0.5l3.3,2.2
				c0.6,0.4,0.9,1,0.9,1.7v4C104.1,50.1,103.2,51,102.1,51z"/>
		</g>
		<g>
			<path fill="#4479FB" d="M91.9,40.2c-0.4,0-0.8-0.1-1.1-0.3l-5.5-3.6c-0.9-0.6-1.2-1.8-0.6-2.8c0.6-0.9,1.8-1.2,2.8-0.5l5.5,3.6
				c0.9,0.6,1.2,1.8,0.6,2.8C93.2,39.9,92.6,40.2,91.9,40.2z M79.6,32c-0.4,0-0.8-0.1-1.1-0.3L73.1,28c-0.9-0.6-1.2-1.9-0.6-2.8
				s1.8-1.2,2.8-0.5l5.5,3.6c0.9,0.6,1.2,1.9,0.6,2.8C80.9,31.7,80.3,32,79.6,32z"/>
		</g>
	</g>
</g>
<g>
</g>
<g>
</g>
<g>
</g>
<g>
</g>
<g>
</g>
<g>
</g>
</svg>
