<?xml version="1.0" encoding="utf-8"?>
<!-- Generator: Adobe Illustrator 25.0.0, SVG Export Plug-In . SVG Version: 6.00 Build 0)  -->
<svg version="1.1" id="图层_1" xmlns="http://www.w3.org/2000/svg" xmlns:xlink="http://www.w3.org/1999/xlink" x="0px" y="0px"
	 viewBox="0 0 16 16" enable-background="new 0 0 16 16" xml:space="preserve">
<g>
	<path fill="#4479FB" d="M13.3,4.9L9.6,1.3C9.5,1.1,9.2,1,8.9,1H3.7C3,1,2.4,1.6,2.4,2.3v11.4C2.4,14.4,3,15,3.7,15h8.6
		c0.7,0,1.3-0.6,1.3-1.3V5.7C13.6,5.4,13.5,5.1,13.3,4.9z M8,12.8c-2.1,0-3.9-1.7-3.9-3.9c0-2.1,1.7-3.9,3.9-3.9s3.9,1.7,3.9,3.9
		S10.1,12.8,8,12.8z"/>
	<path fill="#4479FB" d="M8,5.9c-1.7,0-3.1,1.4-3.1,3.1S6.3,12,8,12s3.1-1.4,3.1-3.1C11.1,7.2,9.7,5.9,8,5.9z M9.9,9.4H8.4v1.5H7.6
		V9.4H6.1V8.5h1.5V7h0.9v1.5h1.5V9.4z"/>
</g>
</svg>
