<?xml version="1.0" encoding="utf-8"?>
<!-- Generator: Adobe Illustrator 25.0.0, SVG Export Plug-In . SVG Version: 6.00 Build 0)  -->
<svg version="1.1" id="图层_1" xmlns="http://www.w3.org/2000/svg" xmlns:xlink="http://www.w3.org/1999/xlink" x="0px" y="0px"
	 viewBox="0 0 16 16" enable-background="new 0 0 16 16" xml:space="preserve">
<g>
	<path fill="#4479FB" d="M14.5,8.9L14.5,8.9L9,2.2C8.8,1.9,8.4,1.7,8,1.7c-0.4,0-0.8,0.2-1,0.5L1.5,8.8l0,0c-0.2,0.3-0.3,0.7-0.2,1
		c0.1,0.4,0.3,0.7,0.6,0.9l5.4,3.4c0.2,0.1,0.4,0.2,0.7,0.2s0.5-0.1,0.7-0.2l5.4-3.4c0.3-0.2,0.5-0.5,0.6-0.9
		C14.8,9.5,14.7,9.1,14.5,8.9z M8,12.9L2.7,9.6l1-1.2L8,11.1V12.9z M8,9.5L4.6,7.3L5.7,6l1.8,1.3L8,7.7V9.5L8,9.5z M8,5.8L6.6,4.9
		L8,3.1V5.8z"/>
</g>
<g>
</g>
<g>
</g>
<g>
</g>
<g>
</g>
<g>
</g>
<g>
</g>
</svg>
