<?xml version="1.0" encoding="utf-8"?>
<!-- Generator: Adobe Illustrator 25.0.0, SVG Export Plug-In . SVG Version: 6.00 Build 0)  -->
<svg version="1.1" id="图层_1" xmlns="http://www.w3.org/2000/svg" xmlns:xlink="http://www.w3.org/1999/xlink" x="0px" y="0px"
	 viewBox="0 0 128 128" enable-background="new 0 0 128 128" xml:space="preserve">
<g>
	<g>
		<path fill="#174CCE" d="M62.9,122.4C62.9,122.4,62.9,122.4,62.9,122.4c-2.2,0-4-1.8-4-4L59,58.5L7.9,36.3c-2-0.9-3-3.2-2.1-5.3
			c0.9-2,3.2-3,5.3-2.1l53.5,23.2c1.5,0.6,2.4,2.1,2.4,3.7l-0.1,62.6C66.9,120.7,65.1,122.4,62.9,122.4z"/>
	</g>
	<g>
		<path fill="#174CCE" d="M63,59.9c-1.5,0-3-0.9-3.7-2.4c-0.9-2,0-4.4,2.1-5.3L115,29c2-0.9,4.4,0,5.3,2.1c0.9,2,0,4.4-2.1,5.3
			L64.6,59.5C64.1,59.8,63.6,59.9,63,59.9z"/>
	</g>
	<path fill="#174CCE" d="M104.7,86.9c-9.8,0-17.8,8-17.8,17.8s8,17.8,17.8,17.8s17.8-8,17.8-17.8S114.6,86.9,104.7,86.9z
		 M113.1,106.5h-6.5v6.5c0,1-0.8,1.9-1.9,1.9c-1,0-1.9-0.8-1.9-1.9v-6.5h-6.5c-1,0-1.9-0.8-1.9-1.9c0-1,0.8-1.9,1.9-1.9h6.5v-6.5
		c0-1,0.8-1.9,1.9-1.9c1,0,1.9,0.8,1.9,1.9v6.6h6.5c1,0,1.9,0.8,1.9,1.9C114.9,105.7,114.1,106.5,113.1,106.5z"/>
	<path fill="#174CCE" d="M81.8,106l-18.9,8.1L13.5,93V35.2l48.9-21.3l50.1,21.4v47.9c3,1.1,5.7,2.8,8,5V32.6c0-1.6-1-3.1-2.4-3.7
		L64,5.9c-1-0.4-2.2-0.4-3.2,0L7.9,29c-1.5,0.6-2.4,2.1-2.4,3.7v63c0,1.6,1,3,2.4,3.7l53.4,22.8c0.5,0.2,1,0.3,1.6,0.3
		c0.5,0,1.1-0.1,1.6-0.3l19.3-8.2C82.7,111.5,82,108.8,81.8,106z"/>
</g>
</svg>
