<?xml version="1.0" encoding="utf-8"?>
<!-- Generator: Adobe Illustrator 25.0.0, SVG Export Plug-In . SVG Version: 6.00 Build 0)  -->
<svg version="1.1" id="图层_1" xmlns="http://www.w3.org/2000/svg" xmlns:xlink="http://www.w3.org/1999/xlink" x="0px" y="0px"
	 viewBox="0 0 128 128" enable-background="new 0 0 128 128" xml:space="preserve">
<g>
	<g>
		<polygon fill="#174CCE" points="90.1,47.5 61.2,65.7 32.4,47.5 61.2,31.7 		"/>
		<polygon fill="#174CCE" points="57.6,97.9 31.6,82.1 31.6,54.9 57.6,70.7 		"/>
		<polygon fill="#174CCE" points="65,97.9 91,82.1 91,54.9 65,70.7 		"/>
	</g>
	<g>
		<polygon fill="#174CCE" points="32.5,13.3 19.4,21.6 6.4,13.3 19.4,6.2 		"/>
		<polygon fill="#174CCE" points="17.8,36.1 6,29 6,16.7 17.8,23.8 		"/>
		<polygon fill="#174CCE" points="21.1,36.1 32.9,29 32.9,16.7 21.1,23.8 		"/>
	</g>
	<g>
		<polygon fill="#174CCE" points="32.5,97 19.4,105.2 6.4,97 19.4,89.9 		"/>
		<polygon fill="#174CCE" points="17.8,119.8 6,112.7 6,100.4 17.8,107.5 		"/>
		<polygon fill="#174CCE" points="21.1,119.8 32.9,112.7 32.9,100.4 21.1,107.5 		"/>
	</g>
	<g>
		<polygon fill="#174CCE" points="122.1,13.3 109.1,21.6 96,13.3 109.1,6.2 		"/>
		<polygon fill="#174CCE" points="107.4,36.1 95.7,29 95.7,16.7 107.4,23.8 		"/>
		<polygon fill="#174CCE" points="110.8,36.1 122.5,29 122.5,16.7 110.8,23.8 		"/>
	</g>
	<g>
		<polygon fill="#174CCE" points="122.1,97 109.1,105.2 96,97 109.1,89.9 		"/>
		<polygon fill="#174CCE" points="107.4,119.8 95.7,112.7 95.7,100.4 107.4,107.5 		"/>
		<polygon fill="#174CCE" points="110.8,119.8 122.5,112.7 122.5,100.4 110.8,107.5 		"/>
	</g>
	<path fill="#174CCE" d="M117.1,64c0,6.3-1.1,12.3-3.1,17.9h4.2C120,76.3,121,70.3,121,64s-1-12.3-2.9-17.9H114
		C116,51.7,117.1,57.7,117.1,64z"/>
	<path fill="#174CCE" d="M85.2,14.9v-4.4C78.4,7.8,71,6.2,63.3,6.2s-15.2,1.5-21.9,4.3v4.4c6.7-3,14.1-4.7,21.9-4.7
		S78.5,11.9,85.2,14.9z"/>
	<path fill="#174CCE" d="M85.2,113.1c-6.7,3-14.1,4.7-21.9,4.7s-15.2-1.7-21.9-4.7v4.4c6.8,2.8,14.2,4.3,21.9,4.3s15.2-1.5,21.9-4.3
		V113.1z"/>
	<path fill="#174CCE" d="M12.6,81.9c-2-5.6-3.1-11.6-3.1-17.9s1.1-12.3,3.1-17.9H8.4C6.5,51.7,5.5,57.7,5.5,64
		c0,6.3,1,12.3,2.9,17.9H12.6z"/>
</g>
<g>
</g>
<g>
</g>
<g>
</g>
<g>
</g>
<g>
</g>
<g>
</g>
</svg>
