<?xml version="1.0" encoding="utf-8"?>
<!-- Generator: Adobe Illustrator 25.0.0, SVG Export Plug-In . SVG Version: 6.00 Build 0)  -->
<svg version="1.1" id="图层_1" xmlns="http://www.w3.org/2000/svg" xmlns:xlink="http://www.w3.org/1999/xlink" x="0px" y="0px"
	 viewBox="0 0 128 128" enable-background="new 0 0 128 128" xml:space="preserve">
<g>
	<path fill="#174CCE" d="M104.7,87C94.9,87,87,94.9,87,104.7s7.9,17.7,17.7,17.7s17.7-7.9,17.7-17.7S114.4,87,104.7,87z
		 M102.8,106.6h-6.4c-1,0-1.9-0.8-1.9-1.9c0-1,0.8-1.9,1.9-1.9h6.4h3.7h6.4c1,0,1.9,0.8,1.9,1.9c0,1-0.8,1.9-1.9,1.9h-6.4H102.8z"/>
	<g>
		<path fill="#174CCE" d="M23.2,105.8L8,99.3c-1.5-0.6-2.4-2.1-2.4-3.7V79.1h8V93l12.7,5.4L23.2,105.8z"/>
	</g>
	<g>
		
			<rect x="32.3" y="98.6" transform="matrix(0.3932 -0.9195 0.9195 0.3932 -76.4206 98.2933)" fill="#174CCE" width="8" height="16.9"/>
	</g>
	<g>
		<path fill="#174CCE" d="M62.9,122.5c-0.5,0-1.1-0.1-1.6-0.3l-15.2-6.5l3.1-7.4l13.6,5.8l13.6-5.8l3.1,7.4l-15.2,6.5
			C64,122.3,63.5,122.5,62.9,122.5z"/>
	</g>
	<g>
		<rect x="112.6" y="54" fill="#174CCE" width="8" height="20.2"/>
	</g>
	<g>
		<path fill="#174CCE" d="M120.6,49.1h-8V35.3l-12.7-5.4l3.1-7.4l15.2,6.5c1.5,0.6,2.4,2.1,2.4,3.7V49.1z"/>
	</g>
	<g>
		
			<rect x="85.6" y="12.4" transform="matrix(0.3924 -0.9198 0.9198 0.3924 35.0073 95.1898)" fill="#174CCE" width="8" height="17.4"/>
	</g>
	<g>
		<path fill="#174CCE" d="M49,19.8l-3.2-7.3l15.1-6.6c1-0.4,2.2-0.4,3.2,0l15.2,6.5l-3.1,7.4l-13.6-5.8L49,19.8z"/>
	</g>
	<g>
		
			<rect x="27.7" y="17.1" transform="matrix(0.9167 -0.3997 0.3997 0.9167 -5.4294 16.1588)" fill="#174CCE" width="16.7" height="8"/>
	</g>
	<g>
		<path fill="#174CCE" d="M13.6,49.1h-8V32.6c0-1.6,0.9-3,2.4-3.7l15.1-6.6l3.2,7.3l-12.7,5.5V49.1z"/>
	</g>
	<g>
		<rect x="5.6" y="54" fill="#174CCE" width="8" height="20.2"/>
	</g>
	<g>
		<g>
			
				<rect x="13.1" y="27.7" transform="matrix(0.3983 -0.9173 0.9173 0.3983 -22.6432 37.3356)" fill="#174CCE" width="8" height="16.5"/>
		</g>
		<g>
			
				<rect x="32.3" y="35.7" transform="matrix(0.3983 -0.9173 0.9173 0.3983 -18.7394 59.953)" fill="#174CCE" width="8" height="17.1"/>
		</g>
		<g>
			<path fill="#174CCE" d="M67.1,72.4l-8,0l0-13.9L46.4,53l3.2-7.3l15.1,6.6c1.5,0.6,2.4,2.1,2.4,3.7L67.1,72.4z"/>
		</g>
		<g>
			
				<rect x="53.1" y="83.2" transform="matrix(2.197260e-03 -1 1 2.197260e-03 -24.2879 149.9948)" fill="#174CCE" width="19.9" height="8"/>
		</g>
		<g>
			
				<rect x="54.7" y="106.2" transform="matrix(2.197260e-03 -1 1 2.197260e-03 -47.3778 172.9298)" fill="#174CCE" width="16.5" height="8"/>
		</g>
	</g>
	<g>
		<g>
			
				<rect x="62.4" y="48.6" transform="matrix(0.9173 -0.3982 0.3982 0.9173 -15.1 32.4863)" fill="#174CCE" width="16.5" height="8"/>
		</g>
		<g>
			
				<rect x="81.3" y="40.3" transform="matrix(0.9173 -0.3982 0.3982 0.9173 -10.1939 39.4399)" fill="#174CCE" width="17.1" height="8"/>
		</g>
		<g>
			
				<rect x="100.8" y="31.9" transform="matrix(0.9173 -0.3982 0.3982 0.9173 -5.2877 46.3936)" fill="#174CCE" width="16.5" height="8"/>
		</g>
	</g>
	<path fill="#174CCE" d="M120.6,88.2v-9h-8v4C115.6,84.3,118.3,86,120.6,88.2z"/>
</g>
</svg>
