<?xml version="1.0" encoding="utf-8"?>
<!-- Generator: Adobe Illustrator 25.0.0, SVG Export Plug-In . SVG Version: 6.00 Build 0)  -->
<svg version="1.1" id="图层_1" xmlns="http://www.w3.org/2000/svg" xmlns:xlink="http://www.w3.org/1999/xlink" x="0px" y="0px"
	 viewBox="0 0 128 128" enable-background="new 0 0 128 128" xml:space="preserve">
<g>
	<g>
		<polygon fill="#174CCE" points="89.7,47.6 60.9,65.8 32.1,47.6 60.9,31.9 		"/>
		<polygon fill="#174CCE" points="57.3,97.9 31.3,82.2 31.3,55 57.3,70.8 		"/>
		<polygon fill="#174CCE" points="64.7,97.9 90.6,82.2 90.6,55.1 64.7,70.8 		"/>
	</g>
	<path fill="#174CCE" d="M116.7,64.1c0,6.3-1.1,12.3-3.1,17.9h4.2c1.8-5.6,2.8-11.7,2.8-17.9s-1-12.3-2.8-17.9h-4.2
		C115.6,51.8,116.7,57.8,116.7,64.1z"/>
	<path fill="#174CCE" d="M84.8,15.1v-4.3C78.1,8,70.7,6.4,63,6.4S47.8,8,41.1,10.7v4.3c6.7-3,14.1-4.7,21.9-4.7S78.2,12.1,84.8,15.1
		z"/>
	<path fill="#174CCE" d="M84.8,113.1c-6.7,3-14.1,4.7-21.9,4.7s-15.2-1.7-21.9-4.7v4.3c6.8,2.8,14.1,4.3,21.9,4.3s15.1-1.5,21.9-4.3
		V113.1z"/>
	<path fill="#174CCE" d="M12.3,82c-2-5.6-3.1-11.6-3.1-17.9s1.1-12.3,3.1-17.9H8.1c-1.8,5.6-2.8,11.7-2.8,17.9s1,12.3,2.8,17.9H12.3
		z"/>
	<g>
		<g>
			<path fill="#174CCE" d="M18.5,22.5l-3.4-2.1l1-1.7l3.4,2.1L18.5,22.5z M23,20.7l-1-1.7l3.5-1.9l1,1.7L23,20.7z M11.7,18.4
				l-3.4-2.1l1-1.7l3.4,2.1L11.7,18.4z M30,16.9l-1-1.7l3.5-1.9l1,1.7L30,16.9z"/>
		</g>
		<g>
			<path fill="#174CCE" d="M19.9,38.1l-1-1.7l3.4-2.1l1,1.7L19.9,38.1z M15.5,36.2l-3.4-2.1l1-1.7l3.4,2.1L15.5,36.2z M26.7,33.9
				l-1-1.7l3.4-2.1l1,1.7L26.7,33.9z M8.7,32.1L5.3,30l1-1.7l3.4,2.1L8.7,32.1z M33.6,28.8l-2-0.1l0.1-4l2,0.1L33.6,28.8z M6.8,27.7
				h-2v-4h2V27.7z M33.8,20.8l-2-0.1l0.1-4l2,0.1L33.8,20.8z M6.8,19.7h-2v-4h2V19.7z M31.4,14.3l-3.5-1.9l1-1.7l3.5,1.9L31.4,14.3z
				 M7.9,13.7L7,11.9l3.5-1.9l0.9,1.7L7.9,13.7z M24.4,10.5L21,8.5l1-1.7l3.5,1.9L24.4,10.5z M14.9,9.9l-1-1.7l3.5-1.9l1,1.7
				L14.9,9.9z"/>
		</g>
		<g>
			<path fill="#174CCE" d="M20.2,33.7h-2l0-4h2L20.2,33.7z M20.2,25.7h-2l0-4h2L20.2,25.7z"/>
		</g>
	</g>
	<g>
		<g>
			<path fill="#174CCE" d="M18.5,105.9l-3.4-2.1l1-1.7l3.4,2.1L18.5,105.9z M23,104.1l-1-1.7l3.5-1.9l1,1.7L23,104.1z M11.7,101.8
				l-3.4-2.1l1-1.7l3.4,2.1L11.7,101.8z M30,100.3l-1-1.7l3.5-1.9l1,1.7L30,100.3z"/>
		</g>
		<g>
			<path fill="#174CCE" d="M19.9,121.5l-1-1.7l3.4-2.1l1,1.7L19.9,121.5z M15.5,119.6l-3.4-2.1l1-1.7l3.4,2.1L15.5,119.6z
				 M26.7,117.3l-1-1.7l3.4-2.1l1,1.7L26.7,117.3z M8.7,115.5l-3.4-2.1l1-1.7l3.4,2.1L8.7,115.5z M33.6,112.2l-2-0.1l0.1-4l2,0.1
				L33.6,112.2z M6.8,111.1h-2v-4h2V111.1z M33.8,104.2l-2-0.1l0.1-4l2,0.1L33.8,104.2z M6.8,103.1h-2v-4h2V103.1z M31.4,97.7
				l-3.5-1.9l1-1.7l3.5,1.9L31.4,97.7z M7.9,97l-1-1.7l3.5-1.9l1,1.7L7.9,97z M24.4,93.9L21,91.9l1-1.7l3.5,1.9L24.4,93.9z
				 M14.9,93.3L14,91.5l3.5-1.9l0.9,1.7L14.9,93.3z"/>
		</g>
		<g>
			<path fill="#174CCE" d="M20.2,117.1h-2l0-4h2L20.2,117.1z M20.2,109.1h-2l0-4h2L20.2,109.1z"/>
		</g>
	</g>
	<g>
		<g>
			<path fill="#174CCE" d="M107.9,22.5l-3.4-2.1l1-1.7l3.4,2.1L107.9,22.5z M112.3,20.7l-1-1.7l3.5-1.9l1,1.7L112.3,20.7z M101,18.4
				l-3.4-2.1l1-1.7l3.4,2.1L101,18.4z M119.3,16.9l-1-1.7l3.5-1.9l1,1.7L119.3,16.9z"/>
		</g>
		<g>
			<path fill="#174CCE" d="M109.2,38.1l-1-1.7l3.4-2.1l1,1.7L109.2,38.1z M104.8,36.2l-3.4-2.1l1-1.7l3.4,2.1L104.8,36.2z M116,33.9
				l-1-1.7l3.4-2.1l1,1.7L116,33.9z M98,32.1L94.6,30l1-1.7l3.4,2.1L98,32.1z M122.9,28.8l-2-0.1l0.1-4l2,0.1L122.9,28.8z
				 M96.1,27.7h-2v-4h2V27.7z M123.1,20.8l-2-0.1l0.1-4l2,0.1L123.1,20.8z M96.1,19.7h-2v-4h2V19.7z M120.7,14.3l-3.5-1.9l1-1.7
				l3.5,1.9L120.7,14.3z M97.2,13.7l-0.9-1.7l3.5-1.9l0.9,1.7L97.2,13.7z M113.7,10.5l-3.5-1.9l1-1.7l3.5,1.9L113.7,10.5z
				 M104.2,9.9l-1-1.7l3.5-1.9l1,1.7L104.2,9.9z"/>
		</g>
		<g>
			<path fill="#174CCE" d="M109.5,33.7h-2l0-4h2L109.5,33.7z M109.5,25.7h-2l0-4h2L109.5,25.7z"/>
		</g>
	</g>
	<g>
		<g>
			<path fill="#174CCE" d="M107.9,105.9l-3.4-2.1l1-1.7l3.4,2.1L107.9,105.9z M112.3,104.1l-1-1.7l3.5-1.9l1,1.7L112.3,104.1z
				 M101,101.8l-3.4-2.1l1-1.7l3.4,2.1L101,101.8z M119.3,100.3l-1-1.7l3.5-1.9l1,1.7L119.3,100.3z"/>
		</g>
		<g>
			<path fill="#174CCE" d="M109.2,121.5l-1-1.7l3.4-2.1l1,1.7L109.2,121.5z M104.8,119.6l-3.4-2.1l1-1.7l3.4,2.1L104.8,119.6z
				 M116,117.3l-1-1.7l3.4-2.1l1,1.7L116,117.3z M98,115.5l-3.4-2.1l1-1.7l3.4,2.1L98,115.5z M122.9,112.2l-2-0.1l0.1-4l2,0.1
				L122.9,112.2z M96.1,111.1h-2v-4h2V111.1z M123.1,104.2l-2-0.1l0.1-4l2,0.1L123.1,104.2z M96.1,103.1h-2v-4h2V103.1z M120.7,97.7
				l-3.5-1.9l1-1.7l3.5,1.9L120.7,97.7z M97.2,97l-1-1.7l3.5-1.9l1,1.7L97.2,97z M113.7,93.9l-3.5-1.9l1-1.7l3.5,1.9L113.7,93.9z
				 M104.2,93.3l-0.9-1.7l3.5-1.9l0.9,1.7L104.2,93.3z"/>
		</g>
		<g>
			<path fill="#174CCE" d="M109.5,117.1h-2l0-4h2L109.5,117.1z M109.5,109.1h-2l0-4h2L109.5,109.1z"/>
		</g>
	</g>
</g>
<g>
</g>
<g>
</g>
<g>
</g>
<g>
</g>
<g>
</g>
<g>
</g>
</svg>
