<?xml version="1.0" encoding="utf-8"?>
<!-- Generator: Adobe Illustrator 25.0.0, SVG Export Plug-In . SVG Version: 6.00 Build 0)  -->
<svg version="1.1" id="图层_1" xmlns="http://www.w3.org/2000/svg" xmlns:xlink="http://www.w3.org/1999/xlink" x="0px" y="0px"
	 viewBox="0 0 16 16" enable-background="new 0 0 16 16" xml:space="preserve">
<g>
	<g>
		<path fill="#4479FB" d="M14.7,9.4L12.6,1H4.2L3.8,2.1h7.9l0.5,2h-8L1.3,9.4H14.7z M4.7,5.2h7.8l0.8,3.2H3.1L4.7,5.2z"/>
		<circle fill="#4479FB" cx="6.1" cy="6.8" r="0.8"/>
		<circle fill="#4479FB" cx="8.4" cy="6.8" r="0.8"/>
		<circle fill="#4479FB" cx="10.7" cy="6.8" r="0.8"/>
	</g>
	<g>
		<path fill="#808080" d="M14.6,15H1.3C1.2,15,1,14.8,1,14.6s0.2-0.4,0.3-0.4h13.3c0.2,0,0.4,0.2,0.4,0.4S14.8,15,14.6,15z"/>
	</g>
	<g>
		<path fill="#808080" d="M14.6,13H1.3C1.2,13,1,12.8,1,12.6s0.2-0.4,0.3-0.4h13.3c0.2,0,0.4,0.2,0.4,0.4S14.8,13,14.6,13z"/>
	</g>
	<g>
		<path fill="#808080" d="M14.6,11H1.3C1.2,11,1,10.8,1,10.6s0.2-0.4,0.3-0.4h13.3c0.2,0,0.4,0.2,0.4,0.4S14.8,11,14.6,11z"/>
	</g>
</g>
<g>
</g>
<g>
</g>
<g>
</g>
<g>
</g>
<g>
</g>
<g>
</g>
</svg>
