<?xml version="1.0" encoding="utf-8"?>
<!-- Generator: Adobe Illustrator 25.0.0, SVG Export Plug-In . SVG Version: 6.00 Build 0)  -->
<svg version="1.1" id="Layer_1" xmlns="http://www.w3.org/2000/svg" xmlns:xlink="http://www.w3.org/1999/xlink" x="0px" y="0px"
	 viewBox="0 0 96 96" enable-background="new 0 0 96 96" xml:space="preserve">
<rect id="rect4805" x="11.7" y="81.8" fill="#E2D243" width="73.6" height="9.6"/>
<g>
	<path fill="#4479FB" d="M38.1,25c-5.6,5.6-3.5,15.9,3.9,18.7c0.8,0.3,0.9,0.5-0.7,1.9C26.6,58.2,29.4,62,21.5,51.7
		c-2.5-3.3,4-4.8,3-7.1c-0.8-1.4-1.4-2.9-1.8-4.4c-0.1-0.4-0.2-0.5-0.7-0.5c-2.6-0.1-6.5,1.1-6.6-2.9c0.2-2.5,0.2-4.9,0-7.4
		c-0.1-1.8,0.8-3.5,2.8-3.3s4.3,1,4.8-1.2c0.3-1.3,0.9-2.6,1.6-3.8c0.3-0.5,0.2-1.1-0.3-1.4c0,0,0,0,0,0c-1.4-1.6-4.9-3.6-2.5-5.9
		l6.1-6.1c0.7-0.9,2-1.1,2.9-0.4c0.1,0.1,0.2,0.2,0.4,0.4c4.8,5.1,2.6,2.3,8.1,1.1c1.4-0.3,1.3-0.9,1.2-1.9
		c-0.2-1.1-0.4-2.3-0.4-3.4c0.6-2.8,3.8-1.9,5.9-2h5.3c1.7,0,2.4,0.7,2.5,2.5S53,7.7,55.6,9s3.5,2.6,4.9,0.8s3.4-4.3,5.5-2.2
		l6.3,6.3c0.5,0.4,0.4,0.8-0.1,1.2L59,28.3c-0.7,0.7-0.9,0.2-1.2-0.3C55,20.8,44.2,18.6,39,24.1"/>
	<path fill="#FFFFFF" d="M78.9,18.8c1.7,0.1,8.5,7.4,10.1,9.2c0.7,0.7,0.7,1.7,0,2.4c-1.6,1.7-3.4,3.4-5.1,5.1
		c-0.2,0.3-0.7,0.4-1,0.1c0,0-0.1-0.1-0.1-0.1L72.5,25.2c-0.4-0.5-0.3-0.7,0.3-1.3s2.8-2.8,4.1-4.1C77.4,19.2,78.1,18.8,78.9,18.8z"
		/>
	<path fill="#FFFFFF" d="M45.7,73.7L45.7,73.7c-1.6,1.2-3.5,1.2-5.3,1.7l-5.6,1.3c-2.1,0.4-2.9,0.3-3.7-1.4C31,75.1,31,74.9,31,74.7
		c0.8-3.6,1.5-7.2,2.4-10.8c0.5-1.8,2.2-2.7,3.4-4s0.6,0,0.9,0.2l10.1,10.2c0.3,0.2,0.5,0.5,0.4,0.9"/>
	<path fill="#FFFFFF" d="M78.2,39.4c0.4,0.4,0.4,1.1,0,1.5c-7.9,8.5-16.6,16.5-24.7,24.9c-0.6,0.6-1,0.7-1.6,0l-9.8-9.7
		c-0.4-0.5-0.4-1.1,0-1.6c8.4-8.3,16.7-16.7,25-25c0.4-0.4,0.7-0.5,1.2,0C71.5,32.8,74.9,36,78.2,39.4z"/>
</g>
</svg>
