<?xml version="1.0" encoding="utf-8"?>
<!-- Generator: Adobe Illustrator 25.0.0, SVG Export Plug-In . SVG Version: 6.00 Build 0)  -->
<svg version="1.1" id="Layer_1" xmlns="http://www.w3.org/2000/svg" xmlns:xlink="http://www.w3.org/1999/xlink" x="0px" y="0px"
	 viewBox="0 0 96 96" enable-background="new 0 0 96 96" xml:space="preserve">
<rect id="rect4805" x="11.7" y="81.8" fill="#C1BE63" width="73.6" height="9.6"/>
<polyline fill="#FFFFFF" points="29.9,53.6 34.5,44.8 43.9,44.7 43.9,33.1 38.9,33.1 38.9,6.2 17,6.2 17,33.2 11.6,33.2 11.6,44.7 
	21,44.7 25.6,53.6 "/>
<polyline fill="#4479FB" points="68,73.2 73.3,63.3 84,63.2 84,50 78.3,50 78.3,19.7 53.3,19.7 53.3,50.2 47.1,50.2 47.1,63.2 
	57.9,63.2 63.1,73.2 "/>
<g>
	<path fill="none" stroke="#FFFFFF" stroke-width="2.8346" stroke-miterlimit="10" d="M32.3,62.6c4.5,5.9,10.4,7.8,18.5,8.4"/>
	<polygon fill="#FFFFFF" points="28.9,66.3 28.8,56.4 37.4,61.2 	"/>
	<polygon fill="#FFFFFF" points="49.2,75.8 57.9,71.2 49.6,65.9 	"/>
</g>
</svg>
