<?xml version="1.0" encoding="utf-8"?>
<!-- Generator: Adobe Illustrator 25.0.0, SVG Export Plug-In . SVG Version: 6.00 Build 0)  -->
<svg version="1.1" id="图层_1" xmlns="http://www.w3.org/2000/svg" xmlns:xlink="http://www.w3.org/1999/xlink" x="0px" y="0px"
	 viewBox="0 0 1000 1000" enable-background="new 0 0 1000 1000" xml:space="preserve">
<rect id="path6995" y="0" display="none" stroke="#FFFFFF" stroke-miterlimit="10" width="1000" height="1000"/>
<g transform="translate(1.7416 41.799)">
	<path id="path6997" fill="#FFFFFF" d="M969.8,495.7c-10.7,22.2-16.2,30.3-35.8,53c-47.1,54.8-64.5,95.5-83.8,195.8
		c-12.6,65.9-21.5,86.8-45.2,103.8c-1.8,1.3-4,1.9-6.2,1.9l-172.4-3.4c-6.6-0.1-11.4-6.4-9.7-12.8c21.1-79.3,66.6-153.2,57.1-240.5
		c0-0.3-0.1-0.6-0.1-0.9l-0.7-66.3c0-0.7-0.1-1.3-0.2-2c-16.4-78.2,46.5-267.9-73-265.6c-4.2,0.1-8-2.3-9.6-6.1
		c-16.3-37.2-32.6-71.2-82.7-62.5c-3.4,0.6-6.8-0.5-9.2-3c-34.4-36.2-88.1-55.1-121.6-1.8c-1.5,2.5-7.1,4.6-9.9,3.8
		c-121.5-16.5-81.4,135.5-86.4,221.7c-0.5,8.5-10.5,12.7-16.9,7.1c-51.8-45.3-132.7-6.5-100.3,71.4l0.5,1.3c0.1,0.3,0.3,0.9,0.2,0.9
		c42.3,94.2,69.4,198.2,143.9,274.4c0.3,0.3,0.7,0.7,1.1,0.9c6.5,5,11.8,10.6,16.1,16.5c17.3,24-0.4,57.4-29.9,56.9l-190.5-3.7
		c-20.4-0.4-40-8.7-54.3-23.2c-9.6-9.7-18.1-20.1-22-27.5c-13.5-25.5-18.6-58.7-14.4-92.5c3.2-27.3,9.9-53,26.7-104.2
		c18.2-55.6,21.2-69.8,21.4-98.9c0-30.2-4-49-20.6-100.3C10.6,296,3.5,242,15.6,194.3C21.9,169.6,30,155,47,138
		c25.1-24.9,56-37,107-41.5c28.5-2.6,55-1.4,99.9,4.3c36.6,4.7,63.5,4.2,89.2-2c22.2-5.5,27.5-7.5,77.9-32
		c45.3-22,61.5-27.7,90-31.2c63.7-7.9,129.5,6.3,163.8,35.6c5.1,4.3,17.8,20,28.1,34.4c43.7,61.5,80.7,86.4,149.5,100.7
		c36.2,7.5,52.8,16.2,76.9,40.5c25.9,26.1,42.1,55,52.4,93.2C996.1,393.8,991.7,450,969.8,495.7L969.8,495.7z"/>
	<path id="path6999" fill="#4479FB" d="M233.1,455.1c-87.3-66.3,66.2,239.8,88.3,256.3c31.3,39.1,55.6,123.7,81.2,151.8
		s123.2,38.4,158.4,6.5s76.5-180,66.4-269.3c-0.4-90.4-5-180.8-1.4-271.3c2.4-33.2-42.1-34-40.7-0.7c-0.5,33.3-0.9,66.7-1.5,100
		c-0.3,16.5-9.6,26.6-23.6,26.2c-60.5-8.5,17.7-210.7-40-219.9c-56.8,10,14.9,211.2-46,218.1C412,446.5,492.5,209,435,197.7
		c-60.1,9.3,16,247.1-47.7,253.9c-14-0.4-22.4-11.1-22.2-28.6c-8.9-41.8,25.5-179.1-17.6-190.7c-47.3,20-11.8,217.8-24.3,275.7
		C306.7,588.6,253.4,478.9,233.1,455.1L233.1,455.1z"/>
</g>
</svg>
