<?xml version="1.0" encoding="UTF-8" standalone="no"?>
<!-- Svg Vector Icons : http://www.onlinewebfonts.com/icon -->

<svg
   version="1.1"
   x="0px"
   y="0px"
   viewBox="0 0 1000 1000"
   enable-background="new 0 0 1000 1000"
   xml:space="preserve"
   id="svg1405"
   sodipodi:docname="legend_cog.svg"
   inkscape:version="1.1 (c68e22c387, 2021-05-23)"
   xmlns:inkscape="http://www.inkscape.org/namespaces/inkscape"
   xmlns:sodipodi="http://sodipodi.sourceforge.net/DTD/sodipodi-0.dtd"
   xmlns="http://www.w3.org/2000/svg"
   xmlns:svg="http://www.w3.org/2000/svg"><defs
   id="defs1409" /><sodipodi:namedview
   id="namedview1407"
   pagecolor="#505050"
   bordercolor="#eeeeee"
   borderopacity="1"
   inkscape:pageshadow="0"
   inkscape:pageopacity="0"
   inkscape:pagecheckerboard="0"
   showgrid="false"
   inkscape:zoom="0.57417071"
   inkscape:cx="498.98052"
   inkscape:cy="500.72217"
   inkscape:window-width="1920"
   inkscape:window-height="1001"
   inkscape:window-x="-9"
   inkscape:window-y="-9"
   inkscape:window-maximized="1"
   inkscape:current-layer="g1403" />
<metadata
   id="metadata1400"> Svg Vector Icons : http://www.onlinewebfonts.com/icon </metadata>
<g
   id="g1403"><g
     id="g3385"
     transform="matrix(0.9,0,0,0.9,50,50)"><path
       id="Delicious"
       d="M 951.5,309.2 C 914.3,221.2 852.2,146.5 774,93.7 734.9,67.3 691.8,46.3 645.7,32 599.6,17.7 550.7,10 500,10 432.4,10 367.9,23.7 309.3,48.5 221.3,85.7 146.5,147.8 93.7,226 67.3,265.1 46.3,308.2 32,354.3 c -14.3,46 -22,95 -22,145.7 0,67.6 13.7,132.1 38.5,190.8 37.2,88 99.3,162.7 177.5,215.5 39.1,26.4 82.2,47.3 128.3,61.7 46,14.4 95,22 145.7,22 67.5,0 132.1,-13.7 190.7,-38.5 88,-37.2 162.7,-99.3 215.6,-177.5 26.4,-39.1 47.3,-82.3 61.7,-128.3 14.3,-46 22,-95 22,-145.7 0,-67.6 -13.7,-132.1 -38.5,-190.8 z m -61,355.7 c -32.2,76 -85.9,140.8 -153.6,186.4 -33.8,22.9 -71.1,41 -110.9,53.3 -39.8,12.3 -82.1,19 -126,19.1 v 0 -423.2 H 76.3 c 0,-0.2 0,-0.3 0,-0.5 0,-58.6 11.8,-114.2 33.3,-164.9 32.1,-76 85.9,-140.8 153.6,-186.5 33.8,-22.8 71.1,-40.9 110.9,-53.3 39.8,-12.4 82.1,-19 126,-19 V 500 h 423.7 c -0.1,58.6 -11.9,114.2 -33.3,164.9 z" /></g><path
     style="fill:#ffffff;stroke-width:7.38916;stroke-miterlimit:10;fill-opacity:1"
     d="m 77.139043,487.37685 c 3.697394,-84.56835 26.698247,-155.86557 72.010107,-223.21429 16.59166,-24.6608 30.37464,-41.20638 53.34679,-64.03941 27.30359,-27.13822 52.65045,-46.7668 84.88257,-65.73293 55.05852,-32.39773 124.18158,-53.51654 183.99427,-56.214822 7.95557,-0.358893 17.65123,-0.906877 21.54594,-1.217743 L 500,76.392444 V 288.19622 500 H 288.29357 76.58715 Z"
     id="path1516" /><path
     style="fill:#ffffff;fill-opacity:1;stroke-width:7.38916;stroke-miterlimit:10"
     d="M 500,711.76464 V 500 h 211.90502 211.90504 l -0.7671,13.23892 c -1.37279,23.69173 -3.21854,41.23939 -6.18546,58.80541 -24.78089,146.71813 -128.58118,271.82029 -269.07425,324.29358 -38.30204,14.30558 -84.14865,23.99629 -120.68965,25.51049 -8.46675,0.35085 -18.02648,0.87257 -21.24385,1.1594 L 500,923.52927 Z"
     id="path3257" /></g>
</svg>
