<?xml version="1.0" encoding="UTF-8" standalone="no"?>
<!-- Generator: Adobe Illustrator 18.0.0, SVG Export Plug-In . SVG Version: 6.00 Build 0)  -->

<svg
   version="1.1"
   id="Capa_1"
   x="0px"
   y="0px"
   viewBox="0 0 348.882 348.882"
   style="enable-background:new 0 0 348.882 348.882;"
   xml:space="preserve"
   sodipodi:docname="legend_colorchange.svg"
   inkscape:version="1.1 (c68e22c387, 2021-05-23)"
   xmlns:inkscape="http://www.inkscape.org/namespaces/inkscape"
   xmlns:sodipodi="http://sodipodi.sourceforge.net/DTD/sodipodi-0.dtd"
   xmlns:xlink="http://www.w3.org/1999/xlink"
   xmlns="http://www.w3.org/2000/svg"
   xmlns:svg="http://www.w3.org/2000/svg"><defs
   id="defs209">
	
	
</defs><sodipodi:namedview
   id="namedview207"
   pagecolor="#505050"
   bordercolor="#eeeeee"
   borderopacity="1"
   inkscape:pageshadow="0"
   inkscape:pageopacity="0"
   inkscape:pagecheckerboard="0"
   showgrid="false"
   inkscape:zoom="0.8228724"
   inkscape:cx="159.80606"
   inkscape:cy="209.63153"
   inkscape:window-width="1920"
   inkscape:window-height="1001"
   inkscape:window-x="-9"
   inkscape:window-y="-9"
   inkscape:window-maximized="1"
   inkscape:current-layer="Capa_1" />

<g
   id="g176">
</g>
<g
   id="g178">
</g>
<g
   id="g180">
</g>
<g
   id="g182">
</g>
<g
   id="g184">
</g>
<g
   id="g186">
</g>
<g
   id="g188">
</g>
<g
   id="g190">
</g>
<g
   id="g192">
</g>
<g
   id="g194">
</g>
<g
   id="g196">
</g>
<g
   id="g198">
</g>
<g
   id="g200">
</g>
<g
   id="g202">
</g>
<g
   id="g204">
</g>
<rect
   style="fill:#da948b;fill-opacity:1"
   id="rect4805"
   width="280.72397"
   height="36.457657"
   x="34.634773"
   y="295.91464" /><g
   id="g5796"
   transform="matrix(0.5,0,0,0.5,48.819638,25.122266)"><path
     style="fill:#ffce47"
     d="m 433.479,205.747 c 75.09,43.351 100.812,139.37 57.461,214.46 -43.351,75.09 -139.37,100.812 -214.46,57.461 -7.304,-4.21 -14.135,-8.93 -20.48,-14.074 l 31.824,-170.903 123.221,-97.645 c 7.632,2.924 15.13,6.491 22.434,10.701 z"
     id="path4126" /><path
     style="fill:#ff4181"
     d="m 78.521,205.747 c -75.09,43.351 -100.812,139.37 -57.461,214.46 43.351,75.09 139.37,100.812 214.46,57.461 7.304,-4.21 14.135,-8.93 20.48,-14.074 L 224.176,292.691 100.955,195.046 c -7.632,2.924 -15.13,6.491 -22.434,10.701 z"
     id="path4128" /><path
     style="fill:#4eb9ff"
     d="m 412.999,170.271 c 0,8.432 -0.667,16.707 -1.953,24.775 L 256,256.196 100.954,195.046 c -1.286,-8.068 -1.953,-16.343 -1.953,-24.775 0,-86.713 70.298,-156.999 156.999,-156.999 86.701,0 156.999,70.285 156.999,156.999 z"
     id="path4130" /><path
     style="fill:#ff755c"
     d="M 312.09,316.957 H 199.91 c -8.7,54.525 12.023,110.943 56.09,146.637 44.066,-35.694 64.789,-92.112 56.09,-146.637 z"
     id="path4132" /><path
     style="fill:#85c250"
     d="m 256,219.797 56.09,97.16 c 51.577,-19.74 90.086,-65.906 98.955,-121.911 C 358.098,174.724 298.865,185 256,219.797 Z"
     id="path4134" /><path
     style="fill:#3b8bc0"
     d="m 100.954,195.046 c 8.869,56.005 47.379,102.171 98.955,121.911 l 56.09,-97.16 C 213.134,185 153.902,174.724 100.954,195.046 Z"
     id="path4136" /><path
     style="fill:#174461"
     d="m 292.981,263.208 c 9.876,17.119 16.173,35.331 19.109,53.748 -17.423,6.661 -36.326,10.313 -56.09,10.313 -19.764,0 -38.667,-3.652 -56.09,-10.313 2.936,-18.418 9.233,-36.629 19.109,-53.749 9.876,-17.107 22.494,-31.667 36.981,-43.411 14.486,11.746 27.105,26.305 36.981,43.412 z"
     id="path4138" /><use
     x="0"
     y="0"
     xlink:href="#path4126"
     id="use4251"
     width="100%"
     height="100%" /><use
     x="0"
     y="0"
     xlink:href="#path4128"
     id="use4253"
     width="100%"
     height="100%" /><use
     x="0"
     y="0"
     xlink:href="#path4130"
     id="use4255"
     width="100%"
     height="100%" /><use
     x="0"
     y="0"
     xlink:href="#path4132"
     id="use4257"
     width="100%"
     height="100%" /><use
     x="0"
     y="0"
     xlink:href="#path4134"
     id="use4259"
     width="100%"
     height="100%" /><use
     x="0"
     y="0"
     xlink:href="#path4136"
     id="use4261"
     width="100%"
     height="100%" /><use
     x="0"
     y="0"
     xlink:href="#path4138"
     id="use4263"
     width="100%"
     height="100%" /></g></svg>
