<?xml version="1.0" encoding="utf-8"?>
<!-- Generator: Adobe Illustrator 25.0.0, SVG Export Plug-In . SVG Version: 6.00 Build 0)  -->
<svg version="1.1"
	 id="Layer_1" xmlns:inkscape="http://www.inkscape.org/namespaces/inkscape" xmlns:sodipodi="http://sodipodi.sourceforge.net/DTD/sodipodi-0.dtd" xmlns:svg="http://www.w3.org/2000/svg"
	 xmlns="http://www.w3.org/2000/svg" xmlns:xlink="http://www.w3.org/1999/xlink" x="0px" y="0px" viewBox="0 0 96 96"
	 enable-background="new 0 0 96 96" xml:space="preserve">
<sodipodi:namedview  bordercolor="#eeeeee" borderopacity="1" id="namedview7014" inkscape:current-layer="Layer_1" inkscape:cx="6.2660098" inkscape:cy="41.73399" inkscape:pagecheckerboard="0" inkscape:pageopacity="0" inkscape:pageshadow="0" inkscape:window-height="1001" inkscape:window-maximized="1" inkscape:window-width="1920" inkscape:window-x="-9" inkscape:window-y="-9" inkscape:zoom="4.2291667" pagecolor="#505050" showgrid="false">
	</sodipodi:namedview>
<rect id="rect4805" x="11.7" y="81.8" fill="#52F083" width="73.6" height="9.6"/>
<g id="g7865" transform="matrix(0.13421773,0,0,0.13421773,16.48933,9.3957966)">
	<path id="path7859" fill="#FFFFFF" d="M355.5,182c8.8-6.1,29.4-20.5,29.4-55.4V54.8h9.8c4.5,0,8.2-3.7,8.2-8.2V8.2
		c0-4.5-3.7-8.2-8.2-8.2H78.4c-4.5,0-8.2,3.7-8.2,8.2v38.5c0,4.5,3.7,8.2,8.2,8.2h9.8v73.1c0,34.5,10.5,42.6,29.1,53.9L198,231v21
		c-20.3,12.2-73.5,44.2-80.4,49.1c-8.8,6.1-29.4,20.5-29.4,55.4v61.8h-9.8c-4.5,0-8.2,3.7-8.2,8.2v38.5c0,4.5,3.7,8.2,8.2,8.2h316.4
		c4.5,0,8.2-3.7,8.2-8.2v-38.5c0-4.5-3.7-8.2-8.2-8.2h-9.8v-63.1c0-34.5-10.5-42.6-29.1-53.9L275.1,252v-21
		C295.4,218.8,348.5,186.8,355.5,182z M252.7,272.9l87.8,53.5c6.7,4.1,10.3,6.4,12,9c2,3.2,3,9.6,3,19.8v63.1H117.6v-61.8
		c0-19.5,9.7-26.3,16.8-31.2c5.6-3.9,54.4-33.4,85.9-52.3c4.4-2.7,7.1-7.4,7.1-12.6v-37.6c0-5.1-2.7-9.9-7.1-12.5l-87.5-53.3
		l-0.3-0.2c-6.7-4.1-10.3-6.4-12-9c-2-3.2-3-9.6-3-19.8V54.8h237.9v71.8c0,19.5-9.7,26.3-16.8,31.2c-5.5,3.9-54.4,33.4-85.9,52.3
		c-4.4,2.7-7.1,7.4-7.1,12.6v37.6C245.7,265.4,248.3,270.2,252.7,272.9z"/>
	<path id="path7861" fill="#4479FB" stroke="#4479FB" stroke-width="0.1342" stroke-miterlimit="10" d="M331.1,154.2
		c0,0,5.3-4.6-2.8-3.3c-19.2,3.1-53.1,15.1-92.1,15.1s-57-11-82.5-11.3c-5.6-0.1-5.5,3.6,0.9,7.4c6.4,3.8,63.8,35.7,71.7,40.1
		c7.9,4.4,12.4,4.1,20.8,0C259.2,196.3,331.1,154.2,331.1,154.2z"/>
	<path id="path7863" fill="#4479FB" stroke="#4479FB" stroke-width="0.1342" stroke-miterlimit="10" d="M154.3,397.6
		c-6.7,6.2-10,10.7,5.5,10.7c12.7,0,139.3,0,155.4,0c16.1,0,9.9-5.5,2.3-12.6c-14.6-13.9-45.4-23.6-82.4-23.6
		C196.4,372.1,169.3,383.7,154.3,397.6z"/>
</g>
</svg>
