<?xml version="1.0" encoding="utf-8"?>
<!-- Generator: Adobe Illustrator 25.0.0, SVG Export Plug-In . SVG Version: 6.00 Build 0)  -->
<svg version="1.1"
	 id="Capa_1" xmlns:inkscape="http://www.inkscape.org/namespaces/inkscape" xmlns:sodipodi="http://sodipodi.sourceforge.net/DTD/sodipodi-0.dtd" xmlns:svg="http://www.w3.org/2000/svg"
	 xmlns="http://www.w3.org/2000/svg" xmlns:xlink="http://www.w3.org/1999/xlink" x="0px" y="0px" viewBox="0 0 348.9 348.9"
	 enable-background="new 0 0 348.9 348.9" xml:space="preserve">
<sodipodi:namedview  bordercolor="#eeeeee" borderopacity="1" id="namedview207" inkscape:current-layer="Capa_1" inkscape:cx="174.08531" inkscape:cy="175.30057" inkscape:pagecheckerboard="0" inkscape:pageopacity="0" inkscape:pageshadow="0" inkscape:window-height="1001" inkscape:window-maximized="1" inkscape:window-width="1920" inkscape:window-x="-9" inkscape:window-y="-9" inkscape:zoom="1.6457448" pagecolor="#505050" showgrid="false">
	</sodipodi:namedview>
<g id="g176">
</g>
<g id="g178">
</g>
<g id="g180">
</g>
<g id="g182">
</g>
<g id="g184">
</g>
<g id="g186">
</g>
<g id="g188">
</g>
<g id="g190">
</g>
<g id="g192">
</g>
<g id="g194">
</g>
<g id="g196">
</g>
<g id="g198">
</g>
<g id="g200">
</g>
<g id="g202">
</g>
<g id="g204">
</g>
<path id="path3790" fill="#4479FB" stroke="#4479FB" stroke-width="4" d="M168.4,271.2c0,2.1,0.8,4.1,2.4,5.5
	c2.8,3,7.6,3.2,10.6,0.3c0.1-0.1,0.2-0.2,0.3-0.3l92.1-91.8c3-2.8,3.2-7.6,0.3-10.6c-0.1-0.1-0.2-0.2-0.3-0.3
	c-2.8-3-7.6-3.2-10.6-0.3c-0.1,0.1-0.2,0.2-0.3,0.3l-92.1,91.8C169.2,267.2,168.3,269.1,168.4,271.2L168.4,271.2z"/>
<path id="path3792" fill="#4479FB" stroke="#4479FB" stroke-width="4" d="M76.2,179.1c-0.1,2.2,0.7,4.3,2.4,5.8l92.1,91.8
	c2.8,3,7.6,3.2,10.6,0.3c0.1-0.1,0.2-0.2,0.3-0.3c3-2.8,3.2-7.6,0.3-10.6c-0.1-0.1-0.2-0.2-0.3-0.3l-92.1-92.1
	c-2.8-3-7.6-3.2-10.6-0.3c-0.1,0.1-0.2,0.2-0.3,0.3C77.1,175,76.2,177,76.2,179.1L76.2,179.1z M168.4,197.3c0,2.1,0.9,4.2,2.4,5.7
	c3.1,3,7.9,3,11,0l92.1-92.3c3-2.8,3.2-7.6,0.3-10.6c-0.1-0.1-0.2-0.2-0.3-0.3c-2.8-3-7.6-3.2-10.6-0.3c-0.1,0.1-0.2,0.2-0.3,0.3
	l-92.1,92.1C169.2,193.2,168.4,195.2,168.4,197.3z"/>
<path id="path3794" fill="#4479FB" stroke="#4479FB" stroke-width="4" d="M76.2,105.2c0,2.1,0.8,4.1,2.4,5.5l92.1,92.3
	c3.1,3,7.9,3,11,0c3.1-3.1,3.1-8,0-11.1c0,0,0,0,0,0L89.6,99.7c-3.1-3-8.1-3-11.1,0.1C77.1,101.2,76.3,103.1,76.2,105.2z
	 M168.4,123.4c0,2.1,0.9,4.2,2.4,5.7c3.1,3,7.9,3,11,0l92.1-92.1c3.1-3.1,3.1-8,0-11.1c0,0,0,0,0,0c-3.1-3-7.9-3-11,0l-92.1,92.1
	C169.2,119.3,168.4,121.3,168.4,123.4z"/>
<path id="path3796" fill="#4479FB" stroke="#4479FB" stroke-width="4" d="M76.2,31.2c0,2.1,0.9,4.2,2.4,5.7l92.1,92.1
	c3.1,3,7.9,3,11,0c3.1-3.1,3.1-8,0-11.1c0,0,0,0,0,0L89.6,25.7c-3.1-3-8.1-3-11.1,0.1C77.1,27.3,76.3,29.2,76.2,31.2z"/>
<rect id="rect4805" x="34.6" y="295.9" fill="#49ADCF" width="280.7" height="36.5"/>
</svg>
