<?xml version="1.0" encoding="utf-8"?>
<!-- Generator: Adobe Illustrator 25.0.0, SVG Export Plug-In . SVG Version: 6.00 Build 0)  -->
<svg version="1.1"
	 id="Layer_1" xmlns:inkscape="http://www.inkscape.org/namespaces/inkscape" xmlns:sodipodi="http://sodipodi.sourceforge.net/DTD/sodipodi-0.dtd" xmlns:svg="http://www.w3.org/2000/svg"
	 xmlns="http://www.w3.org/2000/svg" xmlns:xlink="http://www.w3.org/1999/xlink" x="0px" y="0px" viewBox="0 0 512 512"
	 enable-background="new 0 0 512 512" xml:space="preserve">
<sodipodi:namedview  bordercolor="#eeeeee" borderopacity="1" id="namedview958" inkscape:current-layer="g955" inkscape:cx="256" inkscape:cy="256" inkscape:pagecheckerboard="0" inkscape:pageopacity="0" inkscape:pageshadow="0" inkscape:window-height="1001" inkscape:window-maximized="1" inkscape:window-width="1920" inkscape:window-x="-9" inkscape:window-y="-9" inkscape:zoom="1.5292969" pagecolor="#505050" showgrid="false">
	</sodipodi:namedview>
<g id="g955">
	<path id="path893" fill="#4479FB" stroke="#4479FB" stroke-width="4" d="M113.5,451c2.3,0,4.4-1,5.8-2.8
		c3.2-3.9,76.7-96.1,76.7-139.7c0-45.6-36.9-82.5-82.5-82.5S31,262.9,31,308.5c0,43.6,73.5,135.8,76.7,139.7
		C109.1,450,111.2,451,113.5,451z M113.5,241c37.3,0,67.5,30.2,67.5,67.5c0,29.1-44.3,92.7-67.5,122.8C90.3,401.2,46,337.6,46,308.5
		C46,271.2,76.2,241,113.5,241z"/>
	<path id="path895" fill="#4479FB" stroke="#4479FB" stroke-width="4" d="M143.5,301c0-16.6-13.4-30-30-30s-30,13.4-30,30
		s13.4,30,30,30S143.5,317.6,143.5,301z M98.5,301c0-8.3,6.7-15,15-15s15,6.7,15,15s-6.7,15-15,15S98.5,309.3,98.5,301z"/>
	<path id="path897" fill="#4479FB" stroke="#4479FB" stroke-width="4" d="M421,188.5c2.2,0,4.3-1,5.7-2.6c5.6-6.5,54.3-64,54.3-94.9
		c0-33.1-26.9-60-60-60s-60,26.9-60,60c0,30.9,48.8,88.4,54.3,94.9C416.7,187.5,418.8,188.5,421,188.5z M421,46
		c24.8,0,45,20.2,45,45c0,19-28.6,58.2-45,78.3c-16.4-20.1-45-59.2-45-78.3C376,66.2,396.2,46,421,46z"/>
	<path id="path899" fill="#4479FB" stroke="#4479FB" stroke-width="4" d="M443.5,83.5c0-12.4-10.1-22.5-22.5-22.5
		s-22.5,10.1-22.5,22.5S408.6,106,421,106S443.5,95.9,443.5,83.5z M413.5,83.5c0-4.1,3.4-7.5,7.5-7.5s7.5,3.4,7.5,7.5
		S425.1,91,421,91S413.5,87.6,413.5,83.5z"/>
	<path id="path901" fill="#FFFFFF" stroke="#FFFFFF" stroke-width="4" d="M413.5,218.5h7.5c4.1,0,7.5-3.4,7.5-7.5s-3.4-7.5-7.5-7.5
		h-7.5c-4.1,0-7.5,3.4-7.5,7.5S409.4,218.5,413.5,218.5z"/>
	<path id="path903" fill="#FFFFFF" stroke="#FFFFFF" stroke-width="4" d="M316,263.5h15.2c4.1,0,7.5-3.4,7.5-7.5s-3.4-7.5-7.5-7.5
		h-15.3c-2,0-3.9,0.8-5.3,2.2s-2.2,3.3-2.2,5.3C308.5,260.2,311.8,263.5,316,263.5z"/>
	<path id="path905" fill="#FFFFFF" stroke="#FFFFFF" stroke-width="4" d="M400.1,256c0,4.1,3.4,7.5,7.5,7.5h15.3
		c4.1,0,7.5-3.4,7.5-7.5s-3.4-7.5-7.5-7.5h-15.3C403.4,248.5,400.1,251.9,400.1,256z"/>
	<path id="path907" fill="#FFFFFF" stroke="#FFFFFF" stroke-width="4" d="M367.7,218.5H383c4.1,0,7.5-3.4,7.5-7.5s-3.4-7.5-7.5-7.5
		h-15.3c-4.1,0-7.5,3.4-7.5,7.5S363.5,218.5,367.7,218.5z"/>
	<path id="path909" fill="#FFFFFF" stroke="#FFFFFF" stroke-width="4" d="M167.6,466h-15.3c-4.1,0-7.5,3.4-7.5,7.5s3.4,7.5,7.5,7.5
		h15.3c4.1,0,7.5-3.4,7.5-7.5S171.8,466,167.6,466z"/>
	<path id="path911" fill="#FFFFFF" stroke="#FFFFFF" stroke-width="4" d="M294,245.7c0.5,0,1-0.1,1.6-0.2c4.1-0.9,6.6-4.8,5.8-8.9
		c-0.2-1-0.3-2.1-0.3-3.1c0-2.4,0.6-4.7,1.6-6.8c1.9-3.7,0.4-8.2-3.3-10.1c-3.7-1.9-8.2-0.4-10.1,3.3c-3.1,6.1-4,13.1-2.6,19.8
		C287.4,243.1,290.4,245.6,294,245.7z"/>
	<path id="path913" fill="#FFFFFF" stroke="#FFFFFF" stroke-width="4" d="M361.8,263.5H377c4.1,0,7.5-3.4,7.5-7.5s-3.4-7.5-7.5-7.5
		h-15.3c-4.1,0-7.5,3.4-7.5,7.5S357.6,263.5,361.8,263.5z"/>
	<path id="path915" fill="#FFFFFF" stroke="#FFFFFF" stroke-width="4" d="M321.8,218.5h15.3c4.1,0,7.5-3.4,7.5-7.5s-3.4-7.5-7.5-7.5
		h-15.3c-4.1,0-7.5,3.4-7.5,7.5S317.7,218.5,321.8,218.5z"/>
	<path id="path917" fill="#FFFFFF" stroke="#FFFFFF" stroke-width="4" d="M247.7,348.8c0.6,0.2,1.2,0.2,1.8,0.2
		c3.4,0,6.4-2.4,7.3-5.7c1-3.9,2.8-7.4,5.3-10.5c1.8-2,2.4-4.9,1.4-7.5c-0.9-2.6-3.1-4.4-5.8-4.9c-2.7-0.5-5.4,0.6-7.1,2.7
		c-4,4.8-6.9,10.4-8.4,16.5c-0.5,1.9-0.2,4,0.8,5.7C244.1,347.1,245.8,348.3,247.7,348.8z"/>
	<path id="path919" fill="#FFFFFF" stroke="#FFFFFF" stroke-width="4" d="M395.9,465.7c-1.6,0.2-3.2,0.3-4.9,0.3h-9.4
		c-4.1,0-7.5,3.4-7.5,7.5s3.4,7.5,7.5,7.5h9.4c2.3,0,4.5-0.1,6.7-0.4c4.1-0.5,7-4.3,6.5-8.4S399.9,465.2,395.9,465.7L395.9,465.7z"
		/>
	<path id="path921" fill="#FFFFFF" stroke="#FFFFFF" stroke-width="4" d="M406.3,378.2c-5-1.5-10.1-2.3-15.3-2.2h-2
		c-4.1,0-7.5,3.4-7.5,7.5s3.4,7.5,7.5,7.5h2c3.7,0,7.4,0.5,10.9,1.6c0.7,0.2,1.4,0.3,2.2,0.3c3.7,0,6.9-2.7,7.4-6.4
		C412.1,382.9,409.9,379.4,406.3,378.2L406.3,378.2z"/>
	<path id="path923" fill="#FFFFFF" stroke="#FFFFFF" stroke-width="4" d="M390.3,323.5c4.1,0,7.5-3.4,7.5-7.5s-3.4-7.5-7.5-7.5H375
		c-4.1,0-7.5,3.4-7.5,7.5s3.4,7.5,7.5,7.5H390.3z"/>
	<path id="path925" fill="#FFFFFF" stroke="#FFFFFF" stroke-width="4" d="M435.1,440.1c-3.8-1.7-8.2,0-9.9,3.8
		c-1.7,3.9-4.1,7.4-7.1,10.5c-1.9,1.9-2.7,4.7-1.9,7.3c0.7,2.6,2.8,4.6,5.5,5.3c2.6,0.6,5.4-0.2,7.3-2.2c4.1-4.3,7.5-9.3,9.9-14.7
		C440.6,446.3,438.9,441.8,435.1,440.1z"/>
	<path id="path927" fill="#FFFFFF" stroke="#FFFFFF" stroke-width="4" d="M474.4,287.3c-1.9-0.6-4-0.3-5.7,0.6c-1.7,1-3,2.6-3.6,4.5
		c-1.1,3.7-3.1,7-5.9,9.7c-3,2.9-3,7.7-0.1,10.6s7.7,3,10.6,0.1c4.6-4.5,7.9-10,9.7-16.2c0.6-1.9,0.3-4-0.6-5.7
		C477.9,289.2,476.3,287.9,474.4,287.3z"/>
	<path id="path929" fill="#FFFFFF" stroke="#FFFFFF" stroke-width="4" d="M465.8,273.5c3,0,5.6-1.7,6.9-4.4c1.2-2.7,0.7-5.9-1.3-8.1
		c-4.3-4.8-9.7-8.4-15.8-10.4c-3.9-1.3-8.2,0.7-9.5,4.7c-1.3,4,0.7,8.2,4.7,9.5c3.6,1.2,6.9,3.4,9.4,6.3
		C461.7,272.6,463.7,273.5,465.8,273.5z"/>
	<path id="path931" fill="#FFFFFF" stroke="#FFFFFF" stroke-width="4" d="M358.5,376h-15.3c-4.1,0-7.5,3.4-7.5,7.5s3.4,7.5,7.5,7.5
		h15.3c4.1,0,7.5-3.4,7.5-7.5S362.6,376,358.5,376z"/>
	<path id="path933" fill="#FFFFFF" stroke="#FFFFFF" stroke-width="4" d="M436.2,308.5h-15.3c-4.1,0-7.5,3.4-7.5,7.5
		s3.4,7.5,7.5,7.5h15.3c4.1,0,7.5-3.4,7.5-7.5S440.3,308.5,436.2,308.5z"/>
	<path id="path935" fill="#FFFFFF" stroke="#FFFFFF" stroke-width="4" d="M213.5,466h-15.3c-4.1,0-7.5,3.4-7.5,7.5s3.4,7.5,7.5,7.5
		h15.3c4.1,0,7.5-3.4,7.5-7.5S217.6,466,213.5,466z"/>
	<path id="path937" fill="#FFFFFF" stroke="#FFFFFF" stroke-width="4" d="M434.4,399c-2.3-3.4-7-4.3-10.4-2s-4.3,7-2,10.4
		c2.4,3.5,4.2,7.4,5.2,11.5c0.6,2.7,2.6,4.8,5.2,5.6c2.6,0.8,5.5,0,7.4-1.9s2.6-4.8,1.9-7.4C440.3,409.5,437.8,404,434.4,399z"/>
	<path id="path939" fill="#FFFFFF" stroke="#FFFFFF" stroke-width="4" d="M270.6,373.3c-3.6-1.8-6.7-4.3-9.1-7.5
		c-2.5-3.3-7.3-3.9-10.5-1.3c-3.3,2.5-3.9,7.3-1.3,10.5c3.8,4.9,8.7,8.9,14.3,11.7c3.7,1.7,8.1,0.2,9.9-3.5
		C275.7,379.6,274.3,375.2,270.6,373.3z"/>
	<path id="path941" fill="#FFFFFF" stroke="#FFFFFF" stroke-width="4" d="M259.3,466H244c-4.1,0-7.5,3.4-7.5,7.5s3.4,7.5,7.5,7.5
		h15.3c4.1,0,7.5-3.4,7.5-7.5S263.4,466,259.3,466z"/>
	<path id="path943" fill="#FFFFFF" stroke="#FFFFFF" stroke-width="4" d="M351,466h-15.3c-4.1,0-7.5,3.4-7.5,7.5s3.4,7.5,7.5,7.5
		H351c4.1,0,7.5-3.4,7.5-7.5S355.1,466,351,466z"/>
	<path id="path945" fill="#FFFFFF" stroke="#FFFFFF" stroke-width="4" d="M298.6,323.5c4.1,0,7.5-3.4,7.5-7.5s-3.4-7.5-7.5-7.5
		h-15.3c-4.1,0-7.5,3.4-7.5,7.5s3.4,7.5,7.5,7.5H298.6z"/>
	<path id="path947" fill="#FFFFFF" stroke="#FFFFFF" stroke-width="4" d="M344.5,323.5c4.1,0,7.5-3.4,7.5-7.5s-3.4-7.5-7.5-7.5
		h-15.3c-4.1,0-7.5,3.4-7.5,7.5s3.4,7.5,7.5,7.5H344.5z"/>
	<path id="path949" fill="#FFFFFF" stroke="#FFFFFF" stroke-width="4" d="M312.6,376h-15.3c-4.1,0-7.5,3.4-7.5,7.5s3.4,7.5,7.5,7.5
		h15.3c4.1,0,7.5-3.4,7.5-7.5S316.8,376,312.6,376z"/>
	<path id="path951" fill="#FFFFFF" stroke="#FFFFFF" stroke-width="4" d="M305.2,466h-15.3c-4.1,0-7.5,3.4-7.5,7.5s3.4,7.5,7.5,7.5
		h15.3c4.1,0,7.5-3.4,7.5-7.5S309.3,466,305.2,466z"/>
	<path id="path953" fill="#FFFFFF" stroke="#FFFFFF" stroke-width="4" d="M121,466h-7.5c-4.1,0-7.5,3.4-7.5,7.5s3.4,7.5,7.5,7.5h7.5
		c4.1,0,7.5-3.4,7.5-7.5S125.1,466,121,466z"/>
</g>
</svg>
