<?xml version="1.0" encoding="utf-8"?>
<!-- Generator: Adobe Illustrator 25.0.0, SVG Export Plug-In . SVG Version: 6.00 Build 0)  -->
<svg version="1.1" id="图层_1" xmlns="http://www.w3.org/2000/svg" xmlns:xlink="http://www.w3.org/1999/xlink" x="0px" y="0px"
	 viewBox="0 0 16 16" enable-background="new 0 0 16 16" xml:space="preserve">
<path fill="#4479FB" d="M12.1,6.6h-0.2V4.9C11.9,2.7,10.2,1,8,1S4.1,2.7,4.1,4.9v1.7H3.9c-0.7,0-1.2,0.5-1.2,1.2v6.1
	c0,0.7,0.5,1.2,1.2,1.2h8.2c0.7,0,1.2-0.5,1.2-1.2V7.8C13.3,7.1,12.8,6.6,12.1,6.6z M5.4,4.9c0-1.4,1.2-2.6,2.6-2.6
	c1.4,0,2.6,1.2,2.6,2.6v1.7H5.4V4.9z M9,11.1v1.8H7v-1.8c-0.3-0.3-0.5-0.6-0.5-1.1c0-0.8,0.7-1.5,1.5-1.5c0.8,0,1.5,0.7,1.5,1.5
	C9.4,10.4,9.3,10.8,9,11.1z"/>
<g>
</g>
<g>
</g>
<g>
</g>
<g>
</g>
<g>
</g>
<g>
</g>
</svg>
