<?xml version="1.0" encoding="utf-8"?>
<!-- Generator: Adobe Illustrator 25.0.0, SVG Export Plug-In . SVG Version: 6.00 Build 0)  -->
<svg version="1.1" id="图层_1" xmlns="http://www.w3.org/2000/svg" xmlns:xlink="http://www.w3.org/1999/xlink" x="0px" y="0px"
	 viewBox="0 0 16 16" enable-background="new 0 0 16 16" xml:space="preserve">
<path fill="#4479FB" d="M12.1,6.6H5.4V4.9c0-1.4,1.2-2.6,2.6-2.6c1.1,0,2,0.6,2.4,1.6c0.1,0.3,0.5,0.5,0.8,0.3
	c0.3-0.1,0.5-0.5,0.3-0.8C11,1.9,9.6,1,8,1C5.8,1,4.1,2.7,4.1,4.9v1.7H3.9c-0.7,0-1.2,0.5-1.2,1.2v6.1c0,0.7,0.5,1.2,1.2,1.2h8.2
	c0.7,0,1.2-0.5,1.2-1.2V7.8C13.3,7.1,12.8,6.6,12.1,6.6z M9,11.1v1.8H7v-1.8c-0.3-0.3-0.5-0.6-0.5-1.1c0-0.8,0.7-1.5,1.5-1.5
	c0.8,0,1.5,0.7,1.5,1.5C9.4,10.4,9.3,10.8,9,11.1z"/>
<g>
</g>
<g>
</g>
<g>
</g>
<g>
</g>
<g>
</g>
<g>
</g>
</svg>
