<?xml version="1.0" encoding="utf-8"?>
<!-- Generator: Adobe Illustrator 25.0.0, SVG Export Plug-In . SVG Version: 6.00 Build 0)  -->
<svg version="1.1" id="图层_1" xmlns="http://www.w3.org/2000/svg" xmlns:xlink="http://www.w3.org/1999/xlink" x="0px" y="0px"
	 viewBox="0 0 16 16" enable-background="new 0 0 16 16" xml:space="preserve">
<path fill="#808080" d="M4.2,1.2v13.5h2.2c1.5,0,2.9,0,3.8-0.5c0.9-0.5,1.5-1.3,1.5-3.2c0-1.2-0.5-2.1-1.2-2.6
	c-1.4-1-2.2-0.9-3.3-0.9c1.2-0.2,2.4-0.6,2.9-1.3c0.1-0.2,0.6-0.9,0.6-1.9c0-0.9-0.4-1.6-1.1-2.1S7.8,1.2,6.4,1.2H4.2z M6.4,1.7
	c0.8,0,1.8,0.1,2.5,0.5s1.3,1.1,1.3,2.2c0,0.7-0.2,1.2-0.6,1.6C9.3,6.5,8.9,6.7,8.3,6.9C7.3,7.3,6,7.2,5,7.2H4.8V1.8l0.2,0
	C5.4,1.7,5.8,1.7,6.4,1.7z M4.8,7.7H5c0.9,0,1.2,0,2,0c1.5,0,2.6,0.4,3.3,1c0.7,0.6,0.9,1.4,0.9,2.2c0,0.8-0.3,1.6-0.9,2.2
	c-0.6,0.6-1.6,1-2.9,1c-0.5,0-1.7,0-2.4,0l-0.2,0V8V7.7z"/>
<path fill="#4479FB" d="M3,0v16h3.4c4.2,0,6.6-1,6.7-4.9c-0.1-2.6-1.6-3.5-2.5-3.8C11,7,12,6.5,12,4c0-2.7-2-4-5.6-4H3z M4,1h2.4
	c3,0,4.6,1.2,4.6,3.2c0,2.2-1,2.6-2.5,3.2c1.3,0,3.4,1,3.5,3.6c-0.1,3.9-2.5,4-5.6,4H4V1z M6.4,2C5.9,2,5.4,2,5,2v5c2,0,5,0,5-2.6
	C10,2.3,8,2,6.4,2z M6,3c1.4,0,3,0,3,1.4C9,5.9,7.6,6,6,6V3z M5,8v6c0.7,0,1.9,0,2.4,0c2.6,0,3.5-1.5,3.5-3c0-1.4-0.9-3-3.9-3
	C6.2,8,5.9,8,5,8z M6,9c0.9,0,0.6,0,1.4,0C9,9,10,9.6,10,11c0,1.5-1,2-2.6,2c-0.5,0-0.7,0-1.4,0V9z"/>
</svg>
