<?xml version="1.0" encoding="utf-8"?>
<!-- Generator: Adobe Illustrator 25.0.0, SVG Export Plug-In . SVG Version: 6.00 Build 0)  -->
<svg version="1.1" id="图层_1" xmlns="http://www.w3.org/2000/svg" xmlns:xlink="http://www.w3.org/1999/xlink" x="0px" y="0px"
	 viewBox="0 0 16 16" enable-background="new 0 0 16 16" xml:space="preserve">
<path fill="#808080" d="M3,0v16h3.4c4.2,0,6.6-1,6.7-4.9c-0.1-2.6-1.6-3.5-2.5-3.8C11,7,12,6.5,12,4c0-2.7-2-4-5.6-4H3z M3.5,0.5
	h2.9c1.5,0,2.8,0.3,3.7,0.9s1.4,1.6,1.4,2.8c0,1.2-0.3,2-0.8,2.6c-0.3,0.3-0.7,0.4-1,0.5c0.5,0.2,0.9,0.2,1.4,0.5
	c0.8,0.7,1.4,1.7,1.5,3.2v0v0c0,2.1-0.8,3.3-1.9,3.9c-1.2,0.6-2.6,0.6-4.1,0.6H3.5V0.5z M6.7,2.5c-0.4,0-0.8,0-1.2,0v3.9
	c0.9,0,1.9,0,2.6-0.2c0.4-0.1,0.8-0.3,1-0.6S9.5,5,9.5,4.4c0-0.6-0.2-0.9-0.4-1.2S8.4,2.8,7.9,2.7C7.5,2.6,7.1,2.5,6.7,2.5z M6,3
	c1.4,0,3,0,3,1.4C9,5.9,7.6,6,6,6V3z M5.5,8.5v5c0.7,0,1.5,0,1.9,0h0h0c1.2,0,1.9-0.3,2.4-0.8c0.5-0.5,0.7-1.1,0.6-1.7
	c0-0.6-0.2-1.2-0.7-1.7S8.4,8.5,7,8.5h0h0C6.4,8.5,6,8.5,5.5,8.5z M6,9c0.9,0,0.6,0,1.4,0C9,9,10,9.6,10,11c0,1.5-1,2-2.6,2
	c-0.5,0-0.7,0-1.4,0V9z M4.5,14.5L4.5,14.5l0.5,0L4.5,14.5z"/>
<path fill="#4479FB" d="M12,11c-0.1,3.9-2.5,4-5.6,4H4V1h2.4c3,0,4.6,1.2,4.6,3.2c0,2.2-1,2.6-2.5,3.2C9.8,7.4,11.9,8.4,12,11z
	 M10,4.4C10,1.6,6.4,2,5,2v5C7,7,10,7,10,4.4z M10.9,11c0-1.4-0.9-3-3.9-3C6.2,8,5.9,8,5,8v6c0.7,0,1.9,0,2.4,0
	C10,14,11,12.5,10.9,11z"/>
</svg>
