<?xml version="1.0" encoding="utf-8"?>
<!-- Generator: Adobe Illustrator 25.0.0, SVG Export Plug-In . SVG Version: 6.00 Build 0)  -->
<svg version="1.1" id="图层_1" xmlns="http://www.w3.org/2000/svg" xmlns:xlink="http://www.w3.org/1999/xlink" x="0px" y="0px"
	 viewBox="0 0 16 16" enable-background="new 0 0 16 16" xml:space="preserve">
<path fill="#FF0000" d="M8,1C4.1,1,1,4.1,1,8s3.1,7,7,7c3.9,0,7-3.1,7-7S11.9,1,8,1z M9.5,12l-0.9-1.8C8.4,9.8,8.2,9.4,7.9,8.9H7.9
	c-0.2,0.5-0.4,0.9-0.6,1.3L6.4,12H4.7L7,7.9L4.9,4h1.8l0.8,1.6C7.6,6,7.8,6.4,8.1,6.9h0.1C8.3,6.4,8.5,6,8.6,5.6L9.4,4h1.7L9,7.9
	l2.2,4.1L9.5,12z"/>
<g>
</g>
<g>
</g>
<g>
</g>
<g>
</g>
<g>
</g>
<g>
</g>
</svg>
