<?xml version="1.0" encoding="utf-8"?>
<!-- Generator: Adobe Illustrator 25.0.0, SVG Export Plug-In . SVG Version: 6.00 Build 0)  -->
<svg version="1.1"
	 id="Layer_1" xmlns:inkscape="http://www.inkscape.org/namespaces/inkscape" xmlns:sodipodi="http://sodipodi.sourceforge.net/DTD/sodipodi-0.dtd" xmlns:svg="http://www.w3.org/2000/svg"
	 xmlns="http://www.w3.org/2000/svg" xmlns:xlink="http://www.w3.org/1999/xlink" x="0px" y="0px" viewBox="0 0 128 128"
	 enable-background="new 0 0 128 128" xml:space="preserve">
<sodipodi:namedview  bordercolor="#eeeeee" borderopacity="1" id="namedview974" inkscape:current-layer="Layer_1" inkscape:cx="63.921182" inkscape:cy="64.078818" inkscape:pagecheckerboard="0" inkscape:pageopacity="0" inkscape:pageshadow="0" inkscape:window-height="1001" inkscape:window-maximized="1" inkscape:window-width="1920" inkscape:window-x="3191" inkscape:window-y="-9" inkscape:zoom="6.34375" pagecolor="#505050" showgrid="false">
	</sodipodi:namedview>
<g id="g1872">
	<path id="path958-8" sodipodi:nodetypes="sccsccs" fill="#4479FB" d="M27,54.5l0.1-10c0-0.8,0.7-1.5,1.5-1.5c0.8,0,1.5,0.7,1.5,1.5
		l-0.1,10c0,0.8-0.7,1.5-1.5,1.5C27.6,56,27,55.3,27,54.5z"/>
	<path id="path958-8-1" sodipodi:nodetypes="sccsccs" fill="#4479FB" d="M37,54.5l0.1-10c0-0.8,0.7-1.5,1.5-1.5
		c0.8,0,1.5,0.7,1.5,1.5l-0.1,10c0,0.8-0.7,1.5-1.5,1.5C37.6,56,37,55.3,37,54.5z"/>
	<path id="path958-8-9" sodipodi:nodetypes="sccsccs" fill="#4479FB" d="M47,60.2l0.1-15c0-1.2,0.7-2.2,1.5-2.2c0.8,0,1.5,1,1.5,2.3
		l-0.1,15c0,1.2-0.7,2.2-1.5,2.2C47.6,62.5,47,61.4,47,60.2z"/>
	<path id="path958-8-9-3" sodipodi:nodetypes="sccsccs" fill="#4479FB" d="M57,54.5l0.1-10c0-0.8,0.7-1.5,1.5-1.5
		c0.8,0,1.5,0.7,1.5,1.5l-0.1,10c0,0.8-0.7,1.5-1.5,1.5C57.6,56,57,55.3,57,54.5z"/>
	<path id="path958-8-9-3-0" sodipodi:nodetypes="sccsccs" fill="#4479FB" d="M67,54.5l0.1-10c0-0.8,0.7-1.5,1.5-1.5
		c0.8,0,1.5,0.7,1.5,1.5l-0.1,10c0,0.8-0.7,1.5-1.5,1.5C67.6,56,67,55.3,67,54.5z"/>
	<path id="path958-8-9-3-1" sodipodi:nodetypes="sccsccs" fill="#4479FB" d="M77,60.2l0.1-15c0-1.2,0.7-2.2,1.5-2.2
		c0.8,0,1.5,1,1.5,2.3l-0.1,15c0,1.2-0.7,2.2-1.5,2.2C77.6,62.5,77,61.4,77,60.2z"/>
	<path id="path958-8-9-3-1-4" sodipodi:nodetypes="sccsccs" fill="#4479FB" d="M87,54.5l0.1-10c0-0.8,0.7-1.5,1.5-1.5
		c0.8,0,1.5,0.7,1.5,1.5l-0.1,10c0,0.8-0.7,1.5-1.5,1.5C87.6,56,87,55.3,87,54.5z"/>
	<path id="path958-8-9-3-1-4-2" sodipodi:nodetypes="sccsccs" fill="#4479FB" d="M97,54.5l0.1-10c0-0.8,0.7-1.5,1.5-1.5
		c0.8,0,1.5,0.7,1.5,1.5l-0.1,10c0,0.8-0.7,1.5-1.5,1.5C97.6,56,97,55.3,97,54.5z"/>
</g>
<g id="g964" transform="translate(0,34.9)">
	<path id="path962" fill="#FFFFFF" d="M108.8,51.6H19.2c-1.9,0-3.5-1.6-3.5-3.5v-38c0-1.9,1.6-3.5,3.5-3.5h89.6
		c1.9,0,3.5,1.6,3.5,3.5v38C112.3,50,110.7,51.6,108.8,51.6z M19.2,9.6c-0.3,0-0.5,0.2-0.5,0.5v38c0,0.3,0.2,0.5,0.5,0.5h89.6
		c0.3,0,0.5-0.2,0.5-0.5v-38c0-0.3-0.2-0.5-0.5-0.5H19.2z"/>
</g>
</svg>
