<?xml version="1.0" encoding="utf-8"?>
<!-- Generator: Adobe Illustrator 25.0.0, SVG Export Plug-In . SVG Version: 6.00 Build 0)  -->
<svg version="1.1" id="图层_1" xmlns="http://www.w3.org/2000/svg" xmlns:xlink="http://www.w3.org/1999/xlink" x="0px" y="0px"
	 viewBox="0 0 128 128" enable-background="new 0 0 128 128" xml:space="preserve">
<g>
	<g>
		<g>
			<path fill="#174CCE" d="M64,75.6c-0.3,0-0.6-0.1-0.9-0.2L32,62.1c-0.9-0.4-1.4-1.2-1.4-2.1V23.3c0-0.9,0.5-1.8,1.4-2.1L62.8,7.7
				c0.6-0.3,1.3-0.3,1.8,0l31.5,13.4c0.9,0.4,1.4,1.2,1.4,2.1V60c0,0.9-0.6,1.8-1.4,2.1L64.9,75.4C64.6,75.5,64.3,75.6,64,75.6z
				 M35.2,58.4L64,70.7l28.9-12.3V24.8L63.7,12.4L35.2,24.8V58.4z"/>
		</g>
		<g>
			<path fill="#174CCE" d="M64,75.6C64,75.6,64,75.6,64,75.6c-1.3,0-2.3-1-2.3-2.3l0.1-34.9L32,25.4c-1.2-0.5-1.7-1.9-1.2-3.1
				c0.5-1.2,1.9-1.7,3.1-1.2L65,34.7c0.9,0.4,1.4,1.2,1.4,2.1l-0.1,36.4C66.3,74.5,65.2,75.6,64,75.6z"/>
		</g>
		<g>
			<path fill="#174CCE" d="M64,39.2c-0.9,0-1.8-0.5-2.1-1.4c-0.5-1.2,0-2.6,1.2-3.1l31.1-13.5c1.2-0.5,2.6,0,3.1,1.2
				c0.5,1.2,0,2.6-1.2,3.1L65,39C64.7,39.1,64.4,39.2,64,39.2z"/>
		</g>
	</g>
	<path fill="#174CCE" d="M94.6,85.6c-0.8-0.6-2.1-0.1-2.1,0.9v11.6H35.4V86.5c0-1-1.3-1.5-2.1-0.9l-16.9,15.1
		c-0.5,0.5-0.5,1.3,0,1.8l16.9,15c0.8,0.6,2.1,0.1,2.1-0.9V105h57.2v11.6c0,1,1.3,1.5,2.1,0.9l16.9-15c0.5-0.5,0.5-1.3,0-1.8
		L94.6,85.6z"/>
	
		<line fill="none" stroke="#174CCE" stroke-width="8" stroke-linecap="round" stroke-miterlimit="10" x1="9.5" y1="82.6" x2="9.5" y2="120.5"/>
	
		<line fill="none" stroke="#174CCE" stroke-width="8" stroke-linecap="round" stroke-miterlimit="10" x1="118.5" y1="82.6" x2="118.5" y2="120.5"/>
</g>
</svg>
