<?xml version="1.0" encoding="utf-8"?>
<!-- Generator: Adobe Illustrator 25.0.0, SVG Export Plug-In . SVG Version: 6.00 Build 0)  -->
<svg version="1.1" id="图层_1" xmlns="http://www.w3.org/2000/svg" xmlns:xlink="http://www.w3.org/1999/xlink" x="0px" y="0px"
	 viewBox="0 0 128 128" enable-background="new 0 0 128 128" xml:space="preserve">
<g>
	<path fill="#174CCE" d="M78.3,79.9c0,0,0-2.2-4.9-2.7c-0.7-0.1-1.3-0.5-1.6-1.3c-0.5-1.8-2.1-4.7-6-4.5c0,0-3.2-1.1,2.3-7.1
		c0,0,4.8-8.7,11.4-7.2l8.9,6.3c0,0,3.4,3.9-1.2,10.2C87.2,73.8,84.6,78.6,78.3,79.9"/>
	<path fill="#174CCE" d="M98.1,58.1L80.4,45.9c-0.2,1.2-0.5,2.7-0.5,4.4c0,2.1,0.3,3.9,0.6,5.4c2.9,1.8,5.7,3.8,8.6,5.6
		C89.2,61.2,94.7,60.9,98.1,58.1"/>
	<path fill="#174CCE" d="M99.7,56.4l-18-12.3l30.9-36.6c1.8-2.1,4.9-2.6,7.3-1s3.2,4.7,1.9,7.2L99.7,56.4z"/>
	<path fill="#174CCE" d="M91.6,63.9c0,0,4.1,14.1-13.6,19c0,0-17.6,5.7-25.7-11.3c0,0,7.9,2.3,11.8-6.6c3.9-9,10.5-10.2,13.2-10.7
		l-0.1-1c-11.4-1.8-36-3.3-56.4,10.9c0,0-23.1,16.9-12.1,39.1c0,0,8.3,20.9,45,19.1c0,0,15.5,0.3,20.1-14.9c0,0,3.5-11.9,8.6-14.9
		c0,0,19.8,0.1,21.1-13.1c0,0,2.8-9.6-6-17.6C96.1,62.5,93.8,63.5,91.6,63.9 M26,100.9c-4.4,0.3-8.3-2.2-8.6-5.6
		c-0.2-3.4,3.2-6.4,7.7-6.7c4.5-0.3,8.3,2.2,8.6,5.6C33.8,97.6,30.4,100.6,26,100.9 M33.2,79.5c-4.4,0.3-8.3-2.2-8.6-5.6
		c-0.2-3.4,3.2-6.4,7.7-6.7s8.3,2.2,8.6,5.6C41.1,76.2,37.7,79.2,33.2,79.5 M54,107.1c-4.4,0.3-8.3-2.2-8.6-5.6
		c-0.2-3.4,3.2-6.4,7.7-6.7c4.4-0.3,8.3,2.2,8.6,5.6C61.8,103.8,58.4,106.8,54,107.1"/>
</g>
</svg>
