<?xml version="1.0" encoding="utf-8"?>
<!-- Generator: Adobe Illustrator 25.0.0, SVG Export Plug-In . SVG Version: 6.00 Build 0)  -->
<svg version="1.1" id="Layer_1" xmlns="http://www.w3.org/2000/svg" xmlns:xlink="http://www.w3.org/1999/xlink" x="0px" y="0px"
	 viewBox="0 0 128 128" enable-background="new 0 0 128 128" xml:space="preserve">
<path fill="#FFFFFF" d="M52.9,108.4c-5.2,0-9.5-4.3-9.5-9.5s4.3-9.5,9.5-9.5s9.5,4.3,9.5,9.5S58.1,108.4,52.9,108.4z M52.9,92.4
	c-3.6,0-6.5,2.9-6.5,6.5s2.9,6.5,6.5,6.5s6.5-2.9,6.5-6.5S56.5,92.4,52.9,92.4z M29.8,83.6c-5.2,0-9.5-4.3-9.5-9.5s4.3-9.5,9.5-9.5
	s9.5,4.3,9.5,9.5S35.1,83.6,29.8,83.6z M29.8,67.6c-3.6,0-6.5,2.9-6.5,6.5s2.9,6.5,6.5,6.5s6.5-2.9,6.5-6.5S33.4,67.6,29.8,67.6z
	 M34,49.9c-5.2,0-9.5-4.3-9.5-9.5s4.3-9.5,9.5-9.5s9.5,4.3,9.5,9.5S39.2,49.9,34,49.9z M34,33.9c-3.6,0-6.5,2.9-6.5,6.5
	s2.9,6.5,6.5,6.5s6.5-2.9,6.5-6.5S37.6,33.9,34,33.9z M64,35.2c-5.2,0-9.5-4.3-9.5-9.5s4.3-9.5,9.5-9.5s9.5,4.3,9.5,9.5
	S69.2,35.2,64,35.2z M64,19.2c-3.6,0-6.5,2.9-6.5,6.5s2.9,6.5,6.5,6.5s6.5-2.9,6.5-6.5S67.6,19.2,64,19.2z M96.1,52.2
	c-5.2,0-9.5-4.3-9.5-9.5s4.3-9.5,9.5-9.5s9.5,4.3,9.5,9.5S101.3,52.2,96.1,52.2z M96.1,36.2c-3.6,0-6.5,2.9-6.5,6.5s2.9,6.5,6.5,6.5
	s6.5-2.9,6.5-6.5S99.7,36.2,96.1,36.2z M72.5,120.9c2.6-0.4,4.8-2.1,5.8-4.5c1.1-2.5,0.8-5.3-0.8-7.5c-3.1-4.4-4.5-9.9-3.9-15.3
	c0.3-2.5,0.9-4.9,2-7.2c0.4-0.8,0-1.6-0.7-2s-1.6,0-2,0.7c-1.2,2.6-2,5.3-2.3,8.2c-0.6,6.2,0.9,12.3,4.4,17.3c1,1.4,1.2,3.1,0.5,4.6
	c-0.6,1.5-1.9,2.4-3.5,2.7c-3.3,0.5-6.7,0.7-10,0.6c-28.6-1-51.7-24.2-52.6-52.8c-0.5-15.2,5.2-29.5,15.9-40.2s25-16.4,40.2-16
	c28.6,0.9,51.8,23.9,52.8,52.6c0.1,3.2-0.1,6.5-0.5,9.7c-0.2,1.7-1.3,3.1-2.9,3.7c-1.5,0.7-3.2,0.5-4.5-0.4
	c-3.3-2.3-7.2-3.8-11.2-4.3c-0.8-0.1-1.6,0.5-1.7,1.3c-0.1,0.8,0.5,1.6,1.3,1.7c3.6,0.5,7,1.8,9.9,3.8c2.2,1.5,4.9,1.8,7.4,0.7
	c2.5-1.1,4.3-3.4,4.7-6.1c0.5-3.4,0.7-6.8,0.6-10.2C120.4,31.8,96,7.4,65.8,6.5C49.8,6,34.7,12,23.4,23.3C12,34.7,6.1,49.7,6.5,65.8
	C7.4,96,31.8,120.4,62,121.5c0.7,0,1.3,0,2,0C66.9,121.5,69.7,121.3,72.5,120.9z"/>
<path fill="#4479FB" d="M115.4,105L87.8,66.2c7.8-12.6-22.9-18.1-27.9-23.3c-2.5-2.6-0.4,35.3,15.6,32.3l29.7,37.6
	c0.5,0.9,3.4,5.5,7.4,6.4c0.4,0.1,0.8,0.1,1.2,0.1c1.3,0,2.5-0.4,3.6-1.2c1.4-1,2.1-2.4,2.3-4C119.9,109.9,116.1,105.8,115.4,105z
	 M78.4,74.1c1.2-0.6,2.5-1.4,3.9-2.4c1.4-1.1,2.5-2.1,3.4-3l6.9,9.7l-6.8,5.2L78.4,74.1z M116.6,113.7c-0.1,0.8-0.4,1.3-1.1,1.8
	c-0.8,0.6-1.5,0.8-2.3,0.6c-2.4-0.5-4.8-3.8-5.5-5c0-0.1-0.1-0.1-0.1-0.2l-19.8-25l6.7-5.1l18.5,26c0,0.1,0.1,0.1,0.1,0.2
	C114.1,108,116.8,111.3,116.6,113.7z"/>
</svg>
