<?xml version="1.0" encoding="utf-8"?>
<!-- Generator: Adobe Illustrator 25.0.0, SVG Export Plug-In . SVG Version: 6.00 Build 0)  -->
<svg version="1.1" id="图层_1" xmlns="http://www.w3.org/2000/svg" xmlns:xlink="http://www.w3.org/1999/xlink" x="0px" y="0px"
	 viewBox="0 0 128 128" enable-background="new 0 0 128 128" xml:space="preserve">
<g>
	<circle fill="#174CCE" cx="64" cy="64" r="8.1"/>
	<path fill="#174CCE" d="M121.4,64L99.7,42.3v15.5H81.1c0.7,1.8,1.1,3.7,1.1,5.7c0,0.2,0.1,0.3,0.1,0.5c0,0.2-0.1,0.3-0.1,0.5
		c-0.1,2-0.5,3.9-1.1,5.7h18.6v15.5L121.4,64z"/>
	<path fill="#174CCE" d="M45.8,64.5c0-0.2-0.1-0.3-0.1-0.5c0-0.2,0.1-0.3,0.1-0.5c0.1-2,0.5-3.9,1.1-5.7H28.3V42.3L6.6,64l21.7,21.7
		V70.2h18.6C46.2,68.4,45.8,66.5,45.8,64.5z"/>
	<path fill="#174CCE" d="M70.2,99.7V81.1c-1.8,0.7-3.7,1.1-5.7,1.1c-0.2,0-0.3,0.1-0.5,0.1c-0.2,0-0.3-0.1-0.5-0.1
		c-2-0.1-3.9-0.5-5.7-1.1v18.6H42.3L64,121.4l21.7-21.7H70.2z"/>
	<path fill="#174CCE" d="M57.8,46.9c1.8-0.7,3.7-1.1,5.7-1.1c0.2,0,0.3-0.1,0.5-0.1c0.2,0,0.3,0.1,0.5,0.1c2,0.1,3.9,0.5,5.7,1.1
		V28.3h15.5L64,6.6L42.3,28.3h15.5V46.9z"/>
</g>
<g>
</g>
<g>
</g>
<g>
</g>
<g>
</g>
<g>
</g>
<g>
</g>
</svg>
