<?xml version="1.0" encoding="utf-8"?>
<!-- Generator: Adobe Illustrator 25.0.0, SVG Export Plug-In . SVG Version: 6.00 Build 0)  -->
<svg version="1.1" id="图层_1" xmlns="http://www.w3.org/2000/svg" xmlns:xlink="http://www.w3.org/1999/xlink" x="0px" y="0px"
	 viewBox="0 0 121.8 121.8" enable-background="new 0 0 121.8 121.8" xml:space="preserve">
<g>
	<g>
		<path fill="#4479FB" d="M7.3,75.5c-4,0-7.3,3.3-7.3,7.3c0,4,3.3,7.3,7.3,7.3h18.9l-3.5,3.5c-2.9,2.9-2.9,7.5,0,10.3
			c1.4,1.4,3.3,2.1,5.2,2.1c1.9,0,3.7-0.7,5.2-2.1l13.8-13.8h67.6c4,0,7.3-3.3,7.3-7.3s-3.3-7.3-7.3-7.3h-53L81,56h33.5
			c4,0,7.3-3.3,7.3-7.3c0-4-3.3-7.3-7.3-7.3H95.6l13.2-13.2c2.9-2.9,2.9-7.5,0-10.3c-2.9-2.9-7.5-2.9-10.3,0L74.9,41.4H7.3
			c-4,0-7.3,3.3-7.3,7.3c0,4,3.3,7.3,7.3,7.3h53L40.8,75.5H7.3z"/>
	</g>
</g>
<g>
</g>
<g>
</g>
<g>
</g>
<g>
</g>
<g>
</g>
<g>
</g>
</svg>
