<?xml version="1.0" encoding="utf-8"?>
<!-- Generator: Adobe Illustrator 25.0.0, SVG Export Plug-In . SVG Version: 6.00 Build 0)  -->
<svg version="1.1" id="图层_1" xmlns="http://www.w3.org/2000/svg" xmlns:xlink="http://www.w3.org/1999/xlink" x="0px" y="0px"
	 viewBox="0 0 16 16" enable-background="new 0 0 16 16" xml:space="preserve">
<path fill="#4479FB" d="M8,1C3.9,1,0.6,3.9,0.6,7.4c0,2.2,1.3,4.1,3.2,5.2L3.7,15l2.3-1.5c0.7,0.2,1.4,0.3,2.1,0.3
	c4.1,0,7.4-2.9,7.4-6.4S12.1,1,8,1z M4.3,8.6c-0.6,0-1.1-0.5-1.1-1.1c0-0.6,0.5-1.1,1.1-1.1s1.1,0.5,1.1,1.1
	C5.3,8.1,4.9,8.6,4.3,8.6z M8,8.6C7.4,8.6,7,8.1,7,7.5C7,6.9,7.4,6.4,8,6.4c0.6,0,1.1,0.5,1.1,1.1C9.1,8.1,8.6,8.6,8,8.6z M11.8,8.6
	c-0.6,0-1.1-0.5-1.1-1.1c0-0.6,0.5-1.1,1.1-1.1c0.6,0,1.1,0.5,1.1,1.1C12.8,8.1,12.4,8.6,11.8,8.6z"/>
<g>
</g>
<g>
</g>
<g>
</g>
<g>
</g>
<g>
</g>
<g>
</g>
</svg>
