<?xml version="1.0" encoding="utf-8"?>
<!-- Generator: Adobe Illustrator 25.0.0, SVG Export Plug-In . SVG Version: 6.00 Build 0)  -->
<svg version="1.1" id="图层_1" xmlns="http://www.w3.org/2000/svg" xmlns:xlink="http://www.w3.org/1999/xlink" x="0px" y="0px"
	 viewBox="0 0 100 100" enable-background="new 0 0 100 100" xml:space="preserve">
<g>
	<g>
		<path fill="#4479FB" d="M78.5,92.8H21.5c-7.9,0-14.3-6.4-14.3-14.3V21.5c0-7.9,6.4-14.3,14.3-14.3h57.1c7.9,0,14.3,6.4,14.3,14.3
			v57.1C92.8,86.4,86.4,92.8,78.5,92.8z M16.7,83.3h66.6V16.7H16.7V83.3z"/>
	</g>
	<g>
		<g id="g10_1_">
			<g id="path8_1_">
				<path fill="#4479FB" d="M31.5,68.3h30.7c0.1,0,0.2,0,0.3,0l0,0c0.6,0,1.2-0.6,1.2-1.2V50c-8.8,2.7-13.9-4.2-18.2-11
					c-1.7-2.5,1.9-4.3,2.6-6.6H33.4h-1.9c-3.2,0-5.8,2.6-5.8,5.8v0.1c0,2.9,0,29.8,0,33.3c0,0.1,0,0.1,0,0.2c0,3.1,2.4,5.6,5.4,5.8
					c0.1,0,0.1,0,0.2,0h31.2c0.6,0,1.2-0.6,1.2-1.2v-4.5c0-0.6-0.6-1.2-1.2-1.2c-0.6,0-1.2,0.6-1.2,1.2V75H31.5
					c-1.8,0-3.2-1.4-3.3-3.2v-0.1c0-0.1,0-0.1,0-0.3C28.3,69.7,29.7,68.3,31.5,68.3z M32.3,38.1c0-0.6,0.6-1.2,1.2-1.2
					c0.6,0,1.2,0.6,1.2,1.2v24.1c0,0.6-0.6,1.2-1.2,1.2c-0.6,0-1.2-0.6-1.2-1.2V38.1z"/>
			</g>
		</g>
		<g id="polygon12_1_">
			<path fill="#4479FB" d="M68.6,51.2H52.1l-8.2-14.3l8.2-14.3h16.5l8.3,14.3L68.6,51.2z M53.6,48.6h13.5l6.8-11.7l-6.8-11.7H53.6
				l-6.7,11.7L53.6,48.6z"/>
		</g>
		<g id="g16_1_">
			<g id="path14_1_">
				<path fill="#4479FB" d="M57.2,34.8c1.5-0.4,2.7-0.6,3.5-0.6c0.6,0,0.9,0.1,1.3,0.3c0.3,0.2,0.5,0.5,0.5,0.9c0,0.2,0,0.4-0.1,0.5
					l-1.6,7.7c0,0.2-0.1,0.4-0.1,0.5c0,0.4,0.1,0.6,0.4,0.6c0.3,0.1,0.7,0.2,1.5,0.2l-0.1,0.6c-1.4,0.4-2.5,0.6-3.3,0.6
					c-0.6,0-1.1-0.1-1.4-0.4c-0.4-0.3-0.5-0.6-0.5-1.1c0-0.2,0-0.6,0.1-0.8l1.5-7c0.1-0.4,0.1-0.6,0.1-0.6c0-0.2-0.1-0.4-0.3-0.5
					c-0.2-0.1-0.7-0.1-1.6-0.1L57.2,34.8z M63.3,29.9c0,0.6-0.2,1-0.6,1.4c-0.4,0.4-0.7,0.6-1.3,0.6c-0.5,0-0.9-0.2-1.2-0.5
					s-0.5-0.7-0.5-1.2c0-0.6,0.2-1,0.6-1.4c0.4-0.4,0.7-0.5,1.3-0.5c0.5,0,0.9,0.2,1.2,0.5C63.1,29,63.3,29.4,63.3,29.9z"/>
			</g>
		</g>
	</g>
</g>
<g>
</g>
<g>
</g>
<g>
</g>
<g>
</g>
<g>
</g>
<g>
</g>
</svg>
