<?xml version="1.0" encoding="utf-8"?>
<!-- Generator: Adobe Illustrator 25.0.0, SVG Export Plug-In . SVG Version: 6.00 Build 0)  -->
<svg version="1.1"
	 id="close_window" xmlns:cc="http://creativecommons.org/ns#" xmlns:dc="http://purl.org/dc/elements/1.1/" xmlns:inkscape="http://www.inkscape.org/namespaces/inkscape" xmlns:rdf="http://www.w3.org/1999/02/22-rdf-syntax-ns#" xmlns:sodipodi="http://sodipodi.sourceforge.net/DTD/sodipodi-0.dtd" xmlns:svg="http://www.w3.org/2000/svg"
	 xmlns="http://www.w3.org/2000/svg" xmlns:xlink="http://www.w3.org/1999/xlink" x="0px" y="0px" viewBox="0 0 100 100"
	 enable-background="new 0 0 100 100" xml:space="preserve">
<sodipodi:namedview  bordercolor="#666666" borderopacity="1" gridtolerance="10" guidetolerance="10" id="namedview15" inkscape:current-layer="close_window" inkscape:cx="50" inkscape:cy="50" inkscape:document-rotation="0" inkscape:pageopacity="0" inkscape:pageshadow="2" inkscape:window-height="1369" inkscape:window-maximized="1" inkscape:window-width="2560" inkscape:window-x="-8" inkscape:window-y="-8" inkscape:zoom="10.08" objecttolerance="10" pagecolor="#ffffff" showgrid="false">
	</sodipodi:namedview>
<g id="g4" transform="matrix(1.15,0,0,1.15,-7.50075,-7.5)">
	<path id="path2" fill="#4479FB" d="M80,92.8H20c-7.1,0-12.8-5.8-12.8-12.8V20c0-7.1,5.8-12.8,12.8-12.8h60
		c7.1,0,12.8,5.8,12.8,12.8v60C92.8,87.1,87.1,92.8,80,92.8z M20,12.8c-4,0-7.2,3.2-7.2,7.2v60c0,3.9,3.2,7.2,7.2,7.2h60
		c3.9,0,7.2-3.2,7.2-7.2V20c0-4-3.2-7.2-7.2-7.2L20,12.8z"/>
</g>
<g id="open" transform="matrix(4.6575,0,0,4.6575,10.313937,10.113631)">
	<path id="path2-7" fill="#4479FB" d="M1.2,14V3c0,0,0-1,1-1s4,0,5,0s1,2,2,2s4,0,4,0s1,0,1,1v2h-1c0,0,0,0,0-1s-1-1-1-1H8.7
		c-1,0-1-2-2-2S3.2,3,3.2,3c-1,0-1,1-1,1v9v1h1v1c0,0,0,0-1,0S1.2,14,1.2,14z"/>
	<path id="path4" fill="#4479FB" d="M5,6C4.4,6,3.9,6.4,3.7,6.9L1.3,14c-0.2,0.5,0.1,1,0.7,1h10c0.6,0,1.1-0.4,1.3-0.9l2.4-7.1
		C15.9,6.4,15.5,6,15,6H5z"/>
</g>
</svg>
