<?xml version="1.0" encoding="utf-8"?>
<!-- Generator: Adobe Illustrator 25.0.0, SVG Export Plug-In . SVG Version: 6.00 Build 0)  -->
<svg version="1.1" id="图层_1" xmlns="http://www.w3.org/2000/svg" xmlns:xlink="http://www.w3.org/1999/xlink" x="0px" y="0px"
	 viewBox="0 0 800 800" enable-background="new 0 0 800 800" xml:space="preserve">
<g>
	<g>
		<path fill="#4479FB" d="M343.4,288.3l151.6,99.9c6.5,4.8,7.9,14,3.1,20.4c-0.9,1.2-1.9,2.2-3.1,3.1l-151.6,99.9
			c-6.5,4.8-15.7,3.4-20.5-3.1c-1.8-2.5-2.8-5.5-2.8-8.6V300.1c0-8.1,6.6-14.6,14.7-14.6C337.9,285.5,340.9,286.5,343.4,288.3z"/>
	</g>
	<g>
		<path fill="#4479FB" d="M535.6,603.5H264.3c-37.5,0-67.8-30.4-67.8-67.8V264.3c0-37.5,30.4-67.8,67.8-67.8h271.3
			c37.5,0,67.8,30.4,67.8,67.8v271.3C603.5,573.1,573.1,603.5,535.6,603.5z M241.7,558.3h316.5V241.7H241.7V558.3z"/>
	</g>
</g>
<g>
</g>
<g>
</g>
<g>
</g>
<g>
</g>
<g>
</g>
<g>
</g>
</svg>
