<?xml version="1.0" encoding="utf-8"?>
<!-- Generator: Adobe Illustrator 25.0.0, SVG Export Plug-In . SVG Version: 6.00 Build 0)  -->
<svg version="1.1" id="图层_1" xmlns="http://www.w3.org/2000/svg" xmlns:xlink="http://www.w3.org/1999/xlink" x="0px" y="0px"
	 viewBox="0 0 200 200" enable-background="new 0 0 200 200" xml:space="preserve">
<g>
	<path fill="#4479FB" d="M191,158.9L115.2,22.8c-3.7-5.5-9.1-9.1-15.5-9.1s-12.8,3.7-15.5,9.1L8.3,158.9c-2.7,5.5-2.7,12.8,0,18.3
		c3.7,5.5,9.1,9.1,15.5,9.1h151.7c6.4,0,12.8-3.7,15.5-9.1C194.7,171.7,194.7,165.3,191,158.9z M23.8,168.1L99.7,31.9l75.8,136.1
		H23.8z M93,67.6h18.3v54.8H93V67.6z M111.3,158.9H93v-18.3h18.3V158.9z"/>
</g>
<g>
</g>
<g>
</g>
<g>
</g>
<g>
</g>
<g>
</g>
<g>
</g>
</svg>
