<?xml version="1.0" encoding="utf-8"?>
<!-- Generator: Adobe Illustrator 25.0.0, SVG Export Plug-In . SVG Version: 6.00 Build 0)  -->
<svg version="1.1" id="图层_1" xmlns="http://www.w3.org/2000/svg" xmlns:xlink="http://www.w3.org/1999/xlink" x="0px" y="0px"
	 viewBox="0 0 100 100" enable-background="new 0 0 100 100" xml:space="preserve">
<g>
	<g>
		<path fill="#4479FB" d="M82.8,99.3H17.2c-9.1,0-16.4-7.4-16.4-16.4V17.2c0-9.1,7.4-16.4,16.4-16.4h65.7c9.1,0,16.4,7.4,16.4,16.4
			v65.7C99.3,91.9,91.9,99.3,82.8,99.3z M11.7,88.3h76.6V11.7H11.7V88.3z"/>
		<polygon fill="#4479FB" points="57.7,51.8 81.2,75.4 73.5,83 50,59.5 26.5,83 18.8,75.4 42.3,51.8 18.8,28.3 26.5,20.6 50,44.2 
			73.5,20.6 81.2,28.3 		"/>
	</g>
</g>
<g>
</g>
<g>
</g>
<g>
</g>
<g>
</g>
<g>
</g>
<g>
</g>
</svg>
