<?xml version="1.0" encoding="utf-8"?>
<!-- Generator: Adobe Illustrator 25.0.0, SVG Export Plug-In . SVG Version: 6.00 Build 0)  -->
<svg version="1.1" id="图层_1" xmlns="http://www.w3.org/2000/svg" xmlns:xlink="http://www.w3.org/1999/xlink" x="0px" y="0px"
	 viewBox="0 0 100 100" enable-background="new 0 0 100 100" xml:space="preserve">
<g>
	<path fill="#4479FB" d="M74.4,52.5V47l5.8-3.7c-0.8-3.7-2.3-7.1-4.2-10.1l-7,1.3l-3.8-3.8l1.5-6.7c-3.1-2-6.5-3.4-10.2-4.2l-4,5.9
		H47l-3.7-5.8c-3.7,0.8-7.1,2.3-10.1,4.2l1.3,7l-3.8,3.8l-6.7-1.5c-2,3.1-3.4,6.5-4.2,10.2l5.9,4V53l-5.8,3.7
		c0.8,3.7,2.3,7.1,4.2,10.1l7-1.3l3.8,3.8l-1.5,6.7c3.1,2,6.5,3.4,10.2,4.2l4-5.9H53l3.7,5.8c3.7-0.8,7.1-2.3,10.1-4.2l-1.3-7
		l3.8-3.8l6.7,1.5c2-3.1,3.4-6.5,4.2-10.2L74.4,52.5z M50,62.2c-6.7,0-12.2-5.5-12.2-12.2S43.3,37.8,50,37.8S62.2,43.3,62.2,50
		S56.7,62.2,50,62.2z"/>
	<g>
		<path fill="#4479FB" d="M82.8,99.1H17.3c-9,0-16.4-7.3-16.4-16.4V17.3c0-9,7.3-16.4,16.4-16.4h65.5c9,0,16.4,7.3,16.4,16.4v65.5
			C99.1,91.8,91.8,99.1,82.8,99.1z M11.8,88.2h76.4V11.8H11.8V88.2z"/>
	</g>
</g>
<g>
</g>
<g>
</g>
<g>
</g>
<g>
</g>
<g>
</g>
<g>
</g>
</svg>
