<?xml version="1.0" encoding="utf-8"?>
<!-- Generator: Adobe Illustrator 25.0.0, SVG Export Plug-In . SVG Version: 6.00 Build 0)  -->
<svg version="1.1"
	 id="Layer_1" xmlns:cc="http://creativecommons.org/ns#" xmlns:dc="http://purl.org/dc/elements/1.1/" xmlns:inkscape="http://www.inkscape.org/namespaces/inkscape" xmlns:rdf="http://www.w3.org/1999/02/22-rdf-syntax-ns#" xmlns:sodipodi="http://sodipodi.sourceforge.net/DTD/sodipodi-0.dtd" xmlns:svg="http://www.w3.org/2000/svg"
	 xmlns="http://www.w3.org/2000/svg" xmlns:xlink="http://www.w3.org/1999/xlink" x="0px" y="0px" viewBox="0 0 800 800"
	 enable-background="new 0 0 800 800" xml:space="preserve">
<sodipodi:namedview  bordercolor="#666666" borderopacity="1" gridtolerance="10" guidetolerance="10" id="namedview11" inkscape:current-layer="Layer_1" inkscape:cx="422.22291" inkscape:cy="611.44958" inkscape:document-rotation="0" inkscape:pageopacity="0" inkscape:pageshadow="2" inkscape:window-height="1369" inkscape:window-maximized="1" inkscape:window-width="2560" inkscape:window-x="-8" inkscape:window-y="-8" inkscape:zoom="0.89095455" objecttolerance="10" pagecolor="#ffffff" showgrid="false">
	</sodipodi:namedview>
<path id="path6" fill="#4479FB" d="M511.4,400.2L332.8,534.7V265.8L511.4,400.2 M588,400.2c0-7-3.1-14-9.4-18.7L314.7,183
	c-15.4-11.6-37.4-0.6-37.4,18.7v397.2c0,19.3,22,30.3,37.4,18.7l263.9-198.7C584.9,414.1,588,407.2,588,400.2L588,400.2z"/>
<g id="g4" transform="matrix(1.124125,0,0,1.124125,1.6564125,1.6571725)">
	<path id="path2" fill="#4479FB" d="M597.2,701.3H110.6c-57.4,0-104.1-46.7-104.1-104.1V110.6C6.5,53.2,53.2,6.5,110.6,6.5h486.6
		c57.4,0,104.1,46.7,104.1,104.1v486.6C701.3,654.6,654.6,701.3,597.2,701.3z M110.6,52.4c-32,0-58.2,26-58.2,58.2v486.6
		c0,32,26,58.2,58.2,58.2h486.6c32,0,58.2-26,58.2-58.2V110.6c0-32-26-58.2-58.2-58.2L110.6,52.4z"/>
</g>
<path id="path17" fill="#4479FB" d="M113.4,788.9c-14.3-1.6-30.7-6.8-43.5-13.9c-20.4-11.3-38.8-30.7-48.8-51.4
	c-6.9-14.3-10.1-26.9-11.3-44.3C9.2,671.3,9.1,578.7,9.2,391c0.2-256.3,0.3-277.1,1.6-283.6c4.9-25.9,15.7-46.7,33.6-64.4
	c16.4-16.2,36.8-26.9,60.5-31.9c6.8-1.4,16.1-1.5,294.8-1.5h287.8l8.1,1.8c24.5,5.4,42.4,15.2,59.8,32.6
	c16.9,17,26.7,34.9,31.9,58.4l1.8,8.1v288.6c0,279.1,0,288.8-1.5,295.6c-10.7,51.4-52,89-103.2,94.2
	C673.9,790,122.8,790,113.4,788.9L113.4,788.9z M690.9,736.4c22.9-7.1,39.9-24.6,46-47.5l1.7-6.5V399.6V116.8l-1.8-6.6
	c-6.5-24.5-24.6-42.4-48.5-48.1c-6.5-1.5-8.8-1.6-291.2-1.4l-284.6,0.2l-5.4,1.8c-20.8,7-36.5,22.1-43.1,41.4
	c-1.2,3.5-2.6,8.7-3,11.4c-0.6,3.4-0.8,94.2-0.8,284c0,250.9,0.1,279.7,1.2,285.5c4.9,26,25.6,47,51.5,52.3
	c4.1,0.8,56.5,1,288.6,0.9l283.6-0.1L690.9,736.4z"/>
<path id="path19" fill="#4479FB" d="M280.3,191.2c2.4-4.8,5.6-7.9,10.8-10.7c4-2.1,14.7-2.1,19,0.1c3.7,1.9,267.6,200.3,271.2,203.9
	c3.9,3.9,5.6,8.1,6,14.2c0.3,4.8,0.1,6.1-1.7,10.2c-1.2,2.6-3.2,5.7-4.6,7c-4.9,4.6-267.1,201.5-270.9,203.4
	c-5.4,2.7-13.9,2.7-19,0.1c-4.5-2.3-9-6.6-11.1-10.6l-1.7-3.1l-0.2-204.9L277.9,196L280.3,191.2z M332.8,534.7
	c1.2-0.1,178.2-134,178.2-134.8c0-0.8-177.1-134.4-178.2-134.4c-0.3,0-0.6,60.6-0.6,134.6S332.5,534.7,332.8,534.7z"/>
<path id="path6-2" fill="#4479FB" d="M511.4,400.2L332.8,534.7V265.8L511.4,400.2 M588,400.2c0-7-3.1-14-9.4-18.7L314.7,183
	c-15.4-11.6-37.4-0.6-37.4,18.7v397.2c0,19.3,22,30.3,37.4,18.7l263.9-198.7C584.9,414.1,588,407.2,588,400.2L588,400.2z"/>
<path id="path19-3" fill="#4479FB" d="M280.3,191.2c2.4-4.8,5.6-7.9,10.8-10.7c4-2.1,14.7-2.1,19,0.1
	c3.7,1.9,267.6,200.3,271.2,203.9c3.9,3.9,5.6,8.1,6,14.2c0.3,4.8,0.1,6.1-1.7,10.2c-1.2,2.6-3.2,5.7-4.6,7
	c-4.9,4.6-267.1,201.5-270.9,203.4c-5.4,2.7-13.9,2.7-19,0.1c-4.5-2.3-9-6.6-11.1-10.6l-1.7-3.1l-0.2-204.9L277.9,196L280.3,191.2z
	 M332.8,534.7c1.2-0.1,178.2-134,178.2-134.8c0-0.8-177.1-134.4-178.2-134.4c-0.3,0-0.6,60.6-0.6,134.6S332.5,534.7,332.8,534.7z"/>
</svg>
