<?xml version="1.0" encoding="utf-8"?>
<!-- Generator: Adobe Illustrator 25.0.0, SVG Export Plug-In . SVG Version: 6.00 Build 0)  -->
<svg version="1.1" id="图层_1" xmlns="http://www.w3.org/2000/svg" xmlns:xlink="http://www.w3.org/1999/xlink" x="0px" y="0px"
	 viewBox="0 0 200 200" enable-background="new 0 0 200 200" xml:space="preserve">
<g>
	<path fill="#4479FB" d="M100,13.8c-47.6,0-86.2,38.6-86.2,86.2s38.6,86.2,86.2,86.2s86.2-38.6,86.2-86.2S147.6,13.8,100,13.8z
		 M92.5,44.5h18.1v18.9H92.5V44.5z M118.9,154.1H84.4v-7l1.3-0.4c1.9-0.6,3.3-1.1,4-1.5c0.6-0.3,1.1-0.8,1.6-1.4
		c0.5-0.6,0.8-1.7,1.1-3.2c0.3-1.6,0.5-4.2,0.5-7.7V98.6c0-3.3-0.1-6-0.2-8c-0.1-1.8-0.4-3.2-0.9-4.2c-0.5-0.9-1.1-1.5-2-2
		c-1.1-0.5-2.8-1-5-1.4l-1.5-0.3v-7.4l20.1-0.7h6.7v58.1c0,4.3,0.2,7.4,0.6,9c0.3,1.4,0.9,2.4,1.7,3c1,0.7,2.7,1.4,5.1,2.1l1.4,0.3
		L118.9,154.1L118.9,154.1z"/>
</g>
<g>
</g>
<g>
</g>
<g>
</g>
<g>
</g>
<g>
</g>
<g>
</g>
</svg>
