<?xml version="1.0" encoding="utf-8"?>
<!-- Generator: Adobe Illustrator 25.0.0, SVG Export Plug-In . SVG Version: 6.00 Build 0)  -->
<svg version="1.1"
	 id="Layer_1" xmlns:cc="http://creativecommons.org/ns#" xmlns:dc="http://purl.org/dc/elements/1.1/" xmlns:inkscape="http://www.inkscape.org/namespaces/inkscape" xmlns:rdf="http://www.w3.org/1999/02/22-rdf-syntax-ns#" xmlns:sodipodi="http://sodipodi.sourceforge.net/DTD/sodipodi-0.dtd" xmlns:svg="http://www.w3.org/2000/svg"
	 xmlns="http://www.w3.org/2000/svg" xmlns:xlink="http://www.w3.org/1999/xlink" x="0px" y="0px" viewBox="0 0 800 800"
	 enable-background="new 0 0 800 800" xml:space="preserve">
<sodipodi:namedview  bordercolor="#666666" borderopacity="1" gridtolerance="10" guidetolerance="10" id="namedview11" inkscape:current-layer="Layer_1" inkscape:cx="400" inkscape:cy="459.92063" inkscape:document-rotation="0" inkscape:pageopacity="0" inkscape:pageshadow="2" inkscape:window-height="1369" inkscape:window-maximized="1" inkscape:window-width="2560" inkscape:window-x="-8" inkscape:window-y="-8" inkscape:zoom="1.26" objecttolerance="10" pagecolor="#ffffff" showgrid="false">
	</sodipodi:namedview>
<path id="path4" fill="#4479FB" d="M322.5,587.1h-69.9V207h69.9V587.1 M377.9,619.2V175c0-12.9-10.5-23.4-23.4-23.4h-134
	c-12.9,0-23.4,10.5-23.4,23.4v444.2c0,12.9,10.5,23.4,23.4,23.4h133.9C367.4,642.6,377.9,632.1,377.9,619.2z"/>
<g id="g4" transform="matrix(1.124125,0,0,1.124125,1.6564125,1.6571625)">
	<path id="path2" fill="#4479FB" d="M597.2,701.3H110.6c-57.4,0-104.1-46.7-104.1-104.1V110.6C6.5,53.2,53.2,6.5,110.6,6.5h486.6
		c57.4,0,104.1,46.7,104.1,104.1v486.6C701.3,654.6,654.6,701.3,597.2,701.3z M110.6,52.4c-32,0-58.2,26-58.2,58.2v486.6
		c0,32,26,58.2,58.2,58.2h486.6c32,0,58.2-26,58.2-58.2V110.6c0-32-26-58.2-58.2-58.2L110.6,52.4z"/>
</g>
<path id="path17" fill="#4479FB" d="M113.4,788.9c-14.3-1.6-30.7-6.8-43.5-13.9c-20.4-11.3-38.8-30.7-48.8-51.4
	c-6.9-14.3-10.1-26.9-11.3-44.3C9.2,671.3,9.1,578.7,9.2,391c0.2-256.3,0.3-277.1,1.6-283.6c4.9-25.9,15.7-46.7,33.6-64.4
	c16.4-16.2,36.8-26.9,60.5-31.9c6.8-1.4,16.1-1.5,294.8-1.5h287.8l8.1,1.8c24.5,5.4,42.4,15.2,59.8,32.6
	c16.9,17,26.7,34.9,31.9,58.4l1.8,8.1v288.6c0,279.1,0,288.8-1.5,295.6c-10.7,51.4-52,89-103.2,94.2
	C673.9,790,122.8,790,113.4,788.9L113.4,788.9z M690.9,736.4c22.9-7.1,39.9-24.6,46-47.5l1.7-6.5V399.6V116.8l-1.8-6.6
	c-6.5-24.5-24.6-42.4-48.5-48.1c-6.5-1.5-8.8-1.6-291.2-1.4l-284.6,0.2l-5.4,1.8c-20.8,7-36.5,22.1-43.1,41.4
	c-1.2,3.5-2.6,8.7-3,11.4c-0.6,3.4-0.8,94.2-0.8,284c0,250.9,0.1,279.7,1.2,285.5c4.9,26,25.6,47,51.5,52.3
	c4.1,0.8,56.5,1,288.6,0.9l283.6-0.1L690.9,736.4z"/>
<path id="path21" fill="#4479FB" d="M198.5,169.4c1.3-4.7,3.8-8.7,7.6-11.9c6.2-5.3,2.4-5.1,82-5.1l71.8,0l4,1.8
	c4.7,2.2,8.9,6.2,11.4,10.8l1.8,3.3v228.9V626l-1.8,3.3c-2.4,4.6-6.7,8.6-11.4,10.8l-4,1.8l-71.8,0c-80.3,0-75.9,0.3-82.5-5.5
	c-1.9-1.7-4.5-5-5.7-7.5l-2.2-4.4l-0.1-225.8C197.6,221.9,197.7,172.1,198.5,169.4L198.5,169.4z M287.8,587.6h35.3V397.1V206.7
	h-35.3h-35.3v190.5v190.5H287.8z"/>
<path id="path4-3" fill="#4479FB" d="M538.3,588.5h-69.9V208.3h69.9V588.5 M593.8,620.6V176.4c0-12.9-10.5-23.4-23.4-23.4h-134
	c-12.9,0-23.4,10.5-23.4,23.4v444.2c0,12.9,10.5,23.4,23.4,23.4h133.9C583.2,643.9,593.8,633.5,593.8,620.6z"/>
<path id="path21-9" fill="#4479FB" d="M414.3,170.7c1.3-4.7,3.8-8.7,7.6-11.9c6.2-5.3,2.4-5.1,82-5.1l71.8,0l4,1.8
	c4.7,2.2,8.9,6.2,11.4,10.8l1.8,3.3v228.9v228.9l-1.8,3.3c-2.4,4.6-6.7,8.6-11.4,10.8l-4,1.8l-71.8,0c-80.3,0-75.9,0.3-82.5-5.5
	c-1.9-1.7-4.5-5-5.7-7.5l-2.2-4.4L413.5,400C413.4,223.3,413.6,173.5,414.3,170.7L414.3,170.7z M503.6,588.9h35.3V398.5V208h-35.3
	h-35.3v190.5v190.5H503.6z"/>
</svg>
