<?xml version="1.0" encoding="utf-8"?>
<!-- Generator: Adobe Illustrator 25.0.0, SVG Export Plug-In . SVG Version: 6.00 Build 0)  -->
<svg version="1.1" id="图层_1" xmlns="http://www.w3.org/2000/svg" xmlns:xlink="http://www.w3.org/1999/xlink" x="0px" y="0px"
	 viewBox="0 0 800 800" enable-background="new 0 0 800 800" xml:space="preserve">
<g>
	<g>
		<path fill="#4479FB" d="M576.7,473.5H223.3c-10.3,0-18.6,8.3-18.6,18.6v106.6c0,10.3,8.3,18.6,18.6,18.6h353.3
			c10.3,0,18.6-8.3,18.6-18.6V492.1C595.3,481.8,587,473.5,576.7,473.5z"/>
		<path fill="#4479FB" d="M572.8,400.1l-158.1-210c-3.7-4.9-9.3-7.4-14.9-7.4c-5.6,0-11.2,2.5-14.9,7.4l-157.9,210
			c-9.2,12.3-0.5,29.8,14.9,29.8h316C573.3,429.9,582.1,412.4,572.8,400.1z"/>
	</g>
	<g>
		<g>
			<path fill="#4479FB" d="M626.4,739.6H173.6c-62.5,0-113.2-50.7-113.2-113.2V173.6c0-62.5,50.7-113.2,113.2-113.2h452.8
				c62.5,0,113.2,50.7,113.2,113.2v452.8C739.6,688.9,688.9,739.6,626.4,739.6z M135.9,664.1h528.3V135.9H135.9V664.1z"/>
		</g>
	</g>
</g>
<g>
</g>
<g>
</g>
<g>
</g>
<g>
</g>
<g>
</g>
<g>
</g>
</svg>
