<?xml version="1.0" encoding="utf-8"?>
<!-- Generator: Adobe Illustrator 25.0.0, SVG Export Plug-In . SVG Version: 6.00 Build 0)  -->
<svg version="1.1" id="图层_1" xmlns="http://www.w3.org/2000/svg" xmlns:xlink="http://www.w3.org/1999/xlink" x="0px" y="0px"
	 viewBox="0 0 800 800" enable-background="new 0 0 800 800" xml:space="preserve">
<g>
	<g>
		<path fill="#4479FB" d="M304.8,212.1l254.9,168.1c10.9,8.1,13.2,23.5,5.2,34.4c-1.5,2-3.2,3.7-5.2,5.2L304.8,587.9
			c-11,8.1-26.4,5.7-34.5-5.3c-3.1-4.2-4.8-9.3-4.8-14.5V231.9c0-13.6,11.1-24.6,24.7-24.6C295.5,207.4,300.6,209,304.8,212.1z"/>
	</g>
	<g>
		<path fill="#4479FB" d="M628.1,742.2H171.9c-63,0-114.1-51.1-114.1-114.1V171.9c0-63,51.1-114.1,114.1-114.1h456.3
			c63,0,114.1,51.1,114.1,114.1v456.3C742.2,691.1,691.1,742.2,628.1,742.2z M133.8,666.2h532.3V133.8H133.8V666.2z"/>
	</g>
</g>
<g>
</g>
<g>
</g>
<g>
</g>
<g>
</g>
<g>
</g>
<g>
</g>
</svg>
