<?xml version="1.0" encoding="utf-8"?>
<!-- Generator: Adobe Illustrator 25.0.0, SVG Export Plug-In . SVG Version: 6.00 Build 0)  -->
<svg version="1.1" id="图层_1" xmlns="http://www.w3.org/2000/svg" xmlns:xlink="http://www.w3.org/1999/xlink" x="0px" y="0px"
	 viewBox="0 0 200 200" enable-background="new 0 0 200 200" xml:space="preserve">
<g id="g4" transform="matrix(2.52,0,0,2.52,-26,-26)">
	<path id="path2" fill="#4479FB" d="M50,54.2c-2.3,0-4.2-1.9-4.2-4.2V35c0-2.3,1.9-4.2,4.2-4.2s4.2,1.9,4.2,4.2v15
		C54.2,52.3,52.3,54.2,50,54.2z"/>
</g>
<g id="g8" transform="matrix(2.52,0,0,2.52,-26,-26)">
	<circle id="circle6" fill="#4479FB" cx="50" cy="65" r="5"/>
</g>
<g id="g12" transform="matrix(2.52,0,0,2.52,-26,-26)">
	<path id="path10" fill="#4479FB" d="M50,89.2c-21.6,0-39.2-17.6-39.2-39.3S28.4,10.7,50,10.7S89.2,28.4,89.2,50S71.6,89.2,50,89.2z
		 M50,19.2C33,19.2,19.2,33,19.2,50c0,17,13.8,30.8,30.8,30.8C66.9,80.8,80.8,67,80.8,50C80.8,33,66.9,19.2,50,19.2z"/>
</g>
<g>
</g>
<g>
</g>
<g>
</g>
<g>
</g>
<g>
</g>
<g>
</g>
</svg>
