<?xml version="1.0" encoding="utf-8"?>
<!-- Generator: Adobe Illustrator 25.0.0, SVG Export Plug-In . SVG Version: 6.00 Build 0)  -->
<svg version="1.1"
	 id="Layer_1" xmlns:cc="http://creativecommons.org/ns#" xmlns:dc="http://purl.org/dc/elements/1.1/" xmlns:inkscape="http://www.inkscape.org/namespaces/inkscape" xmlns:rdf="http://www.w3.org/1999/02/22-rdf-syntax-ns#" xmlns:sodipodi="http://sodipodi.sourceforge.net/DTD/sodipodi-0.dtd" xmlns:svg="http://www.w3.org/2000/svg"
	 xmlns="http://www.w3.org/2000/svg" xmlns:xlink="http://www.w3.org/1999/xlink" x="0px" y="0px" viewBox="0 0 800 800"
	 enable-background="new 0 0 800 800" xml:space="preserve">
<sodipodi:namedview  bordercolor="#666666" borderopacity="1" gridtolerance="10" guidetolerance="10" id="namedview11" inkscape:current-layer="Layer_1" inkscape:cx="400" inkscape:cy="459.92063" inkscape:document-rotation="0" inkscape:pageopacity="0" inkscape:pageshadow="2" inkscape:window-height="1369" inkscape:window-maximized="1" inkscape:window-width="2560" inkscape:window-x="-8" inkscape:window-y="-8" inkscape:zoom="1.26" objecttolerance="10" pagecolor="#ffffff" showgrid="false">
	</sodipodi:namedview>
<path id="path4" fill="#4479FB" d="M318,562.4h-60.8V231.8H318V562.4 M366.1,590.2V204c0-11.2-9.1-20.3-20.3-20.3H229.3
	c-11.2,0-20.3,9.1-20.3,20.3v386.2c0,11.2,9.1,20.3,20.3,20.3h116.4C357,610.6,366.1,601.5,366.1,590.2L366.1,590.2z"/>
<g id="g4" transform="matrix(0.9775,0,0,0.9775,53.547,53.54775)">
	<path id="path2" fill="#4479FB" d="M597.2,701.3H110.6c-57.4,0-104.1-46.7-104.1-104.1V110.6C6.5,53.2,53.2,6.5,110.6,6.5h486.6
		c57.4,0,104.1,46.7,104.1,104.1v486.6C701.3,654.6,654.6,701.3,597.2,701.3z M110.6,52.4c-32,0-58.2,26-58.2,58.2v486.6
		c0,32,26,58.2,58.2,58.2h486.6c32,0,58.2-26,58.2-58.2V110.6c0-32-26-58.2-58.2-58.2L110.6,52.4z"/>
</g>
<path id="path17" fill="#4479FB" d="M150.7,738.1c-12.5-1.4-26.7-5.9-37.8-12.1c-17.8-9.8-33.8-26.7-42.4-44.7
	c-6-12.5-8.8-23.4-9.8-38.5c-0.5-6.9-0.6-87.4-0.5-250.6c0.2-222.9,0.3-240.9,1.4-246.6c4.2-22.5,13.7-40.6,29.2-56
	c14.2-14.1,32-23.4,52.6-27.7c5.9-1.2,14-1.3,256.3-1.3h250.3l7.1,1.6c21.3,4.7,36.9,13.2,52,28.4c14.7,14.8,23.2,30.4,27.8,50.8
	l1.6,7v251c0,242.7,0,251.2-1.3,257c-9.3,44.7-45.2,77.4-89.8,81.9C638,739.1,158.9,739.1,150.7,738.1L150.7,738.1z M652.9,692.5
	c19.9-6.2,34.7-21.4,40-41.3l1.5-5.7V399.6V153.7l-1.5-5.7c-5.7-21.3-21.4-36.9-42.2-41.8c-5.6-1.3-7.7-1.3-253.2-1.2L150,105.1
	l-4.7,1.6c-18.1,6.1-31.7,19.2-37.5,36c-1,3.1-2.2,7.5-2.6,9.9c-0.5,3-0.7,81.9-0.7,247c0,218.1,0.1,243.2,1.1,248.3
	c4.3,22.6,22.2,40.9,44.8,45.4c3.6,0.7,49.2,0.9,251,0.8l246.6-0.1L652.9,692.5z"/>
<path id="path21" fill="#4479FB" d="M210.1,199.1c1.1-4.1,3.3-7.5,6.6-10.4c5.4-4.6,2.1-4.4,71.3-4.4l62.4,0l3.4,1.6
	c4.1,1.9,7.8,5.4,9.9,9.4l1.5,2.8v199v199l-1.5,2.8c-2.1,4-5.8,7.5-9.9,9.4l-3.4,1.6l-62.4,0c-69.8,0-66,0.3-71.7-4.8
	c-1.7-1.5-3.9-4.4-4.9-6.5l-1.9-3.9l-0.1-196.3C209.3,244.8,209.4,201.5,210.1,199.1L210.1,199.1z M287.7,562.7h30.7V397.1V231.5
	h-30.7H257v165.6v165.6H287.7z"/>
<path id="path4-3" fill="#4479FB" d="M533.8,563.7H473V233.1h60.8V563.7 M582,591.6V205.4c0-11.2-9.1-20.3-20.3-20.3H445.1
	c-11.2,0-20.3,9.1-20.3,20.3v386.2c0,11.2,9.1,20.3,20.3,20.3h116.4C572.8,611.9,582,602.8,582,591.6z"/>
<path id="path21-9" fill="#4479FB" d="M425.9,200.4c1.1-4.1,3.3-7.5,6.6-10.4c5.4-4.6,2.1-4.4,71.3-4.4l62.4,0l3.4,1.6
	c4.1,1.9,7.8,5.4,9.9,9.4l1.5,2.8v199v199l-1.5,2.8c-2.1,4-5.8,7.5-9.9,9.4l-3.4,1.6l-62.4,0c-69.8,0-66,0.3-71.7-4.8
	c-1.7-1.5-3.9-4.4-4.9-6.5l-1.9-3.9l-0.1-196.3C425.1,246.1,425.2,202.8,425.9,200.4L425.9,200.4z M503.6,564.1h30.7V398.5V232.9
	h-30.7h-30.7v165.6v165.6H503.6z"/>
</svg>
