<?xml version="1.0" encoding="utf-8"?>
<!-- Generator: Adobe Illustrator 25.0.0, SVG Export Plug-In . SVG Version: 6.00 Build 0)  -->
<svg version="1.1" id="图层_1" xmlns="http://www.w3.org/2000/svg" xmlns:xlink="http://www.w3.org/1999/xlink" x="0px" y="0px"
	 viewBox="0 0 100 100" enable-background="new 0 0 100 100" xml:space="preserve">
<g>
	<g>
		<path fill="#4479FB" d="M73,79.5H27c-3.6,0-6.5-2.9-6.5-6.5v-5.8c0-3.6,2.9-6.5,6.5-6.5h46c3.6,0,6.5,2.9,6.5,6.5V73
			C79.5,76.6,76.6,79.5,73,79.5z"/>
	</g>
	<g>
		<path fill="#4479FB" d="M82.8,99.3H17.2c-9.1,0-16.4-7.4-16.4-16.4V17.2c0-9.1,7.4-16.4,16.4-16.4h65.7c9.1,0,16.4,7.4,16.4,16.4
			v65.7C99.3,91.9,91.9,99.3,82.8,99.3z M11.7,88.3h76.6V11.7H11.7V88.3z"/>
	</g>
</g>
<g>
</g>
<g>
</g>
<g>
</g>
<g>
</g>
<g>
</g>
<g>
</g>
</svg>
