<?xml version="1.0" encoding="utf-8"?>
<!-- Generator: Adobe Illustrator 25.0.0, SVG Export Plug-In . SVG Version: 6.00 Build 0)  -->
<svg version="1.1" id="图层_1" xmlns="http://www.w3.org/2000/svg" xmlns:xlink="http://www.w3.org/1999/xlink" x="0px" y="0px"
	 viewBox="0 0 105.1 105.1" enable-background="new 0 0 105.1 105.1" xml:space="preserve">
<g>
	
		<path fill="#6D6D6D" stroke="#343DB4" stroke-width="0.5696" stroke-linecap="round" stroke-linejoin="round" stroke-miterlimit="10" d="
		M33.2,65c3.2-3.5,7.4-2.6,8.2-2.1s3.2,4.7,4.9,7.7s11.8,11.9,10.1,15.9s-7.1,4.6-9.6,3.9s-5-0.3-8.8,1s-6.7,0.7-9.5,0
		s-4.8-0.5-7.4,0c-2.5,0.5-6.3,0.1-7.7,0c-1.4-0.1-6-1-6.5-1l1.3-7.6l6.6-15.3"/>
	
		<path fill="#A0A0A0" stroke="#343DB4" stroke-width="0.5696" stroke-linecap="round" stroke-linejoin="round" stroke-miterlimit="10" d="
		M23.3,61.4c-0.4-0.7-1.1-1.6-2.5-1.5s1.8,0.2-0.8,1.1c-0.5,0.2-1.7,1.1-3.6,3.3c-2.3,2.7-5.6,7.9-7.7,12.3
		c-2.8,5.9-4,11.2-3.9,12.6s5,3.4,5.4,3.5c0,0-1.4-6.1-0.3-10s4.4-9.6,5.1-11c0.7-1.4,3.3-7,5.3-8.4c0.8-0.6,0.8-2.1,1.4-0.7"/>
	
		<path fill="#A0A0A0" stroke="#343DB4" stroke-width="0.5696" stroke-linecap="round" stroke-linejoin="round" stroke-miterlimit="10" d="
		M39.2,61.2c0,0-1.3,0.2,0,1s-0.6,0.5,2,1.5c2.1,0.9,3.7,1.1,4.6,4c0.9,2.8,3.8,8.6,5.9,12s5.7,7.9,6.7,9.4s2.7,2.7,2.7,2.7
		s1.9-2.3,2.4-4.5c0.6-2.2-0.1-3.8-1.5-5s-7.4-8.2-8.8-10.1s-6.9-9-8.5-10.3c-2.4-2-3.4-1.5-4.7-2.1s0.3-1.2-0.6-1.1
		c-0.9,0.1-3-2-4.5-1.9s-5.4-1.3-7.2-1.3c-1.8,0.1-2.2,0.8-2.8,1.1"/>
	<path fill="#FFFFFF" d="M54,77.4l-1-1.5c0,0-2.2-0.5-3.2,0.2s-2.6,1.7-2.6,1.7l-0.6,0.8c0,0-0.1,1.7-0.2,2.5
		c-0.1,0.7-0.4,1.2-0.2,2.2c0.2,1.1,1.4,1.3,2,1.3c0.7-0.1,1.1-0.4,1.1-0.4s0.1,0.8,1.1,1.1c1,0.3,3-0.3,3.7-1.3
		c0.7-0.9,1-2.3,0.8-3.6C54.7,79,54,77.4,54,77.4z"/>
	<path fill="#6E9EF9" d="M40.6,62.5c0,0,2.3,3.5,3.2,4.8c0.8,1.3,2.1,4.2,2.2,5.6s0.7,3.3,0.7,4.3s0,1.1,0,1.1s2.4-2.3,3.9-2.5
		c1.5-0.1,2.4,0,2.4,0s-3.2-6.1-4.8-7.8c-1.7-1.7-5.5-5.2-5.5-5.2l-0.6-0.6L40.6,62.5z"/>
	<path fill="#FFFFFF" d="M17.8,75.1c-0.3,0-7.2,0.8-7.2,0.8l-1.7,3.5l-0.2,3.3l1.7,2.1l2.1,0.6c0,0,6.3-3.7,6.2-3.7l1.6-2.1
		L17.8,75.1z"/>
	<path fill="#6E9EF9" d="M21.9,62.1c0,0-4.3,3.6-6.8,6.7c-2.5,3.2-4.3,6.9-4.3,6.9h0.9c0,0,1.9-0.2,3.1,0.8s2.3,1.5,2.3,1.5
		s0.3-3.9,0.8-5.7c0.4-1.8,3.2-7.1,3.8-7.7s1.6-2.2,1.6-2.2L21.9,62.1z"/>
	
		<path fill="#FFFFFF" stroke="#343DB4" stroke-width="0.603" stroke-linecap="round" stroke-linejoin="round" stroke-miterlimit="10" d="
		M34.4,18.4c0,0,1.8-8.8,4.3-11.7s4.1-1.7,8.6,2.7s10.9,19.5,12.6,24.9c1.7,5.3-22-10.9-22-10.9L34.4,18.4z"/>
	
		<path fill="#6E9EF9" stroke="#343DB4" stroke-width="0.603" stroke-linecap="round" stroke-linejoin="round" stroke-miterlimit="10" d="
		M53.9,26.9c0,0-0.9-3.3-3.6-8.6c-2.7-5.3-6-10.1-8.6-10.5c-2.6-0.4-4.6,8.7-5.1,11.4C36.1,22,49.7,26,49.7,26L53.9,26.9z"/>
	<path opacity="0.2" fill="#414254" enable-background="new    " d="M58.6,31.4c0,0-3.2-9-6.6-14.9c-3.4-6-6.1-8.7-7.8-9.9
		c-1.7-1.1-2.9-1.3-2.9-1.3c0.9,0.2,3.9,3,7.5,8.5c2.1,3.3,3.8,7.2,4.7,9.8c-2.5-2-5.9-4.3-9-5.8c-5-2.5-9.5-2.2-9.5-2.2l-0.4,1.7
		c0,0,7.8,1.1,14.3,5.1c2.3,1.4,4.1,2.8,5.5,4c0,0.1,0,0.1,0,0.1S58,30,58.6,31.4z"/>
	<g>
		
			<path fill="#FFFFFF" stroke="#343DB4" stroke-width="0.603" stroke-linecap="round" stroke-linejoin="round" stroke-miterlimit="10" d="
			M18.5,83.9c0,0,1.5,9.5,3.2,12.3s8.7,0.7,8.7,0.7s0.7-6.9,0.5-8.8C30.7,86.1,18.5,83.9,18.5,83.9z"/>
		
			<path fill="#FFFFFF" stroke="#343DB4" stroke-width="0.603" stroke-linecap="round" stroke-linejoin="round" stroke-miterlimit="10" d="
			M28.1,94.6c-1-0.5-3.3-0.9-5.1-0.7s-3.5,1.6-3.4,3.1c0.1,1.6,0.8,2.7,5,2.7s5.5-1.5,5.7-2.1c0.2-0.7,0.3-1.9,0.3-2.7"/>
		
			<path fill="#FFFFFF" stroke="#343DB4" stroke-width="0.603" stroke-linecap="round" stroke-linejoin="round" stroke-miterlimit="10" d="
			M45.2,83.9c0,0-1.5,9.5-3.2,12.3s-8.7,0.7-8.7,0.7s-0.7-6.9-0.6-8.8C32.9,86.1,45.2,83.9,45.2,83.9z"/>
		
			<path fill="#FFFFFF" stroke="#343DB4" stroke-width="0.603" stroke-linecap="round" stroke-linejoin="round" stroke-miterlimit="10" d="
			M35.5,94.6c1-0.5,3.3-0.9,5.1-0.7c1.9,0.2,3.5,1.6,3.4,3.1c-0.1,1.6-0.8,2.7-5,2.7s-5.5-1.5-5.7-2.1c-0.2-0.7-0.3-1.9-0.3-2.7"/>
	</g>
	<g>
		
			<path fill="none" stroke="#343DB4" stroke-width="0.603" stroke-linecap="round" stroke-linejoin="round" stroke-miterlimit="10" d="
			M39.9,60.8c0,0,5.3,3.7,8.2,7.6s4.7,7.2,5.9,9.3c1.2,2,1.5,5.1-0.4,6.8c-1.9,1.7-4.1,0.8-4.6-0.2"/>
		
			<path fill="#FFFFFF" stroke="#343DB4" stroke-width="0.603" stroke-linecap="round" stroke-linejoin="round" stroke-miterlimit="10" d="
			M50.5,81.5c0,0-0.4,2.8-2.3,3s-2.4-1.5-2-4.2"/>
	</g>
	<g>
		
			<path fill="none" stroke="#343DB4" stroke-width="0.603" stroke-linecap="round" stroke-linejoin="round" stroke-miterlimit="10" d="
			M23.7,60.8c0,0-5.3,3.7-8.2,7.6s-4.7,7.2-5.9,9.3c-1.2,2-1.5,5.1,0.4,6.8c1.9,1.7,4.1,0.8,4.6-0.2"/>
		
			<path fill="#FFFFFF" stroke="#343DB4" stroke-width="0.603" stroke-linecap="round" stroke-linejoin="round" stroke-miterlimit="10" d="
			M13.1,81.5c0,0,0.4,2.8,2.3,3s2.4-1.5,2-4.2"/>
	</g>
	
		<path fill="#6E9EF9" stroke="#343DB4" stroke-width="0.603" stroke-linecap="round" stroke-linejoin="round" stroke-miterlimit="10" d="
		M25.1,60.6c0,0-4.8,4.2-6.9,11.1c-2.1,6.9-3.2,18.2,13.6,18.2s15.9-11.5,13.7-18.5c-2.2-7-7.7-11.4-7.7-11.4L25.1,60.6z"/>
	
		<path fill="#FFFFFF" stroke="#343DB4" stroke-width="0.402" stroke-linecap="round" stroke-linejoin="round" stroke-miterlimit="10" d="
		M17.6,82.5c0,0,1.4,0.6,3.3,2.6c1.8,2,3,2.3,4.6,2.3c1.6-0.1,3.8-3,6.1-2.9s4.5,2.8,7.1,2.9c2.6,0,7.2-4.9,7.2-4.9
		s-1.2,7.3-14.2,7.3S17.6,82.5,17.6,82.5z"/>
	
		<path fill="#FFFFFF" stroke="#343DB4" stroke-width="0.402" stroke-linecap="round" stroke-linejoin="round" stroke-miterlimit="10" d="
		M27.6,61.7c0,0,1.9,4.1,4.2,4.1s4.8-4.4,4.8-4.4L27.6,61.7z"/>
	
		<path fill="#FFFFFF" stroke="#343DB4" stroke-width="0.603" stroke-linecap="round" stroke-linejoin="round" stroke-miterlimit="10" d="
		M29.9,18.4c0,0-1.8-8.8-4.3-11.7S21.5,5,17,9.4C12.5,13.9,6.1,29,4.4,34.3s22-10.9,22-10.9L29.9,18.4z"/>
	
		<path fill="#6E9EF9" stroke="#343DB4" stroke-width="0.603" stroke-linecap="round" stroke-linejoin="round" stroke-miterlimit="10" d="
		M10.3,26.9c0,0,0.9-3.3,3.6-8.6s6-10.1,8.7-10.5c2.6-0.4,4.6,8.7,5.1,11.4C28.1,22,14.5,26,14.5,26L10.3,26.9z"/>
	
		<path fill="#FFFFFF" stroke="#343DB4" stroke-width="0.603" stroke-linecap="round" stroke-linejoin="round" stroke-miterlimit="10" d="
		M32.2,17.1c-2.4-0.2-12.1,1.7-19,6.6c-6.8,4.9-9.4,8.4-10.6,18.5s7,20.9,29.6,20.9s28.1-11,28.9-15.5c0.8-4.6,0.3-13.4-4.5-18.9
		C51.9,23.2,43.5,18,32.2,17.1z"/>
	<path fill="#6E9EF9" d="M22.4,19.1c0,0-5,2-7.9,3.8s-6.8,4.9-7.7,6.6c-0.9,1.7-2.7,4.4-3.1,6.5s-0.4,2.2-0.1,2.9s2.9,3.5,3.5,4
		s1.8,1.8,1.9,1.2s-0.3-1.9,0-4s1-4.7,2.2-6s2.6-1.8,3.7-1.7c1.1,0.2,2.7,0.6,2.7,0.6s1.7-5.9,2.1-7c0.4-1,3.1-7,3.1-7h-0.4V19.1z"
		/>
	<path fill="#6E9EF9" d="M23,18.9c0,0,0.2-0.5-0.6,0.9S20,25,19.8,25.5c-0.2,0.5-1.1,3.2-1.1,3.2l0.3,0.2c0,0,2.8-0.6,4.6-0.9
		c-0.8,3.6-1.3,8.4-1.2,8.4c1.7-0.2,6.8-0.4,9.8-0.4c1.3,0,7.8,0.2,9.4,0.4c0.1-2.1-0.7-5.9-1.2-8.4c1,0.1,1.7,0.2,1.7,0.2l2.9,0.5
		c0,0-1.7-5.2-3.6-8.8l-0.8-1.2c0,0-6.1-1.6-9-1.7C28.8,17.1,24.1,18.3,23,18.9z"/>
	<path fill="#6E9EF9" d="M41.7,19.1c0,0,5,2,7.9,3.8s6.8,4.9,7.7,6.6c0.9,1.7,2.7,4.4,3.1,6.5s0.4,2.2,0.1,2.9s-2.9,3.5-3.5,4
		s-1.8,1.8-1.9,1.2s0.3-1.9,0-4s-1-4.7-2.2-6s-2.6-1.8-3.7-1.7c-1.1,0.2-2.7,0.6-2.7,0.6s-1.7-5.9-2.1-7c-0.4-1-3.1-7-3.1-7h0.4
		V19.1z"/>
	<g>
		
			<ellipse transform="matrix(2.045893e-02 -0.9998 0.9998 2.045893e-02 -26.9595 56.9428)" fill="#1645DD" stroke="#343DB4" stroke-width="0.3993" stroke-linecap="round" stroke-linejoin="round" stroke-miterlimit="10.0001" cx="15.6" cy="42.2" rx="8.1" ry="5.1"/>
		
			<ellipse transform="matrix(2.045718e-02 -0.9998 0.9998 2.045718e-02 -26.8281 57.3853)" fill="#D3DCF9" stroke="#343DB4" stroke-width="0.4129" stroke-linecap="round" stroke-linejoin="round" stroke-miterlimit="10.0001" cx="15.9" cy="42.4" rx="7.7" ry="4.6"/>
		
			<ellipse transform="matrix(2.045579e-02 -0.9998 0.9998 2.045579e-02 -27.7188 57.5981)" fill="#5871CE" cx="15.5" cy="42.9" rx="5.5" ry="3.3"/>
		
			<path fill="none" stroke="#343DB4" stroke-width="0.402" stroke-linecap="round" stroke-linejoin="round" stroke-miterlimit="10" d="
			M22.9,18.9c0,0-3.4,5.9-5.3,14.2c-3.7-1.4-5.6-0.6-7.4,2.7c-1.6,3-1.3,8.9-0.9,11.1"/>
		
			<path fill="none" stroke="#343DB4" stroke-width="0.402" stroke-linecap="round" stroke-linejoin="round" stroke-miterlimit="10" d="
			M3.2,37.9c0,0,1.4,3.3,5.7,6.3"/>
		
			<path fill="none" stroke="#343DB4" stroke-width="0.402" stroke-linecap="round" stroke-linejoin="round" stroke-miterlimit="10" d="
			M9.3,47.1c0,0-2.6-1.5-4.2-3.3c0,0-0.3,2.5,0,4.9c0.3,2.3,0.8,4,2.8,7.2"/>
		
			<line fill="none" stroke="#343DB4" stroke-width="0.402" stroke-linecap="round" stroke-linejoin="round" stroke-miterlimit="10" x1="19.7" y1="29.8" x2="21.9" y2="29.6"/>
		
			<line fill="none" stroke="#343DB4" stroke-width="0.402" stroke-linecap="round" stroke-linejoin="round" stroke-miterlimit="10" x1="19.5" y1="30.6" x2="21.8" y2="30.3"/>
		
			<line fill="none" stroke="#343DB4" stroke-width="0.402" stroke-linecap="round" stroke-linejoin="round" stroke-miterlimit="10" x1="19.4" y1="31.4" x2="21.6" y2="31.2"/>
		
			<path opacity="0.2" fill="none" stroke="#414254" stroke-width="0.4841" stroke-linecap="round" stroke-linejoin="round" stroke-miterlimit="10" enable-background="new    " d="
			M23,19.2c0,0-3.4,5.9-5.3,14.2c-3.7-1.4-5.6-0.6-7.4,2.7C8.7,39.1,9,45,9.4,47.2"/>
		
			<path opacity="0.2" fill="none" stroke="#414254" stroke-width="0.4841" stroke-linecap="round" stroke-linejoin="round" stroke-miterlimit="10" enable-background="new    " d="
			M3.3,38.2c0,0,1.4,3.3,5.7,6.3"/>
		
			<path opacity="0.2" fill="none" stroke="#414254" stroke-width="0.4841" stroke-linecap="round" stroke-linejoin="round" stroke-miterlimit="10" enable-background="new    " d="
			M9.4,47.4c0,0-2.6-1.5-4.2-3.3c0,0-0.3,2.5,0,4.9C5.5,51.3,6,53,8,56.2"/>
		
			<line opacity="0.2" fill="none" stroke="#414254" stroke-width="0.4841" stroke-linecap="round" stroke-linejoin="round" stroke-miterlimit="10" enable-background="new    " x1="19.8" y1="30.1" x2="22.1" y2="29.9"/>
		
			<line opacity="0.2" fill="none" stroke="#414254" stroke-width="0.4841" stroke-linecap="round" stroke-linejoin="round" stroke-miterlimit="10" enable-background="new    " x1="19.7" y1="30.9" x2="21.9" y2="30.6"/>
		
			<line opacity="0.2" fill="none" stroke="#414254" stroke-width="0.4841" stroke-linecap="round" stroke-linejoin="round" stroke-miterlimit="10" enable-background="new    " x1="19.5" y1="31.7" x2="21.8" y2="31.4"/>
		
			<ellipse transform="matrix(2.045617e-02 -0.9998 0.9998 2.045617e-02 -28.2232 57.8215)" fill="#0D2B93" cx="15.4" cy="43.3" rx="5.2" ry="2.8"/>
		<circle fill="#FFFFFF" cx="17.2" cy="39.2" r="1.9"/>
	</g>
	<ellipse opacity="0.2" fill="#414254" enable-background="new    " cx="32.2" cy="52" rx="10.1" ry="6.9"/>
	<g>
		
			<ellipse transform="matrix(0.9998 -2.045899e-02 2.045899e-02 0.9998 -0.854 0.9989)" fill="#1645DD" stroke="#343DB4" stroke-width="0.3993" stroke-linecap="round" stroke-linejoin="round" stroke-miterlimit="10.0001" cx="48.4" cy="42.2" rx="5.1" ry="8.1"/>
		
			<ellipse transform="matrix(0.9998 -2.045718e-02 2.045718e-02 0.9998 -0.8561 0.9907)" fill="#D3DCF9" stroke="#343DB4" stroke-width="0.4129" stroke-linecap="round" stroke-linejoin="round" stroke-miterlimit="10.0001" cx="48" cy="42.3" rx="4.6" ry="7.7"/>
		
			<ellipse transform="matrix(0.9998 -2.045579e-02 2.045579e-02 0.9998 -0.8682 0.9989)" fill="#5871CE" cx="48.4" cy="42.9" rx="3.3" ry="5.5"/>
		
			<path fill="none" stroke="#343DB4" stroke-width="0.402" stroke-linecap="round" stroke-linejoin="round" stroke-miterlimit="10" d="
			M41,18.9c0,0,3.4,5.9,5.3,14.2c3.7-1.4,5.6-0.6,7.4,2.7c1.6,3,1.3,8.9,0.9,11.1"/>
		
			<path fill="none" stroke="#343DB4" stroke-width="0.402" stroke-linecap="round" stroke-linejoin="round" stroke-miterlimit="10" d="
			M60.7,37.9c0,0-1.4,3.3-5.7,6.3"/>
		
			<path fill="none" stroke="#343DB4" stroke-width="0.402" stroke-linecap="round" stroke-linejoin="round" stroke-miterlimit="10" d="
			M54.6,47.1c0,0,2.6-1.5,4.2-3.3c0,0,0.3,2.5,0,4.9c-0.3,2.3-0.8,4-2.8,7.2"/>
		
			<path opacity="0.2" fill="none" stroke="#414254" stroke-width="0.4841" stroke-linecap="round" stroke-linejoin="round" stroke-miterlimit="10" enable-background="new    " d="
			M41.3,18.9c0,0,3.4,5.9,5.3,14.2c3.7-1.4,5.6-0.6,7.4,2.7c1.6,3,1.3,8.9,0.9,11.1"/>
		
			<path opacity="0.2" fill="none" stroke="#414254" stroke-width="0.4841" stroke-linecap="round" stroke-linejoin="round" stroke-miterlimit="10" enable-background="new    " d="
			M61,37.9c0,0-1.4,3.3-5.7,6.3"/>
		
			<path opacity="0.2" fill="none" stroke="#414254" stroke-width="0.4841" stroke-linecap="round" stroke-linejoin="round" stroke-miterlimit="10" enable-background="new    " d="
			M54.9,47c0,0,2.6-1.5,4.2-3.3c0,0,0.3,2.5,0,4.9c-0.3,2.3-0.8,4-2.8,7.2"/>
		
			<line fill="none" stroke="#343DB4" stroke-width="0.402" stroke-linecap="round" stroke-linejoin="round" stroke-miterlimit="10" x1="44.2" y1="29.8" x2="42" y2="29.6"/>
		
			<line fill="none" stroke="#343DB4" stroke-width="0.402" stroke-linecap="round" stroke-linejoin="round" stroke-miterlimit="10" x1="44.4" y1="30.6" x2="42.1" y2="30.3"/>
		
			<line fill="none" stroke="#343DB4" stroke-width="0.402" stroke-linecap="round" stroke-linejoin="round" stroke-miterlimit="10" x1="44.5" y1="31.4" x2="42.2" y2="31.2"/>
		
			<ellipse transform="matrix(0.9998 -2.045617e-02 2.045617e-02 0.9998 -0.8743 1.001)" fill="#0D2B93" cx="48.5" cy="43.2" rx="2.8" ry="5.2"/>
		<circle fill="#FFFFFF" cx="46.7" cy="39.2" r="1.9"/>
	</g>
	
		<path fill="none" stroke="#343DB4" stroke-width="0.402" stroke-linecap="round" stroke-linejoin="round" stroke-miterlimit="10" d="
		M21,23c0,0,8.7-2.4,21.9,0"/>
	
		<path fill="none" stroke="#343DB4" stroke-width="0.402" stroke-linecap="round" stroke-linejoin="round" stroke-miterlimit="10" d="
		M18.8,29c0,0,5.5-1.5,13.1-1.5s13.2,1.4,13.2,1.4"/>
	
		<path opacity="0.2" fill="none" stroke="#414254" stroke-width="0.4841" stroke-linecap="round" stroke-linejoin="round" stroke-miterlimit="10" enable-background="new    " d="
		M18.8,29.3c0,0,5.5-1.5,13.1-1.5s13.2,1.4,13.2,1.4"/>
	
		<path fill="none" stroke="#343DB4" stroke-width="0.402" stroke-linecap="round" stroke-linejoin="round" stroke-miterlimit="10" d="
		M23.7,28.2c0,0-1.1,4.1-1.3,8.4c0,0,6.1-0.4,9.2-0.4c3,0,10.1,0.4,10.1,0.4s-0.6-6.6-1.3-8.4"/>
	
		<path opacity="0.2" fill="none" stroke="#414254" stroke-width="0.4841" stroke-linecap="round" stroke-linejoin="round" stroke-miterlimit="10" enable-background="new    " d="
		M23.9,28.4c0,0-1.1,4.1-1.3,8.4c0,0,6.1-0.4,9.2-0.4c3,0,10.1,0.4,10.1,0.4s-0.6-6.6-1.3-8.4"/>
	
		<path fill="#6E9EF9" stroke="#343DB4" stroke-width="0.363" stroke-linecap="round" stroke-linejoin="round" stroke-miterlimit="10" d="
		M12.3,26.8c0,0-1.7,1.8-2,5.5c0,0,1.3-0.3,2,0c0,0-0.1-2.5,2.1-5.5C14.4,26.8,14.2,26.2,12.3,26.8z"/>
	
		<path fill="#6E9EF9" stroke="#343DB4" stroke-width="0.363" stroke-linecap="round" stroke-linejoin="round" stroke-miterlimit="10" d="
		M51.3,26.8c0,0,1.7,1.8,2,5.5c0,0-1.3-0.3-2,0c0,0,0.1-2.5-2.1-5.5C49.2,26.8,49.4,26.2,51.3,26.8z"/>
	
		<path fill="#A0A0A0" stroke="#343DB4" stroke-width="0.402" stroke-linecap="round" stroke-linejoin="round" stroke-miterlimit="10" d="
		M33.3,69l0.3,3c0,0,7.4-0.4,9.8-1c0,0-0.3-1.3-0.8-2.8C42.6,68.2,36.5,68.8,33.3,69z"/>
	
		<path fill="none" stroke="#343DB4" stroke-width="0.402" stroke-linecap="round" stroke-linejoin="round" stroke-miterlimit="10" d="
		M33.6,72c0,0,0.3,1.8,0.4,3.4c0,0,7.4-0.7,9.2-0.8c1.8-0.1,3.1,3.6,2.9,7.5"/>
	
		<path opacity="0.2" fill="none" stroke="#414254" stroke-width="0.4841" stroke-linecap="round" stroke-linejoin="round" stroke-miterlimit="10" enable-background="new    " d="
		M33.8,71.7c0,0,0.3,1.8,0.4,3.4c0,0,7.4-0.7,9.2-0.8c1.8-0.1,3.1,3.6,2.9,7.5"/>
	
		<path fill="none" stroke="#343DB4" stroke-width="0.402" stroke-linecap="round" stroke-linejoin="round" stroke-miterlimit="10" d="
		M37.7,63.2c0,0,1.3,1.6,1.8,2.7c0,0-1.6,0.1-2.1,0.2c0,0,0.6,1.2,0.5,2.3"/>
	
		<path opacity="0.2" fill="none" stroke="#414254" stroke-width="0.4841" stroke-linecap="round" stroke-linejoin="round" stroke-miterlimit="10" enable-background="new    " d="
		M38,63.1c0,0,1.5,1.8,2,3c0,0-1.8,0.1-2.3,0.2c0,0,0.5,1,0.4,2.2"/>
	
		<path fill="none" stroke="#343DB4" stroke-width="0.402" stroke-linecap="round" stroke-linejoin="round" stroke-miterlimit="10" d="
		M17.4,81c0.1,0,2.5,1,4.3,2.9c1.8,1.8,2.4,2.7,3.6,2.4c1.2-0.3,3.8-3,6.1-3c2.4,0,5.1,3,6.9,3s7.1-4.3,8-5.9"/>
	
		<path fill="none" stroke="#343DB4" stroke-width="0.603" stroke-linecap="round" stroke-linejoin="round" stroke-miterlimit="10" d="
		M10.4,76.3c0,0,2.4-2.2,6.7,2"/>
	
		<path fill="none" stroke="#343DB4" stroke-width="0.603" stroke-linecap="round" stroke-linejoin="round" stroke-miterlimit="10" d="
		M53.3,76.3c0,0-2.4-2.2-6.7,2"/>
	
		<ellipse fill="#FFFFFF" stroke="#343DB4" stroke-width="0.603" stroke-linecap="round" stroke-linejoin="round" stroke-miterlimit="10" cx="31.9" cy="50.6" rx="9.9" ry="6.4"/>
	
		<path fill="none" stroke="#343DB4" stroke-width="0.603" stroke-linecap="round" stroke-linejoin="round" stroke-miterlimit="10" d="
		M30.6,60.1c1.2,0.1,5.6,0.5,9.2-2.2"/>
	<path opacity="0.2" fill="#414254" enable-background="new    " d="M40.6,47.5c0.5,1,0.6,4.1-2.7,6.1c-3.3,1.9-7.5,3.2-13.2,1.4
		c0,0,3.5,2.7,9.8,1.8s7.4-4.4,7.3-6.6C41.7,48,40.6,47.5,40.6,47.5z"/>
	<path opacity="0.2" fill="#414254" enable-background="new    " d="M56.9,29c1.3,1.9,4.7,12.2-0.5,23.2S29.2,63,22.1,62.3
		c0,0,14,2.5,25.3-1.3c11.3-3.9,14-11.4,14.1-16.9s-1.4-9.4-2.1-10.9C58.6,31.6,56.9,29,56.9,29z"/>
	<path opacity="0.2" fill="#414254" enable-background="new    " d="M29.2,15.8c0,0-4.4,0.6-10,2.8S7.1,27,7.1,27l-1.2,3.4
		c0,0,3.2-4.5,6.9-6.6s8.3-4.3,10.8-5.2c2.4-0.8,6.1-1.6,6.1-1.6L29.2,15.8z"/>
	<path opacity="0.2" fill="#414254" enable-background="new    " d="M22.6,63.4c1.6,1.1,7,2.2,12.3,1.6s6.6-1.2,6.6-1.2l-1.2-1.2
		c0,0-5,0.5-7.8,0.4s-9-0.5-9-0.5L22.6,63.4z"/>
	<path opacity="0.2" fill="#414254" enable-background="new    " d="M46.2,74.4c0,0,0.2,3.7-2.6,7.8c-1.4,2.1-2.8,4.2-5.4,5.2
		c-0.6-0.1-1.6-0.4-2.4-0.8c-1.1-0.7-2.5-1.7-3.4-1.9c-0.9-0.2-2.2-0.2-3.5,0.8s-2.2,1.7-3,1.9c-0.8,0.1-2,0-2.6-0.3
		c0,0,1.1,0.8,3.1,0.6c2-0.2,2.8-1.7,3.9-2.1c1.1-0.4,2.3-0.3,4,0.7c1.4,0.8,1.7,1.2,2.7,1.5c-2.3,0.5-6,1.3-10.3,0.6
		c-7.1-1.2-8.7-4.6-8.7-4.6s0,0.3,1,1.7c1.3,1.8,3.8,2.8,6.2,3.7c2.4,0.9,5.8,1.2,10.7,0.6s8.5-3.2,9.6-6.1
		C47.4,78.9,46.2,74.4,46.2,74.4z"/>
	<path opacity="0.2" fill="#414254" enable-background="new    " d="M33.8,72.7c0,0,3.7-0.1,5.5-0.3c1.9-0.2,4-0.7,4-0.7l0.2-0.7
		c0,0-4.8,0.6-5.7,0.6s-4.1,0.3-4.1,0.3L33.8,72.7z"/>
	<path opacity="0.2" fill="#414254" enable-background="new    " d="M22.6,62.9c-0.7,0.9-5.1,6.3-5.9,10.4c-0.9,4.1,0.1,6.5-0.3,8.4
		c-0.3,1.9-0.8,2.5-1.5,2.5c0,0,0.9,0.5,1.8,0.1c0.9-0.5,0.8-1.2,0.8-1.8c0-0.5-0.5-3.7-0.3-4.6s0.4-4.4,1.4-7.2
		c0.9-2.8,3.3-6.4,3.3-6.4l1.1-1.4l0.1-0.3L22.6,62.9z"/>
	<path opacity="0.2" fill="#414254" enable-background="new    " d="M13.6,83c-0.1,0.3-1,1.5-3,0.8c-1.9-0.7-1.9-1.7-1.9-1.7
		s0.2,2,2.1,2.9c1.9,0.9,3.2-0.2,3.2-0.2l0.4-0.6L13.6,83z"/>
	<path opacity="0.2" fill="#414254" enable-background="new    " d="M31,90c0,0-4.5-0.3-7.5-1.3s-4.2-3-4.6-3.3l0.2,1.8
		c0,0,2.7,2.3,5,3.1c1.5,0.6,4.1,0.8,5.6,0.9c0,1.2-0.2,4.5-0.6,5.9c-0.5,1.7-6,2.8-8.9,1.7c0,0,2.1,1.8,6.6,0.9s3.4-3.3,3.7-4.8
		c0.2-1,0.3-2.6,0.3-3.6c0.1,0,0.1,0,0.1,0L31,90z"/>
	<path opacity="0.2" fill="#414254" enable-background="new    " d="M32.8,89.8c0,0,2.9,0.1,4.8-0.5c1.9-0.5,3.6-1.1,5.1-2.2
		s2.3-2.3,2.3-2.3l-0.5,2.5l-1.7,7l-0.1,0.3c0,0,1.1,0.7,1.4,2.3c0.2,1.7-0.9,2.1-2,2.6s-4.7,0.3-6.4-0.1c-1.7-0.5-1.9-1.1-1.9-1.1
		s3.6,0.7,6.3,0.3c2.7-0.5,3-1.7,2.5-2.7c-0.6-1-1.2-1.1-0.2-3.1c0.9-2,1.1-5,1.1-5s-1.8,1.6-5.7,2.4c-4,0.9-4.9,0.6-4.9,0.6
		L32.8,89.8z"/>
	<path opacity="0.2" fill="#414254" enable-background="new    " d="M41.8,62.4c0,0,2.6,1.8,5.1,4.5c2.4,2.7,4.4,5.9,5.4,7.8
		c1.1,1.9,3,3.5,2.6,7c-0.3,3.5-3.1,3.6-3.9,3.6s-1.8-1-1.8-1s-1.3,0.4-2.2,0c-0.8-0.4-1-2.1-1-2.1l0.3-1.2c0,0,0,2,1.1,2.4
		s2.5-0.7,2.5-0.7s-0.2,0.7-0.4,1.1c-0.3,0.3,1.2,0.7,2.1,0.4c0.9-0.4,1.5-1.6,1.6-3.7s-1.6-5-2.6-6.3s-4-6.7-5.6-8.2
		s-3.4-3.5-3.4-3.5L41.8,62.4z"/>
	<path opacity="0.2" fill="#414254" enable-background="new    " d="M17.3,34.8c0,0-3,0.2-4.4,3.2c-1.3,3-1.4,5.7-0.5,8.3
		c0.9,2.6,2,3.6,3.6,3.6c0,0-0.5,0.6-2,0.1s-3.6-3.4-3.6-7s0.9-6.3,2.1-7.3C13.8,34.6,15.6,33.3,17.3,34.8z"/>
	<path opacity="0.2" fill="#414254" enable-background="new    " d="M50.2,34.4c0,0-3,0.2-4.4,3.2c-1.3,3-1.4,5.7-0.5,8.3
		s2,3.6,3.6,3.6c0,0-0.5,0.6-2,0.1s-3.6-3.4-3.6-7s0.9-6.3,2.1-7.3C46.6,34.3,48.4,33,50.2,34.4z"/>
	
		<path fill="none" stroke="#343DB4" stroke-width="0.603" stroke-linecap="round" stroke-linejoin="round" stroke-miterlimit="10" d="
		M32.2,17.1c-2.4-0.2-12.1,1.7-19,6.6c-6.8,4.9-9.4,8.4-10.6,18.5s7,20.9,29.6,20.9s28.1-11,28.9-15.5c0.8-4.6,0.3-13.4-4.5-18.9
		C51.9,23.2,43.5,18,32.2,17.1z"/>
	<g display="none">
		<path display="inline" fill="#343DB4" d="M34.3,69.7h0.3l0.5,0.8l0.2,0.3l0,0c0-0.2-0.1-0.4-0.1-0.5l-0.1-0.6h0.3l0.1,1.5h-0.3
			l-0.5-0.8L34.6,70l0,0c0,0.3,0.1,0.5,0.1,0.5l0.1,0.6h-0.3L34.3,69.7z"/>
		<path display="inline" fill="#343DB4" d="M36.1,70.8c-0.1-0.1-0.2-0.3-0.2-0.6c0-0.2,0-0.4,0.1-0.6c0.1-0.1,0.3-0.2,0.5-0.2
			s0.4,0,0.5,0.2c0.1,0.1,0.2,0.3,0.2,0.6c0,0.2,0,0.4-0.1,0.6C37,70.9,36.8,71,36.6,71S36.2,71,36.1,70.8z M36.8,70.6
			c0.1-0.1,0.1-0.2,0.1-0.4c0-0.2-0.1-0.3-0.1-0.4c-0.1-0.1-0.2-0.1-0.3-0.1s-0.2,0.1-0.3,0.2s-0.1,0.2-0.1,0.4
			c0,0.2,0.1,0.3,0.1,0.4c0.1,0.1,0.2,0.1,0.3,0.1C36.7,70.7,36.8,70.7,36.8,70.6z"/>
		<path display="inline" fill="#343DB4" d="M37.8,70.3L37.8,70.3c-0.1-0.2-0.1-0.2-0.1-0.2l0.1-0.1c0.1,0,0.1,0,0.1,0l0.1,0.1
			c0,0.1,0,0.1,0,0.1L37.8,70.3L37.8,70.3z"/>
		<path display="inline" fill="#343DB4" d="M38.8,70.6c-0.1-0.1-0.2-0.3-0.2-0.6s0-0.5,0.1-0.6s0.2-0.2,0.4-0.2s0.3,0,0.4,0.2
			c0.1,0.1,0.2,0.3,0.2,0.6c0,0.3,0,0.5-0.1,0.6s-0.2,0.2-0.4,0.2C39,70.8,38.9,70.7,38.8,70.6z M39.4,70c0-0.4-0.1-0.5-0.3-0.5
			s-0.2,0.2-0.2,0.6s0.1,0.5,0.3,0.5C39.3,70.5,39.4,70.3,39.4,70z"/>
		<path display="inline" fill="#343DB4" d="M40,70.5c-0.1-0.1-0.2-0.3-0.2-0.6c0-0.3,0-0.5,0.1-0.6s0.2-0.2,0.4-0.2s0.3,0,0.4,0.2
			c0.1,0.1,0.2,0.3,0.2,0.6c0,0.3,0,0.5-0.1,0.6s-0.2,0.2-0.4,0.2C40.2,70.7,40.1,70.6,40,70.5z M40.6,69.9c0-0.4-0.1-0.5-0.3-0.5
			s-0.2,0.2-0.2,0.6s0.1,0.5,0.3,0.5C40.5,70.4,40.6,70.2,40.6,69.9z"/>
		<path display="inline" fill="#343DB4" d="M41.1,70.3h0.3l-0.1-1H41v-0.2c0.1,0,0.3-0.1,0.3-0.2h0.2l0.1,1.3h0.3v0.2L41,70.5
			L41.1,70.3z"/>
	</g>
</g>
</svg>
