<?xml version="1.0" encoding="utf-8"?>
<!-- Generator: Adobe Illustrator 25.0.0, SVG Export Plug-In . SVG Version: 6.00 Build 0)  -->
<svg version="1.1" id="图层_1" xmlns="http://www.w3.org/2000/svg" xmlns:xlink="http://www.w3.org/1999/xlink" x="0px" y="0px"
	 viewBox="0 0 100 100" enable-background="new 0 0 100 100" xml:space="preserve">
<g>
	<g>
		<path fill="#4479FB" d="M78.5,92.7H21.5c-7.9,0-14.2-6.4-14.2-14.2V21.5c0-7.9,6.4-14.2,14.2-14.2h56.9c7.9,0,14.2,6.4,14.2,14.2
			v56.9C92.7,86.3,86.3,92.7,78.5,92.7z M16.8,83.2h66.4V16.8H16.8V83.2z"/>
		<polygon fill="#4479FB" points="56.6,51.6 77.1,72 70.4,78.6 50,58.2 29.6,78.6 23,72 43.4,51.6 23,31.2 29.6,24.5 50,44.9 
			70.4,24.5 77.1,31.2 		"/>
	</g>
</g>
<g>
</g>
<g>
</g>
<g>
</g>
<g>
</g>
<g>
</g>
<g>
</g>
</svg>
