<?xml version="1.0" encoding="utf-8"?>
<!-- Generator: Adobe Illustrator 25.0.0, SVG Export Plug-In . SVG Version: 6.00 Build 0)  -->
<svg version="1.1" id="图层_1" xmlns="http://www.w3.org/2000/svg" xmlns:xlink="http://www.w3.org/1999/xlink" x="0px" y="0px"
	 viewBox="0 0 800 800" enable-background="new 0 0 800 800" xml:space="preserve">
<g>
	<g>
		<path fill="#4479FB" d="M607.5,486.3H192.5c-12.1,0-21.9,9.8-21.9,21.9v125.2c0,12.1,9.8,21.9,21.9,21.9h415.1
			c12.1,0,21.9-9.8,21.9-21.9V508.1C629.4,496.1,619.6,486.3,607.5,486.3z"/>
		<path fill="#4479FB" d="M603,400.1L417.3,153.5c-4.4-5.8-10.9-8.7-17.4-8.7c-6.5,0-13.1,2.9-17.5,8.7L196.9,400.1
			c-10.8,14.4-0.6,35,17.5,35h371.2C603.6,435.1,613.9,414.5,603,400.1z"/>
	</g>
	<g>
		<g>
			<path fill="#4479FB" d="M665.9,798.9H134.1c-73.4,0-133-59.5-133-133V134.1c0-73.4,59.5-133,133-133h531.9
				c73.4,0,133,59.5,133,133v531.9C798.9,739.4,739.4,798.9,665.9,798.9z M89.7,710.3h620.5V89.7H89.7V710.3z"/>
		</g>
	</g>
</g>
<g>
</g>
<g>
</g>
<g>
</g>
<g>
</g>
<g>
</g>
<g>
</g>
</svg>
