<?xml version="1.0" encoding="utf-8"?>
<!-- Generator: Adobe Illustrator 25.0.0, SVG Export Plug-In . SVG Version: 6.00 Build 0)  -->
<svg version="1.1" id="图层_1" xmlns="http://www.w3.org/2000/svg" xmlns:xlink="http://www.w3.org/1999/xlink" x="0px" y="0px"
	 viewBox="0 0 100 100" enable-background="new 0 0 100 100" xml:space="preserve">
<g>
	<g>
		<path fill="#4479FB" d="M70,75.7H30c-3.1,0-5.7-2.5-5.7-5.7v-5c0-3.1,2.5-5.7,5.7-5.7h40c3.1,0,5.7,2.5,5.7,5.7v5
			C75.7,73.1,73.1,75.7,70,75.7z"/>
	</g>
	<g>
		<path fill="#4479FB" d="M78.5,92.8H21.5c-7.9,0-14.3-6.4-14.3-14.3V21.5c0-7.9,6.4-14.3,14.3-14.3h57.1c7.9,0,14.3,6.4,14.3,14.3
			v57.1C92.8,86.4,86.4,92.8,78.5,92.8z M16.7,83.3h66.6V16.7H16.7V83.3z"/>
	</g>
</g>
<g>
</g>
<g>
</g>
<g>
</g>
<g>
</g>
<g>
</g>
<g>
</g>
</svg>
