<?xml version="1.0" encoding="utf-8"?>
<!-- Generator: Adobe Illustrator 25.0.0, SVG Export Plug-In . SVG Version: 6.00 Build 0)  -->
<svg version="1.1" id="图层_1" xmlns="http://www.w3.org/2000/svg" xmlns:xlink="http://www.w3.org/1999/xlink" x="0px" y="0px"
	 viewBox="0 0 100 100" enable-background="new 0 0 100 100" xml:space="preserve">
<g>
	<g>
		<path fill="#4479FB" d="M82.8,99.2H17.2c-9.1,0-16.4-7.3-16.4-16.4V17.2c0-9.1,7.3-16.4,16.4-16.4h65.6c9.1,0,16.4,7.3,16.4,16.4
			v65.6C99.2,91.9,91.9,99.2,82.8,99.2z M11.7,88.3h76.6V11.7H11.7V88.3z"/>
	</g>
	<g>
		<g id="g10_1_">
			<g id="path8_1_">
				<path fill="#4479FB" d="M28.7,71.1H64c0.1,0,0.2,0,0.3,0l0,0c0.7,0,1.4-0.6,1.4-1.4V50c-10.1,3.1-16-4.8-20.9-12.7
					c-1.9-2.9,2.1-4.9,3-7.6h-17h-2.1c-3.6,0-6.6,3-6.6,6.6v0.1c0,3.3,0,34.2,0,38.3c0,0.1,0,0.1,0,0.2c0,3.5,2.8,6.4,6.2,6.6
					c0.1,0,0.1,0,0.2,0h35.8c0.7,0,1.4-0.6,1.4-1.4V75c0-0.7-0.6-1.4-1.4-1.4c-0.7,0-1.4,0.6-1.4,1.4v3.7H28.7c-2,0-3.7-1.6-3.8-3.7
					v-0.1c0-0.1,0-0.1,0-0.3C25,72.7,26.6,71.1,28.7,71.1z M29.6,36.3c0-0.7,0.6-1.4,1.4-1.4s1.4,0.6,1.4,1.4V64
					c0,0.7-0.6,1.4-1.4,1.4s-1.4-0.6-1.4-1.4V36.3z"/>
			</g>
		</g>
		<g id="polygon12_1_">
			<path fill="#4479FB" d="M71.4,51.4h-19L43,34.9l9.4-16.4h19l9.5,16.4L71.4,51.4z M54.2,48.3h15.5l7.8-13.4l-7.8-13.4H54.2
				l-7.7,13.4L54.2,48.3z"/>
		</g>
		<g id="g16_1_">
			<g id="path14_1_">
				<path fill="#4479FB" d="M58.3,32.6c1.7-0.4,3.1-0.6,4.1-0.6c0.6,0,1.1,0.1,1.5,0.3c0.3,0.2,0.5,0.5,0.5,1.1c0,0.2,0,0.4-0.1,0.5
					l-1.8,8.9c0,0.2-0.1,0.4-0.1,0.5c0,0.4,0.1,0.6,0.4,0.7c0.3,0.1,0.9,0.2,1.7,0.2l-0.1,0.6c-1.6,0.4-2.9,0.6-3.8,0.6
					c-0.7,0-1.3-0.1-1.6-0.4c-0.4-0.3-0.5-0.6-0.5-1.3c0-0.2,0-0.6,0.1-1l1.7-8.1c0.1-0.4,0.1-0.6,0.1-0.7c0-0.2-0.1-0.4-0.3-0.5
					s-0.9-0.1-1.8-0.1L58.3,32.6z M65.3,26.9c0,0.6-0.2,1.2-0.6,1.6c-0.4,0.4-0.9,0.6-1.5,0.6c-0.5,0-1.1-0.2-1.4-0.5
					c-0.3-0.3-0.5-0.9-0.5-1.4c0-0.6,0.2-1.2,0.6-1.6c0.4-0.4,0.9-0.5,1.5-0.5c0.5,0,1.1,0.2,1.4,0.5C65.1,25.9,65.3,26.3,65.3,26.9
					z"/>
			</g>
		</g>
	</g>
</g>
<g>
</g>
<g>
</g>
<g>
</g>
<g>
</g>
<g>
</g>
<g>
</g>
</svg>
