<?xml version="1.0" encoding="utf-8"?>
<!-- Generator: Adobe Illustrator 25.0.0, SVG Export Plug-In . SVG Version: 6.00 Build 0)  -->
<svg version="1.1" id="图层_1" xmlns="http://www.w3.org/2000/svg" xmlns:xlink="http://www.w3.org/1999/xlink" x="0px" y="0px"
	 viewBox="0 0 16 16" enable-background="new 0 0 16 16" xml:space="preserve">
<g>
	<g>
		<path fill="#4479FB" d="M13.3,15H2.7C1.7,15,1,14.2,1,13.3V2.7C1,1.7,1.7,1,2.7,1h10.6C14.2,1,15,1.7,15,2.7v10.6
			C15,14.2,14.2,15,13.3,15z M2.7,1.8c-0.5,0-0.9,0.4-0.9,0.9v10.6c0,0.5,0.4,0.9,0.9,0.9h10.6c0.5,0,0.9-0.4,0.9-0.9V2.7
			c0-0.5-0.4-0.9-0.9-0.9H2.7z"/>
	</g>
	<g>
		<path fill="#4479FB" d="M10.1,10.9H5.7c-1,0-1.8-0.8-1.8-1.8V8.3C3.9,8.1,3.8,8,3.6,8H1.4V7.2h2.2c0.6,0,1.1,0.5,1.1,1.1v0.8
			c0,0.6,0.4,1,1,1h4.4c0.6,0,1-0.4,1-1V8.3c0-0.6,0.5-1.1,1.1-1.1h2.4V8h-2.4c-0.2,0-0.3,0.1-0.3,0.3v0.8
			C11.9,10.1,11.1,10.9,10.1,10.9z"/>
	</g>
	<g>
		<path fill="#4479FB" d="M8,8.4C7.8,8.4,7.6,8.2,7.6,8V3.8c0-0.2,0.2-0.4,0.4-0.4s0.4,0.2,0.4,0.4V8C8.4,8.2,8.2,8.4,8,8.4z"/>
	</g>
	<g>
		<path fill="#4479FB" d="M10.1,6.3H5.9c-0.2,0-0.4-0.2-0.4-0.4c0-0.2,0.2-0.4,0.4-0.4h4.1c0.2,0,0.4,0.2,0.4,0.4
			C10.5,6.1,10.3,6.3,10.1,6.3z"/>
	</g>
</g>
<g>
</g>
<g>
</g>
<g>
</g>
<g>
</g>
<g>
</g>
<g>
</g>
</svg>
