<?xml version="1.0" encoding="utf-8"?>
<!-- Generator: Adobe Illustrator 25.0.0, SVG Export Plug-In . SVG Version: 6.00 Build 0)  -->
<svg version="1.1" id="图层_1" xmlns="http://www.w3.org/2000/svg" xmlns:xlink="http://www.w3.org/1999/xlink" x="0px" y="0px"
	 viewBox="0 0 16 16" enable-background="new 0 0 16 16" xml:space="preserve">
<g>
	<path fill="#808080" d="M13,14.7H3.5c-0.5,0-1-0.4-1-1v-0.5c0-2,1.3-2.5,2-2.5h2c-0.5,0-1-0.4-1-2.5v-1c0-2,1.3-2.5,2-2.5h1
		c0.7,0,2,0.5,2,2.5v1c0,2.1-0.5,2.5-1,2.5h2c0.7,0,2,0.5,2,2.5v1C13.5,14.5,13.3,14.7,13,14.7z M4.5,11.7c-0.2,0-1,0.1-1,1.5v0.5h9
		v-0.5c0-1.5-1-1.5-1-1.5h-2c-0.6,0-1-0.4-1-1c0-0.5,0.4-0.9,0.8-1c0.1-0.1,0.2-0.5,0.2-1.5v-1c0-1.5-1-1.5-1-1.5h-1
		c-0.2,0-1,0.1-1,1.5v1c0,1,0.1,1.4,0.2,1.5c0.5,0.1,0.8,0.5,0.8,1c0,0.6-0.4,1-1,1H4.5z"/>
	<path fill="#4479FB" d="M13.4,5.7c-0.1-0.2-0.1-0.6-0.1-0.9l0.1-0.3c0.1-0.3,0-0.6-0.2-0.8l-0.7-0.7c-0.2-0.2-0.6-0.3-0.8-0.2
		l-0.4,0.1c-0.3,0.1-0.7,0.1-0.9,0S9.5,2.3,9.4,2L9.2,1.7C9.1,1.4,8.8,1.2,8.5,1.2h-1c-0.3,0-0.6,0.2-0.7,0.5L6.6,2
		C6.5,2.3,6.2,2.5,5.9,2.6S4.8,2.9,4.6,2.9L4.2,2.7C4,2.7,3.6,2.7,3.4,2.9L2.7,3.6C2.5,3.8,2.4,4.2,2.5,4.5l0.1,0.3
		c0.1,0.3,0.1,0.7,0,0.9S2,6.7,1.8,6.9L1.4,7C1.2,7.1,1,7.5,1,7.7v1C1,9,1.2,9.3,1.4,9.5l0.3,0.2C2,9.8,2.2,9.9,2.3,10
		s0.3,0.3,0.6,0.3h0.1c0.3,0,0.4-0.2,0.3-0.5C3.3,9.8,3,9,3,8.2c0-2.8,2.2-5,5-5s5,2.2,5,5c0,0.7-0.3,1.5-0.3,1.5
		c-0.1,0.3,0.1,0.5,0.4,0.5h0.1c0.3,0,0.5-0.1,0.6-0.1s0.3-0.4,0.5-0.5l0.3-0.2C14.8,9.3,15,9,15,8.7v-1c0-0.3-0.2-0.6-0.4-0.7
		l-0.3-0.2C14,6.7,13.5,6,13.4,5.7z"/>
</g>
<g>
</g>
<g>
</g>
<g>
</g>
<g>
</g>
<g>
</g>
<g>
</g>
</svg>
