<?xml version="1.0" encoding="utf-8"?>
<!-- Generator: Adobe Illustrator 25.0.0, SVG Export Plug-In . SVG Version: 6.00 Build 0)  -->
<svg version="1.1" id="图层_1" xmlns="http://www.w3.org/2000/svg" xmlns:xlink="http://www.w3.org/1999/xlink" x="0px" y="0px"
	 viewBox="0 0 16 16" enable-background="new 0 0 16 16" xml:space="preserve">
<g id="open">
	<path fill="#808080" d="M0.7,13.5v-11c0,0,0-1,1-1s4,0,5,0s1,2,2,2s4,0,4,0s1,0,1,1v2h-1c0,0,0,0,0-1s-1-1-1-1H8.2c-1,0-1-2-2-2
		s-3.5,0-3.5,0c-1,0-1,1-1,1v9v1h1v1c0,0,0,0-1,0S0.7,13.5,0.7,13.5z"/>
	<path fill="#4479FB" d="M4.5,5.5C4,5.5,3.4,5.9,3.2,6.4l-2.4,7.1c-0.2,0.5,0.1,1,0.7,1h10c0.6,0,1.1-0.4,1.3-0.9l2.4-7.1
		c0.2-0.5-0.1-1-0.7-1H4.5z"/>
</g>
<g>
</g>
<g>
</g>
<g>
</g>
<g>
</g>
<g>
</g>
<g>
</g>
</svg>
