<?xml version="1.0" encoding="utf-8"?>
<!-- Generator: Adobe Illustrator 25.0.0, SVG Export Plug-In . SVG Version: 6.00 Build 0)  -->
<svg version="1.1"
	 id="Layer_1" xmlns:cc="http://creativecommons.org/ns#" xmlns:dc="http://purl.org/dc/elements/1.1/" xmlns:inkscape="http://www.inkscape.org/namespaces/inkscape" xmlns:rdf="http://www.w3.org/1999/02/22-rdf-syntax-ns#" xmlns:sodipodi="http://sodipodi.sourceforge.net/DTD/sodipodi-0.dtd" xmlns:svg="http://www.w3.org/2000/svg"
	 xmlns="http://www.w3.org/2000/svg" xmlns:xlink="http://www.w3.org/1999/xlink" x="0px" y="0px" viewBox="0 0 16 16"
	 enable-background="new 0 0 16 16" xml:space="preserve">
<sodipodi:namedview  bordercolor="#666666" borderopacity="1" gridtolerance="10" guidetolerance="10" id="namedview9" inkscape:current-layer="Layer_1" inkscape:cx="8" inkscape:cy="8" inkscape:document-rotation="0" inkscape:pageopacity="0" inkscape:pageshadow="2" inkscape:window-height="1369" inkscape:window-maximized="1" inkscape:window-width="2560" inkscape:window-x="-8" inkscape:window-y="-8" inkscape:zoom="63" objecttolerance="10" pagecolor="#ffffff" showgrid="false">
	</sodipodi:namedview>
<path id="path4" fill="#808080" d="M3,6.2c0.3,0,0.5-0.2,0.5-0.5V3.6v-1C3.5,2.3,3.7,2,4,2h8.8c0.3,0,0.5,0.5,0.5,0.8l0.1,7.6
	c0,0.1-0.1,0.3-0.2,0.4S13,11,12.9,11H10l0,0c-0.3,0-0.5,0.2-0.5,0.5c0,0.3,0.2,0.5,0.5,0.5h2.8c0,0,0,0,0,0h0.1
	c0.4,0,0.8-0.2,1.1-0.5c0.3-0.3,0.4-0.7,0.4-1.1l0-7.6C14.4,2,13.7,1,12.8,1H4C3.1,1,2.4,1.7,2.4,2.6v1v2.1C2.4,6,2.7,6.2,3,6.2z"/>
<path id="path6" fill="#4479FB" d="M7.4,8.5C7.4,8.2,7.2,8,7,8H2.9C2.7,8,2.6,8.1,2.8,8.3l1,1C4,9.5,4,9.8,3.8,10l-2.7,2.7
	c-0.2,0.2-0.2,0.5,0,0.6l1,1c0.2,0.2,0.5,0.2,0.6,0l2.7-2.7c0.2-0.2,0.5-0.2,0.6,0l1,1c0.2,0.2,0.3,0.1,0.3-0.1V8.5z"/>
</svg>
