<?xml version="1.0" encoding="utf-8"?>
<!-- Generator: Adobe Illustrator 25.0.0, SVG Export Plug-In . SVG Version: 6.00 Build 0)  -->
<svg version="1.1" id="图层_1" xmlns="http://www.w3.org/2000/svg" xmlns:xlink="http://www.w3.org/1999/xlink" x="0px" y="0px"
	 viewBox="0 0 16 16" enable-background="new 0 0 16 16" xml:space="preserve">
<g>
	<path fill="#4479FB" d="M7.8,13.3H2.7V2.6h6.2V5c0,0.2,0.2,0.4,0.4,0.4h2.4v2.8h1.6V4.4L9.7,1.1H1.9c-0.4,0-0.8,0.3-0.8,0.8v12.3
		c0,0.4,0.3,0.8,0.8,0.8h6.8L7.8,13.3z"/>
	<rect x="3.7" y="6.3" fill="#4479FB" width="2.6" height="1.7"/>
	<rect x="3.7" y="9.7" fill="#4479FB" width="3.5" height="1.7"/>
	<path fill="#4479FB" d="M13.3,9H9.7l-1.6,3l1.6,3l3.6-0.1l1.6-2.9L13.3,9z M11.5,12.8c-0.5,0-0.9-0.4-0.9-0.9
		c0-0.5,0.4-0.9,0.9-0.9c0.5,0,0.9,0.4,0.9,0.9C12.4,12.4,12,12.8,11.5,12.8z"/>
</g>
<g>
</g>
<g>
</g>
<g>
</g>
<g>
</g>
<g>
</g>
<g>
</g>
</svg>
