<?xml version="1.0" standalone="no"?>
<!DOCTYPE svg PUBLIC "-//W3C//DTD SVG 20010904//EN"
 "http://www.w3.org/TR/2001/REC-SVG-20010904/DTD/svg10.dtd">
<svg version="1.0" xmlns="http://www.w3.org/2000/svg"
 width="300.000000pt" height="300.000000pt" viewBox="0 0 300.000000 300.000000"
 preserveAspectRatio="xMidYMid meet">
<metadata>
Created by potrace 1.10, written by Peter Selinger 2001-2011
</metadata>
<g transform="translate(0.000000,300.000000) scale(0.100000,-0.100000)"
fill="#4479FB" stroke="none">
<path d="M10 2988 c0 -5 0 -677 0 -1494 l-1 -1485 1488 1 c818 0 1488 2 1490
4 2 2 4 672 6 1490 l2 1486 -25 0 c-14 0 -685 1 -1493 3 -807 1 -1467 -1
-1467 -5z m917 -355 l-237 -238 -237 238 -238 237 475 0 475 0 -238 -237z
m749 222 c16 -8 147 -133 291 -277 l263 -263 -365 -365 -365 -365 -365 365
-365 365 278 278 278 277 160 0 c122 0 168 -4 190 -15z m871 -222 l-237 -238
-237 238 -238 237 475 0 475 0 -238 -237z m-2180 -560 l-237 -238 0 475 0 475
237 -238 238 -237 -238 -237z m2503 235 l0 -473 -237 237 -238 238 235 235
c129 129 236 235 237 235 2 0 3 -213 3 -472z m-1820 -1173 l-365 -365 -267
267 c-148 148 -268 263 -268 258 0 -6 -5 -3 -10 5 -13 20 -13 331 0 367 6 15
131 148 278 296 l267 267 365 -365 365 -365 -365 -365z m1807 544 c10 -12 13
-58 13 -185 l0 -169 -278 -278 -277 -277 -365 365 -365 365 365 365 365 365
264 -267 c145 -148 270 -275 278 -284z m-990 -631 l363 -363 -277 -278 -277
-277 -157 0 c-87 0 -170 5 -185 10 -15 6 -148 131 -296 278 l-269 266 363 363
c200 200 365 363 368 363 3 0 168 -163 367 -362z m-1500 -595 l-237 -238 0
475 0 475 237 -238 238 -237 -238 -237z m2503 235 l0 -473 -237 237 -238 238
235 235 c129 129 236 235 237 235 2 0 3 -213 3 -472z m-1940 -323 l235 -235
-475 0 -475 0 235 235 c129 129 237 235 240 235 3 0 111 -106 240 -235z m1620
0 l235 -235 -475 0 -475 0 235 235 c129 129 237 235 240 235 3 0 111 -106 240
-235z"/>
</g>
</svg>
