<?xml version="1.0" encoding="utf-8"?>
<!-- Generator: Adobe Illustrator 25.0.0, SVG Export Plug-In . SVG Version: 6.00 Build 0)  -->
<svg version="1.1" id="图层_1" xmlns="http://www.w3.org/2000/svg" xmlns:xlink="http://www.w3.org/1999/xlink" x="0px" y="0px"
	 width="10px" height="10px" viewBox="0 0 10 10" enable-background="new 0 0 10 10" xml:space="preserve">
<defs>
	<filter id="Adobe_OpacityMaskFilter" filterUnits="userSpaceOnUse" x="0.7" y="0.6" width="3.7" height="3.7">
		<feColorMatrix  type="matrix" values="1 0 0 0 0  0 1 0 0 0  0 0 1 0 0  0 0 0 1 0"/>
	</filter>
</defs>
<mask maskUnits="userSpaceOnUse" x="0.7" y="0.6" width="3.7" height="3.7" id="mask1_7_73_2_">
	<path id="path3_2_" fill="#FFFFFF" filter="url(#Adobe_OpacityMaskFilter)" d="M10,0.1H0v10h10V0.1z"/>
</mask>
<g id="g5" transform="translate(-0.13363557,-0.18774744)" mask="url(#mask1_7_73_2_)">
	<path id="path4" fill="none" stroke="#B5BFC2" stroke-width="0.3" d="M2.7,4.3l1.6-1.6L2.7,1L1,2.7L2.7,4.3z"/>
	<path id="path5" fill="none" stroke="#B5BFC2" stroke-width="0.3" d="M2.7,3.5l0.8-0.8L2.7,1.8L1.8,2.7L2.7,3.5z"/>
	<path id="path31" fill="none" stroke="#B5BFC2" stroke-width="0.3" d="M2.7,4.3l1.6-1.6L2.7,1L1,2.7L2.7,4.3z"/>
	<path id="path32" fill="none" stroke="#B5BFC2" stroke-width="0.3" d="M2.7,3.5l0.8-0.8L2.7,1.8L1.8,2.7L2.7,3.5z"/>
	<path id="path50" fill="none" stroke="#999999" stroke-width="0.3" d="M2.7,4.3l1.6-1.6L2.7,1L1,2.7L2.7,4.3z"/>
	<path id="path51" fill="none" stroke="#999999" stroke-width="0.3" d="M2.7,3.5l0.8-0.8L2.7,1.8L1.8,2.7L2.7,3.5z"/>
</g>
<defs>
	<filter id="Adobe_OpacityMaskFilter_1_" filterUnits="userSpaceOnUse" x="4" y="0.6" width="3.7" height="3.7">
		<feColorMatrix  type="matrix" values="1 0 0 0 0  0 1 0 0 0  0 0 1 0 0  0 0 0 1 0"/>
	</filter>
</defs>
<mask maskUnits="userSpaceOnUse" x="4" y="0.6" width="3.7" height="3.7" id="mask2_7_73_2_">
	<path id="path6_2_" fill="#FFFFFF" filter="url(#Adobe_OpacityMaskFilter_1_)" d="M10,0.1H0v10h10V0.1z"/>
</mask>
<g id="g8" transform="translate(-0.13363557,-0.18774744)" mask="url(#mask2_7_73_2_)">
	<path id="path7" fill="none" stroke="#B5BFC2" stroke-width="0.3" d="M6,4.3l1.6-1.6L6,1L4.4,2.7L6,4.3z"/>
	<path id="path8" fill="none" stroke="#B5BFC2" stroke-width="0.3" d="M6,3.5l0.8-0.8L6,1.8L5.1,2.7L6,3.5z"/>
	<path id="path33" fill="none" stroke="#B5BFC2" stroke-width="0.3" d="M6,4.3l1.6-1.6L6,1L4.4,2.7L6,4.3z"/>
	<path id="path34" fill="none" stroke="#B5BFC2" stroke-width="0.3" d="M6,3.5l0.8-0.8L6,1.8L5.1,2.7L6,3.5z"/>
	<path id="path52" fill="none" stroke="#999999" stroke-width="0.3" d="M6,4.3l1.6-1.6L6,1L4.4,2.7L6,4.3z"/>
	<path id="path53" fill="none" stroke="#999999" stroke-width="0.3" d="M6,3.5l0.8-0.8L6,1.8L5.1,2.7L6,3.5z"/>
</g>
<defs>
	<filter id="Adobe_OpacityMaskFilter_2_" filterUnits="userSpaceOnUse" x="7.3" y="0.7" width="2.1" height="3.5">
		<feColorMatrix  type="matrix" values="1 0 0 0 0  0 1 0 0 0  0 0 1 0 0  0 0 0 1 0"/>
	</filter>
</defs>
<mask maskUnits="userSpaceOnUse" x="7.3" y="0.7" width="2.1" height="3.5" id="mask3_7_73_2_">
	<path id="path9_2_" fill="#FFFFFF" filter="url(#Adobe_OpacityMaskFilter_2_)" d="M10,0.1H0v10h10V0.1z"/>
</mask>
<g id="g11" transform="translate(-0.13363557,-0.18774744)" mask="url(#mask3_7_73_2_)">
	<path id="path10" fill="none" stroke="#B5BFC2" stroke-width="0.3" d="M9.2,4.2L7.6,2.6l1.6-1.7"/>
	<path id="path11" fill="none" stroke="#B5BFC2" stroke-width="0.3" d="M9.2,3.4L8.4,2.6l0.8-0.8"/>
	<path id="path35" fill="none" stroke="#B5BFC2" stroke-width="0.3" d="M9.2,4.2L7.6,2.6l1.6-1.7"/>
	<path id="path36" fill="none" stroke="#B5BFC2" stroke-width="0.3" d="M9.2,3.4L8.4,2.6l0.8-0.8"/>
	<path id="path54" fill="none" stroke="#999999" stroke-width="0.3" d="M9.2,4.2L7.6,2.6l1.6-1.7"/>
	<path id="path55" fill="none" stroke="#999999" stroke-width="0.3" d="M9.5,3.7l-1-1l1-1"/>
</g>
<defs>
	<filter id="Adobe_OpacityMaskFilter_3_" filterUnits="userSpaceOnUse" x="0.7" y="4" width="3.7" height="3.7">
		<feColorMatrix  type="matrix" values="1 0 0 0 0  0 1 0 0 0  0 0 1 0 0  0 0 0 1 0"/>
	</filter>
</defs>
<mask maskUnits="userSpaceOnUse" x="0.7" y="4" width="3.7" height="3.7" id="mask4_7_73_2_">
	<path id="path12_2_" fill="#FFFFFF" filter="url(#Adobe_OpacityMaskFilter_3_)" d="M10,0.1H0v10h10V0.1z"/>
</mask>
<g id="g14" transform="translate(-0.13363557,-0.18774744)" mask="url(#mask4_7_73_2_)">
	<path id="path13" fill="none" stroke="#B5BFC2" stroke-width="0.3" d="M2.7,7.6L4.3,6L2.7,4.4L1.1,6L2.7,7.6z"/>
	<path id="path14" fill="none" stroke="#B5BFC2" stroke-width="0.3" d="M2.7,6.9L3.5,6L2.7,5.2L1.8,6L2.7,6.9z"/>
	<path id="path37" fill="none" stroke="#B5BFC2" stroke-width="0.3" d="M2.7,7.6L4.3,6L2.7,4.4L1.1,6L2.7,7.6z"/>
	<path id="path38" fill="none" stroke="#B5BFC2" stroke-width="0.3" d="M2.7,6.9L3.5,6L2.7,5.2L1.8,6L2.7,6.9z"/>
	<path id="path56" fill="none" stroke="#999999" stroke-width="0.3" d="M2.7,7.6L4.3,6L2.7,4.4L1.1,6L2.7,7.6z"/>
	<path id="path57" fill="none" stroke="#999999" stroke-width="0.3" d="M2.7,6.9L3.5,6L2.7,5.2L1.8,6L2.7,6.9z"/>
</g>
<defs>
	<filter id="Adobe_OpacityMaskFilter_4_" filterUnits="userSpaceOnUse" x="4" y="4" width="3.7" height="3.7">
		<feColorMatrix  type="matrix" values="1 0 0 0 0  0 1 0 0 0  0 0 1 0 0  0 0 0 1 0"/>
	</filter>
</defs>
<mask maskUnits="userSpaceOnUse" x="4" y="4" width="3.7" height="3.7" id="mask5_7_73_2_">
	<path id="path15_2_" fill="#FFFFFF" filter="url(#Adobe_OpacityMaskFilter_4_)" d="M10,0.1H0v10h10V0.1z"/>
</mask>
<g id="g17" transform="translate(-0.13363557,-0.18774744)" mask="url(#mask5_7_73_2_)">
	<path id="path16" fill="none" stroke="#B5BFC2" stroke-width="0.3" d="M6,7.6L7.6,6L6,4.4L4.4,6L6,7.6z"/>
	<path id="path17" fill="none" stroke="#B5BFC2" stroke-width="0.3" d="M6,6.9L6.9,6L6,5.2L5.2,6L6,6.9z"/>
	<path id="path39" fill="none" stroke="#B5BFC2" stroke-width="0.3" d="M6,7.6L7.6,6L6,4.4L4.4,6L6,7.6z"/>
	<path id="path40" fill="none" stroke="#B5BFC2" stroke-width="0.3" d="M6,6.9L6.9,6L6,5.2L5.2,6L6,6.9z"/>
	<path id="path58" fill="none" stroke="#999999" stroke-width="0.3" d="M6,7.6L7.6,6L6,4.4L4.4,6L6,7.6z"/>
	<path id="path59" fill="none" stroke="#999999" stroke-width="0.3" d="M6,6.9L6.9,6L6,5.2L5.2,6L6,6.9z"/>
</g>
<defs>
	<filter id="Adobe_OpacityMaskFilter_5_" filterUnits="userSpaceOnUse" x="7.3" y="4" width="2.1" height="3.5">
		<feColorMatrix  type="matrix" values="1 0 0 0 0  0 1 0 0 0  0 0 1 0 0  0 0 0 1 0"/>
	</filter>
</defs>
<mask maskUnits="userSpaceOnUse" x="7.3" y="4" width="2.1" height="3.5" id="mask6_7_73_2_">
	<path id="path18_2_" fill="#FFFFFF" filter="url(#Adobe_OpacityMaskFilter_5_)" d="M10,0.1H0v10h10V0.1z"/>
</mask>
<g id="g20" transform="translate(-0.13363557,-0.18774744)" mask="url(#mask6_7_73_2_)">
	<path id="path19" fill="none" stroke="#B5BFC2" stroke-width="0.3" d="M9.2,7.6L7.6,5.9l1.6-1.6"/>
	<path id="path20" fill="none" stroke="#B5BFC2" stroke-width="0.3" d="M9.2,6.7L8.4,5.9l0.8-0.8"/>
	<path id="path41" fill="none" stroke="#B5BFC2" stroke-width="0.3" d="M9.2,7.6L7.6,5.9l1.6-1.6"/>
	<path id="path42" fill="none" stroke="#B5BFC2" stroke-width="0.3" d="M9.2,6.7L8.4,5.9l0.8-0.8"/>
	<path id="path60" fill="none" stroke="#999999" stroke-width="0.3" d="M9.2,7.6L7.6,5.9l1.6-1.6"/>
	<path id="path61" fill="none" stroke="#999999" stroke-width="0.3" d="M9.4,7l-1-1l1-1"/>
</g>
<defs>
	<filter id="Adobe_OpacityMaskFilter_6_" filterUnits="userSpaceOnUse" x="0.7" y="7.2" width="3.6" height="2.2">
		<feColorMatrix  type="matrix" values="1 0 0 0 0  0 1 0 0 0  0 0 1 0 0  0 0 0 1 0"/>
	</filter>
</defs>
<mask maskUnits="userSpaceOnUse" x="0.7" y="7.2" width="3.6" height="2.2" id="mask7_7_73_2_">
	<path id="path21_2_" fill="#FFFFFF" filter="url(#Adobe_OpacityMaskFilter_6_)" d="M10,0.1H0v10h10V0.1z"/>
</mask>
<g id="g23" transform="translate(-0.13363557,-0.18774744)" mask="url(#mask7_7_73_2_)">
	<path id="path22" fill="none" stroke="#B5BFC2" stroke-width="0.3" d="M0.9,9.3l1.7-1.7l1.7,1.7"/>
	<path id="path23" fill="none" stroke="#B5BFC2" stroke-width="0.3" d="M1.8,9.3l0.8-0.9l0.8,0.9"/>
	<path id="path43" fill="none" stroke="#B5BFC2" stroke-width="0.3" d="M0.9,9.3l1.7-1.7l1.7,1.7"/>
	<path id="path44" fill="none" stroke="#B5BFC2" stroke-width="0.3" d="M1.8,9.3l0.8-0.9l0.8,0.9"/>
	<path id="path62" fill="none" stroke="#999999" stroke-width="0.3" d="M0.9,9.3l1.7-1.7l1.7,1.7"/>
	<path id="path63" fill="none" stroke="#999999" stroke-width="0.3" d="M1.8,9.4l0.9-1l0.9,1.1"/>
</g>
<defs>
	<filter id="Adobe_OpacityMaskFilter_7_" filterUnits="userSpaceOnUse" x="4.1" y="7.3" width="3.5" height="2">
		<feColorMatrix  type="matrix" values="1 0 0 0 0  0 1 0 0 0  0 0 1 0 0  0 0 0 1 0"/>
	</filter>
</defs>
<mask maskUnits="userSpaceOnUse" x="4.1" y="7.3" width="3.5" height="2" id="mask8_7_73_2_">
	<path id="path24_2_" fill="#FFFFFF" filter="url(#Adobe_OpacityMaskFilter_7_)" d="M10,0.1H0v10h10V0.1z"/>
</mask>
<g id="g26" transform="translate(-0.06473357,-0.11884544)" mask="url(#mask8_7_73_2_)">
	<path id="path25" fill="none" stroke="#B5BFC2" stroke-width="0.3" d="M4.3,9.3l1.6-1.7l1.7,1.7"/>
	<path id="path26" fill="none" stroke="#B5BFC2" stroke-width="0.3" d="M5.1,9.3l0.8-0.9l0.8,0.9"/>
	<path id="path45" fill="none" stroke="#B5BFC2" stroke-width="0.3" d="M4.3,9.3l1.6-1.7l1.7,1.7"/>
	<path id="path46" fill="none" stroke="#B5BFC2" stroke-width="0.3" d="M5.1,9.3l0.8-0.9l0.8,0.9"/>
	<path id="path64" fill="none" stroke="#999999" stroke-width="0.3" d="M4.3,9.3l1.6-1.7l1.7,1.7"/>
	<path id="path65" fill="none" stroke="#999999" stroke-width="0.3" d="M5.1,9.3l0.8-0.9l0.8,0.9"/>
</g>
<defs>
	<filter id="Adobe_OpacityMaskFilter_8_" filterUnits="userSpaceOnUse" x="7.3" y="7.3" width="2.1" height="2">
		<feColorMatrix  type="matrix" values="1 0 0 0 0  0 1 0 0 0  0 0 1 0 0  0 0 0 1 0"/>
	</filter>
</defs>
<mask maskUnits="userSpaceOnUse" x="7.3" y="7.3" width="2.1" height="2" id="mask9_7_73_2_">
	<path id="path27_2_" fill="#FFFFFF" filter="url(#Adobe_OpacityMaskFilter_8_)" d="M10,0.1H0v10h10V0.1z"/>
</mask>
<g id="g29" transform="translate(-0.13363557,-0.18774744)" mask="url(#mask9_7_73_2_)">
	<path id="path28" fill="none" stroke="#B5BFC2" stroke-width="0.3" d="M7.5,9.3l1.7-1.7"/>
	<path id="path29" fill="none" stroke="#B5BFC2" stroke-width="0.3" d="M8.4,9.3l0.8-0.9"/>
	<path id="path47" fill="none" stroke="#B5BFC2" stroke-width="0.3" d="M7.5,9.3l1.7-1.7"/>
	<path id="path48" fill="none" stroke="#B5BFC2" stroke-width="0.3" d="M8.4,9.3l0.8-0.9"/>
	<path id="path66" fill="none" stroke="#999999" stroke-width="0.3" d="M7.5,9.3l1.7-1.7"/>
	<path id="path67" fill="none" stroke="#999999" stroke-width="0.3" d="M8.3,9.5l1.1-1.3"/>
</g>
<path id="path68" fill="none" stroke="#4479FB" stroke-width="0.478" d="M2.4,0.7l6.9,6.9"/>
<path id="path68-8" fill="none" stroke="#4479FB" stroke-width="0.4997" d="M0.7,2.2l6.9,7.1"/>
<path id="path69" fill="none" stroke="#4479FB" stroke-width="0.478" d="M0.7,5.6l3.6,3.7"/>
<path id="path70" fill="none" stroke="#4479FB" stroke-width="0.5048" d="M5.7,0.7l3.6,3.5"/>
<path id="rect1" fill="none" stroke="#4479FB" stroke-width="0.406" stroke-linejoin="round" stroke-miterlimit="3.9" d="M1.5,0.7h7
	c0.5,0,0.9,0.4,0.9,0.9v6.9c0,0.5-0.4,0.9-0.9,0.9h-7C1,9.3,0.7,8.9,0.7,8.5V1.5C0.7,1.1,1,0.7,1.5,0.7z"/>
</svg>
