<?xml version="1.0" encoding="UTF-8" standalone="no"?>
<svg
   version="1.0"
   width="300.000000pt"
   height="300.000000pt"
   viewBox="0 0 300.000000 300.000000"
   preserveAspectRatio="xMidYMid meet"
   id="svg1"
   sodipodi:docname="param_rectilinear.svg"
   inkscape:version="1.3 (0e150ed6c4, 2023-07-21)"
   xmlns:inkscape="http://www.inkscape.org/namespaces/inkscape"
   xmlns:sodipodi="http://sodipodi.sourceforge.net/DTD/sodipodi-0.dtd"
   xmlns="http://www.w3.org/2000/svg"
   xmlns:svg="http://www.w3.org/2000/svg">
  <defs
     id="defs1" />
  <sodipodi:namedview
     id="namedview1"
     pagecolor="#ffffff"
     bordercolor="#000000"
     borderopacity="0.25"
     inkscape:showpageshadow="2"
     inkscape:pageopacity="0.0"
     inkscape:pagecheckerboard="0"
     inkscape:deskcolor="#d1d1d1"
     inkscape:document-units="pt"
     inkscape:zoom="2.0325"
     inkscape:cx="200"
     inkscape:cy="200"
     inkscape:window-width="1920"
     inkscape:window-height="1009"
     inkscape:window-x="-8"
     inkscape:window-y="-8"
     inkscape:window-maximized="1"
     inkscape:current-layer="g1" />
  <metadata
     id="metadata1">&#10;Created by potrace 1.10, written by Peter Selinger 2001-2011&#10;</metadata>
  <g
     transform="translate(0.000000,300.000000) scale(0.100000,-0.100000)"
     fill="#4479FB"
     stroke="none"
     id="g1">
    <path
       style="display:inline;fill:#4479fb;fill-opacity:1;fill-rule:evenodd;stroke:#999999;stroke-width:10;stroke-linecap:butt;stroke-linejoin:miter;stroke-dasharray:none;stroke-opacity:0.80000001"
       d="M 4.0590406,4.0590406 295.20295,295.20295"
       id="path2"
       inkscape:connector-type="polyline"
       inkscape:connector-curvature="0"
       transform="matrix(9.9999998,0,0,-9.9999998,0,3000)" />
    <path
       style="display:inline;fill:#4479fb;fill-opacity:1;fill-rule:evenodd;stroke:#999999;stroke-width:99.99999998;stroke-linecap:butt;stroke-linejoin:miter;stroke-dasharray:none;stroke-opacity:0.80000001"
       d="M 1367.962,2912.7852 2937.9972,1342.75"
       id="path2-8"
       inkscape:connector-type="polyline"
       inkscape:connector-curvature="0" />
    <path
       style="display:inline;fill:#4479fb;fill-opacity:1;fill-rule:evenodd;stroke:#999999;stroke-width:100;stroke-linecap:butt;stroke-linejoin:miter;stroke-dasharray:none;stroke-opacity:0.80000001"
       d="M 74.460566,1654.6539 1644.4958,84.618725"
       id="path2-8-1"
       inkscape:connector-type="polyline"
       inkscape:connector-curvature="0" />
    <path
       d="M13 2984 c-2 -7 -5 -680 -6 -1495 l-2 -1484 1492 0 1492 0 3 1490 c2 820 3 1491 2 1492 0 2 -670 4 -1489 5 -1113 2 -1489 0 -1492 -8z m1147 -117 c0 -1 -232 -234 -515 -517 l-515 -515 0 518 0 517 515 0 c283 0 515 -1 515 -3z m1620 0 c0 -1 -596 -598 -1325 -1327 l-1325 -1325 0 729 0 730 597 598 598 598 727 0 c401 0 728 -1 728 -3z m-507 -2139 l-597 -598 -731 0 -730 0 1325 1325 1325 1325 3 -727 2 -727 -597 -598z m597 -83 l0 -515 -517 0 -518 0 515 515 c283 283 516 515 517 515 2 0 3 -232 3 -515z"
       id="path1" />
  </g>
</svg>
