<?xml version="1.0" standalone="no"?>
<!DOCTYPE svg PUBLIC "-//W3C//DTD SVG 20010904//EN"
 "http://www.w3.org/TR/2001/REC-SVG-20010904/DTD/svg10.dtd">
<svg version="1.0" xmlns="http://www.w3.org/2000/svg"
 width="300.000000pt" height="300.000000pt" viewBox="0 0 300.000000 300.000000"
 preserveAspectRatio="xMidYMid meet">
<metadata>
Created by potrace 1.10, written by Peter Selinger 2001-2011
</metadata>
<g transform="translate(0.000000,300.000000) scale(0.100000,-0.100000)"
fill="#4479FB" stroke="none">
<path d="M1452 2990 l-1443 -5 -2 -1490 -2 -1490 1493 2 1492 2 1 1493 1 1493
-49 0 c-26 0 -697 -2 -1491 -5z m-622 -123 c0 -1 -157 -160 -350 -352 l-350
-350 0 353 0 352 350 0 c193 0 350 -1 350 -3z m262 -72 c10 -38 23 -86 28
-105 6 -19 21 -78 35 -130 14 -52 29 -111 35 -130 5 -19 21 -78 34 -130 23
-84 57 -210 162 -597 15 -57 24 -106 21 -110 -4 -3 -53 6 -110 21 -56 16 -165
45 -242 66 -77 21 -185 50 -240 65 -55 15 -134 36 -175 47 -41 11 -118 31
-170 45 -52 13 -111 29 -130 34 -19 5 -45 12 -56 14 -12 3 -52 14 -88 25 -63
20 -66 22 -66 53 0 29 44 76 433 468 428 432 432 436 471 435 l39 -1 19 -70z
m468 60 c30 -8 102 -28 160 -44 58 -15 173 -47 255 -70 83 -23 193 -53 245
-66 52 -14 109 -29 125 -34 17 -5 61 -17 98 -27 l69 -17 -488 -488 c-269 -269
-491 -485 -494 -481 -4 4 -19 54 -34 112 -16 58 -41 152 -56 210 -15 58 -45
168 -65 245 -21 77 -57 212 -81 300 -24 88 -54 201 -67 250 -14 50 -28 98 -32
108 -7 16 4 17 152 17 110 0 176 -5 213 -15z m963 -64 c10 -40 16 -75 14 -78
-3 -2 -15 0 -28 6 -13 5 -69 20 -124 35 -55 14 -172 45 -260 70 l-160 44 270
-1 270 -2 18 -74z m202 19 c-33 -33 -62 -56 -66 -52 -4 4 -13 31 -22 60 l-15
52 81 0 81 0 -59 -60z m145 -105 l0 -76 -37 7 c-21 4 -49 11 -62 16 -24 9 -24
10 34 68 33 33 61 60 62 60 2 0 3 -34 3 -75z m-75 -183 l70 -18 2 -270 2 -269
-20 65 c-17 58 -53 189 -109 405 -10 39 -21 78 -25 88 -9 21 -7 21 80 -1z
m-155 -172 c20 -76 59 -221 90 -340 38 -149 73 -268 108 -370 23 -68 26 -93
30 -264 3 -180 3 -188 -15 -181 -10 4 -58 18 -108 32 -49 13 -164 44 -255 68
-169 46 -276 75 -750 201 -52 14 -102 27 -110 30 -9 3 157 176 475 495 l490
489 18 -62 c9 -35 22 -79 27 -98z m-2385 -577 c74 -19 256 -69 455 -123 19 -5
78 -21 130 -34 52 -14 145 -39 205 -55 61 -16 157 -42 215 -57 58 -15 108 -30
112 -33 4 -4 -212 -226 -481 -495 l-488 -488 -17 69 c-10 37 -22 82 -27 98 -8
29 -17 61 -89 335 -18 69 -51 188 -72 265 -22 77 -46 164 -54 193 -9 36 -14
104 -14 209 0 144 1 155 18 148 9 -4 57 -18 107 -32z m1485 -398 c52 -15 103
-28 112 -30 10 -2 93 -24 185 -50 92 -25 211 -57 263 -70 52 -14 111 -30 130
-35 70 -20 297 -80 365 -97 68 -18 70 -19 73 -52 3 -33 -12 -50 -435 -473
-508 -508 -483 -491 -522 -366 -23 76 -25 83 -66 238 -14 52 -29 111 -35 130
-5 19 -21 78 -34 130 -14 52 -50 185 -80 295 -94 350 -106 394 -106 406 0 13
13 11 150 -26z m-236 -115 c16 -58 41 -152 56 -210 15 -58 44 -166 64 -240 70
-263 138 -516 161 -598 l23 -84 -171 4 -172 4 -295 82 c-162 45 -338 94 -390
107 -52 14 -108 29 -125 34 -16 5 -61 17 -98 27 l-69 17 488 488 c269 269 491
485 494 481 4 -4 19 -54 34 -112z m-1258 -645 c15 -55 30 -111 35 -124 6 -13
8 -26 5 -28 -3 -3 -39 5 -80 17 l-76 23 1 266 1 266 44 -160 c25 -88 56 -205
70 -260z m2621 -482 c-2 -2 -159 -2 -348 -1 l-344 3 345 348 345 347 3 -346
c1 -191 1 -349 -1 -351z m-2671 226 c24 -6 46 -15 49 -19 2 -3 -23 -33 -55
-65 l-60 -59 0 77 c0 47 4 77 11 77 5 0 30 -5 55 -11z m369 -99 c151 -39 304
-81 385 -104 l85 -24 -267 -1 -267 -1 -15 53 c-31 107 -31 111 -10 103 10 -4
51 -16 89 -26z m-206 -64 c6 -25 11 -50 11 -55 0 -7 -30 -11 -77 -11 l-77 0
59 60 c32 32 62 57 65 55 4 -3 13 -25 19 -49z"/>
</g>
</svg>
