<?xml version="1.0" standalone="no"?>
<!DOCTYPE svg PUBLIC "-//W3C//DTD SVG 20010904//EN"
 "http://www.w3.org/TR/2001/REC-SVG-20010904/DTD/svg10.dtd">
<svg version="1.0" xmlns="http://www.w3.org/2000/svg"
 width="300.000000pt" height="300.000000pt" viewBox="0 0 300.000000 300.000000"
 preserveAspectRatio="xMidYMid meet">
<metadata>
Created by potrace 1.10, written by Peter Selinger 2001-2011
</metadata>
<g transform="translate(0.000000,300.000000) scale(0.100000,-0.100000)"
fill="#4479FB" stroke="none">
<path d="M10 1505 l0 -1495 1495 0 1495 0 0 1495 0 1495 -1495 0 -1495 0 0
-1495z m475 1355 c-16 -17 -17 -33 -12 -132 3 -62 15 -167 27 -233 12 -66 27
-158 35 -205 13 -81 156 -535 174 -553 8 -8 75 6 98 21 10 6 -2 53 -48 191
-34 100 -59 185 -55 188 5 6 56 -2 256 -36 120 -20 121 -20 123 57 l2 47 -85
12 c-47 6 -110 16 -140 22 -30 6 -87 15 -126 22 l-71 11 -12 92 c-7 50 -16
120 -21 156 -5 36 -12 101 -15 145 -4 44 -9 88 -11 98 -5 16 12 17 250 17
l256 0 0 -80 c0 -43 5 -90 11 -103 7 -15 47 -42 122 -79 101 -50 279 -177 299
-212 10 -17 30 -80 68 -211 17 -60 36 -120 41 -133 5 -13 9 -31 9 -42 0 -10 3
-21 8 -23 9 -7 112 14 112 22 0 3 -7 44 -14 91 -7 47 -23 148 -36 225 -12 77
-27 151 -35 165 -8 17 -54 46 -139 90 -116 60 -182 103 -257 170 -23 20 -32
42 -45 105 -10 44 -24 88 -32 98 -14 16 7 17 433 17 l448 0 -21 -23 c-25 -26
-26 -44 -12 -114 10 -47 41 -229 62 -368 6 -38 14 -73 17 -78 4 -4 31 -2 60 5
l53 12 -6 45 c-3 26 -10 75 -15 111 -5 36 -14 103 -20 150 -6 47 -13 102 -16
123 l-5 37 310 0 310 0 0 50 c0 49 1 50 30 50 l30 0 0 -330 0 -330 -50 0 -50
0 0 -400 c0 -312 -3 -400 -12 -400 -7 0 -48 6 -92 12 l-79 13 -27 60 c-15 33
-46 99 -68 147 -23 48 -51 111 -63 138 -12 28 -27 49 -33 46 -6 -3 -30 -10
-53 -17 -24 -6 -43 -14 -43 -18 0 -3 34 -109 76 -236 97 -296 87 -285 266
-285 l128 0 0 -530 0 -530 -665 0 c-374 0 -665 4 -665 9 0 5 30 42 66 82 37
41 73 84 81 96 8 12 36 29 61 37 118 37 508 127 612 141 63 8 144 19 180 25
96 15 203 29 223 30 20 0 22 26 6 84 -12 43 5 42 -159 16 -36 -6 -114 -17
-175 -25 -60 -8 -126 -17 -145 -21 l-35 -6 -68 204 c-37 112 -75 217 -85 233
-15 24 -68 55 -253 148 -129 64 -238 117 -242 117 -4 0 -18 -22 -32 -50 l-25
-50 42 -26 c24 -15 108 -70 188 -122 80 -52 153 -99 163 -106 10 -6 49 -78 87
-161 39 -82 77 -162 86 -177 8 -16 12 -28 7 -28 -4 0 -37 -5 -73 -10 -81 -13
-162 -24 -310 -44 -104 -15 -117 -19 -136 -44 -12 -15 -80 -99 -151 -187
l-129 -160 -504 0 -505 0 -3 443 -2 443 25 -3 c23 -3 32 -18 81 -138 78 -191
82 -203 113 -325 29 -116 35 -123 102 -140 21 -5 35 1 71 32 24 21 66 56 93
78 26 22 69 58 95 80 26 22 77 65 114 95 37 30 81 67 97 81 l29 26 -32 41
c-18 23 -36 42 -40 42 -3 0 -94 -63 -200 -140 -106 -77 -196 -140 -199 -140
-15 0 -70 174 -101 320 -41 190 -62 217 -174 222 l-69 3 -6 315 c-3 173 -7
316 -7 318 -6 9 -52 -1 -62 -13 -7 -8 -16 -15 -21 -15 -5 0 -9 226 -9 515 l0
515 192 0 c190 0 191 0 173 -20z"/>
</g>
</svg>
