<?xml version="1.0" standalone="no"?>
<!DOCTYPE svg PUBLIC "-//W3C//DTD SVG 20010904//EN"
 "http://www.w3.org/TR/2001/REC-SVG-20010904/DTD/svg10.dtd">
<svg version="1.0" xmlns="http://www.w3.org/2000/svg"
 width="300.000000pt" height="300.000000pt" viewBox="0 0 300.000000 300.000000"
 preserveAspectRatio="xMidYMid meet">
<metadata>
Created by potrace 1.10, written by Peter Selinger 2001-2011
</metadata>
<g transform="translate(0.000000,300.000000) scale(0.100000,-0.100000)"
fill="#4479FB" stroke="none">
<path d="M13 2984 c-2 -7 -5 -680 -6 -1495 l-2 -1484 1492 0 1492 0 3 1490 c2
820 3 1491 2 1492 0 2 -670 4 -1489 5 -1113 2 -1489 0 -1492 -8z m1147 -117
c0 -1 -232 -234 -515 -517 l-515 -515 0 518 0 517 515 0 c283 0 515 -1 515 -3z
m1620 0 c0 -1 -596 -598 -1325 -1327 l-1325 -1325 0 729 0 730 597 598 598
598 727 0 c401 0 728 -1 728 -3z m-507 -2139 l-597 -598 -731 0 -730 0 1325
1325 1325 1325 3 -727 2 -727 -597 -598z m597 -83 l0 -515 -517 0 -518 0 515
515 c283 283 516 515 517 515 2 0 3 -232 3 -515z"/>
</g>
</svg>
