<?xml version="1.0" standalone="no"?>
<!DOCTYPE svg PUBLIC "-//W3C//DTD SVG 20010904//EN"
 "http://www.w3.org/TR/2001/REC-SVG-20010904/DTD/svg10.dtd">
<svg version="1.0" xmlns="http://www.w3.org/2000/svg"
 width="300.000000pt" height="300.000000pt" viewBox="0 0 300.000000 300.000000"
 preserveAspectRatio="xMidYMid meet">
<metadata>
Created by potrace 1.10, written by Peter Selinger 2001-2011
</metadata>
<g transform="translate(0.000000,300.000000) scale(0.100000,-0.100000)"
fill="#4479fb" stroke="none">
<path d="M13 2984 c-2 -7 -5 -680 -6 -1495 l-2 -1484 1492 0 1492 0 3 1490 c2
820 3 1491 2 1492 0 2 -670 4 -1489 5 -1113 2 -1489 0 -1492 -8z m1147 -117
c0 -1 -232 -234 -515 -517 l-515 -515 0 518 0 517 515 0 c283 0 515 -1 515 -3z
m1183 -2069 l-527 -528 -731 0 -730 0 1255 1255 1255 1255 3 -727 2 -726 -527
-529z m297 1929 c0 -1 -565 -567 -1255 -1257 l-1255 -1255 0 729 0 729 527
528 527 529 728 0 c400 0 728 -1 728 -3z m230 -2082 l0 -515 -517 0 -518 0
515 515 c283 283 516 515 517 515 2 0 3 -232 3 -515z"/>
</g>
</svg>
