<?xml version="1.0" encoding="UTF-8" standalone="no"?>
<svg
   version="1.0"
   width="300.000000pt"
   height="300.000000pt"
   viewBox="0 0 300.000000 300.000000"
   preserveAspectRatio="xMidYMid meet"
   id="svg1"
   sodipodi:docname="param_adaptive cubic.svg"
   inkscape:version="1.3 (0e150ed6c4, 2023-07-21)"
   xmlns:inkscape="http://www.inkscape.org/namespaces/inkscape"
   xmlns:sodipodi="http://sodipodi.sourceforge.net/DTD/sodipodi-0.dtd"
   xmlns="http://www.w3.org/2000/svg"
   xmlns:svg="http://www.w3.org/2000/svg">
  <defs
     id="defs1" />
  <sodipodi:namedview
     id="namedview1"
     pagecolor="#ffffff"
     bordercolor="#4479FB"
     borderopacity="0.25"
     inkscape:showpageshadow="2"
     inkscape:pageopacity="0.0"
     inkscape:pagecheckerboard="0"
     inkscape:deskcolor="#d1d1d1"
     inkscape:document-units="pt"
     inkscape:zoom="2.09"
     inkscape:cx="200.23923"
     inkscape:cy="202.63158"
     inkscape:window-width="1920"
     inkscape:window-height="1009"
     inkscape:window-x="-8"
     inkscape:window-y="-8"
     inkscape:window-maximized="1"
     inkscape:current-layer="g1" />
  <metadata
     id="metadata1">&#10;Created by potrace 1.10, written by Peter Selinger 2001-2011&#10;</metadata>
  <g
     transform="translate(0.000000,300.000000) scale(0.100000,-0.100000)"
     fill="#4479FB"
     stroke="none"
     id="g1">
    <path
       style="display:inline;fill:none;fill-rule:evenodd;stroke:#999999;stroke-width:84.99999998;stroke-linecap:butt;stroke-linejoin:miter;stroke-dasharray:none;stroke-opacity:0.8"
       d="M 2922.9849,1156.867 2685.6418,1027.1363"
       id="path6-7"
       inkscape:connector-type="polyline"
       inkscape:connector-curvature="0" />
    <path
       style="fill:none;fill-rule:evenodd;stroke:#999999;stroke-width:85;stroke-linecap:butt;stroke-linejoin:miter;stroke-dasharray:none;stroke-opacity:0.8"
       d="M 2515.5503,1316.9857 V 889.95218"
       id="path10"
       inkscape:connector-type="polyline"
       inkscape:connector-curvature="0" />
    <path
       style="display:inline;fill:none;fill-rule:evenodd;stroke:#999999;stroke-width:85;stroke-linecap:butt;stroke-linejoin:miter;stroke-dasharray:none;stroke-opacity:0.8"
       d="M 2131.5789,696.17225 2515.5503,893.5407"
       id="path11"
       inkscape:connector-type="polyline"
       inkscape:connector-curvature="0" />
    <path
       style="display:inline;fill:none;fill-rule:evenodd;stroke:#999999;stroke-width:85;stroke-linecap:butt;stroke-linejoin:miter;stroke-dasharray:none;stroke-opacity:0.8"
       d="M 2903.11,706.9378 2519.1388,893.5407"
       id="path12"
       inkscape:connector-type="polyline"
       inkscape:connector-curvature="0" />
    <path
       style="fill:none;fill-rule:evenodd;stroke:#999999;stroke-width:85;stroke-linecap:butt;stroke-linejoin:miter;stroke-dasharray:none;stroke-opacity:0.8"
       d="M 479.47736,1305.5742 V 878.54066"
       id="path10-7"
       inkscape:connector-type="polyline"
       inkscape:connector-curvature="0" />
    <path
       style="display:inline;fill:none;fill-rule:evenodd;stroke:#999999;stroke-width:85;stroke-linecap:butt;stroke-linejoin:miter;stroke-dasharray:none;stroke-opacity:0.8"
       d="M 95.505955,684.76071 479.47736,882.12916"
       id="path11-3"
       inkscape:connector-type="polyline"
       inkscape:connector-curvature="0" />
    <path
       style="display:inline;fill:none;fill-rule:evenodd;stroke:#999999;stroke-width:85;stroke-linecap:butt;stroke-linejoin:miter;stroke-dasharray:none;stroke-opacity:0.8"
       d="m 867.03706,695.52626 -383.9712,186.6029"
       id="path12-8"
       inkscape:connector-type="polyline"
       inkscape:connector-curvature="0" />
    <path
       style="display:inline;fill:none;fill-rule:evenodd;stroke:#999999;stroke-width:84.99999998;stroke-linecap:butt;stroke-linejoin:miter;stroke-opacity:0.80000001;stroke-dasharray:none"
       d="M 785.97788,1940.9594 472.32472,2110.7011"
       id="path7"
       inkscape:connector-type="polyline"
       inkscape:connector-curvature="0" />
    <path
       style="fill:none;fill-rule:evenodd;stroke:#999999;stroke-width:84.99999998;stroke-linecap:butt;stroke-linejoin:miter;stroke-opacity:0.80000001;stroke-dasharray:none"
       d="m 476.01476,2110.7011 3.69004,276.7528"
       id="path8"
       inkscape:connector-type="polyline"
       inkscape:connector-curvature="0" />
    <path
       style="display:inline;fill:none;fill-rule:evenodd;stroke:#999999;stroke-width:84.99999998;stroke-linecap:butt;stroke-linejoin:miter;stroke-opacity:0.80000001;stroke-dasharray:none"
       d="m 225.09225,1918.8192 250.92251,188.1919"
       id="path9"
       inkscape:connector-type="polyline"
       inkscape:connector-curvature="0" />
    <path
       style="display:inline;fill:none;fill-rule:evenodd;stroke:#999999;stroke-width:85;stroke-linecap:butt;stroke-linejoin:miter;stroke-dasharray:none;stroke-opacity:0.8"
       d="M 2800.2852,1915.4748 2486.632,2085.2165"
       id="path7-8"
       inkscape:connector-type="polyline"
       inkscape:connector-curvature="0" />
    <path
       style="fill:none;fill-rule:evenodd;stroke:#999999;stroke-width:85;stroke-linecap:butt;stroke-linejoin:miter;stroke-dasharray:none;stroke-opacity:0.8"
       d="m 2490.3221,2085.2165 3.69,276.7528"
       id="path8-6"
       inkscape:connector-type="polyline"
       inkscape:connector-curvature="0" />
    <path
       style="display:inline;fill:none;fill-rule:evenodd;stroke:#999999;stroke-width:85;stroke-linecap:butt;stroke-linejoin:miter;stroke-dasharray:none;stroke-opacity:0.8"
       d="m 2239.3995,1893.3346 250.9226,188.1919"
       id="path9-6"
       inkscape:connector-type="polyline"
       inkscape:connector-curvature="0" />
    <path
       style="display:inline;fill:none;fill-rule:evenodd;stroke:#999999;stroke-width:87.3261;stroke-linecap:butt;stroke-linejoin:miter;stroke-dasharray:none;stroke-opacity:0.8"
       d="M 1782.9922,115.8515 1493.4947,309.95949"
       id="path7-8-0"
       inkscape:connector-type="polyline"
       inkscape:connector-curvature="0" />
    <path
       style="fill:none;fill-rule:evenodd;stroke:#999999;stroke-width:89.5926;stroke-linecap:butt;stroke-linejoin:miter;stroke-dasharray:none;stroke-opacity:0.8"
       d="m 1495.8849,297.52708 3.6652,309.54787"
       id="path8-6-9"
       inkscape:connector-type="polyline"
       inkscape:connector-curvature="0" />
    <path
       style="display:inline;fill:none;fill-rule:evenodd;stroke:#999999;stroke-width:85;stroke-linecap:butt;stroke-linejoin:miter;stroke-dasharray:none;stroke-opacity:0.8"
       d="m 1244.9499,120.24856 250.9226,188.1918"
       id="path9-6-6"
       inkscape:connector-type="polyline"
       inkscape:connector-curvature="0" />
    <path
       style="display:inline;fill:none;fill-rule:evenodd;stroke:#999999;stroke-width:84.99999998;stroke-linecap:butt;stroke-linejoin:miter;stroke-dasharray:none;stroke-opacity:0.8"
       d="m 1848.5894,2457.0689 -381.4358,198.5536"
       id="path7-8-0-8"
       inkscape:connector-type="polyline"
       inkscape:connector-curvature="0" />
    <path
       style="fill:none;fill-rule:evenodd;stroke:#999999;stroke-width:84.99999998;stroke-linecap:butt;stroke-linejoin:miter;stroke-dasharray:none;stroke-opacity:0.8"
       d="m 1470.3029,2642.9053 4.8292,316.6373"
       id="path8-6-9-7"
       inkscape:connector-type="polyline"
       inkscape:connector-curvature="0" />
    <path
       style="display:inline;fill:none;fill-rule:evenodd;stroke:#999999;stroke-width:84.99999998;stroke-linecap:butt;stroke-linejoin:miter;stroke-dasharray:none;stroke-opacity:0.8"
       d="m 1139.6762,2461.5667 330.6103,192.5019"
       id="path9-6-6-0"
       inkscape:connector-type="polyline"
       inkscape:connector-curvature="0" />
    <path
       style="display:inline;fill:none;fill-rule:evenodd;stroke:#999999;stroke-width:8.5;stroke-linecap:butt;stroke-linejoin:miter;stroke-dasharray:none;stroke-opacity:0.8"
       d="M 149.4465,152.02952 V 60.516606"
       id="path4"
       inkscape:connector-type="polyline"
       inkscape:connector-curvature="0"
       transform="matrix(9.9999998,0,0,-9.9999998,0,3000)" />
    <path
       style="display:inline;fill:none;fill-rule:evenodd;stroke:#999999;stroke-width:8.5;stroke-linecap:butt;stroke-linejoin:miter;stroke-dasharray:none;stroke-opacity:0.8"
       d="m 147.60148,148.70849 81.54982,47.23247"
       id="path5"
       inkscape:connector-type="polyline"
       inkscape:connector-curvature="0"
       transform="matrix(9.9999998,0,0,-9.9999998,0,3000)" />
    <path
       style="display:inline;fill:none;fill-rule:evenodd;stroke:#999999;stroke-width:85;stroke-linecap:butt;stroke-linejoin:miter;stroke-dasharray:none;stroke-opacity:0.8"
       d="m 2094.2074,578.15143 815.4982,-472.3247"
       id="path5-7"
       inkscape:connector-type="polyline"
       inkscape:connector-curvature="0" />
    <path
       style="display:inline;fill:none;fill-rule:evenodd;stroke:#999999;stroke-width:85;stroke-linecap:butt;stroke-linejoin:miter;stroke-dasharray:none;stroke-opacity:0.8"
       d="M 238.69304,2920.0892 1054.1912,2447.7645"
       id="path5-8"
       inkscape:connector-type="polyline"
       inkscape:connector-curvature="0" />
    <path
       style="display:inline;fill:none;fill-rule:evenodd;stroke:#999999;stroke-width:92.2818;stroke-linecap:butt;stroke-linejoin:miter;stroke-dasharray:none;stroke-opacity:0.8"
       d="M 95.423001,1120.2738 301.43238,1003.1616"
       id="path5-5"
       inkscape:connector-type="polyline"
       inkscape:connector-curvature="0" />
    <path
       style="display:inline;fill:none;fill-rule:evenodd;stroke:#999999;stroke-width:8.5;stroke-linecap:butt;stroke-linejoin:miter;stroke-dasharray:none;stroke-opacity:0.8"
       d="m 151.29152,149.07749 -77.121777,49.4465"
       id="path6"
       inkscape:connector-type="polyline"
       inkscape:connector-curvature="0"
       transform="matrix(9.9999998,0,0,-9.9999998,0,3000)" />
    <path
       style="display:inline;fill:none;fill-rule:evenodd;stroke:#999999;stroke-width:85;stroke-linecap:butt;stroke-linejoin:miter;stroke-dasharray:none;stroke-opacity:0.8"
       d="M 902.42225,605.20306 131.2045,110.73806"
       id="path6-03"
       inkscape:connector-type="polyline"
       inkscape:connector-curvature="0" />
    <path
       style="display:inline;fill:none;fill-rule:evenodd;stroke:#999999;stroke-width:85;stroke-linecap:butt;stroke-linejoin:miter;stroke-dasharray:none;stroke-opacity:0.8"
       d="M 2697.6137,2919.7604 1926.396,2425.2954"
       id="path6-0"
       inkscape:connector-type="polyline"
       inkscape:connector-curvature="0" />
    <path
       d="M0 1495 l0 -1495 1495 0 1495 0 0 1495 0 1495 -1495 0 -1495 0 0 -1495z m600 1330 l0 -45 288 0 c159 0 291 -3 294 -6 3 -3 -8 -29 -26 -58 -17 -29 -56 -97 -86 -149 l-55 -96 -447 -1 -448 0 0 200 0 200 240 0 240 0 0 -45z m1069 -47 c58 -105 88 -158 137 -241 19 -32 34 -60 34 -63 0 -2 -153 -4 -340 -4 -204 0 -340 4 -340 9 0 5 13 31 29 58 16 26 66 112 112 191 l83 142 117 0 116 0 52 -92z m1211 -108 l0 -200 -451 2 -451 3 -23 40 c-12 22 -50 88 -84 146 -33 59 -61 110 -61 113 0 3 133 6 295 6 l295 0 0 45 0 45 240 0 240 0 0 -200z m-1940 -325 c0 -2 -13 -26 -29 -53 -15 -26 -39 -68 -53 -93 -14 -24 -41 -71 -60 -104 -86 -148 -235 -406 -274 -473 l-42 -73 -35 58 c-19 32 -54 92 -77 133 -24 41 -59 102 -78 135 -19 33 -43 75 -53 93 -17 28 -19 55 -19 207 l0 175 360 0 c198 0 360 -2 360 -5z m1025 -82 c28 -47 62 -107 76 -132 14 -25 69 -120 121 -211 53 -91 104 -181 115 -200 11 -19 52 -90 92 -157 39 -67 71 -127 71 -133 0 -6 -36 -74 -80 -151 -44 -77 -91 -157 -103 -178 -12 -21 -68 -119 -125 -217 l-103 -179 -492 2 c-271 1 -510 3 -532 3 -41 0 -41 0 -91 87 -28 49 -121 210 -207 360 l-157 272 96 168 c53 92 119 206 147 253 27 47 59 101 70 120 10 19 45 80 77 135 32 55 76 133 99 173 l42 72 417 0 417 0 50 -87z m815 -84 l0 -170 -101 -177 c-56 -97 -111 -193 -121 -212 -46 -79 -36 -85 -138 92 -52 90 -115 199 -141 243 -135 230 -219 378 -219 386 0 5 158 9 360 9 l360 0 0 -171z m-2620 -314 c0 -3 16 -29 35 -59 19 -30 35 -57 35 -59 0 -3 17 -34 38 -68 22 -35 50 -84 64 -109 14 -25 38 -67 53 -93 l27 -48 -132 -232 c-74 -128 -139 -241 -147 -252 -11 -16 -13 61 -13 485 l0 505 20 -33 c11 -18 20 -35 20 -37z m2720 -437 c0 -305 -4 -498 -9 -493 -16 17 -281 482 -281 494 0 6 43 87 96 179 54 92 106 183 116 202 26 46 72 120 76 120 1 0 2 -226 2 -502z m-231 -350 l131 -227 0 -70 0 -71 -306 0 c-168 0 -303 3 -301 8 19 33 214 372 270 470 39 67 71 121 72 120 1 -2 61 -105 134 -230z m-2001 -56 c89 -153 164 -286 168 -295 7 -19 15 -18 -171 -18 -52 0 -169 0 -260 1 l-165 0 0 74 0 73 106 184 c58 101 116 201 128 221 11 21 24 38 27 38 3 0 79 -125 167 -278z m356 -617 c58 -101 106 -187 106 -190 0 -3 -133 -5 -295 -5 l-295 0 0 -50 0 -50 -197 2 -198 3 -3 238 -2 237 388 0 389 0 107 -185z m946 165 c-35 -66 -189 -326 -228 -387 l-47 -73 -177 0 -177 0 -24 32 c-27 37 -257 431 -257 442 0 3 207 6 460 6 460 0 461 0 450 -20z m928 -217 l-3 -238 -202 -3 -203 -2 0 50 0 50 -290 0 c-167 0 -290 4 -290 9 0 8 155 284 196 349 l14 22 390 0 390 0 -2 -237z"
       id="path1"
       style="stroke-width:0.08000003;stroke-dasharray:none" />
  </g>
</svg>
