<?xml version="1.0" standalone="no"?>
<!DOCTYPE svg PUBLIC "-//W3C//DTD SVG 20010904//EN"
 "http://www.w3.org/TR/2001/REC-SVG-20010904/DTD/svg10.dtd">
<svg version="1.0" xmlns="http://www.w3.org/2000/svg"
 width="300.000000pt" height="300.000000pt" viewBox="0 0 300.000000 300.000000"
 preserveAspectRatio="xMidYMid meet">
<metadata>
Created by potrace 1.10, written by Peter Selinger 2001-2011
</metadata>
<g transform="translate(0.000000,300.000000) scale(0.100000,-0.100000)"
fill="#4479FB" stroke="none">
<path d="M10 1495 l0 -1495 1495 0 1495 0 0 1495 0 1495 -1495 0 -1495 0 0
-1495z m358 1363 c-13 -11 -98 -300 -132 -450 -5 -21 -14 -29 -42 -34 -19 -3
-42 -13 -49 -21 -13 -13 -15 19 -15 251 l0 266 127 0 c103 0 124 -2 111 -12z
m1802 4 c0 -5 -55 -25 -122 -46 -193 -59 -361 -108 -383 -113 -15 -3 -43 19
-105 81 l-85 86 348 0 c191 0 347 -4 347 -8z m-783 -174 l92 -93 -24 -90 c-12
-49 -30 -117 -40 -150 -9 -33 -28 -105 -42 -160 -14 -55 -28 -103 -31 -107 -4
-4 -52 -19 -107 -33 -55 -15 -158 -43 -230 -62 -71 -19 -141 -37 -154 -40 -20
-5 -50 21 -210 181 l-188 187 59 217 c32 119 60 223 63 230 3 9 85 12 362 12
l358 0 92 -92z m1393 -63 c0 -118 -3 -155 -13 -155 -7 0 -82 70 -167 155
l-155 155 168 0 167 0 0 -155z m-373 -137 c101 -101 183 -190 183 -199 0 -9
-9 -45 -19 -80 -10 -35 -41 -146 -67 -246 -35 -131 -53 -183 -63 -183 -8 0
-28 -4 -45 -10 -17 -5 -125 -35 -240 -66 l-209 -55 -189 188 -189 189 16 59
c9 33 27 103 41 155 60 226 76 286 84 294 5 4 32 14 62 21 29 8 80 21 113 30
33 9 67 18 75 20 8 2 65 17 125 34 61 16 117 30 125 30 8 1 97 -81 197 -181z
m-1935 -515 c104 -103 188 -194 188 -202 0 -8 -7 -37 -15 -65 -8 -28 -38 -136
-66 -241 -28 -104 -52 -191 -54 -193 -2 -2 -27 -10 -56 -18 -105 -29 -239 -64
-244 -64 -3 0 -5 213 -5 473 l0 473 28 11 c15 6 29 11 32 12 3 1 89 -83 192
-186z m2308 -125 l0 -223 -47 47 -47 47 11 48 c17 78 77 303 80 303 2 0 3
-100 3 -222z m-1188 -175 l188 -188 -55 -205 c-31 -113 -62 -228 -71 -257 -18
-60 8 -48 -274 -122 -85 -23 -169 -46 -186 -51 -17 -6 -39 -10 -50 -10 -12 0
-91 72 -203 184 l-184 185 16 68 c22 97 103 393 114 422 8 21 33 30 219 80
115 31 227 62 249 68 22 6 42 11 45 12 3 0 89 -83 192 -186z m1056 -246 l133
-133 -4 -279 c-2 -154 -7 -294 -11 -312 -8 -29 -13 -33 -88 -53 -44 -12 -88
-23 -98 -25 -9 -2 -48 -12 -86 -23 -38 -11 -111 -30 -162 -43 l-92 -24 -187
187 -187 187 58 218 c85 314 76 292 111 302 69 21 460 128 475 130 3 1 65 -59
138 -132z m-1874 -576 l188 -188 -16 -59 c-9 -32 -29 -108 -46 -169 -16 -60
-35 -134 -41 -162 l-12 -53 -314 0 -313 0 2 363 3 362 170 47 c94 26 175 47
180 47 6 1 95 -84 199 -188z m1117 -297 l187 -186 -15 -52 c-8 -28 -17 -61
-20 -73 l-5 -23 -475 0 -475 0 6 27 c19 81 90 343 95 352 4 6 41 20 82 30 40
11 101 27 134 36 145 40 271 73 285 74 8 1 99 -83 201 -185z m889 -224 l0
-110 -251 0 c-235 0 -251 1 -244 18 3 9 9 29 12 44 4 23 14 29 72 44 54 15
399 110 409 113 1 1 2 -48 2 -109z"/>
</g>
</svg>
