<?xml version="1.0" standalone="no"?>
<!DOCTYPE svg PUBLIC "-//W3C//DTD SVG 20010904//EN"
 "http://www.w3.org/TR/2001/REC-SVG-20010904/DTD/svg10.dtd">
<svg version="1.0" xmlns="http://www.w3.org/2000/svg"
 width="300.000000pt" height="300.000000pt" viewBox="0 0 300.000000 300.000000"
 preserveAspectRatio="xMidYMid meet">
<metadata>
Created by potrace 1.10, written by Peter Selinger 2001-2011
</metadata>
<g transform="translate(0.000000,300.000000) scale(0.100000,-0.100000)"
fill="#4479FB" stroke="none">
<path d="M37 2993 c-15 -2 -27 -10 -27 -16 0 -7 -1 -678 -3 -1492 l-2 -1480
1492 0 c987 0 1494 3 1495 10 2 6 2 677 0 1493 l-2 1482 -1428 0 c-785 0
-1443 2 -1462 4 -19 2 -47 2 -63 -1z m633 -287 l-165 -165 -50 14 c-188 51
-254 68 -285 74 l-35 6 -3 118 -3 117 353 0 353 0 -165 -164z m427 74 c24 -93
53 -202 78 -295 23 -84 34 -129 32 -131 -1 -1 -47 11 -102 26 -55 16 -179 49
-275 75 -96 26 -177 49 -179 51 -2 2 74 85 170 183 171 177 175 180 214 178
l40 -2 22 -85z m1408 73 c4 -10 18 -61 31 -112 l25 -95 -258 -258 c-206 -206
-262 -258 -278 -253 -11 3 -87 23 -170 45 -82 22 -231 62 -330 88 l-180 49
-38 134 c-21 74 -53 190 -71 259 -19 69 -37 133 -41 143 -7 16 28 17 648 17
614 0 655 -1 662 -17z m220 -43 c-33 -33 -62 -56 -66 -52 -4 4 -13 31 -22 60
l-15 52 81 0 81 0 -59 -60z m144 -437 l-1 -408 -19 65 c-11 36 -35 126 -55
200 -52 197 -74 279 -88 330 l-13 45 86 88 c47 48 87 87 88 87 2 0 3 -183 2
-407z m-2697 138 c13 -5 69 -22 126 -36 56 -15 102 -30 102 -34 0 -3 -61 -67
-135 -141 l-135 -135 0 178 c0 105 4 177 10 177 5 0 19 -4 32 -9z m2468 -161
c5 -19 21 -80 36 -135 14 -55 36 -137 49 -182 22 -81 22 -83 3 -83 -16 0 -138
31 -233 59 -16 5 -94 26 -173 47 l-143 38 208 208 208 208 18 -62 c9 -35 22
-79 27 -98z m-1970 25 c52 -14 111 -29 130 -35 76 -21 220 -59 321 -85 59 -15
111 -30 116 -34 8 -5 85 -277 149 -526 15 -55 30 -110 35 -123 5 -13 9 -31 9
-40 0 -9 -115 -132 -256 -273 l-256 -256 -86 23 c-48 13 -114 30 -147 39 -33
9 -94 25 -135 36 -41 11 -115 31 -165 45 -49 13 -111 29 -138 36 -46 11 -47
13 -63 67 -9 31 -24 70 -33 86 -14 26 -16 76 -19 348 l-3 317 208 205 c126
124 214 202 223 200 8 -2 58 -16 110 -30z m760 -204 c82 -21 232 -61 325 -86
55 -15 121 -33 147 -39 l48 -11 -210 -210 c-137 -137 -211 -204 -214 -194 -10
31 -40 143 -111 414 -14 55 -28 108 -31 118 -6 19 -3 20 46 8z m845 -226 c155
-41 220 -58 340 -90 50 -14 118 -32 152 -41 53 -14 62 -20 66 -42 3 -15 12
-52 21 -82 13 -46 16 -110 14 -375 l-1 -320 -206 -203 -207 -202 -49 14 c-56
16 -138 38 -360 96 -186 49 -285 76 -289 81 -3 5 -106 383 -141 519 -14 58
-31 115 -36 128 -5 13 -9 31 -9 40 0 9 115 132 256 273 254 254 257 257 288
248 17 -6 90 -25 161 -44z m-788 -620 c6 -22 27 -103 48 -180 64 -242 84 -320
80 -323 -4 -4 -109 22 -370 94 -49 13 -114 29 -143 36 l-54 11 208 208 c115
115 211 205 215 201 3 -4 11 -25 16 -47z m-1104 -300 c51 -14 106 -29 122 -34
17 -5 94 -26 173 -47 l143 -38 -208 -208 -208 -208 -18 62 c-24 86 -32 117
-63 233 -14 55 -36 137 -49 183 -27 98 -32 95 108 57z m-177 -255 c46 -174 69
-262 87 -327 l14 -52 -89 -88 -88 -88 1 410 1 410 19 -65 c11 -36 35 -126 55
-200z m904 59 c63 -17 178 -48 255 -68 77 -21 172 -47 210 -56 39 -10 73 -21
77 -24 4 -4 39 -121 77 -261 38 -140 72 -263 76 -273 7 -16 -28 -17 -648 -17
l-655 0 -11 33 c-5 17 -19 68 -31 111 l-22 79 259 259 c205 206 262 258 278
253 11 -3 72 -19 135 -36z m1758 -345 c-4 -3 -261 65 -267 72 -3 2 56 65 129
140 l135 134 3 -171 c1 -95 1 -173 0 -175z m-918 120 c167 -43 395 -107 400
-111 2 -2 -77 -85 -175 -183 -155 -155 -184 -180 -211 -180 l-30 0 -58 208
c-32 114 -62 218 -66 232 -5 14 -11 37 -14 52 -6 26 -5 26 26 17 18 -5 76 -21
128 -35z m745 -199 c55 -15 117 -32 138 -37 l37 -10 0 -114 0 -114 -352 0
-353 0 163 163 164 164 51 -13 c29 -6 97 -24 152 -39z m-2330 -242 l7 -33 -78
0 -78 0 59 60 60 61 11 -28 c7 -15 15 -43 19 -60z"/>
</g>
</svg>
