<?xml version="1.0" standalone="no"?>
<!DOCTYPE svg PUBLIC "-//W3C//DTD SVG 20010904//EN"
 "http://www.w3.org/TR/2001/REC-SVG-20010904/DTD/svg10.dtd">
<svg version="1.0" xmlns="http://www.w3.org/2000/svg"
 width="300.000000pt" height="300.000000pt" viewBox="0 0 300.000000 300.000000"
 preserveAspectRatio="xMidYMid meet">
<metadata>
Created by potrace 1.10, written by Peter Selinger 2001-2011
</metadata>
<g transform="translate(0.000000,300.000000) scale(0.100000,-0.100000)"
fill="#4479FB" stroke="none">
<path d="M10 1495 l0 -1495 1495 0 1495 0 0 1495 0 1495 -1495 0 -1495 0 0
-1495z m325 1352 c-22 -18 -76 -67 -121 -109 -44 -43 -83 -78 -87 -78 -9 0 -9
205 0 213 3 4 61 7 127 6 l121 0 -40 -32z m2545 -224 c-1 -194 -3 -253 -12
-238 -72 130 -214 304 -334 409 -43 38 -80 73 -82 77 -2 5 93 9 212 9 l216 0
0 -257z m-481 130 c105 -81 270 -269 349 -401 l32 -52 0 -706 0 -706 -36 -60
c-55 -94 -113 -165 -220 -268 -151 -144 -307 -240 -497 -305 l-102 -35 -333 0
-333 0 -96 36 c-426 159 -713 484 -804 908 -24 115 -26 342 -3 465 67 357 325
678 654 812 146 59 220 73 395 73 241 1 371 -36 560 -160 189 -123 329 -317
391 -540 36 -131 38 -315 5 -439 -45 -166 -135 -315 -257 -422 -68 -60 -70
-62 -161 -110 -121 -64 -182 -78 -348 -78 -140 0 -155 2 -229 29 -208 75 -349
211 -422 406 -24 67 -28 89 -28 200 -1 106 3 135 22 192 24 69 58 126 116 193
l35 40 185 -185 186 -185 42 43 43 42 -205 205 c-200 199 -207 205 -247 205
-35 0 -47 -7 -96 -53 -173 -167 -246 -425 -187 -662 37 -146 99 -252 216 -368
145 -146 349 -227 567 -227 199 0 372 58 539 182 154 113 280 299 334 493 44
156 53 278 29 415 -49 291 -186 520 -410 688 -451 337 -1084 286 -1499 -123
-179 -176 -267 -342 -355 -665 -6 -23 -9 128 -10 457 l-1 493 48 46 c26 26 76
71 111 100 l65 54 960 0 959 0 36 -27z m-2134 -1698 c36 -139 134 -337 223
-450 171 -220 373 -367 632 -461 l65 -23 -132 -1 -133 0 0 50 0 50 -350 0
-350 0 1 498 c1 283 5 484 9 467 5 -16 20 -75 35 -130z m2615 -590 l0 -345
-437 0 -438 1 60 20 c310 104 585 319 763 596 26 40 48 73 50 73 1 0 2 -155 2
-345z"/>
</g>
</svg>
