<?xml version="1.0" standalone="no"?>
<!DOCTYPE svg PUBLIC "-//W3C//DTD SVG 20010904//EN"
 "http://www.w3.org/TR/2001/REC-SVG-20010904/DTD/svg10.dtd">
<svg version="1.0" xmlns="http://www.w3.org/2000/svg"
 width="300.000000pt" height="300.000000pt" viewBox="0 0 300.000000 300.000000"
 preserveAspectRatio="xMidYMid meet">
<metadata>
Created by potrace 1.10, written by Peter Selinger 2001-2011
</metadata>
<g transform="translate(0.000000,300.000000) scale(0.100000,-0.100000)"
fill="#4479FB" stroke="none">
<path d="M10 1500 l0 -1490 1490 0 1490 0 0 1490 0 1490 -1490 0 -1490 0 0
-1490z m1690 1372 c0 -4 -22 -30 -50 -57 -45 -45 -50 -53 -50 -95 l0 -45 180
-180 180 -180 -163 -163 -162 -162 -365 365 -365 365 80 80 80 80 317 0 c175
0 318 -4 318 -8z m790 -27 c-28 -29 -36 -33 -49 -22 -18 14 -51 48 -51 54 0 1
30 3 67 3 l67 0 -34 -35z m-1710 -118 l0 -52 403 -403 402 -402 50 0 50 0 202
202 c266 266 264 222 18 468 l-185 184 27 28 27 28 266 0 266 0 49 -50 c45
-46 53 -50 95 -50 42 0 50 4 95 50 l50 51 90 -3 90 -3 3 -555 2 -555 -143 143
-143 143 -45 -2 c-43 -2 -48 -7 -246 -203 l-203 -200 0 -46 0 -45 390 -390
390 -390 -2 -225 -3 -225 -95 -3 -95 -3 -50 51 c-41 41 -55 50 -85 50 -30 0
-44 -9 -85 -50 l-49 -50 -358 0 -358 0 0 -50 0 -50 -100 0 -100 0 0 50 0 50
-272 0 -273 0 190 190 190 190 185 -185 c169 -169 188 -185 220 -185 32 0 52
17 242 207 192 191 208 211 208 243 0 33 -36 71 -617 652 -583 583 -620 618
-653 618 -32 0 -51 -16 -237 -202 -174 -175 -203 -208 -209 -242 l-7 -38 187
-187 186 -186 -260 -260 -260 -260 0 730 0 730 115 115 c113 113 115 116 115
160 0 44 -2 47 -115 160 l-115 115 0 91 c0 50 3 94 7 97 3 4 129 7 280 7 l273
0 0 -53z m-548 -314 l98 -98 -97 -97 c-54 -54 -101 -98 -105 -98 -5 0 -8 88
-8 195 0 107 3 195 7 195 4 0 52 -44 105 -97z m1161 -1161 l567 -567 -163
-163 -162 -162 -180 180 -180 180 -50 0 -51 0 -298 -300 -299 -300 -226 2
-226 3 -3 90 -2 90 375 375 c350 350 375 377 375 410 0 32 -16 51 -187 222
l-188 188 160 160 c88 88 162 160 165 160 3 0 260 -255 573 -568z m1487 -174
c0 -175 -3 -318 -7 -318 -5 0 -173 165 -375 367 l-368 368 162 162 163 163
212 -212 213 -213 0 -317z m-372 -953 c-3 -3 -32 -5 -64 -3 l-59 3 34 33 35
33 30 -30 c16 -17 27 -33 24 -36z"/>
</g>
</svg>
