<?xml version="1.0" standalone="no"?>
<!DOCTYPE svg PUBLIC "-//W3C//DTD SVG 20010904//EN"
 "http://www.w3.org/TR/2001/REC-SVG-20010904/DTD/svg10.dtd">
<svg version="1.0" xmlns="http://www.w3.org/2000/svg"
 width="300.000000pt" height="300.000000pt" viewBox="0 0 300.000000 300.000000"
 preserveAspectRatio="xMidYMid meet">
<metadata>
Created by potrace 1.10, written by Peter Selinger 2001-2011
</metadata>
<g transform="translate(0.000000,300.000000) scale(0.100000,-0.100000)"
fill="#4479FB" stroke="none">
<path d="M0 1495 l0 -1495 1495 0 1495 0 0 1495 0 1495 -1495 0 -1495 0 0
-1495z m302 1362 c-18 -19 -22 -35 -22 -85 l0 -62 -62 0 c-43 0 -67 -5 -80
-17 -17 -15 -18 -12 -18 85 l0 102 102 0 101 0 -21 -23z m1668 15 c0 -4 -106
-113 -235 -242 l-235 -235 -235 235 c-129 129 -235 238 -235 242 0 5 212 8
470 8 259 0 470 -3 470 -8z m908 -94 c3 -96 -3 -113 -28 -83 -9 10 -32 15 -76
15 l-64 0 0 64 c0 44 -5 67 -15 76 -30 25 -13 31 83 28 l97 -3 3 -97z m-1678
-253 l255 -255 45 0 45 0 232 232 233 233 0 -325 0 -324 37 -38 37 -38 330 0
331 0 -233 -233 -232 -232 0 -50 0 -50 237 -237 238 -238 -345 0 -344 0 -28
-27 -28 -27 0 -335 0 -336 -238 238 c-230 230 -238 237 -277 237 -39 0 -47 -7
-277 -237 l-238 -238 0 336 0 335 -28 27 -28 27 -339 0 -340 0 238 238 237
237 0 45 0 45 -237 237 -238 238 327 0 327 0 275 -275 c151 -151 279 -275 284
-275 4 0 25 17 45 38 l37 37 -295 295 -295 295 -365 3 -365 3 0 229 0 230 63
0 c56 0 66 3 90 28 24 25 27 36 27 95 l0 67 273 0 272 0 255 -255z m1390 193
c0 -56 3 -65 32 -95 29 -30 37 -33 95 -33 l63 0 0 -230 0 -230 -320 0 -320 0
0 325 0 325 225 0 225 0 0 -62z m-2000 -1223 c0 -6 -106 -116 -235 -245 l-235
-235 0 480 0 480 235 -235 c129 -129 235 -239 235 -245z m2285 -464 c-3 -3
-111 100 -240 229 l-235 235 237 238 238 237 3 -466 c1 -257 0 -470 -3 -473z
m-2015 -491 l0 -320 -230 0 -230 0 0 59 c0 53 -3 63 -31 90 -27 28 -37 31 -90
31 l-59 0 0 230 0 230 320 0 320 0 0 -320z m1918 88 l2 -228 -62 0 c-56 0 -65
-3 -95 -32 -30 -29 -33 -37 -33 -90 l0 -58 -225 0 -225 0 0 320 0 320 318 -2
317 -3 3 -227z m-1038 -273 l235 -235 -475 0 -475 0 235 235 c129 129 237 235
240 235 3 0 111 -106 240 -235z m-1517 -75 l57 0 0 -57 c0 -44 5 -62 22 -80
l21 -23 -101 0 -102 0 0 102 0 101 23 -21 c18 -17 36 -22 80 -22z m2657 -65
l0 -95 -102 0 c-97 0 -100 1 -85 18 12 13 17 37 17 80 l0 62 64 0 c44 0 67 5
76 15 24 29 30 14 30 -80z"/>
</g>
</svg>
