<?xml version="1.0" encoding="UTF-8" standalone="no"?>
<svg
   version="1.0"
   width="300.000000pt"
   height="300.000000pt"
   viewBox="0 0 300.000000 300.000000"
   preserveAspectRatio="xMidYMid meet"
   id="svg1"
   sodipodi:docname="param_gyroid.svg"
   xml:space="preserve"
   inkscape:version="1.3 (0e150ed6c4, 2023-07-21)"
   xmlns:inkscape="http://www.inkscape.org/namespaces/inkscape"
   xmlns:sodipodi="http://sodipodi.sourceforge.net/DTD/sodipodi-0.dtd"
   xmlns="http://www.w3.org/2000/svg"
   xmlns:svg="http://www.w3.org/2000/svg"><defs
     id="defs1" /><sodipodi:namedview
     id="namedview1"
     pagecolor="#ffffff"
     bordercolor="#4479FB"
     borderopacity="0.25"
     inkscape:showpageshadow="2"
     inkscape:pageopacity="0.0"
     inkscape:pagecheckerboard="0"
     inkscape:deskcolor="#d1d1d1"
     inkscape:document-units="pt"
     inkscape:zoom="2.0325"
     inkscape:cx="200"
     inkscape:cy="200"
     inkscape:window-width="1920"
     inkscape:window-height="1009"
     inkscape:window-x="-8"
     inkscape:window-y="-8"
     inkscape:window-maximized="1"
     inkscape:current-layer="g1" /><metadata
     id="metadata1">&#10;Created by potrace 1.10, written by Peter Selinger 2001-2011&#10;</metadata><g
     transform="translate(0.000000,300.000000) scale(0.100000,-0.100000)"
     fill="#4479FB"
     stroke="none"
     id="g1"><path
       d="M0 1495 l0 -1495 1502 0 1501 0 -6 128 c-4 70 -7 742 -7 1495 l0 1367 -1495 0 -1495 0 0 -1495z m1580 1377 c0 -5 -7 -23 -16 -41 -15 -29 -14 -33 4 -64 30 -49 62 -155 62 -206 0 -50 -19 -120 -45 -170 -9 -17 -61 -79 -115 -136 -158 -166 -205 -254 -217 -402 -13 -161 31 -258 198 -438 177 -190 215 -313 148 -477 -18 -42 -53 -88 -142 -185 -126 -137 -164 -198 -193 -313 -11 -43 -15 -90 -12 -142 l5 -78 -289 0 -288 0 -16 38 c-23 53 -44 138 -44 175 0 34 18 99 44 157 8 19 63 87 122 150 158 170 196 239 213 388 17 160 -28 267 -184 432 -144 153 -150 162 -181 278 -18 67 -18 105 1 166 23 77 55 123 163 237 142 151 184 231 201 378 9 85 -6 183 -35 228 -8 12 -14 25 -14 28 0 3 142 5 315 5 173 0 315 -4 315 -8z m1298 -79 l3 -83 -51 0 -50 0 0 -335 c0 -305 -2 -342 -20 -407 -26 -96 -27 -215 0 -300 19 -59 20 -92 20 -592 0 -506 -1 -532 -21 -598 -16 -54 -20 -91 -17 -164 l3 -94 -287 0 -287 0 -27 58 c-23 49 -27 70 -28 152 0 86 2 100 28 150 16 31 66 93 113 141 104 107 150 168 184 244 50 114 61 216 35 326 -20 82 -58 143 -155 244 -109 113 -146 161 -179 233 -22 49 -26 71 -26 152 -1 132 12 154 183 335 37 39 78 86 92 105 60 82 99 201 99 300 0 69 -26 178 -48 203 -15 17 -5 17 209 15 l224 -3 3 -82z m-2002 -48 c3 -19 4 -70 2 -112 -6 -125 -41 -185 -203 -353 -129 -133 -165 -210 -165 -357 0 -169 44 -264 196 -423 163 -170 179 -202 172 -342 -7 -132 -30 -176 -174 -330 -153 -164 -187 -228 -192 -370 -3 -62 0 -116 8 -146 14 -50 61 -155 81 -178 10 -12 -25 -14 -235 -14 l-246 0 0 40 0 40 50 0 50 0 0 348 c0 192 3 352 7 356 15 14 32 103 33 163 0 61 -13 137 -32 178 -5 11 -7 267 -6 580 3 499 5 566 21 618 21 71 21 152 1 232 -9 33 -18 70 -21 83 l-5 22 325 0 326 0 7 -35z m1482 18 c4 -10 7 -59 7 -108 0 -128 -31 -187 -175 -341 -116 -124 -163 -199 -186 -293 -25 -104 -16 -186 34 -308 30 -72 46 -94 172 -229 53 -56 109 -126 125 -156 28 -49 30 -61 30 -153 0 -93 -2 -105 -32 -166 -23 -47 -67 -103 -148 -190 -145 -156 -195 -254 -195 -384 0 -89 50 -246 95 -295 18 -20 15 -20 -348 -20 -385 0 -385 0 -353 43 11 15 11 24 -1 60 -10 28 -14 69 -11 122 5 112 42 188 145 297 191 202 228 272 225 433 -4 172 -55 273 -227 449 -63 64 -96 108 -118 153 -27 59 -29 71 -25 152 6 127 38 188 179 338 155 166 194 246 191 397 -2 78 -13 139 -37 199 -7 16 12 17 319 17 302 0 327 -1 334 -17z m-2220 -203 c0 -36 -4 -78 -8 -95 -5 -18 -8 18 -8 95 0 77 3 113 8 95 4 -16 8 -59 8 -95z m2741 -752 c0 -73 -3 -106 -9 -93 -16 37 -11 205 6 205 2 0 4 -51 3 -112z m-2741 -733 c0 -33 -4 -73 -8 -90 -5 -19 -8 15 -8 90 0 75 3 109 8 90 4 -16 8 -57 8 -90z m2742 -752 c0 -74 -3 -103 -10 -93 -17 26 -12 200 6 200 2 0 4 -48 4 -107z"
       id="path1"
       style="fill:#999999;fill-opacity:0.80000001" /><path
       d="M 0,151 V 301 H 150 300 V 151 1 H 150 0 Z M 288,16.5 c 0,2.5 -0.2,4.5 -0.5,4.5 -0.3,0 -1.7,-0.7 -3.1,-1.6 -2.1,-1.4 -2.9,-1.5 -5.2,-0.5 -5.1,2.3 -10.7,6.6 -21.3,16.2 -16,14.6 -25.7,18.2 -40.3,15.2 -8.3,-1.7 -14.9,-5.7 -24.3,-14.6 -18.3,-17.3 -25.7,-21 -42.3,-21 -7.5,0 -10.9,0.4 -16,2.3 -8.5,3 -18.9,10.1 -27,18.5 C 97.7,46 91.7,49.3 78.7,51.3 74.5,52 63.9,49.7 59,47.1 53.4,44.2 51.5,42.7 41,32.9 36.3,28.6 31.6,24.4 30.5,23.6 28.7,22.2 31.1,22.1 53.8,22 H 79 V 17 12 H 183.5 288 Z M 19.5,31 c 3.3,1.9 9.8,7.1 14.5,11.5 16.2,15.5 24.1,19.5 39.6,20.2 8,0.4 11.4,0.2 16,-1.2 7.6,-2.3 16.4,-7.6 22.2,-13.3 14.9,-14.5 22.7,-19.6 32.4,-21.2 13.2,-2.1 24.4,1.9 36.1,12.9 19.7,18.7 28.6,23.1 46.3,23.1 14.5,0 24.9,-5.2 40.8,-20.5 4.9,-4.7 9.3,-8.5 9.7,-8.5 0.5,0 0.8,13 0.7,29.7 l -0.3,29.8 -4.1,2.2 c -2.2,1.2 -9,6.6 -15,12 -12.2,11 -17.3,14.6 -22.4,16.1 -10,2.9 -21.3,2.2 -29.7,-2 -2.5,-1.3 -8.9,-6.4 -14.2,-11.4 C 180.9,99.9 175.2,95.8 166.7,92.2 161.4,90 159,89.6 149.5,89.6 c -8.3,-0.1 -12.2,0.4 -16,1.7 -7.4,2.7 -15.2,7.9 -22.6,15 C 93,123.5 82.8,127.9 67.3,125 59,123.5 54.1,120.8 45.6,112.9 35.1,103.2 30.9,99.7 26.5,96.9 18.1,91.7 18.2,91.7 15,94 l -3,2.1 V 60.8 c 0,-19.4 0.4,-34.8 0.8,-34.2 0.4,0.6 3.4,2.6 6.7,4.4 z m 144,72.9 c 6.5,2.9 10.9,6.1 19.7,14.6 14.9,14.3 24.8,19 40.3,19 15.9,0 25.7,-4.7 42.4,-20.3 5.5,-5.1 12.7,-10.8 16.1,-12.7 l 6,-3.4 v 35 35 l -3,-2.2 c -2.6,-2 -3.3,-2.1 -5.6,-1 -5.4,2.4 -13.1,8.2 -20.9,15.7 -13.7,13.2 -20.2,16.4 -33.6,16.4 -12.6,0 -20.1,-3.9 -34.9,-18 -14.5,-13.8 -23.5,-18 -39.1,-18 -16,0 -24.2,3.8 -41.4,19.4 -17.1,15.5 -20.4,17 -35.2,16.4 -12.5,-0.5 -16.6,-2.6 -31.6,-16.3 -6,-5.4 -13.2,-11.3 -16,-13 l -5.2,-3.1 -0.3,-29.7 c -0.1,-16.3 0.1,-29.7 0.5,-29.7 0.5,0 3.3,2.3 6.3,5.1 22.7,21 28.9,24.3 46.5,24.3 16.1,0.1 24.6,-3.9 41.4,-19.6 9.8,-9.3 17.2,-14.2 23.2,-15.7 6.3,-1.5 19.1,-0.5 24.4,1.8 z m -4.5,72.7 c 8.1,1.9 16.4,7.2 25,15.9 13.4,13.7 26.2,19.8 41.4,19.7 16,-0.2 23.8,-3.8 39.9,-18.7 5.4,-4.9 10.4,-9.3 11.2,-9.8 1.3,-0.7 1.5,3 1.5,28.7 v 29.5 l -5.7,3.7 c -3.2,2 -9.6,7.3 -14.3,11.8 -14.6,14.1 -23.4,18.2 -37,17.4 -9.9,-0.6 -17.5,-4.3 -26.5,-12.7 -13.2,-12.6 -23.2,-20.1 -26.6,-20.1 -0.8,0 -2,-0.5 -2.5,-1 -1.8,-1.8 -15.4,-2.9 -22.9,-2 -13.1,1.7 -18.5,4.7 -35.3,19.8 -13.7,12.3 -19.5,15.3 -30.5,16 -13.4,0.8 -21.3,-2.9 -36.2,-17.2 -4.4,-4.2 -10.6,-9.3 -13.7,-11.3 L 21,242.5 v -30.3 c 0,-21.6 0.3,-30.2 1.1,-30.2 0.6,0 5.5,4 10.8,8.8 18.3,16.9 27.3,21.4 42.6,21.4 16.1,0 25.8,-4.5 41.2,-19.1 12.5,-11.9 17.6,-14.9 29.8,-17.5 3.8,-0.7 6,-0.6 12.5,1 z M 13.5,177 c 0.3,0.5 0.1,1 -0.4,1 -0.6,0 -1.1,-0.5 -1.1,-1 0,-0.6 0.2,-1 0.4,-1 0.3,0 0.8,0.4 1.1,1 z M 160,251.9 c 6.7,2.1 12.2,5.5 18.4,11.5 14,13.2 20.9,18.1 29.8,21.2 12.8,4.3 28.7,2.6 40.7,-4.4 2.5,-1.5 9.7,-7.4 16.1,-13.2 6.4,-5.8 13.9,-11.7 16.6,-13 2.7,-1.4 5.2,-3 5.6,-3.5 0.4,-0.6 0.8,7.9 0.8,18.7 V 289 H 150 12 l 0.1,-19.3 c 0,-10.5 0.3,-18.6 0.6,-18 0.2,0.7 1,1.3 1.6,1.3 2.3,0 11.6,7 20.4,15.3 14.5,13.7 25,18.7 39.4,18.7 15.4,0 26.2,-5.4 44,-21.8 8.5,-7.9 11.6,-10 20.9,-14 4,-1.7 14.3,-1.4 21,0.7 z"
       id="path1-8"
       style="fill:#4479FB;stroke:none;stroke-width:0.1"
       transform="matrix(9.9999998,0,0,-9.9999998,0,3000)" /></g></svg>
