<?xml version="1.0" encoding="UTF-8" standalone="no"?>
<svg
   version="1.0"
   width="300.000000pt"
   height="300.000000pt"
   viewBox="0 0 300.000000 300.000000"
   preserveAspectRatio="xMidYMid meet"
   id="svg1"
   sodipodi:docname="param_3d honeycomb.svg"
   xml:space="preserve"
   inkscape:version="1.3 (0e150ed6c4, 2023-07-21)"
   xmlns:inkscape="http://www.inkscape.org/namespaces/inkscape"
   xmlns:sodipodi="http://sodipodi.sourceforge.net/DTD/sodipodi-0.dtd"
   xmlns="http://www.w3.org/2000/svg"
   xmlns:svg="http://www.w3.org/2000/svg"><defs
     id="defs1" /><sodipodi:namedview
     id="namedview1"
     pagecolor="#ffffff"
     bordercolor="#4479FB"
     borderopacity="0.25"
     inkscape:showpageshadow="2"
     inkscape:pageopacity="0.0"
     inkscape:pagecheckerboard="0"
     inkscape:deskcolor="#d1d1d1"
     inkscape:document-units="pt"
     inkscape:zoom="2.0325"
     inkscape:cx="200"
     inkscape:cy="200"
     inkscape:window-width="1920"
     inkscape:window-height="1009"
     inkscape:window-x="-8"
     inkscape:window-y="-8"
     inkscape:window-maximized="1"
     inkscape:current-layer="g1" /><metadata
     id="metadata1">&#10;Created by potrace 1.10, written by Peter Selinger 2001-2011&#10;</metadata><g
     transform="translate(0.000000,300.000000) scale(0.100000,-0.100000)"
     fill="#4479FB"
     stroke="none"
     id="g1"><path
       d="M 0.5,150 V 299.5 H 150 299.5 V 150 0.5 H 150 0.5 Z m 287,-122.3 c 0,15.5 -0.1,16.1 -1.8,14.5 -1,-1 -2.9,-1.7 -4.2,-1.7 -1.5,0 -5.5,-3.3 -12.8,-10.6 -5.8,-5.8 -11.4,-11 -12.3,-11.5 -1,-0.5 -10.2,-0.9 -20.6,-0.9 H 217 L 205.5,29 194,40.5 H 179 164 L 152.5,29 141,17.5 H 121 101 L 89.5,29 78,40.5 H 63 48 L 38.5,31 29,21.5 h 24.8 24.7 v -5 -5 H 183 287.5 Z m -269,0.8 c 1.7,0 5.7,3.3 14,11.5 L 44.2,51.5 H 63.6 83 L 94.5,40 106,28.5 h 15 15 L 147.5,40 159,51.5 H 178.5 198 L 209.5,40 221,28.5 h 14.9 15 L 262,39.4 c 6.3,6.3 12.2,11.2 13.8,11.6 l 2.7,0.7 v 11.9 c 0,10.9 -0.2,11.9 -1.8,11.9 -1,0 -7,5.2 -13.4,11.5 L 251.8,98.5 H 236.9 222.1 L 210.5,87 198.8,75.5 H 178.9 159 L 147.5,87 136,98.5 H 121 106 L 94.5,87 83,75.4 62.8,75.7 42.5,76 31.2,87.2 c -7.2,7.3 -12,11.3 -13.3,11.3 -1.2,0 -2.7,0.7 -3.4,1.5 -0.7,0.8 -1.6,1.5 -2.1,1.5 -0.5,0 -0.9,-17.2 -0.9,-38.7 V 24.2 l 2.3,2.1 c 1.3,1.2 3.4,2.2 4.7,2.2 z m 269,92.7 v 38.6 l -2.3,-2.1 c -1.3,-1.2 -3.2,-2.2 -4.3,-2.2 -1.1,0 -6,-4.2 -11.9,-10.1 -5.5,-5.6 -11.4,-10.7 -13.2,-11.5 -3.8,-1.6 -35.3,-2 -38.2,-0.5 -0.9,0.5 -6.5,5.7 -12.3,11.5 l -10.5,10.6 H 178.9 163.1 L 152,144.6 c -6.1,-6 -12.2,-11.2 -13.6,-11.6 -1.4,-0.3 -10.3,-0.5 -19.7,-0.3 L 101.5,133 90.2,144.2 79,155.5 H 63.5 48 L 37.5,145 C 31.8,139.3 25.9,134.1 24.3,133.4 l -2.8,-1.1 v -11.4 c 0,-11.1 0.1,-11.4 2.3,-11.9 1.3,-0.4 7.3,-5.6 13.3,-11.6 L 48,86.5 H 63.5 79 l 11.2,11.2 11.3,11.3 19.3,0.3 19.2,0.3 L 151.5,98 163,86.5 h 15.5 15.5 l 11.2,11.2 11.3,11.3 17.7,0.3 c 9.7,0.2 18.8,0 20.2,-0.3 1.4,-0.4 7.5,-5.6 13.6,-11.6 6.8,-6.7 11.9,-10.9 13.1,-10.9 1.2,0 2.9,-0.9 3.9,-2 1,-1.1 2,-2 2.2,-2 0.1,0 0.3,17.4 0.3,38.7 z M 14.5,142 c 0.7,0.8 2.2,1.5 3.3,1.5 1.3,0 6.4,4.3 13.7,11.5 l 11.7,11.5 H 63.1 83 L 94.5,155 106,143.5 h 15 15 l 11.5,11.5 11.5,11.5 h 19.9 19.9 l 11.7,-11.5 11.6,-11.5 h 14.5 14.4 l 10.5,10.6 c 5.8,5.8 12,11.2 13.8,12 l 3.2,1.4 V 179 c 0,9.8 -0.2,11.5 -1.6,11.5 -0.9,0 -6.9,5.2 -13.3,11.5 l -11.8,11.5 H 236.4 221 L 209.8,202.2 198.5,191 179.2,190.7 160,190.4 148.4,201.9 136.8,213.5 H 121.4 106 L 96,203.4 c -5.5,-5.5 -11.2,-10.7 -12.7,-11.5 -2.1,-1.1 -7.1,-1.4 -20.9,-1.4 H 44.2 L 32.5,202 c -7.7,7.7 -12.3,11.5 -13.8,11.5 -1.2,0 -3,0.9 -3.9,2 -1,1.1 -2.1,2 -2.5,2 -0.5,0 -0.8,-17.3 -0.8,-38.5 0,-21.4 0.4,-38.5 0.9,-38.5 0.5,0 1.4,0.7 2.1,1.5 z m 273,94.7 c 0,36.9 -0.1,38.1 -1.8,36.5 -1,-1 -2.9,-1.7 -4.2,-1.7 -1.7,0 -5.8,-3.3 -14,-11.5 L 255.8,248.5 H 236.4 217 L 205.5,260 194,271.5 H 179 164 L 152.5,260 141,248.5 H 121.4 101.8 L 90.3,260 78.8,271.5 H 63.4 48.1 L 36.5,260 c -6.4,-6.3 -12.4,-11.5 -13.3,-11.5 -1.5,0 -1.7,-1.5 -1.7,-11.5 v -11.4 l 2.7,-1.5 c 1.6,-0.8 7.5,-6.2 13.3,-12 L 48,201.5 h 15 15 l 10.5,10.6 c 5.8,5.8 11.9,11.2 13.7,12 2.4,1 7.9,1.4 20.5,1.4 H 140 l 12,-12 12,-12 h 15 15 l 10.5,10.6 c 5.8,5.8 11.7,11.2 13.2,12 3.8,2 33.2,2 37.9,0 1.9,-0.8 8.1,-6.2 13.9,-12 6.8,-6.9 11.2,-10.6 12.6,-10.6 1.2,0 2.7,-0.7 3.4,-1.5 0.7,-0.8 1.4,-1.5 1.6,-1.5 0.2,0 0.4,17.2 0.4,38.2 z M 14.5,258 c 0.7,0.8 2.3,1.5 3.6,1.5 1.7,0 5.3,2.9 12.1,9.8 14.3,14.3 11.6,13.2 33.8,13.2 H 83 L 94.5,271 106,259.5 h 15 15 l 11.5,11.5 11.5,11.5 h 20 20 L 210.5,271 222,259.5 h 15 15 l 8.8,8.8 c 4.8,4.8 8.7,9.1 8.7,9.5 0,0.4 -10.8,0.7 -24,0.7 h -24 v 4.5 4.5 h -105 -105 V 272 c 0,-8.5 0.4,-15.5 0.9,-15.5 0.5,0 1.4,0.7 2.1,1.5 z"
       id="path1-6"
       style="fill:#999999;stroke:none;stroke-width:0.1;fill-opacity:0.80000001"
       transform="matrix(9.9999998,0,0,-9.9999998,0,3000)" /><path
       d="M10 1495 l0 -1495 1495 0 1495 0 0 1495 0 1495 -1495 0 -1495 0 0 -1495z m1000 1376 c0 -5 -7 -14 -15 -21 -8 -7 -15 -24 -15 -39 0 -19 -25 -51 -102 -129 l-103 -102 0 -215 0 -215 103 -102 102 -103 0 -160 0 -160 -102 -103 -103 -102 0 -215 0 -215 103 -102 102 -103 0 -158 0 -158 -101 -102 c-62 -63 -103 -112 -106 -129 l-5 -28 -128 0 -128 0 -7 27 c-3 15 -50 72 -106 128 l-99 101 0 165 0 164 91 90 c50 50 97 102 105 117 20 39 20 377 0 416 -8 15 -55 67 -105 117 l-91 90 0 160 0 160 91 90 c50 50 97 102 105 117 11 21 14 70 14 208 0 138 -3 187 -14 208 -8 15 -55 67 -105 117 -76 75 -91 95 -91 121 0 17 -7 37 -15 44 -8 7 -15 16 -15 21 0 5 164 9 370 9 206 0 370 -4 370 -9z m1150 0 c0 -5 -7 -14 -15 -21 -8 -7 -15 -26 -15 -43 0 -26 -17 -48 -100 -132 l-100 -102 0 -213 0 -213 100 -102 100 -101 0 -164 0 -163 -100 -100 -100 -100 0 -211 0 -211 100 -100 100 -100 0 -165 0 -165 -95 -95 c-59 -59 -99 -107 -103 -125 l-8 -30 -131 -3 -131 -3 -6 33 c-4 25 -31 59 -101 128 l-95 95 0 164 0 164 100 103 100 103 0 207 0 207 -100 102 -100 101 0 169 0 169 100 101 100 102 0 197 c0 151 -3 203 -14 224 -8 15 -53 65 -100 112 -67 66 -86 91 -86 112 0 16 -9 36 -20 45 -11 10 -20 21 -20 25 0 5 167 8 370 8 206 0 370 -4 370 -9z m720 -1046 l0 -1055 -45 0 -45 0 0 -235 c0 -129 -3 -235 -7 -235 -4 0 -45 37 -90 82 l-83 83 0 160 0 160 91 90 c50 50 97 104 105 122 20 46 20 370 0 416 -8 18 -55 72 -105 122 l-91 90 0 160 0 160 91 90 c50 50 97 104 105 122 16 38 20 365 5 406 -5 13 -52 66 -105 118 -80 79 -96 99 -96 125 0 17 -7 37 -15 44 -8 7 -15 16 -15 21 0 5 68 9 150 9 l150 0 0 -1055z m-1530 921 c7 -19 55 -76 107 -128 l93 -93 0 -165 0 -165 -91 -90 c-50 -50 -97 -104 -105 -122 -20 -46 -20 -363 0 -401 8 -15 55 -67 105 -117 l91 -90 0 -170 0 -170 -87 -85 c-127 -126 -123 -114 -123 -318 0 -126 4 -181 14 -205 8 -18 55 -72 105 -122 73 -71 91 -95 91 -118 0 -18 9 -36 23 -48 22 -18 15 -18 -352 -19 -362 0 -374 1 -358 18 10 10 17 31 17 47 0 23 20 50 101 131 l100 102 -3 216 -3 216 -97 98 -98 97 0 165 0 164 100 101 100 102 0 208 0 208 -100 102 -100 101 0 164 0 164 100 101 c76 78 100 108 100 129 l0 26 128 0 128 0 14 -34z m1155 6 c3 -17 43 -66 105 -127 l100 -100 0 -163 0 -164 -100 -101 c-56 -56 -103 -111 -106 -123 -3 -11 -4 -107 -2 -212 l3 -192 103 -103 102 -102 0 -160 0 -160 -102 -103 -103 -102 0 -210 0 -210 103 -102 c82 -84 102 -109 102 -132 0 -16 7 -38 17 -48 16 -17 4 -18 -357 -18 l-373 0 21 23 c12 13 22 34 22 48 0 17 24 49 86 109 47 47 92 99 100 116 12 26 15 69 12 228 l-3 196 -97 98 -98 97 0 170 0 170 98 97 97 98 3 192 c2 105 0 203 -3 217 -4 14 -49 68 -101 121 l-94 96 0 170 0 169 95 95 c58 58 97 105 100 122 l7 28 128 0 128 0 7 -28z m-2115 -387 l0 -170 -86 -85 c-47 -47 -92 -97 -100 -112 -20 -39 -20 -387 0 -426 8 -15 53 -65 100 -112 l86 -85 0 -169 0 -170 -100 -101 -100 -102 0 -191 c0 -105 4 -202 10 -216 5 -14 50 -67 100 -117 67 -67 90 -98 90 -117 0 -14 10 -36 22 -49 l21 -23 -156 0 -157 0 2 1053 3 1052 48 3 47 3 0 237 0 237 85 -85 85 -85 0 -170z"
       id="path1" /></g></svg>
