<?xml version="1.0" standalone="no"?>
<!DOCTYPE svg PUBLIC "-//W3C//DTD SVG 20010904//EN"
 "http://www.w3.org/TR/2001/REC-SVG-20010904/DTD/svg10.dtd">
<svg version="1.0" xmlns="http://www.w3.org/2000/svg"
 width="300.000000pt" height="300.000000pt" viewBox="0 0 300.000000 300.000000"
 preserveAspectRatio="xMidYMid meet">
<metadata>
Created by potrace 1.10, written by Peter Selinger 2001-2011
</metadata>
<g transform="translate(0.000000,300.000000) scale(0.100000,-0.100000)"
fill="#4479FB" stroke="none">
<path d="M0 1503 l0 -1498 1500 0 1500 0 0 1498 0 1497 -1500 0 -1500 0 0
-1497z m665 1367 c-3 -5 -11 -10 -17 -10 -5 0 -35 -15 -66 -34 -136 -82 -436
-246 -448 -246 -11 0 -14 29 -14 150 l0 150 276 0 c181 0 273 -3 269 -10z
m1653 -42 c90 -163 260 -471 286 -521 30 -57 31 -58 11 -70 -18 -11 -83 -46
-321 -173 -55 -30 -107 -54 -114 -54 -12 0 -590 571 -590 583 0 3 63 69 139
146 l140 141 210 0 209 0 30 -52z m562 -200 l0 -253 -63 -32 c-35 -18 -66 -33
-69 -33 -8 0 -32 42 -144 245 -159 291 -174 318 -174 322 0 2 101 3 225 3
l225 0 0 -252z m-1575 72 l110 -110 -161 -161 -162 -162 -34 64 c-20 35 -70
129 -113 209 -43 80 -93 173 -112 208 l-34 62 198 0 198 0 110 -110z m263 43
l-66 -66 -68 66 -68 67 135 0 134 0 -67 -67z m-831 -63 c19 -36 86 -163 150
-284 l116 -218 -297 -297 -296 -296 -145 145 -145 145 0 270 c0 148 4 275 8
281 4 6 50 35 102 64 52 30 148 85 214 122 65 37 121 68 125 68 3 0 31 16 61
35 30 20 58 34 63 32 5 -1 25 -32 44 -67z m1038 -450 c154 -154 281 -284 283
-289 2 -5 -5 -12 -16 -15 -10 -4 -95 -47 -188 -97 -320 -172 -413 -219 -417
-212 -3 5 -64 121 -137 258 -73 138 -137 256 -143 263 -5 7 -8 15 -6 18 2 3
81 83 174 178 94 96 170 174 170 175 1 1 127 -125 280 -279z m957 -152 c70
-121 78 -144 78 -210 l0 -63 -110 -110 -109 -109 -162 162 c-89 89 -160 164
-158 166 7 5 189 106 192 106 2 0 52 27 113 60 60 33 111 60 114 60 3 0 22
-28 42 -62z m-1594 -150 c89 -169 143 -271 176 -328 l25 -44 -39 -22 c-21 -12
-91 -50 -156 -85 -66 -34 -180 -95 -254 -135 l-135 -72 -128 126 c-70 70 -126
131 -124 137 6 17 541 553 554 554 6 1 43 -59 81 -131z m1192 -253 c94 -93
170 -172 170 -175 0 -9 -649 -654 -653 -650 -2 3 -32 59 -67 125 -35 66 -77
145 -93 175 -113 209 -187 353 -184 356 2 3 103 57 223 121 120 64 264 140
319 169 55 30 103 53 108 51 4 -1 84 -78 177 -172z m-2063 -107 l63 -62 -62
-63 c-34 -35 -66 -63 -70 -63 -4 0 -8 56 -8 125 0 69 3 125 7 125 4 0 36 -28
70 -62z m2543 -68 c0 -66 -3 -120 -6 -120 -4 0 -34 27 -67 61 l-60 60 59 60
c32 32 62 59 66 59 4 0 8 -54 8 -120z m-1357 -162 c29 -57 111 -211 181 -342
l127 -239 -130 -131 -131 -131 -325 325 c-179 179 -324 329 -322 333 1 4 50
33 107 64 58 31 175 94 260 139 85 46 160 84 167 84 6 0 36 -46 66 -102z
m-816 -152 c-3 -9 -424 -236 -439 -236 -4 0 -8 56 -8 124 l0 124 112 112 111
111 114 -113 c62 -62 112 -117 110 -122z m2101 85 l142 -139 0 -209 0 -208
-82 -45 c-45 -25 -112 -61 -148 -81 -36 -20 -112 -62 -170 -94 -58 -32 -125
-69 -150 -83 -127 -70 -191 -104 -194 -101 -4 4 -133 245 -193 359 l-34 64
338 338 c186 186 340 338 343 338 3 0 69 -63 148 -139z m-1465 -1003 l-148
-148 -277 0 -276 0 -66 123 c-37 67 -79 145 -95 172 -15 28 -60 106 -98 175
-39 69 -82 146 -97 171 l-26 46 137 73 c76 40 174 93 218 116 44 23 105 56
135 73 l55 30 342 -342 343 -342 -147 -147z m-1100 329 c19 -34 47 -84 62
-112 16 -27 67 -120 115 -205 l86 -155 -145 -3 c-80 -1 -151 0 -158 2 -10 4
-13 64 -13 276 0 161 4 269 9 266 5 -4 25 -34 44 -69z m1688 -25 c20 -37 66
-124 103 -194 l67 -127 -48 -30 c-41 -26 -58 -31 -113 -31 l-65 0 -110 110
-110 110 115 115 c63 63 117 115 120 115 3 0 21 -30 41 -68z m1019 -222 l0
-230 -324 0 -324 0 -16 34 c-9 19 -16 38 -16 43 0 5 21 21 48 35 47 25 251
137 497 274 72 40 131 72 133 73 1 1 2 -102 2 -229z m-1250 -152 c0 -4 -56 -8
-125 -8 -69 0 -125 3 -125 7 0 4 28 36 62 70 l62 63 63 -62 c35 -34 63 -66 63
-70z"/>
</g>
</svg>
