<?xml version="1.0" encoding="UTF-8" standalone="no"?>
<svg
   version="1.0"
   width="300.000000pt"
   height="300.000000pt"
   viewBox="0 0 300.000000 300.000000"
   preserveAspectRatio="xMidYMid meet"
   id="svg1"
   sodipodi:docname="param_cubic.svg"
   inkscape:version="1.3 (0e150ed6c4, 2023-07-21)"
   xmlns:inkscape="http://www.inkscape.org/namespaces/inkscape"
   xmlns:sodipodi="http://sodipodi.sourceforge.net/DTD/sodipodi-0.dtd"
   xmlns="http://www.w3.org/2000/svg"
   xmlns:svg="http://www.w3.org/2000/svg">
  <defs
     id="defs1" />
  <sodipodi:namedview
     id="namedview1"
     pagecolor="#ffffff"
     bordercolor="#4479FB"
     borderopacity="0.25"
     inkscape:showpageshadow="2"
     inkscape:pageopacity="0.0"
     inkscape:pagecheckerboard="0"
     inkscape:deskcolor="#d1d1d1"
     inkscape:document-units="pt"
     inkscape:zoom="1.045"
     inkscape:cx="211.00478"
     inkscape:cy="282.77512"
     inkscape:window-width="1920"
     inkscape:window-height="1009"
     inkscape:window-x="-8"
     inkscape:window-y="-8"
     inkscape:window-maximized="1"
     inkscape:current-layer="g1" />
  <metadata
     id="metadata1">&#10;Created by potrace 1.10, written by Peter Selinger 2001-2011&#10;</metadata>
  <g
     transform="translate(0.000000,300.000000) scale(0.100000,-0.100000)"
     fill="#4479FB"
     stroke="none"
     id="g1">
    <path
       style="fill:none;fill-rule:evenodd;stroke:#999999;stroke-width:85;stroke-linecap:butt;stroke-linejoin:miter;stroke-dasharray:none;stroke-opacity:0.8"
       d="M 762.58493,2933.3687 196.84051,2753.4649"
       id="path6-7"
       inkscape:connector-type="polyline"
       inkscape:connector-curvature="0" />
    <path
       style="display:inline;fill:none;fill-rule:evenodd;stroke:#999999;stroke-width:85;stroke-linecap:butt;stroke-linejoin:miter;stroke-dasharray:none;stroke-opacity:0.8"
       d="M 207.17691,2773.2734 25.503976,2100.7894"
       id="path7-9"
       inkscape:connector-type="polyline"
       inkscape:connector-curvature="0" />
    <path
       style="fill:none;fill-rule:evenodd;stroke:#999999;stroke-width:85;stroke-linecap:butt;stroke-linejoin:miter;stroke-dasharray:none;stroke-opacity:0.8"
       d="M 217.0479,2764.357 96.965109,2888.3359"
       id="path9-1"
       inkscape:connector-type="polyline"
       inkscape:connector-curvature="0" />
    <path
       style="fill:none;fill-rule:evenodd;stroke:#999999;stroke-width:85;stroke-linecap:butt;stroke-linejoin:miter;stroke-dasharray:none;stroke-opacity:0.8"
       d="M 1558.7065,1434.8516 2136.5314,889.29893"
       id="path19"
       inkscape:connector-type="polyline"
       inkscape:connector-curvature="0"
       inkscape:connection-start="#path1" />
    <path
       style="fill:none;fill-rule:evenodd;stroke:#999999;stroke-width:84.99999998;stroke-linecap:butt;stroke-linejoin:miter;stroke-opacity:0.80000001;stroke-dasharray:none"
       d="m 1955.7196,33.2103 177.1217,856.08863"
       id="path20"
       inkscape:connector-type="polyline"
       inkscape:connector-curvature="0" />
    <path
       style="display:inline;fill:none;fill-rule:evenodd;stroke:#999999;stroke-width:84.99999998;stroke-linecap:butt;stroke-linejoin:miter;stroke-opacity:0.80000001;stroke-dasharray:none"
       d="M 2907.7491,1077.4908 2129.1513,889.29893"
       id="path21"
       inkscape:connector-type="polyline"
       inkscape:connector-curvature="0" />
    <path
       style="display:inline;fill:none;fill-rule:evenodd;stroke:#999999;stroke-width:84.99999998;stroke-linecap:butt;stroke-linejoin:miter;stroke-opacity:0.80000001;stroke-dasharray:none"
       d="M 1254.6125,597.78598 981.54983,911.43915"
       id="path16"
       inkscape:connector-type="polyline"
       inkscape:connector-curvature="0" />
    <path
       style="fill:none;fill-rule:evenodd;stroke:#999999;stroke-width:84.99999998;stroke-linecap:butt;stroke-linejoin:miter;stroke-opacity:0.80000001;stroke-dasharray:none"
       d="M 1642.0664,778.5978 1254.6125,597.786"
       id="path17"
       inkscape:connector-type="polyline"
       inkscape:connector-curvature="0" />
    <path
       style="display:inline;fill:none;fill-rule:evenodd;stroke:#999999;stroke-width:84.99999998;stroke-linecap:butt;stroke-linejoin:miter;stroke-opacity:0.80000001;stroke-dasharray:none"
       d="M 1254.6125,601.47601 1151.2916,232.47232"
       id="path18"
       inkscape:connector-type="polyline"
       inkscape:connector-curvature="0" />
    <path
       style="display:inline;fill:none;fill-rule:evenodd;stroke:#999999;stroke-width:85;stroke-linecap:butt;stroke-linejoin:miter;stroke-dasharray:none;stroke-opacity:0.8"
       d="M 1409.4211,1478.3903 693.72694,1339.4834"
       id="path13"
       inkscape:connector-type="polyline"
       inkscape:connector-curvature="0"
       inkscape:connection-start="#path1" />
    <path
       style="display:inline;fill:none;fill-rule:evenodd;stroke:#999999;stroke-width:84.99999998;stroke-linecap:butt;stroke-linejoin:miter;stroke-opacity:0.80000001;stroke-dasharray:none"
       d="M 380.0738,405.90406 708.48709,1339.4834"
       id="path14"
       inkscape:connector-type="polyline"
       inkscape:connector-curvature="0" />
    <path
       style="display:inline;fill:none;fill-rule:evenodd;stroke:#999999;stroke-width:84.99999998;stroke-linecap:butt;stroke-linejoin:miter;stroke-opacity:0.80000001;stroke-dasharray:none"
       d="M 704.79705,1339.4834 132.84133,1808.1181"
       id="path15"
       inkscape:connector-type="polyline"
       inkscape:connector-curvature="0" />
    <path
       style="fill:none;fill-rule:evenodd;stroke:#999999;stroke-width:84.99999998;stroke-linecap:butt;stroke-linejoin:miter;stroke-opacity:0.80000001;stroke-dasharray:none"
       d="m 2129.1513,2095.9409 291.5129,-313.653"
       id="path10"
       inkscape:connector-type="polyline"
       inkscape:connector-curvature="0" />
    <path
       style="fill:none;fill-rule:evenodd;stroke:#999999;stroke-width:85;stroke-linecap:butt;stroke-linejoin:miter;stroke-dasharray:none;stroke-opacity:0.8"
       d="m 2646.0846,2606.8418 291.5129,-313.653"
       id="path10-4"
       inkscape:connector-type="polyline"
       inkscape:connector-curvature="0" />
    <path
       style="fill:none;fill-rule:evenodd;stroke:#999999;stroke-width:85;stroke-linecap:butt;stroke-linejoin:miter;stroke-dasharray:none;stroke-opacity:0.8"
       d="M 394.25801,341.81413 685.77091,28.161132"
       id="path10-5"
       inkscape:connector-type="polyline"
       inkscape:connector-curvature="0" />
    <path
       style="display:inline;fill:none;fill-rule:evenodd;stroke:#999999;stroke-width:85;stroke-linecap:butt;stroke-linejoin:miter;stroke-dasharray:none;stroke-opacity:0.8"
       d="M 2797.048,1904.059 2420.6642,1782.2879"
       id="path11"
       inkscape:connector-type="polyline"
       inkscape:connector-curvature="0" />
    <path
       style="display:inline;fill:none;fill-rule:evenodd;stroke:#999999;stroke-width:84.99999998;stroke-linecap:butt;stroke-linejoin:miter;stroke-opacity:0.80000001;stroke-dasharray:none"
       d="m 2287.8229,1350.5535 129.1513,431.7344"
       id="path12"
       inkscape:connector-type="polyline"
       inkscape:connector-curvature="0" />
    <path
       style="fill:none;fill-rule:evenodd;stroke:#999999;stroke-width:85.5063;stroke-linecap:butt;stroke-linejoin:miter;stroke-dasharray:none;stroke-opacity:0.8"
       d="M 2553.328,2620.0433 1750.2118,2345.7542"
       id="path6"
       inkscape:connector-type="polyline"
       inkscape:connector-curvature="0" />
    <path
       style="display:inline;fill:none;fill-rule:evenodd;stroke:#999999;stroke-width:85.5063;stroke-linecap:butt;stroke-linejoin:miter;stroke-dasharray:none;stroke-opacity:0.8"
       d="M 1753.879,2345.7542 1527.6288,1582.001"
       id="path7"
       inkscape:connector-type="polyline"
       inkscape:connector-curvature="0" />
    <path
       style="fill:none;fill-rule:evenodd;stroke:#999999;stroke-width:85.5063;stroke-linecap:butt;stroke-linejoin:miter;stroke-dasharray:none;stroke-opacity:0.8"
       d="m 1753.879,2349.5117 -425.395,454.6434"
       id="path9"
       inkscape:connector-type="polyline"
       inkscape:connector-curvature="0" />
    <path
       style="fill:none;fill-rule:evenodd;stroke:#999999;stroke-width:8.5;stroke-linecap:butt;stroke-linejoin:miter;stroke-dasharray:none;stroke-opacity:0.80000001"
       d="M 54.612546,58.671586 80.442802,80.442802"
       id="path2"
       inkscape:connector-type="polyline"
       inkscape:connector-curvature="0"
       transform="matrix(9.9999998,0,0,-9.9999998,0,3000)" />
    <path
       style="fill:none;fill-rule:evenodd;stroke:#999999;stroke-width:8.5;stroke-linecap:butt;stroke-linejoin:miter;stroke-dasharray:none;stroke-opacity:0.80000001"
       d="M 80.442802,80.442802 122.50922,67.527675"
       id="path3"
       inkscape:connector-type="polyline"
       inkscape:connector-curvature="0"
       transform="matrix(9.9999998,0,0,-9.9999998,0,3000)" />
    <path
       style="display:inline;fill:none;fill-rule:evenodd;stroke:#999999;stroke-width:8.5;stroke-linecap:butt;stroke-linejoin:miter;stroke-dasharray:none;stroke-opacity:0.80000001"
       d="M 80.811808,80.073801 71.955719,122.87823"
       id="path5"
       inkscape:connector-type="polyline"
       inkscape:connector-curvature="0"
       transform="matrix(9.9999998,0,0,-9.9999998,0,3000)" />
    <path
       style="fill:none;fill-rule:evenodd;stroke:#999999;stroke-width:84.99999998;stroke-linecap:butt;stroke-linejoin:miter;stroke-dasharray:none;stroke-opacity:0.8"
       d="M 2569.3392,506.02451 2827.8107,263.63872"
       id="path2-1"
       inkscape:connector-type="polyline"
       inkscape:connector-curvature="0" />
    <path
       style="fill:none;fill-rule:evenodd;stroke:#999999;stroke-width:84.99999998;stroke-linecap:butt;stroke-linejoin:miter;stroke-dasharray:none;stroke-opacity:0.8"
       d="m 2810.028,251.27354 133.0938,38.6031"
       id="path3-7"
       inkscape:connector-type="polyline"
       inkscape:connector-curvature="0" />
    <path
       style="display:inline;fill:none;fill-rule:evenodd;stroke:#999999;stroke-width:84.99999998;stroke-linecap:butt;stroke-linejoin:miter;stroke-dasharray:none;stroke-opacity:0.8"
       d="M 2840.5346,286.68096 2787.5647,88.62491"
       id="path5-5"
       inkscape:connector-type="polyline"
       inkscape:connector-curvature="0" />
    <path
       d="M0 1495 l0 -1495 1495 0 1495 0 0 1495 0 1495 -1495 0 -1495 0 0 -1495z m860 1372 c0 -1 -166 -169 -370 -372 l-370 -370 0 373 0 372 370 0 c204 0 370 -1 370 -3z m1624 -9 c14 -55 24 -103 21 -107 -3 -2 -89 19 -192 47 -103 29 -204 56 -223 61 -25 6 27 9 178 10 162 1 213 -2 216 -11z m-1409 -110 c3 -13 10 -39 15 -58 5 -19 30 -109 54 -200 24 -91 62 -232 85 -315 22 -82 54 -202 70 -265 17 -63 41 -155 55 -203 l24 -88 -31 6 c-18 4 -120 31 -227 60 -107 29 -283 76 -390 105 -107 29 -265 71 -350 94 l-155 42 -3 64 -3 64 358 358 358 358 67 0 c61 0 67 -2 73 -22z m965 1 c41 -11 82 -22 91 -24 14 -3 232 -61 324 -86 60 -17 95 -31 95 -38 0 -11 -1015 -1021 -1026 -1021 -7 0 -30 69 -53 153 -23 83 -46 168 -51 187 -10 35 -50 187 -150 560 -29 107 -58 216 -65 243 l-13 47 387 0 c357 0 392 -2 461 -21z m655 -9 c-27 -28 -55 -39 -55 -22 0 4 -3 17 -6 30 -6 21 -3 22 42 22 l48 0 -29 -30z m97 -192 l88 -21 -1 -346 c-1 -317 -2 -342 -15 -296 -19 66 -25 90 -79 290 -25 94 -58 217 -74 275 -27 99 -29 120 -13 120 3 0 46 -10 94 -22z m-178 -188 c5 -23 15 -64 57 -216 21 -78 54 -202 74 -277 l35 -136 0 -246 c0 -230 -1 -246 -17 -241 -50 14 -549 149 -868 233 -93 25 -183 50 -198 56 -29 10 -27 12 430 469 l458 458 13 -42 c7 -24 14 -50 16 -58z m-2214 -605 c91 -24 242 -65 335 -90 94 -24 186 -49 205 -55 53 -15 302 -81 319 -85 81 -19 147 -40 153 -49 8 -12 -999 -1026 -1019 -1026 -12 0 -23 34 -67 200 -41 155 -66 251 -87 325 -17 63 -19 105 -19 447 0 208 3 378 8 378 4 0 81 -20 172 -45z m1288 -345 c64 -17 182 -49 262 -70 80 -22 222 -60 315 -85 94 -25 186 -49 205 -55 19 -5 97 -26 173 -46 l137 -37 0 -126 0 -126 -372 -372 -373 -373 -66 0 -67 0 -31 118 c-17 64 -36 133 -41 152 -9 33 -25 92 -155 580 -32 118 -73 269 -91 335 -29 107 -33 135 -18 135 2 0 57 -14 122 -30z m-188 -250 c6 -19 30 -111 55 -205 25 -93 63 -235 85 -315 55 -201 71 -262 75 -285 3 -11 11 -43 20 -70 8 -28 15 -53 15 -57 0 -5 -116 -8 -257 -8 l-258 0 -165 45 c-91 24 -240 65 -333 90 -92 25 -174 45 -182 45 -8 0 -15 3 -15 7 0 5 206 214 457 465 l458 458 18 -68 c9 -37 22 -83 27 -102z m-1336 -361 c15 -58 39 -151 55 -207 l29 -102 -37 6 c-20 4 -47 10 -61 14 l-25 6 -2 210 c-2 118 1 203 6 194 5 -8 20 -63 35 -121z m2716 -294 l0 -285 -287 0 -288 0 285 285 c157 157 286 285 287 285 2 0 3 -128 3 -285z m-2615 -145 c27 0 22 -29 -11 -61 l-34 -33 0 53 c0 44 3 52 16 47 9 -3 22 -6 29 -6z m310 -85 c72 -20 173 -47 225 -61 52 -14 147 -39 210 -55 63 -17 117 -32 119 -35 2 -2 -147 -4 -332 -4 l-336 0 -7 38 c-3 20 -12 59 -20 86 -13 46 -12 66 4 66 4 0 65 -16 137 -35z"
       id="path1" />
  </g>
</svg>
