<?xml version="1.0" encoding="utf-8"?>
<!-- Generator: Adobe Illustrator 25.0.0, SVG Export Plug-In . SVG Version: 6.00 Build 0)  -->
<svg version="1.1" id="图层_1" xmlns="http://www.w3.org/2000/svg" xmlns:xlink="http://www.w3.org/1999/xlink" x="0px" y="0px"
	 viewBox="0 0 128 128" enable-background="new 0 0 128 128" xml:space="preserve">
<g>
	<g>
		<path fill="#174CCE" d="M102.1,81.6H76.2c-2.2,0-4-1.8-4-4s1.8-4,4-4h25.9c2.2,0,4,1.8,4,4S104.3,81.6,102.1,81.6z"/>
	</g>
	<g>
		<path fill="#174CCE" d="M102.1,98.4H76.2c-2.2,0-4-1.8-4-4s1.8-4,4-4h25.9c2.2,0,4,1.8,4,4S104.3,98.4,102.1,98.4z"/>
	</g>
	<g>
		<path fill="#174CCE" d="M111.2,57.7c1.8,0,3.3,1.5,3.3,3.3v50.1c0,1.8-1.5,3.3-3.3,3.3H66.7c-1.8,0-3.3-1.5-3.3-3.3V61
			c0-1.8,1.5-3.3,3.3-3.3H111.2 M111.2,49.7H66.7c-6.3,0-11.3,5.1-11.3,11.3v50.1c0,6.3,5.1,11.3,11.3,11.3h44.4
			c6.3,0,11.3-5.1,11.3-11.3V61C122.5,54.8,117.4,49.7,111.2,49.7L111.2,49.7z"/>
	</g>
	<path fill="#174CCE" d="M50.8,13.5c4.8,0,8.8,3.9,8.8,8.8s-3.9,8.8-8.8,8.8H39.2c-4.8,0-8.8-3.9-8.8-8.8s3.9-8.8,8.8-8.8H50.8
		 M50.8,5.5H39.2c-9.3,0-16.8,7.5-16.8,16.8s7.5,16.8,16.8,16.8h11.6c9.3,0,16.8-7.5,16.8-16.8S60.1,5.5,50.8,5.5L50.8,5.5z"/>
	<g>
		<path fill="#174CCE" d="M75.6,29.6v20.2h8V29.6c0-6.2-5-11.2-11.2-11.2H62v8h10.4C74.2,26.3,75.6,27.8,75.6,29.6z"/>
		<path fill="#174CCE" d="M55.4,99.8H16.8c-1.8,0-3.2-1.5-3.2-3.2v-67c0-1.8,1.5-3.2,3.2-3.2h12.5v-8H16.8c-6.2,0-11.2,5-11.2,11.2
			v67c0,6.2,5,11.2,11.2,11.2h38.6V99.8z"/>
	</g>
</g>
</svg>
