<?xml version="1.0" encoding="utf-8"?>
<!-- Generator: Adobe Illustrator 25.0.0, SVG Export Plug-In . SVG Version: 6.00 Build 0)  -->
<svg version="1.1" id="图层_1" xmlns="http://www.w3.org/2000/svg" xmlns:xlink="http://www.w3.org/1999/xlink" x="0px" y="0px"
	 viewBox="0 0 16 16" enable-background="new 0 0 16 16" xml:space="preserve">
<g>
	<g>
		<g>
			<polygon fill="#4479FB" points="11.2,3.8 7.8,6 4.5,3.8 7.8,2 			"/>
			<polygon fill="#4479FB" points="7.4,9.7 4.4,7.9 4.4,4.7 7.4,6.5 			"/>
			<polygon fill="#4479FB" points="8.3,9.7 11.3,7.9 11.3,4.7 8.3,6.5 			"/>
		</g>
	</g>
	<g>
		<path fill="#4479FB" d="M7.1,11.8C4,11.6,1.6,10.7,1.6,9.6c0-0.6,0.6-1.1,1.7-1.5L3.1,8C1.8,8.5,1,9.2,1,10c0,1.5,2.7,2.7,6.1,2.8
			V14l1.6-1.6l-1.6-1.6V11.8z"/>
		<path fill="#4479FB" d="M13,8l0,0.2c0.9,0.4,1.4,0.9,1.4,1.4c0,1.1-2.1,2-5,2.2v1l0,0.1c3.2-0.3,5.6-1.4,5.6-2.8
			C15,9.2,14.2,8.5,13,8z"/>
	</g>
</g>
<g>
</g>
<g>
</g>
<g>
</g>
<g>
</g>
<g>
</g>
<g>
</g>
</svg>
