<?xml version="1.0" encoding="utf-8"?>
<!-- Generator: Adobe Illustrator 25.0.0, SVG Export Plug-In . SVG Version: 6.00 Build 0)  -->
<svg version="1.1" id="图层_1" xmlns="http://www.w3.org/2000/svg" xmlns:xlink="http://www.w3.org/1999/xlink" x="0px" y="0px"
	 viewBox="0 0 128 128" enable-background="new 0 0 128 128" xml:space="preserve">
<g>
	<g>
		<path fill="#174CCE" d="M120.1,80.3l-6.8-3.4L66,106.6c-1.3,0.7-2.7,0.7-4.1,0L14.7,76.9l-6.8,3.4C5.3,81.6,5.3,85,7.2,87
			l54.7,35.1c1.3,0.7,2.7,0.7,4.1,0l54.7-35.2C123.5,85,122.8,81.6,120.1,80.3z"/>
	</g>
	<g>
		<path fill="#174CCE" d="M120.1,55.9l-6.8-3.4L66,82.2c-1.3,0.7-2.7,0.7-4.1,0L14.7,52.6l-6.8,3.4c-2.7,1.3-2.7,4.7-0.7,6.8
			l54.7,35.1c1.3,0.7,2.7,0.7,4.1,0l54.7-35.2C123.5,60.6,122.8,57.3,120.1,55.9z"/>
	</g>
	<g>
		<path fill="#174CCE" d="M7.2,38.3l54.7,35.2c1.3,0.7,2.7,0.7,4.1,0l54.7-35.2c2.7-1.3,2-5.4-0.7-6.8L65.3,5.9
			c-1.3-0.7-2-0.7-3.4,0l-54,25.7C5.2,32.9,4.6,36.3,7.2,38.3z"/>
	</g>
</g>
</svg>
