<?xml version="1.0" encoding="utf-8"?>
<!-- Generator: Adobe Illustrator 25.0.0, SVG Export Plug-In . SVG Version: 6.00 Build 0)  -->
<svg version="1.1" id="图层_1" xmlns="http://www.w3.org/2000/svg" xmlns:xlink="http://www.w3.org/1999/xlink" x="0px" y="0px"
	 viewBox="0 0 128 128" enable-background="new 0 0 128 128" xml:space="preserve">
<g>
	<g>
		<path fill="#174CCE" d="M118.9,79.9l-6.6-3.3L66,105.6c-1.3,0.7-2.6,0.7-4,0L15.8,76.6l-6.6,3.3c-2.6,1.3-2.6,4.6-0.7,6.6
			L62,120.8c1.3,0.7,2.6,0.7,4,0l53.5-34.4C122.2,84.5,121.5,81.2,118.9,79.9z"/>
	</g>
	<g>
		<path fill="#174CCE" d="M118.9,56.1l-6.6-3.3L66,81.8c-1.3,0.7-2.6,0.7-4,0L15.8,52.8l-6.6,3.3c-2.6,1.3-2.6,4.6-0.7,6.6L62,97
			c1.3,0.7,2.6,0.7,4,0l53.5-34.4C122.2,60.7,121.5,57.4,118.9,56.1z"/>
	</g>
	<g>
		<path fill="#174CCE" d="M8.5,38.9L62,73.3c1.3,0.7,2.6,0.7,4,0l53.5-34.4c2.6-1.3,2-5.3-0.7-6.6L65.3,7.2c-1.3-0.7-2-0.7-3.3,0
			L9.2,32.3C6.5,33.6,5.9,36.9,8.5,38.9z"/>
	</g>
</g>
<g>
</g>
<g>
</g>
<g>
</g>
<g>
</g>
<g>
</g>
<g>
</g>
</svg>
