<?xml version="1.0" encoding="utf-8"?>
<!-- Generator: Adobe Illustrator 25.0.0, SVG Export Plug-In . SVG Version: 6.00 Build 0)  -->
<svg version="1.1" id="图层_1" xmlns="http://www.w3.org/2000/svg" xmlns:xlink="http://www.w3.org/1999/xlink" x="0px" y="0px"
	 viewBox="0 0 128 128" enable-background="new 0 0 128 128" xml:space="preserve">
<g>
	<g>
		<path fill="#4479FB" d="M117.9,79.6l-6.5-3.2L66,104.9c-1.3,0.6-2.6,0.6-3.9,0L16.6,76.3l-6.5,3.2c-2.6,1.3-2.6,4.5-0.6,6.5
			l52.6,33.7c1.3,0.6,2.6,0.6,3.9,0l52.6-33.7C121.1,84.1,120.5,80.9,117.9,79.6z"/>
	</g>
	<g>
		<path fill="#4479FB" d="M117.9,56.2l-6.5-3.2L66,81.5c-1.3,0.6-2.6,0.6-3.9,0L16.6,53l-6.5,3.2c-2.6,1.3-2.6,4.5-0.6,6.5
			l52.6,33.7c1.3,0.6,2.6,0.6,3.9,0l52.6-33.7C121.1,60.8,120.5,57.5,117.9,56.2z"/>
	</g>
	<g>
		<path fill="#4479FB" d="M9.5,39.4l52.6,33.7c1.3,0.6,2.6,0.6,3.9,0l52.6-33.7c2.6-1.3,1.9-5.2-0.6-6.5L65.3,8.2
			c-1.3-0.6-1.9-0.6-3.2,0L10.2,32.9C7.6,34.2,6.9,37.4,9.5,39.4z"/>
	</g>
</g>
<g>
</g>
<g>
</g>
<g>
</g>
<g>
</g>
<g>
</g>
<g>
</g>
</svg>
