<?xml version="1.0" encoding="utf-8"?>
<!-- Generator: Adobe Illustrator 25.0.0, SVG Export Plug-In . SVG Version: 6.00 Build 0)  -->
<svg version="1.1" id="图层_1" xmlns="http://www.w3.org/2000/svg" xmlns:xlink="http://www.w3.org/1999/xlink" x="0px" y="0px"
	 width="24px" height="24px" viewBox="0 0 24 24" enable-background="new 0 0 24 24" xml:space="preserve">
<g>
	<path fill="#ADADAF" d="M19.4,1.9H4.6C3.2,1.9,2,3.1,2,4.5v6.4h4v-4h12v4h4V4.5C22,3.1,20.8,1.9,19.4,1.9z M19,5.9
		c-0.6,0-1-0.4-1-1c0-0.6,0.4-1,1-1c0.6,0,1,0.4,1,1C20,5.5,19.6,5.9,19,5.9z"/>
	<path fill="#ADADAF" d="M6,12.4v6.3l6.2,3.3l5.9-3.3v-6.3l-6-3.1L6,12.4z M11,19.2l-3-1.6v-2.9l3,1.6V19.2z M16,17.6l-3,1.7v-3
		l3-1.8V17.6z M12,14.6L9.2,13l2.9-1.5l2.7,1.4L12,14.6z"/>
</g>
</svg>
