<?xml version="1.0" encoding="utf-8"?>
<!-- Generator: Adobe Illustrator 25.0.0, SVG Export Plug-In . SVG Version: 6.00 Build 0)  -->
<svg version="1.1" id="图层_1" xmlns="http://www.w3.org/2000/svg" xmlns:xlink="http://www.w3.org/1999/xlink" x="0px" y="0px"
	 viewBox="0 0 16 16" style="enable-background:new 0 0 16 16;" xml:space="preserve">
<rect x="1" y="3.1" style="fill:#4479FB;" width="14" height="0.8"/>
<rect x="6.6" y="2.5" style="fill:#4479FB;" width="2.7" height="3.1"/>
<polygon style="fill:#4479FB;" points="8.3,6.2 7.7,6.2 7.2,4.3 8.8,4.3 "/>
<circle style="fill:#2e9bff;" cx="12" cy="12" r="4"/>
<path style="fill:#4479FB;" d="M6.6,12.2l-0.9-0.5V9.5l1.2,0.7C7,9.9,7.1,9.7,7.2,9.5L6.1,8.9L8,7.8L8.4,8C8.6,7.8,8.8,7.6,9,7.5
	L8.2,7C8.1,6.9,7.9,6.9,7.8,7L5.1,8.4C5,8.5,4.9,8.6,4.9,8.8v3c0,0.2,0.1,0.3,0.2,0.4l1.6,0.9C6.6,12.8,6.6,12.5,6.6,12.2z"/>
<path style="fill:#4479FB;" d="M7,14.1H1.8V1.8h12.4v5.3c0.3,0.1,0.5,0.3,0.8,0.4V1H1v14h6.5C7.3,14.7,7.1,14.4,7,14.1z"/>
</svg>
