<?xml version="1.0" encoding="utf-8"?>
<!-- Generator: Adobe Illustrator 25.0.0, SVG Export Plug-In . SVG Version: 6.00 Build 0)  -->
<svg version="1.1" id="图层_1" xmlns="http://www.w3.org/2000/svg" xmlns:xlink="http://www.w3.org/1999/xlink" x="0px" y="0px"
	 viewBox="0 0 16 16" enable-background="new 0 0 16 16" xml:space="preserve">
<g>
	<path fill="#4479FB" d="M14.2,1.8v12.3H1.8V1.8H14.2 M15,1H1v14h14V1L15,1z"/>
	<rect x="1" y="3.1" fill="#4479FB" width="14" height="0.8"/>
	<rect x="6.6" y="2.5" fill="#4479FB" width="2.7" height="3.1"/>
	<polygon fill="#4479FB" points="8.3,6.2 7.7,6.2 7.2,4.3 8.8,4.3 	"/>
	<g>
		<g>
			<path fill="#4479FB" d="M8,13.8c-0.1,0-0.1,0-0.2-0.1l-2.7-1.5c-0.1-0.1-0.2-0.2-0.2-0.4V8.8c0-0.2,0.1-0.3,0.2-0.4L7.8,7
				c0.1-0.1,0.3-0.1,0.4,0l2.7,1.5c0.1,0.1,0.2,0.2,0.2,0.4V12c0,0.2-0.1,0.3-0.2,0.4l-2.7,1.5C8.1,13.8,8.1,13.8,8,13.8z M5.7,11.7
				L8,12.9l2.3-1.2V9.1L8,7.8L5.7,9.1V11.7z"/>
		</g>
		<g>
			<path fill="#4479FB" d="M8,10.8c-0.1,0-0.1,0-0.2-0.1L5.1,9.2l0.4-0.7L8,9.9l2.5-1.4l0.4,0.7l-2.7,1.6C8.1,10.8,8.1,10.8,8,10.8z
				"/>
		</g>
		<g>
			<rect x="7.6" y="10.4" fill="#4479FB" width="0.8" height="3"/>
		</g>
	</g>
</g>
<g>
</g>
<g>
</g>
<g>
</g>
<g>
</g>
<g>
</g>
<g>
</g>
</svg>
