<?xml version="1.0" encoding="utf-8"?>
<!-- Generator: Adobe Illustrator 25.0.0, SVG Export Plug-In . SVG Version: 6.00 Build 0)  -->
<svg version="1.1" id="图层_1" xmlns="http://www.w3.org/2000/svg" xmlns:xlink="http://www.w3.org/1999/xlink" x="0px" y="0px"
	 width="16px" height="16px" viewBox="0 0 16 16" enable-background="new 0 0 16 16" xml:space="preserve">
<path fill="#4479FB" d="M8.5,9.2L8.3,9.1c-0.2,0-0.4,0-0.5,0L7.5,9.2c-1.3,0.4-2.3,1.6-2.3,3v0.5h5.5v-0.5
	C10.8,10.8,9.8,9.6,8.5,9.2z"/>
<path fill="#4479FB" d="M7.9,6.8l-2-1.4c0,0,0-0.1,0-0.1h4.2c0,0,0.1,0.1,0,0.1l-2,1.4C8,6.9,7.9,6.9,7.9,6.8z"/>
<path fill="#4479FB" d="M13.3,14h-0.4v-1.8c0-1.7-0.9-3.3-2.3-4.2c1.4-0.9,2.3-2.5,2.3-4.2V2h0.4C13.7,2,14,1.7,14,1.4
	s-0.3-0.7-0.6-0.7H2.7C2.3,0.7,2,1,2,1.4S2.3,2,2.7,2h0.4v1.8c0,1.7,0.9,3.3,2.3,4.2c-1.4,0.9-2.3,2.5-2.3,4.2V14H2.7
	C2.3,14,2,14.3,2,14.6c0,0.4,0.3,0.7,0.6,0.7h10.7c0.4,0,0.6-0.3,0.6-0.7C14,14.3,13.7,14,13.3,14z M4.1,12.2c0-1.4,0.8-2.7,2-3.4
	C6.3,8.6,6.5,8.3,6.5,8c0-0.3-0.2-0.6-0.4-0.7c-1.2-0.7-2-2-2-3.4V2h7.9v1.8c0,1.4-0.8,2.7-2,3.4C9.6,7.4,9.5,7.7,9.5,8
	c0,0.3,0.2,0.6,0.4,0.7c1.2,0.7,2,2,2,3.4V14H4.1V12.2z"/>
</svg>
