<?xml version="1.0" encoding="utf-8"?>
<!-- Generator: Adobe Illustrator 25.0.0, SVG Export Plug-In . SVG Version: 6.00 Build 0)  -->
<svg version="1.1" id="图层_2" xmlns="http://www.w3.org/2000/svg" xmlns:xlink="http://www.w3.org/1999/xlink" x="0px" y="0px"
	 viewBox="0 0 256 256" enable-background="new 0 0 256 256" xml:space="preserve">
<g>
	<path fill="#4479FB" d="M196,256H60c-33.1,0-60-26.9-60-60V60C0,26.9,26.9,0,60,0h136c33.1,0,60,26.9,60,60v136
		C256,229.1,229.1,256,196,256z"/>
</g>
<g>
	<path fill="#FFFFFF" d="M194.5,188.5c-7.6-3.5-15-7.5-22.2-11.8c-6.8-4.2-13.1-8.5-18.7-12.9c17.1-13.5,23.2-36.1,13.2-56.7
		c-12.7-26.1-46.3-39.2-75.2-29.1c-31.6,11-41,43-25.8,68.7c-48.2-53.1,7.3-123.8,85-99.8c26.2,8.1,48.9,25.8,60.8,50.2
		C227.4,129.7,219.5,165.3,194.5,188.5z"/>
</g>
<g>
	<path fill="#FFFFFF" d="M34.7,158.5c17.6,36.2,59,57.6,100.3,54.8c-16.2-6.1-32-16-45-29c-7.8-7.8-13.8-16-18.2-24.2
		c-9.1-6.3-16.9-14.3-23-23.6C37.5,118.9,34.6,99.6,39,82C24.6,104.1,21.9,132.2,34.7,158.5L34.7,158.5z"/>
</g>
<g>
	<path fill="#FFFFFF" d="M234.5,206.6c-28.2,6.1-68-4.1-97.8-26.7c-35.1-26.6-43.5-60.9-19.9-78.1c-8,18.8,7,47.1,40.6,71.4
		C181.1,190.4,209.2,202,234.5,206.6z"/>
</g>
<g>
	<path fill="#FFFFFF" d="M187.4,212.9c-29.6,5.2-68.1-7.9-94.8-34.2c-33-32.6-35.5-73.3-5.5-90.8c12-7,27.4-9.2,43.6-7.3
		c-4.7,1.3-9.2,3.1-13.2,5.4c-30,17.5-26.8,58.9,7.2,92.4C142.6,196.1,165.4,208.1,187.4,212.9L187.4,212.9z"/>
</g>
<g>
</g>
<g>
</g>
<g>
</g>
<g>
</g>
<g>
</g>
<g>
</g>
<g>
</g>
<g>
</g>
<g>
</g>
<g>
</g>
<g>
</g>
<g>
</g>
<g>
</g>
<g>
</g>
<g>
</g>
</svg>
