<?xml version="1.0" encoding="utf-8"?>
<!-- Generator: Adobe Illustrator 25.0.0, SVG Export Plug-In . SVG Version: 6.00 Build 0)  -->
<svg version="1.1" id="图层_1" xmlns="http://www.w3.org/2000/svg" xmlns:xlink="http://www.w3.org/1999/xlink" x="0px" y="0px"
	 viewBox="0 0 256 256" enable-background="new 0 0 256 256" xml:space="preserve">
<g>
	<path fill="#FFFFFF" d="M60,252c-30.9,0-56-25.1-56-56V60C4,29.1,29.1,4,60,4h136c30.9,0,56,25.1,56,56v136c0,30.9-25.1,56-56,56
		H60z"/>
	<g>
		<path fill="#303AB2" d="M196,8c28.7,0,52,23.3,52,52v136c0,28.7-23.3,52-52,52H60c-28.7,0-52-23.3-52-52V60C8,31.3,31.3,8,60,8
			H196 M196,0H60C26.9,0,0,26.9,0,60v136c0,33.1,26.9,60,60,60h136c33.1,0,60-26.9,60-60V60C256,26.9,229.1,0,196,0L196,0z"/>
	</g>
</g>
<path fill="#303AB2" d="M145,177.9v-13.2v-21.3c0-2.3,1.2-4.5,3.2-5.6l28.3-16.3l13-7.5V93c0-4.6-2.5-8.9-6.5-11.2l-57.8-33.4
	c-4-2.3-8.9-2.3-13,0L54.5,81.8c-4,2.3-6.5,6.6-6.5,11.2v66.7c0,4.6,2.5,8.9,6.5,11.2l57.8,33.4c4,2.3,8.9,2.3,13,0l19.7-11.4l0,0
	V177.9z M125.2,115.2c-4,2.3-6.5,6.6-6.5,11.2v55.4c0,5-5.4,8.1-9.7,5.6l-44.8-25.9c-2-1.2-3.2-3.3-3.2-5.6V96.7
	c0-2.3,1.2-4.5,3.2-5.6l51.3-29.6c2-1.2,4.5-1.2,6.5,0l38.3,22.1c4.3,2.5,4.3,8.7,0,11.2L125.2,115.2z"/>
<path fill="#303AB2" d="M198.3,108.9l-8.8,5.1v18.2v1.8v22.1v7.5c0,2.3-1.2,4.4-3.2,5.5l0,0l-0.7,0.4l-0.9,0.5l-8.1,4.7l-5.2,3
	L145,192.9l0,0v6.4v3.1v0.1c0,0,0,0,0,0v0.4c0.1,4.8,5.2,7.9,9.5,5.7l0.2-0.1l5.2-3l44.9-26c2-1.2,3.2-3.3,3.2-5.6v-59.4
	C208,109.5,202.6,106.4,198.3,108.9z"/>
</svg>
