<?xml version="1.0" encoding="utf-8"?>
<!-- Generator: Adobe Illustrator 25.0.0, SVG Export Plug-In . SVG Version: 6.00 Build 0)  -->
<svg version="1.1" id="图层_1" xmlns="http://www.w3.org/2000/svg" xmlns:xlink="http://www.w3.org/1999/xlink" x="0px" y="0px"
	 viewBox="0 0 16 16" enable-background="new 0 0 16 16" xml:space="preserve">
<g>
	<g>
		<path fill="#4479FB" d="M12.9,3.1v10.5H3.8c-0.4,0-0.7-0.3-0.7-0.7c0-0.4,0.4-0.7,0.7-0.7h8.4V1H3.8C2.6,1,1.7,1.9,1.7,3.1v9.8
			c0,1.2,0.9,2.1,2.1,2.1h10.5V3.1H12.9z M8,10.8H6.6V9.4H8V10.8z M8,2.4c0.9,0.2,1.7,1,1.9,1.9C10.2,5.8,9.3,7.2,8,7.5V8H6.6V6.9
			c0-0.4,0.3-0.6,0.6-0.6c0.6,0,1.1-0.3,1.3-0.8c0.2-0.8-0.4-1.6-1.2-1.6c-0.6,0-1.1,0.5-1.2,0.7H4.7C4.8,3.2,6.3,2,8,2.4z"/>
	</g>
</g>
<g>
</g>
<g>
</g>
<g>
</g>
<g>
</g>
<g>
</g>
<g>
</g>
</svg>
