<?xml version="1.0" encoding="utf-8"?>
<!-- Generator: Adobe Illustrator 25.0.0, SVG Export Plug-In . SVG Version: 6.00 Build 0)  -->
<svg version="1.1" id="图层_1" xmlns="http://www.w3.org/2000/svg" xmlns:xlink="http://www.w3.org/1999/xlink" x="0px" y="0px"
	 viewBox="0 0 16 16" enable-background="new 0 0 16 16" xml:space="preserve">
<g>
	<g>
		<path fill="#4479FB" d="M3.1,1.5C3.4,2,3.6,2.4,3.9,2.9C4,3,4,3.1,4.1,3.3C2.7,4.5,1.9,6,1.8,7.8C1.7,9.3,2,10.6,2.8,11.8
			c1.6,2.3,4.5,3.3,7.2,2.4c2.7-0.9,4.3-3.5,4.2-5.9h-1.9c-0.1,1.3-0.6,2.4-1.6,3.3c-0.7,0.6-1.6,0.9-2.5,1c-1.8,0.1-3.6-1-4.3-2.7
			C3.3,8.2,3.8,6.2,5.1,5l0.9,1.6c0.1-0.1,0.1-0.1,0.1-0.2C7.1,4.9,8,3.3,9,1.7C9,1.6,9,1.6,9,1.5C9,1.5,3.1,1.5,3.1,1.5z"/>
	</g>
</g>
<g>
</g>
<g>
</g>
<g>
</g>
<g>
</g>
<g>
</g>
<g>
</g>
</svg>
