<?xml version="1.0" encoding="utf-8"?>
<!-- Generator: Adobe Illustrator 25.0.0, SVG Export Plug-In . SVG Version: 6.00 Build 0)  -->
<svg version="1.1" id="图层_1" xmlns="http://www.w3.org/2000/svg" xmlns:xlink="http://www.w3.org/1999/xlink" x="0px" y="0px"
	 width="16px" height="16px" viewBox="0 0 16 16" enable-background="new 0 0 16 16" xml:space="preserve">
<path fill="#4479FB" d="M0.8,4.2c0,0,1.5-2.2,3.8-3.5s5.1-0.9,7,0.3c1.9,1.2,2.5,2.2,2.5,2.2l1.6-0.9c0,0,0.3-0.2,0.3,0.2v5.7
	c0,0,0,0.5-0.4,0.3c-0.3-0.2-3.8-2.2-5-2.8c-0.6-0.3-0.1-0.5-0.1-0.5l1.5-0.9c0,0-0.9-1.1-2.2-1.7C8.6,2,7.3,1.9,5.7,2.5
	c-1,0.4-2.3,1.4-3.1,2.9L0.8,4.2z"/>
<path fill="#808080" d="M15.2,11.8c0,0-1.5,2.2-3.8,3.5c-2.3,1.2-5.1,0.9-7-0.3s-2.5-2.2-2.5-2.2l-1.6,0.9c0,0-0.3,0.2-0.3-0.2V7.7
	c0,0,0-0.5,0.4-0.3c0.3,0.2,3.8,2.2,5,2.8c0.6,0.3,0.1,0.5,0.1,0.5l-1.5,0.9c0,0,0.9,1.1,2.2,1.7c1.4,0.7,2.7,0.8,4.3,0.2
	c1-0.4,2.3-1.4,3.1-2.9L15.2,11.8z"/>
</svg>
