<?xml version="1.0" encoding="utf-8"?>
<!-- Generator: Adobe Illustrator 25.0.0, SVG Export Plug-In . SVG Version: 6.00 Build 0)  -->
<svg version="1.1" id="图层_1" xmlns="http://www.w3.org/2000/svg" xmlns:xlink="http://www.w3.org/1999/xlink" x="0px" y="0px"
	 width="24px" height="24px" viewBox="0 0 24 24" enable-background="new 0 0 24 24" xml:space="preserve">
<path fill="#4479fb" d="M5.5,4.4C7.2,2.9,9.5,2,12,2c5.5,0,10,4.5,10,10c0,2.1-0.7,4.1-1.8,5.7L17,12h3c0-4.4-3.6-8-8-8
	C9.8,4,7.9,4.8,6.5,6.2L5.5,4.4z M18.5,19.6c-1.8,1.5-4,2.4-6.5,2.4C6.5,22,2,17.5,2,12c0-2.1,0.7-4.1,1.8-5.7L7,12H4
	c0,4.4,3.6,8,8,8c2.2,0,4.1-0.8,5.5-2.2L18.5,19.6z"/>
</svg>
