<?xml version="1.0" encoding="utf-8"?>
<!-- Generator: Adobe Illustrator 25.0.0, SVG Export Plug-In . SVG Version: 6.00 Build 0)  -->
<svg version="1.1" id="图层_1" xmlns="http://www.w3.org/2000/svg" xmlns:xlink="http://www.w3.org/1999/xlink" x="0px" y="0px"
	 viewBox="0 0 128 128" enable-background="new 0 0 128 128" xml:space="preserve">
<g>
	<path fill="#4479FB" d="M64,46.1c9.2,0,18.5,0,27.7,0c1.5,0,1.9,0.4,1.7,1.9c-0.7,5.4-1.3,10.7-2,16.1c-0.6,4.7-1.2,9.4-1.7,14.1
		c-0.6,4.8-1.2,9.5-1.8,14.3c-0.3,2.3-0.5,4.6-0.9,6.8c-0.6,3.5-3.6,6-7.1,6c-10.5,0-21.1,0-31.6,0c-3.9,0-6.9-3-7.3-6.9
		c-0.3-3.5-0.8-7-1.3-10.4c-0.5-3.8-0.9-7.7-1.4-11.5c-0.5-4.4-1.1-8.7-1.6-13.1c-0.5-4.3-1.1-8.7-1.6-13c-0.1-0.9-0.3-1.7-0.3-2.6
		c-0.1-1.1,0.4-1.6,1.5-1.6C45.4,46.1,54.7,46.1,64,46.1C64,46.1,64,46.1,64,46.1z M59.8,74.5c-2.3,2.3-4.5,4.5-6.7,6.7
		c-1.3,1.3-1.4,3.1-0.2,4.3c1.2,1.3,3,1.3,4.3,0c0.5-0.5,1-1,1.6-1.6c1.7-1.7,3.4-3.5,5.3-5.4c0.3,0.4,0.5,0.7,0.8,1c2,2,4,4,6,6
		c0.8,0.8,1.8,1.1,3,0.8c1.1-0.3,1.8-1.1,2-2.2c0.3-1.1-0.1-2.1-0.9-2.9c-2.2-2.2-4.5-4.5-6.9-6.9c0.3-0.2,0.6-0.3,0.8-0.5
		c2-2,4.1-4,6.1-6.1c1.3-1.3,1.4-3.1,0.2-4.4c-1.2-1.2-3-1.1-4.3,0.2c-2,2-4.1,4.1-6.1,6.1c-0.2,0.2-0.4,0.4-0.6,0.6
		c-2.3-2.3-4.5-4.5-6.7-6.7c-1.3-1.3-3.2-1.4-4.4-0.2c-1.2,1.2-1.1,3,0.2,4.4C55.4,70.1,57.6,72.3,59.8,74.5z"/>
	<path fill="#4479FB" d="M54.3,30.1c0-1.5,0-3,0-4.5c0-1.8,0.9-2.8,2.7-2.8c4.7,0,9.3,0,14,0c1.9,0,3,1.2,2.9,3
		c-0.1,1.4,0,2.9,0,4.4c0.4,0,0.6,0,0.9,0c6.9,0,13.8,0,20.6,0c2.2,0,3,0.8,3,3c0,1.4,0,2.8,0,4.2c0,1.6-1,2.6-2.6,2.6
		c-4.4,0-8.8,0-13.2,0c-16.8,0-33.6,0-50.4,0c-1.8,0-3.1-1-2.9-3c0.1-1.4,0-2.9,0-4.3c0-1.6,1-2.5,2.5-2.6c1.5,0,3,0,4.5,0
		c5.6,0,11.3,0,16.9,0C53.7,30.1,53.9,30.1,54.3,30.1z"/>
</g>
<g>
</g>
<g>
</g>
<g>
</g>
<g>
</g>
<g>
</g>
<g>
</g>
</svg>
