<?xml version="1.0" encoding="utf-8"?>
<!-- Generator: Adobe Illustrator 25.0.0, SVG Export Plug-In . SVG Version: 6.00 Build 0)  -->
<svg version="1.1" id="图层_1" xmlns="http://www.w3.org/2000/svg" xmlns:xlink="http://www.w3.org/1999/xlink" x="0px" y="0px"
	 viewBox="0 0 128 128" enable-background="new 0 0 128 128" xml:space="preserve">
<g>
	<path fill="#174CCE" d="M64,38.7c13,0,26.1,0,39.1,0c2.2,0,2.7,0.6,2.4,2.8c-0.9,7.6-1.9,15.1-2.9,22.7c-0.8,6.7-1.6,13.3-2.5,20
		c-0.8,6.7-1.7,13.5-2.6,20.2c-0.4,3.2-0.7,6.4-1.3,9.6c-0.9,4.9-5.1,8.4-10.1,8.4c-14.9,0-29.8,0-44.7,0c-5.5,0-9.8-4.3-10.4-9.7
		c-0.5-4.9-1.2-9.8-1.8-14.7c-0.7-5.4-1.3-10.9-2-16.3c-0.8-6.2-1.5-12.4-2.3-18.5C24.5,57,23.7,50.8,23,44.7
		c-0.2-1.2-0.4-2.5-0.5-3.7c-0.1-1.6,0.6-2.3,2.1-2.3C37.8,38.7,50.9,38.7,64,38.7C64,38.7,64,38.7,64,38.7z M58.1,78.8
		c-3.2,3.2-6.3,6.4-9.4,9.5c-1.8,1.8-2,4.3-0.3,6.1c1.7,1.8,4.2,1.8,6,0c0.7-0.7,1.5-1.5,2.2-2.2c2.4-2.5,4.9-4.9,7.5-7.6
		c0.4,0.5,0.7,1,1.1,1.3c2.8,2.8,5.6,5.7,8.5,8.5c1.2,1.2,2.6,1.6,4.2,1.1c1.6-0.4,2.5-1.5,2.9-3.1c0.4-1.6-0.1-2.9-1.3-4
		c-3.2-3.1-6.3-6.3-9.7-9.7c0.4-0.3,0.8-0.5,1.1-0.7c2.9-2.8,5.7-5.7,8.6-8.6c1.9-1.9,2-4.4,0.2-6.2c-1.7-1.7-4.2-1.6-6.1,0.3
		c-2.9,2.9-5.8,5.8-8.7,8.6c-0.3,0.3-0.5,0.5-0.9,0.8c-3.2-3.2-6.3-6.4-9.4-9.5c-1.9-1.9-4.5-2-6.2-0.2c-1.7,1.7-1.6,4.3,0.3,6.2
		C51.8,72.6,55,75.7,58.1,78.8z"/>
	<path fill="#174CCE" d="M50.3,16c0-2.2,0-4.3,0-6.4c0-2.6,1.3-3.9,3.8-3.9c6.6,0,13.2,0.1,19.8,0c2.7,0,4.3,1.6,4.1,4.2
		c-0.1,2,0,4.1,0,6.2c0.5,0,0.9,0,1.3,0c9.7,0,19.4,0,29.2,0c3.1,0,4.3,1.1,4.3,4.2c0,2,0,4,0,6c0,2.3-1.3,3.6-3.6,3.7
		c-6.2,0-12.4,0-18.6,0c-23.7,0-47.5,0-71.2,0c-2.5,0-4.3-1.5-4.1-4.2c0.1-2,0-4.1,0-6.1c0-2.2,1.4-3.6,3.6-3.6c2.1,0,4.2,0,6.4,0
		c8,0,15.9,0,23.9,0C49.4,16,49.8,16,50.3,16z"/>
</g>
<g>
</g>
<g>
</g>
<g>
</g>
<g>
</g>
<g>
</g>
<g>
</g>
</svg>
