<?xml version="1.0" encoding="utf-8"?>
<!-- Generator: Adobe Illustrator 25.0.0, SVG Export Plug-In . SVG Version: 6.00 Build 0)  -->
<svg version="1.1" id="图层_1" xmlns="http://www.w3.org/2000/svg" xmlns:xlink="http://www.w3.org/1999/xlink" x="0px" y="0px"
	 viewBox="0 0 1000 1000" enable-background="new 0 0 1000 1000" xml:space="preserve">
<g>
	<path fill="#4479FB" d="M821.6,678.8c-99.3,178.7-321.7,242.2-500.4,142.8c-78.6-43.7-141.3-116-168.7-201.4L86.9,738.2l-71.5-39.7
		l139-250.1l250.1,139l-39.7,71.5l-139.4-77.5c20.6,72.3,67.5,131.1,135.4,168.8c139.4,77.5,311.7,28.3,389.2-111.1L821.6,678.8z
		 M639.1,249.9c67.9,37.7,114.7,96.5,135.4,168.8l-139.4-77.5l-39.7,71.5l250.1,139l139-250.1l-71.5-39.7l-65.6,117.9
		c-27.4-85.4-90.1-157.7-168.7-201.4c-178.7-99.3-401.1-35.8-500.4,142.8l71.5,39.7C327.3,221.6,499.7,172.4,639.1,249.9z"/>
</g>
<g>
</g>
<g>
</g>
<g>
</g>
<g>
</g>
<g>
</g>
<g>
</g>
</svg>
