<?xml version="1.0" encoding="utf-8"?>
<!-- Generator: Adobe Illustrator 25.0.0, SVG Export Plug-In . SVG Version: 6.00 Build 0)  -->
<svg version="1.1" id="图层_1" xmlns="http://www.w3.org/2000/svg" xmlns:xlink="http://www.w3.org/1999/xlink" x="0px" y="0px"
	 viewBox="0 0 128 128" enable-background="new 0 0 128 128" xml:space="preserve">
<g>
	<g>
		<g>
			<path fill="#174CCE" d="M65.5,91.5c-0.2,0-0.4,0-0.6-0.1L39.4,80.5c-0.6-0.2-0.9-0.8-0.9-1.4v-30c0-0.6,0.4-1.2,0.9-1.4l25.2-11
				c0.4-0.2,0.8-0.2,1.2,0l25.8,11c0.6,0.2,0.9,0.8,0.9,1.4v30c0,0.6-0.4,1.2-0.9,1.4L66.1,91.4C65.9,91.5,65.7,91.5,65.5,91.5z
				 M41.5,78.1l23.9,10.2l24.1-10.2v-28L65.3,39.7L41.5,50.1V78.1z"/>
		</g>
		<g>
			<path fill="#174CCE" d="M65.5,91.5C65.5,91.5,65.5,91.5,65.5,91.5c-0.8,0-1.5-0.7-1.5-1.5L64,61.1L39.4,50.5
				c-0.8-0.3-1.1-1.2-0.8-2c0.3-0.8,1.2-1.1,2-0.8l25.5,11.1c0.6,0.2,0.9,0.8,0.9,1.4L67,90C67,90.8,66.3,91.5,65.5,91.5z"/>
		</g>
		<g>
			<path fill="#174CCE" d="M65.5,61.7c-0.6,0-1.2-0.3-1.4-0.9c-0.3-0.8,0-1.7,0.8-2l25.5-11.1c0.8-0.3,1.7,0,2,0.8
				c0.3,0.8,0,1.7-0.8,2L66.1,61.5C65.9,61.6,65.7,61.7,65.5,61.7z"/>
		</g>
	</g>
	<g>
		<path fill="#174CCE" d="M113.6,34.4l-3.2-18.1c-0.5-2.9-4.1-4-6.2-1.9L99.6,19C87,8.4,70.4,3.7,54.2,6.2
			C22.8,11,1.3,40.9,6.2,72.8c0.3,2,2,3.4,3.9,3.4c0.2,0,0.4,0,0.6,0c2.2-0.3,3.7-2.4,3.3-4.6C9.9,44.1,28.4,18.3,55.4,14.1
			c13.9-2.2,27.7,1.7,38.6,10.6L89.5,29c-2.1,2.1-1,5.6,1.9,6.2l17.9,3.4C111.9,39.1,114.1,36.9,113.6,34.4z"/>
		<path fill="#174CCE" d="M14.4,93.6l3.2,18.1c0.5,2.9,4.1,4,6.2,1.9l4.6-4.6c12.6,10.5,29.2,15.3,45.5,12.8
			c31.4-4.9,52.9-34.8,48-66.6c-0.3-2-2-3.4-3.9-3.4c-0.2,0-0.4,0-0.6,0c-2.2,0.3-3.7,2.4-3.3,4.6c4.3,27.5-14.3,53.3-41.3,57.5
			c-13.9,2.2-27.7-1.7-38.6-10.6l4.4-4.4c2.1-2.1,1-5.6-1.9-6.2l-17.9-3.4C16.1,88.9,13.9,91.1,14.4,93.6z"/>
	</g>
</g>
</svg>
