<?xml version="1.0" encoding="utf-8"?>
<!-- Generator: Adobe Illustrator 25.0.0, SVG Export Plug-In . SVG Version: 6.00 Build 0)  -->
<svg version="1.1" id="图层_1" xmlns="http://www.w3.org/2000/svg" xmlns:xlink="http://www.w3.org/1999/xlink" x="0px" y="0px"
	 viewBox="0 0 128 128" enable-background="new 0 0 128 128" xml:space="preserve">
<g>
	<path fill="#174CCE" d="M32.4,33.3c8.5-8.5,19.2-13.8,28-13.9L60.3,7.8C48.4,8,35,14.4,24.2,25.1S7.1,49.3,6.9,61.2l11.6,0.2
		C18.6,52.5,24,41.8,32.4,33.3z"/>
	<path fill="#174CCE" d="M80.7,6.9L9.2,78.4l40.4,40.4l71.4-71.5L80.7,6.9z M25.7,78.4l55-55l24,24l-55,55L25.7,78.4z"/>
	<path fill="#174CCE" d="M108.9,67.6c-0.1,8.8-5.4,19.6-13.9,28s-19.2,13.8-28,13.9l0.2,11.6c11.9-0.2,25.4-6.6,36.1-17.3
		s17.2-24.2,17.3-36.1L108.9,67.6z"/>
</g>
<g>
</g>
<g>
</g>
<g>
</g>
<g>
</g>
<g>
</g>
<g>
</g>
</svg>
