<?xml version="1.0" encoding="utf-8"?>
<!-- Generator: Adobe Illustrator 25.0.0, SVG Export Plug-In . SVG Version: 6.00 Build 0)  -->
<svg version="1.1" id="图层_1" xmlns="http://www.w3.org/2000/svg" xmlns:xlink="http://www.w3.org/1999/xlink" x="0px" y="0px"
	 viewBox="0 0 128 128" enable-background="new 0 0 128 128" xml:space="preserve">
<g>
	<polygon fill="#174CCE" points="89.6,121.6 70.4,121.6 70.4,108.8 76.8,108.8 76.8,102.4 89.6,102.4 	"/>
	<rect x="38.4" y="108.8" fill="#174CCE" width="12.8" height="12.8"/>
	<polygon fill="#174CCE" points="25.6,121.6 6.5,121.6 6.5,102.4 19.2,102.4 19.2,108.8 25.6,108.8 	"/>
	<rect x="6.5" y="76.8" fill="#174CCE" width="12.8" height="12.8"/>
	<polygon fill="#174CCE" points="19.2,64 6.5,64 6.5,44.8 25.6,44.8 25.6,57.6 19.2,57.6 	"/>
	<rect x="38.4" y="44.8" fill="#174CCE" width="12.8" height="12.8"/>
	<rect x="76.8" y="76.8" fill="#174CCE" width="12.8" height="12.8"/>
	<path fill="#174CCE" d="M44.8,6.5v76.7h76.7V6.5H44.8z M105.8,44l-5.2-5.2L72.3,67.2l-9.9-10l28.3-28.3l-5.2-5.2l24.3-4.1L105.8,44
		z"/>
</g>
<g>
</g>
<g>
</g>
<g>
</g>
<g>
</g>
<g>
</g>
<g>
</g>
</svg>
