<?xml version="1.0" encoding="utf-8"?>
<!-- Generator: Adobe Illustrator 25.0.0, SVG Export Plug-In . SVG Version: 6.00 Build 0)  -->
<svg version="1.1" id="图层_1" xmlns="http://www.w3.org/2000/svg" xmlns:xlink="http://www.w3.org/1999/xlink" x="0px" y="0px"
	 viewBox="0 0 128 128" enable-background="new 0 0 128 128" xml:space="preserve">
<g>
	<polygon fill="#174CCE" points="105.9,10.7 6.5,10.7 37.3,64 6.5,117.3 105.9,117.3 75.1,64 	"/>
	<g>
		
			<rect x="61.7" y="66.2" transform="matrix(0.7071 -0.7071 0.7071 0.7071 -27.2708 83.533)" fill="#808080" width="51.1" height="17"/>
		<polygon fill="#808080" points="73.7,100.7 56.6,104.5 61.5,89 		"/>
		<path fill="#808080" d="M120.6,53.3l-7.9,7.9l-12.1-12.1l7.9-7.9c1.1-1.1,3-1.1,4.1,0l8,8C121.8,50.3,121.8,52.2,120.6,53.3z"/>
	</g>
	<g>
		<path fill="#808080" d="M55.9,101.9c-3-0.4-6-0.7-9-1.1c-1.5-0.2-2.9-0.3-4.4,0c-1.5,0.3-2.9,0.9-4.2,1.5c-1,0.5-1.3,1.9-0.7,2.8
			c0.6,1,1.8,1.2,2.8,0.7c1-0.5,2.1-1,3.3-1.1c1.3-0.1,2.6,0.1,3.9,0.3c2.8,0.3,5.6,0.7,8.3,1c1.1,0.1,2-1,2-2
			C58,102.7,57,102,55.9,101.9L55.9,101.9z"/>
	</g>
</g>
<g>
</g>
<g>
</g>
<g>
</g>
<g>
</g>
<g>
</g>
<g>
</g>
</svg>
