<?xml version="1.0" encoding="utf-8"?>
<!-- Generator: Adobe Illustrator 25.0.0, SVG Export Plug-In . SVG Version: 6.00 Build 0)  -->
<svg version="1.1" id="图层_1" xmlns="http://www.w3.org/2000/svg" xmlns:xlink="http://www.w3.org/1999/xlink" x="0px" y="0px"
	 viewBox="0 0 128 128" enable-background="new 0 0 128 128" xml:space="preserve">
<g>
	<g>
		<g>
			<path fill="#174CCE" d="M63.9,122.4c-0.5,0-1.1-0.1-1.6-0.3L9,99.3c-1.5-0.6-2.4-2.1-2.4-3.7V32.7c0-1.6,0.9-3,2.4-3.7L61.8,5.9
				c1-0.4,2.2-0.4,3.2,0L119,29c1.5,0.6,2.4,2.1,2.4,3.7v62.9c0,1.6-1,3.1-2.4,3.7l-53.6,22.8C64.9,122.3,64.4,122.4,63.9,122.4z
				 M14.5,93l49.3,21.1L113.5,93V35.3L63.4,14L14.5,35.3V93z"/>
		</g>
		<g>
			<path fill="#174CCE" d="M63.9,122.4C63.9,122.4,63.9,122.4,63.9,122.4c-2.2,0-4-1.8-4-4L60,58.5L8.9,36.3c-2-0.9-3-3.2-2.1-5.3
				c0.9-2,3.2-3,5.3-2.1l53.5,23.2c1.5,0.6,2.4,2.1,2.4,3.7l-0.1,62.5C67.9,120.6,66.1,122.4,63.9,122.4z"/>
		</g>
		<g>
			<path fill="#174CCE" d="M64,59.9c-1.5,0-3-0.9-3.7-2.4c-0.9-2,0-4.4,2.1-5.3L115.9,29c2-0.9,4.4,0,5.3,2.1c0.9,2,0,4.4-2.1,5.3
				L65.6,59.6C65.1,59.8,64.5,59.9,64,59.9z"/>
		</g>
	</g>
	<g>
		<path fill="#174CCE" d="M95,54.5l-7.6,3.4c-0.9,0.4-1.7-0.1-1.7-1.2l0,0c0-1,0.8-2.3,1.7-2.6l7.6-3.4c0.9-0.4,1.7,0.1,1.7,1.2l0,0
			C96.7,52.9,96,54.1,95,54.5z"/>
		<path fill="#174CCE" d="M89.9,63.6L82.3,67c-0.9,0.4-1.7-0.1-1.7-1.2l0,0c0-1,0.8-2.3,1.7-2.6l7.6-3.4c0.9-0.4,1.7,0.1,1.7,1.2
			l0,0C91.6,62,90.9,63.1,89.9,63.6z"/>
		<path fill="#174CCE" d="M98,67l-7.6,3.4c-0.9,0.4-1.7-0.1-1.7-1.2l0,0c0-1,0.8-2.3,1.7-2.6l7.6-3.4c0.9-0.4,1.7,0.1,1.7,1.2l0,0
			C99.7,65.4,98.9,66.5,98,67z"/>
		<path fill="#174CCE" d="M103.5,71.4l-7.6,3.4c-0.9,0.4-1.7-0.1-1.7-1.2l0,0c0-1,0.8-2.3,1.7-2.6l7.6-3.4c0.9-0.4,1.7,0.1,1.7,1.2
			l0,0C105.1,69.8,104.4,71.1,103.5,71.4z"/>
		<path fill="#174CCE" d="M94.6,82.8l-7.6,3.4c-0.9,0.4-1.7-0.1-1.7-1.2l0,0c0-1,0.8-2.3,1.7-2.6l7.6-3.4c0.9-0.4,1.7,0.1,1.7,1.2
			l0,0C96.3,81.2,95.5,82.3,94.6,82.8z"/>
		<path fill="#174CCE" d="M104,85.5l-7.6,3.4c-0.9,0.4-1.7-0.1-1.7-1.2l0,0c0-1,0.8-2.3,1.7-2.6l7.6-3.4c0.9-0.4,1.7,0.1,1.7,1.2
			l0,0C105.7,83.9,104.9,85,104,85.5z"/>
		<path fill="#174CCE" d="M98.5,94.8l-7.6,3.4c-0.9,0.4-1.7-0.1-1.7-1.2l0,0c0-1,0.8-2.3,1.7-2.6l7.6-3.4c0.9-0.4,1.7,0.1,1.7,1.2
			l0,0C100.1,93.2,99.4,94.5,98.5,94.8z"/>
	</g>
</g>
</svg>
