<?xml version="1.0" encoding="utf-8"?>
<!-- Generator: Adobe Illustrator 25.0.0, SVG Export Plug-In . SVG Version: 6.00 Build 0)  -->
<svg version="1.1" id="图层_1" xmlns="http://www.w3.org/2000/svg" xmlns:xlink="http://www.w3.org/1999/xlink" x="0px" y="0px"
	 viewBox="0 0 24 24" enable-background="new 0 0 24 24" xml:space="preserve">
<g>
	<g>
		<path fill="#4479FB" d="M23.6,21.3l-6.9-6.9c2.9-4.1,1.9-9.8-2.3-12.7S4.5-0.2,1.7,3.9s-1.9,9.8,2.3,12.7c3.1,2.2,7.3,2.2,10.5,0
			l6.9,6.9c0.6,0.6,1.7,0.6,2.3,0C24.2,22.9,24.2,21.9,23.6,21.3L23.6,21.3z M2.4,9.1c0-3.7,3-6.7,6.7-6.7s6.7,3,6.7,6.7
			s-3,6.7-6.7,6.7l0,0C5.4,15.9,2.4,12.9,2.4,9.1z"/>
	</g>
</g>
<g>
</g>
<g>
</g>
<g>
</g>
<g>
</g>
<g>
</g>
<g>
</g>
</svg>
