<?xml version="1.0" encoding="utf-8"?>
<!-- Generator: Adobe Illustrator 25.0.0, SVG Export Plug-In . SVG Version: 6.00 Build 0)  -->
<svg version="1.1" id="图层_1" xmlns="http://www.w3.org/2000/svg" xmlns:xlink="http://www.w3.org/1999/xlink" x="0px" y="0px"
	 viewBox="0 0 16 16" enable-background="new 0 0 16 16" xml:space="preserve">
<path fill="#4479FB" d="M8,1C4.1,1,1,4.1,1,8s3.1,7,7,7s7-3.1,7-7S11.8,1,8,1z M11.9,8.5l-4.1,4.1c-0.1,0.1-0.3,0.2-0.5,0.2
	S7,12.7,6.9,12.6c-0.3-0.3-0.3-0.7,0-1l2.9-2.9H3.8C3.5,8.7,3.2,8.4,3.2,8c0-0.4,0.3-0.7,0.7-0.7h5.9L6.9,4.4c-0.3-0.3-0.3-0.7,0-1
	c0.3-0.3,0.7-0.3,1,0l4.1,4.1c0.1,0.1,0.2,0.3,0.2,0.5C12.1,8.2,12.1,8.4,11.9,8.5z"/>
<g>
</g>
<g>
</g>
<g>
</g>
<g>
</g>
<g>
</g>
<g>
</g>
</svg>
