<?xml version="1.0" encoding="utf-8"?>
<!-- Generator: Adobe Illustrator 25.0.0, SVG Export Plug-In . SVG Version: 6.00 Build 0)  -->
<svg version="1.1" id="图层_1" xmlns="http://www.w3.org/2000/svg" xmlns:xlink="http://www.w3.org/1999/xlink" x="0px" y="0px"
	 viewBox="0 0 128 128" enable-background="new 0 0 128 128" xml:space="preserve">
<g>
	<path fill="#174CCE" d="M120.3,109.2L86.7,75.6c14.1-20.2,9.2-48-11-62.1s-48-9.2-62.2,11s-9.2,48,11,62.1
		c15.3,10.7,35.7,10.7,51.1,0.1l33.6,33.6c3.1,3,8.1,2.9,11.1-0.2C123.3,117,123.3,112.2,120.3,109.2L120.3,109.2z M17.3,50.1
		c0-18.1,14.7-32.8,32.9-32.8S83,31.9,83,50.1S68.3,82.9,50.1,82.9l0,0C32,82.9,17.3,68.2,17.3,50.1z"/>
</g>
<g>
</g>
<g>
</g>
<g>
</g>
<g>
</g>
<g>
</g>
<g>
</g>
</svg>
