<?xml version="1.0" encoding="utf-8"?>
<!-- Generator: Adobe Illustrator 25.0.0, SVG Export Plug-In . SVG Version: 6.00 Build 0)  -->
<svg version="1.1" id="Layer_1" xmlns="http://www.w3.org/2000/svg" xmlns:xlink="http://www.w3.org/1999/xlink" x="0px" y="0px"
	 viewBox="0 0 16 16" enable-background="new 0 0 16 16" xml:space="preserve">
<g id="set_x5F_separate_x5F_obj">
	<g>
		<path fill="#808080" d="M6,15.5H2c-0.8,0-1.5-0.7-1.5-1.5l0-4c0-0.4,0.1-0.8,0.4-1.1c0.3-0.3,0.7-0.4,1-0.4h4
			c0.8,0,1.5,0.7,1.5,1.5v4C7.5,14.8,6.8,15.5,6,15.5z M6,9.5H2c-0.1,0-0.3,0.1-0.4,0.1C1.6,9.8,1.5,9.9,1.5,10l0,4
			c0,0.3,0.2,0.5,0.5,0.5h4c0.3,0,0.5-0.2,0.5-0.5v-4C6.5,9.7,6.3,9.5,6,9.5z"/>
	</g>
	<g>
		<path fill="#808080" d="M6,7.5H2C1.2,7.5,0.5,6.8,0.5,6l0-4c0-0.4,0.1-0.8,0.4-1.1c0.3-0.3,0.7-0.4,1-0.4h4c0.8,0,1.5,0.7,1.5,1.5
			v4C7.5,6.8,6.8,7.5,6,7.5z M6,1.5H2c-0.1,0-0.3,0-0.4,0.1C1.6,1.8,1.5,1.9,1.5,2l0,4c0,0.3,0.2,0.5,0.5,0.5h4
			c0.3,0,0.5-0.2,0.5-0.5V2C6.5,1.8,6.3,1.5,6,1.5z"/>
	</g>
	<g>
		<path fill="#4479FB" d="M14,7.5h-4C9.2,7.5,8.5,6.8,8.5,6l0-4c0-0.4,0.1-0.8,0.4-1.1C9.2,0.7,9.6,0.5,10,0.5h4
			c0.8,0,1.5,0.7,1.5,1.5v4C15.5,6.8,14.8,7.5,14,7.5z M14,1.5h-4c-0.1,0-0.3,0-0.4,0.1C9.6,1.8,9.5,1.9,9.5,2l0,4
			c0,0.3,0.2,0.5,0.5,0.5h4c0.3,0,0.5-0.2,0.5-0.5V2C14.5,1.8,14.3,1.5,14,1.5z"/>
	</g>
	<g>
		<path fill="#808080" d="M14,15.5h-4c-0.8,0-1.5-0.7-1.5-1.5l0-4c0-0.4,0.1-0.8,0.4-1.1C9.2,8.7,9.6,8.5,10,8.5h4
			c0.8,0,1.5,0.7,1.5,1.5v4C15.5,14.8,14.8,15.5,14,15.5z M14,9.5h-4c-0.1,0-0.3,0.1-0.4,0.1C9.6,9.8,9.5,9.9,9.5,10l0,4
			c0,0.3,0.2,0.5,0.5,0.5h4c0.3,0,0.5-0.2,0.5-0.5v-4C14.5,9.8,14.3,9.5,14,9.5z"/>
	</g>
</g>
</svg>
