<?xml version="1.0" encoding="utf-8"?>
<!-- Generator: Adobe Illustrator 25.0.0, SVG Export Plug-In . SVG Version: 6.00 Build 0)  -->
<svg version="1.1" id="图层_1" xmlns="http://www.w3.org/2000/svg" xmlns:xlink="http://www.w3.org/1999/xlink" x="0px" y="0px"
	 viewBox="0 0 128 128" enable-background="new 0 0 128 128" xml:space="preserve">
<path fill="#174CCE" d="M109.9,67.2l-0.3-10.4l10.2-7.2c-0.2-6.9-3.8-13.8-7.4-18.9l-13.8,2.1l-7.1-6.7l3.2-12.2
	c-5.3-3.3-12.3-6.6-19.2-8.2l-6.7,10.5l-10.4,0.3L51.4,6.3c-8.6,1.9-15.4,5.6-20.5,9.2l2.1,13.8l-6.8,7.1l-12.2-3.2
	c-5,7-6.6,12.3-8.2,19.2l10.5,6.7l0.3,10.4L6.4,78.4c1.9,6.9,5.5,13.7,9.1,18.8l12.1-2l8.8,6.7l-3.2,12.2c5.3,3.3,12.3,6.6,19.2,8.2
	l6.7-10.5l10.4-0.3l7.2,10.2c6.9-1.9,13.8-3.8,18.8-9.1l-2.1-13.8l6.8-7.1l13.9,3.1c3.3-5.3,6.6-12.3,8.2-19.2L109.9,67.2z
	 M63.7,87.4c-12.1,0.3-22.7-9.8-23-21.9c-0.3-12.1,9.8-22.7,21.9-23c12.1-0.3,22.7,9.8,23,21.9C85.9,76.5,77.5,87,63.7,87.4"/>
</svg>
