<?xml version="1.0" encoding="utf-8"?>
<!-- Generator: Adobe Illustrator 25.0.0, SVG Export Plug-In . SVG Version: 6.00 Build 0)  -->
<svg version="1.1" id="Layer_1" xmlns="http://www.w3.org/2000/svg" xmlns:xlink="http://www.w3.org/1999/xlink" x="0px" y="0px"
	 viewBox="0 0 128 128" enable-background="new 0 0 128 128" xml:space="preserve">
<g id="settings">
	<g>
		<g>
			<path fill="#4479FB" d="M52,82c-0.6,0-1.1-0.1-1.7-0.3c-1.1-0.4-1.9-1.3-2.3-2.3l-1.7-4.1c-1.6,0.1-3.2,0.1-4.9,0l-1.7,4.1
				c-0.9,2.2-3.4,3.2-5.6,2.3l-10-4.2c-2.2-0.9-3.2-3.4-2.3-5.6l1.7-4.1c-1.2-1.1-2.4-2.2-3.4-3.4L16,66c-1.1,0.4-2.2,0.4-3.3,0
				s-1.9-1.3-2.3-2.3l-4.1-10c-0.9-2.2,0.2-4.7,2.3-5.6l4.1-1.7c-0.1-1.6-0.1-3.2,0-4.9l-4.1-1.7c-1.1-0.4-1.9-1.3-2.3-2.3
				c-0.4-1.1-0.4-2.2,0-3.3l4.2-10c0.4-1.1,1.3-1.9,2.3-2.3s2.2-0.4,3.3,0l4.1,1.7c1.1-1.2,2.2-2.4,3.4-3.4L22,16
				c-0.4-1.1-0.4-2.2,0-3.3s1.3-1.9,2.3-2.3l10-4.1c2.2-0.9,4.7,0.2,5.6,2.3l1.7,4.1c1.6-0.1,3.2-0.1,4.9,0l1.7-4.1
				c0.4-1.1,1.3-1.9,2.3-2.3c1.1-0.4,2.2-0.4,3.3,0l10,4.2c1.1,0.4,1.9,1.3,2.3,2.3s0.4,2.2,0,3.3l-1.7,4.1c1.2,1.1,2.4,2.2,3.4,3.4
				l4.1-1.7c1.1-0.4,2.2-0.4,3.3,0s1.9,1.3,2.3,2.3l4.1,10c0.4,1.1,0.4,2.2,0,3.3s-1.3,1.9-2.3,2.3l-4.1,1.7c0.1,1.6,0.1,3.2,0,4.9
				l4.1,1.7c2.2,0.9,3.2,3.4,2.3,5.6l-4.2,10C76.5,66,74,67,71.8,66.1l-4.1-1.7c-1.1,1.2-2.2,2.4-3.4,3.4l1.7,4.1
				c0.4,1.1,0.4,2.2,0,3.3s-1.3,1.9-2.3,2.3l-10,4.1C53.1,81.9,52.5,82,52,82z M46.8,70.2c1.8,0,3.3,1,4,2.7l1.6,3.9l8.7-3.6
				l-1.6-3.9c-0.7-1.8-0.2-3.8,1.3-5c1.2-1,2.4-2.2,3.5-3.5c1.2-1.5,3.2-2,4.9-1.2l3.9,1.7l3.6-8.7l-3.9-1.7
				c-1.7-0.7-2.8-2.5-2.6-4.4c0.2-1.6,0.2-3.3,0-4.9c-0.2-1.9,0.9-3.7,2.6-4.4l3.9-1.6l-3.6-8.7l-3.9,1.6c-1.8,0.7-3.8,0.2-5-1.3
				c-1-1.2-2.2-2.4-3.5-3.5c-1.5-1.2-2-3.2-1.2-4.9l1.7-3.9l-8.7-3.6l-1.7,3.9c-0.7,1.7-2.5,2.8-4.4,2.6c-1.6-0.2-3.3-0.2-4.9,0
				c-1.9,0.2-3.7-0.9-4.4-2.6l-1.6-3.9l-8.7,3.6l1.6,3.9c0.7,1.8,0.2,3.8-1.3,5c-1.2,1-2.4,2.2-3.5,3.5c-1.2,1.5-3.2,2-4.9,1.2
				l-3.9-1.6l-3.6,8.7l3.9,1.7c1.7,0.7,2.8,2.5,2.6,4.4c-0.2,1.6-0.2,3.3,0,4.9c0.2,1.9-0.9,3.7-2.6,4.4l-3.9,1.6l3.6,8.7l3.9-1.6
				c1.8-0.7,3.8-0.2,5,1.3c1,1.2,2.2,2.4,3.5,3.5c1.5,1.2,2,3.2,1.2,4.9l-1.6,3.9l8.7,3.6l1.7-3.9c0.7-1.7,2.5-2.8,4.4-2.6
				c1.6,0.2,3.3,0.2,4.9,0C46.5,70.2,46.6,70.2,46.8,70.2z M77,36.3C77,36.3,77,36.3,77,36.3L77,36.3z"/>
		</g>
		<g>
			<path fill="#4479FB" d="M44,60.9c-2.2,0-4.4-0.4-6.5-1.3c-4.2-1.7-7.4-5-9.1-9.2c-1.7-4.2-1.7-8.8,0-12.9s5-7.4,9.2-9.1
				c4.2-1.7,8.8-1.7,12.9,0c4.2,1.7,7.4,5,9.1,9.2c1.7,4.2,1.7,8.8,0,12.9s-5,7.4-9.2,9.1C48.3,60.5,46.2,60.9,44,60.9z M44,32.1
				c-1.5,0-3.1,0.3-4.5,0.9c-2.9,1.2-5.2,3.5-6.5,6.4s-1.2,6.2,0,9.1c1.2,2.9,3.5,5.2,6.4,6.5s6.2,1.2,9.1,0
				c2.9-1.2,5.2-3.5,6.5-6.4s1.2-6.2,0-9.1l0,0c-1.2-2.9-3.5-5.2-6.4-6.5C47.1,32.4,45.6,32.1,44,32.1z"/>
		</g>
	</g>
	<g>
		<g>
			<path fill="#FFFFFF" d="M97.4,122.5h-8c-2.1,0-3.8-1.7-3.8-3.8v-2.8c-0.9-0.3-1.7-0.7-2.5-1.1l-2,2c-1.5,1.5-3.9,1.5-5.4,0
				l-5.6-5.7c-0.7-0.7-1.1-1.7-1.1-2.7c0-1,0.4-2,1.1-2.7l2-2c-0.4-0.8-0.8-1.7-1.1-2.5h-2.8c-2.1,0-3.8-1.7-3.8-3.8v-8
				c0-2.1,1.7-3.8,3.8-3.8H71c0.3-0.9,0.7-1.7,1.1-2.5l-2-2c-1.5-1.5-1.5-3.9,0-5.4l5.6-5.6c1.5-1.5,3.9-1.5,5.4,0l2,2
				c0.8-0.4,1.7-0.8,2.5-1.1v-2.8c0-2.1,1.7-3.8,3.8-3.8h8c2.1,0,3.8,1.7,3.8,3.8v2.8c0.9,0.3,1.7,0.7,2.5,1.1l2-2
				c1.4-1.4,4-1.4,5.4,0l5.6,5.6c1.5,1.5,1.5,3.9,0,5.4l-2,2c0.4,0.8,0.8,1.7,1.1,2.5h2.8c2.1,0,3.8,1.7,3.8,3.8v8
				c0,2.1-1.7,3.8-3.8,3.8h-2.8c-0.3,0.9-0.7,1.7-1.1,2.5l2,2c0.7,0.7,1.1,1.7,1.1,2.7c0,1-0.4,2-1.1,2.7l-5.6,5.6
				c-1.4,1.4-4,1.4-5.4,0l-2-2c-0.8,0.4-1.7,0.8-2.5,1.1v2.8C101.2,120.8,99.5,122.5,97.4,122.5z M90.6,117.5h5.6V115
				c0-1.7,1.1-3.2,2.7-3.7c1.1-0.3,2.2-0.8,3.2-1.3c1.5-0.8,3.3-0.5,4.5,0.7l1.8,1.8l4-4l-1.8-1.8c-1.2-1.2-1.4-3-0.7-4.5
				c0.6-1,1-2.1,1.3-3.2c0.5-1.6,2-2.7,3.7-2.7h2.5v-5.6H115c-1.7,0-3.2-1.1-3.7-2.7c-0.3-1.1-0.8-2.2-1.3-3.2
				c-0.8-1.5-0.5-3.3,0.7-4.5l1.8-1.8l-4-4l-1.8,1.8c-1.2,1.2-3,1.4-4.5,0.7c-1-0.6-2.1-1-3.2-1.3c-1.6-0.5-2.7-2-2.7-3.7v-2.5h-5.6
				v2.5c0,1.7-1.1,3.2-2.7,3.7c-1.1,0.3-2.2,0.8-3.2,1.3c-1.5,0.8-3.3,0.5-4.5-0.7l-1.8-1.8l-4,4l1.8,1.8c1.2,1.2,1.4,3,0.7,4.5
				c-0.6,1-1,2.1-1.3,3.2c-0.5,1.6-2,2.7-3.7,2.7h-2.5v5.6h2.5c1.7,0,3.2,1.1,3.7,2.7c0.3,1.1,0.8,2.2,1.3,3.2
				c0.8,1.5,0.5,3.3-0.7,4.5l-1.8,1.8l4,4l1.8-1.8c1.2-1.2,3-1.4,4.5-0.7c1,0.6,2.1,1,3.2,1.3c1.6,0.5,2.7,2,2.7,3.7L90.6,117.5
				L90.6,117.5z M72.4,104.5C72.4,104.5,72.4,104.5,72.4,104.5C72.4,104.5,72.4,104.5,72.4,104.5z M72.6,83.7L72.6,83.7L72.6,83.7z
				 M104.5,72.4L104.5,72.4L104.5,72.4z"/>
		</g>
		<g>
			<path fill="#FFFFFF" d="M93.4,106.5c-7.2,0-13.1-5.9-13.1-13.1s5.9-13.1,13.1-13.1s13.1,5.9,13.1,13.1S100.7,106.5,93.4,106.5z
				 M93.4,85.3c-4.5,0-8.1,3.7-8.1,8.1s3.7,8.1,8.1,8.1s8.1-3.7,8.1-8.1S97.9,85.3,93.4,85.3z"/>
		</g>
	</g>
</g>
</svg>
