<?xml version="1.0" encoding="utf-8"?>
<!-- Generator: Adobe Illustrator 25.0.0, SVG Export Plug-In . SVG Version: 6.00 Build 0)  -->
<svg version="1.1" id="图层_1" xmlns="http://www.w3.org/2000/svg" xmlns:xlink="http://www.w3.org/1999/xlink" x="0px" y="0px"
	 viewBox="0 0 16 16" enable-background="new 0 0 16 16" xml:space="preserve">
<g>
	<g>
		<path fill="#4479FB" d="M14.1,12H1.9c-0.1,0-0.2-0.1-0.2-0.2V4.2C1.7,4.1,1.8,4,1.9,4h12.2c0.1,0,0.2,0.1,0.2,0.2v7.6
			C14.3,11.9,14.2,12,14.1,12z M2.1,11.6h11.8V4.4H2.1V11.6z"/>
	</g>
	<g>
		<path fill="#4479FB" d="M1.7,8.7L1,5.7c0-0.1,0-0.1,0-0.2c0-0.1,0.1-0.1,0.1-0.1l0.7-0.2l0.1,0.4L1.5,5.8l0.6,2.9L1.7,8.7z
			 M1.3,5.8L1.3,5.8C1.3,5.8,1.3,5.8,1.3,5.8z"/>
	</g>
	<g>
		<path fill="#4479FB" d="M2.9,13.3c0,0-0.1,0-0.1,0c-0.1,0-0.1-0.1-0.1-0.1l-0.3-1.2l0.4-0.1l0.2,1l5.3-1.2L8.5,12L2.9,13.3
			C2.9,13.3,2.9,13.3,2.9,13.3z"/>
	</g>
	<g>
		<path fill="#4479FB" d="M14.1,10.7L14,10.3l0.5-0.1l-0.6-2.9l0.4-0.1l0.7,3.1c0,0.1,0,0.1,0,0.2c0,0.1-0.1,0.1-0.1,0.1L14.1,10.7z
			"/>
	</g>
	<g>
		<path fill="#4479FB" d="M7.6,4.4L7.5,4l5.5-1.2c0.1,0,0.1,0,0.2,0c0.1,0,0.1,0.1,0.1,0.1l0.3,1.2l-0.4,0.1l-0.2-1L7.6,4.4z"/>
	</g>
	<g>
		<g>
			<polygon fill="#4479FB" points="10.7,6.4 8,8.1 5.3,6.4 8,4.9 			"/>
		</g>
		<g>
			<polygon fill="#4479FB" points="7.7,11.1 5.2,9.6 5.2,7.1 7.7,8.5 			"/>
		</g>
		<g>
			<polygon fill="#4479FB" points="8.3,11.1 10.7,9.6 10.7,7.1 8.3,8.5 			"/>
		</g>
	</g>
</g>
<g>
</g>
<g>
</g>
<g>
</g>
<g>
</g>
<g>
</g>
<g>
</g>
</svg>
