<?xml version="1.0" encoding="utf-8"?>
<!-- Generator: Adobe Illustrator 25.0.0, SVG Export Plug-In . SVG Version: 6.00 Build 0)  -->
<svg version="1.1" id="Layer_1" xmlns="http://www.w3.org/2000/svg" xmlns:xlink="http://www.w3.org/1999/xlink" x="0px" y="0px"
	 viewBox="0 0 16 16" enable-background="new 0 0 16 16" xml:space="preserve">
<g id="sinking">
	<g>
		<path fill="#808080" d="M15,10.5H1c-0.3,0-0.5-0.2-0.5-0.5S0.7,9.5,1,9.5h14c0.3,0,0.5,0.2,0.5,0.5S15.3,10.5,15,10.5z"/>
	</g>
	<g>
		<path fill="#808080" d="M14.8,5.5L6,1C5.9,1,5.8,1,5.7,1c-0.1,0-0.2,0.1-0.2,0.2L2.2,7.8c-0.1,0.1-0.1,0.3,0,0.4
			c0.1,0.1,0.2,0.2,0.3,0.2h11c0.1,0,0.3-0.1,0.3-0.2L14.9,6C15,5.8,15,5.6,14.8,5.5z"/>
		<path fill="#4479FB" d="M11.8,11.8c-0.1-0.1-0.2-0.2-0.3-0.2H5c-0.2,0-0.3,0.1-0.4,0.3s0,0.3,0.2,0.4l5.2,2.6c0.1,0,0.1,0,0.2,0
			c0,0,0.1,0,0.1,0c0.1,0,0.2-0.1,0.2-0.2l1.3-2.6C11.9,12,11.9,11.9,11.8,11.8z"/>
	</g>
</g>
</svg>
