<?xml version="1.0" encoding="utf-8"?>
<!-- Generator: Adobe Illustrator 25.0.0, SVG Export Plug-In . SVG Version: 6.00 Build 0)  -->
<svg version="1.1" id="Layer_1" xmlns="http://www.w3.org/2000/svg" xmlns:xlink="http://www.w3.org/1999/xlink" x="0px" y="0px"
	 viewBox="0 0 128 128" enable-background="new 0 0 128 128" xml:space="preserve">
<g id="SLA_supports">
	<g>
		<path fill="#FFFFFF" d="M117,121.5H11.1c-1.9,0-3.5-1.6-3.5-3.5v-4c0-1.9,1.6-3.5,3.5-3.5H117c1.9,0,3.5,1.6,3.5,3.5v4
			C120.5,120,118.9,121.5,117,121.5z M11.1,113.5c-0.3,0-0.5,0.2-0.5,0.5v4c0,0.3,0.2,0.5,0.5,0.5H117c0.3,0,0.5-0.2,0.5-0.5v-4
			c0-0.3-0.2-0.5-0.5-0.5H11.1z"/>
	</g>
	<g>
		<path fill="#4479FB" d="M32.1,108.1c-0.8,0-1.5-0.7-1.5-1.5V87.8c0-0.8,0.7-1.5,1.5-1.5c0.8,0,1.5,0.7,1.5,1.5v18.8
			C33.6,107.4,32.9,108.1,32.1,108.1z"/>
	</g>
	<g>
		<path fill="#4479FB" d="M48,108.1c-0.8,0-1.5-0.7-1.5-1.5v-8.1c0-0.8,0.7-1.5,1.5-1.5s1.5,0.7,1.5,1.5v8.1
			C49.5,107.4,48.8,108.1,48,108.1z"/>
	</g>
	<g>
		<path fill="#4479FB" d="M88,108.1c-0.8,0-1.5-0.7-1.5-1.5V93.1c0-0.8,0.7-1.5,1.5-1.5s1.5,0.7,1.5,1.5v13.5
			C89.5,107.4,88.9,108.1,88,108.1z"/>
	</g>
	<path fill="#FFFFFF" d="M70.4,95.1l-6.3,4.2l-14.5-9.6l-2.5,2.6l16,10.6c0.3,0.2,0.6,0.3,1,0.3c0.3,0,0.7-0.1,1-0.3l7.9-5.3
		L70.4,95.1z"/>
	<polygon fill="#FFFFFF" points="89,87 86.3,84.5 77.9,90.1 80.5,92.6 	"/>
	<path fill="#FFFFFF" d="M104,35.1l-38.9-26c-0.6-0.4-1.4-0.4-2,0l-38.9,26c-0.5,0.3-0.8,0.9-0.8,1.5v38.9c0,0.6,0.3,1.2,0.8,1.5
		l15.5,10.3l2.5-2.6L26.9,74.5v-37l37.2-24.8l37.2,24.8v37l-7.3,4.9l2.6,2.5l7.5-5c0.5-0.3,0.8-0.9,0.8-1.5V36.6
		C104.8,36,104.5,35.4,104,35.1z"/>
	<g>
		<path fill="#4479FB" d="M96.2,108.1c-0.8,0-1.5-0.7-1.5-1.5V87.9L79,73.2c-0.6-0.6-0.6-1.5-0.1-2.1c0.6-0.6,1.5-0.6,2.1-0.1
			l16.1,15.2c0.3,0.3,0.5,0.7,0.5,1.1v19.3C97.7,107.4,97,108.1,96.2,108.1z"/>
	</g>
	<g>
		<path fill="#4479FB" d="M40.1,108.1c-0.8,0-1.5-0.7-1.5-1.5V93.3c0-0.4,0.2-0.8,0.4-1l16.1-16.9c0.6-0.6,1.5-0.6,2.1-0.1
			s0.6,1.5,0,2.1L41.6,93.9v12.7C41.6,107.4,40.9,108.1,40.1,108.1z"/>
	</g>
	<g>
		<path fill="#4479FB" d="M80.1,108.1c-0.8,0-1.5-0.7-1.5-1.5v-7.7L62.9,83.2c-0.6-0.6-0.6-1.5,0-2.1c0.6-0.6,1.5-0.6,2.1,0
			l16.1,16.2c0.3,0.3,0.4,0.7,0.4,1.1v8.3C81.6,107.4,81,108.1,80.1,108.1z"/>
	</g>
</g>
</svg>
