<?xml version="1.0" encoding="utf-8"?>
<!-- Generator: Adobe Illustrator 25.0.0, SVG Export Plug-In . SVG Version: 6.00 Build 0)  -->
<svg version="1.1"
	 id="svg842" xmlns:inkscape="http://www.inkscape.org/namespaces/inkscape" xmlns:sodipodi="http://sodipodi.sourceforge.net/DTD/sodipodi-0.dtd" xmlns:svg="http://www.w3.org/2000/svg"
	 xmlns="http://www.w3.org/2000/svg" xmlns:xlink="http://www.w3.org/1999/xlink" x="0px" y="0px" viewBox="0 0 800 800"
	 enable-background="new 0 0 800 800" xml:space="preserve">
<sodipodi:namedview  bordercolor="#eeeeee" borderopacity="1" id="namedview844" inkscape:current-layer="svg842" inkscape:cx="399.51985" inkscape:cy="496.32936" inkscape:pagecheckerboard="0" inkscape:pageopacity="0" inkscape:pageshadow="0" inkscape:window-height="1001" inkscape:window-maximized="1" inkscape:window-width="1920" inkscape:window-x="-9" inkscape:window-y="-9" inkscape:zoom="0.69208076" pagecolor="#505050" showgrid="false">
	</sodipodi:namedview>
<path id="path838" fill="#FFFFFF" d="M753.3,635c1.7-6.7,1.7-13.3,1.7-18.3c0-5,0-13.3-1.7-18.3l38.3-28.3c3.3-3.3,5-8.3,3.3-11.7
	l-38.3-65c-1.7-3.3-6.7-5-11.7-3.3l-43.3,20c-10-8.3-21.7-15-33.3-20l-5-48.3c0-5-5-8.3-8.3-8.3h-75c-5,0-8.3,3.3-8.3,8.3l-5,48.3
	c-11.7,5-23.3,11.7-33.3,20L490,490c-5-1.7-10,0-11.7,3.3l-38.3,65c-1.7,3.3-1.7,10,3.3,11.7l38.3,28.3c-1.7,6.7-1.7,13.3-1.7,18.3
	c0,5,0,13.3,1.7,18.3l-38.3,28.3c-3.3,3.3-5,8.3-3.3,11.7l38.3,65c1.7,3.3,6.7,5,11.7,3.3l43.3-20c10,8.3,21.7,15,33.3,20l5,48.3
	c0,5,5,8.3,8.3,8.3h75c5,0,8.3-3.3,8.3-8.3l5-48.3c11.7-5,23.3-11.7,33.3-20l43.3,20c5,1.7,10,0,11.7-3.3l38.3-65
	c1.7-3.3,1.7-10-3.3-11.7L753.3,635z M616.7,703.3c-48.3,0-86.7-38.3-86.7-86.7c0-48.3,38.3-86.7,86.7-86.7s86.7,38.3,86.7,86.7
	S665,703.3,616.7,703.3z"/>
<path id="path840" fill="#646464" fill-opacity="0" d="M616.7,516.7c-55,0-100,45-100,100c0,55,45,100,100,100c55,0,100-45,100-100
	C716.7,561.7,671.7,516.7,616.7,516.7z M616.7,666.7c-28.3,0-50-21.7-50-50c0-28.3,21.7-50,50-50c28.3,0,50,21.7,50,50
	C666.7,645,645,666.7,616.7,666.7z"/>
<path id="path1447" sodipodi:nodetypes="sssssssss" fill="#C0D3F9" d="M363.1,301.3H172.3c-18.3,0-33.3,15-33.3,33.3v133.7
	c0,18.3,15,33.3,33.3,33.3h190.8c18.3,0,33.3-15,33.3-33.3V334.7C396.4,316.3,381.4,301.3,363.1,301.3L363.1,301.3z"/>
<path id="path7485" fill="#4479FB" d="M158.3,281.6c-9.1-2.5-17.6-9.8-21.8-18.9c-2.1-4.6-2.2-5.6-2.2-63v-58.2l2.5-5.1
	c3.5-7.2,11.1-14.2,17.9-16.8l5.7-2.1H400h239.5l5.7,2.1c6.9,2.6,14.4,9.6,17.9,16.8l2.5,5.1v58.2V258l-2.8,5.8
	c-3.3,6.7-10.1,13.4-16.9,16.5l-4.8,2.2L402,282.7C215.3,282.8,161.9,282.6,158.3,281.6L158.3,281.6z"/>
<path id="path7524" fill="#4479FB" d="M437.2,499.6c-10.1-1.7-19.6-8.8-24.2-18.2l-2.8-5.8v-75.1v-75.1l2.8-5.8
	c3.4-6.9,9.2-12.4,17-16l5.7-2.7h102.2h102.2l5.7,2.7c7.8,3.6,13.6,9.1,17,16l2.8,5.8l0.1,66.9c0.1,55.5-0.1,65.1-1.1,56.5
	c-1-8.6-1.6-10.9-3.6-13l-2.4-2.6h-41.2h-41.2l-2.5,2.5c-1.4,1.4-2.5,3.6-2.5,4.9c0,3.5-4.9,49-5.3,49.2c-0.2,0.1-5.1,2.6-11,5.5
	l-10.7,5.4l-14.9,0l-14.9,0l-12-5.7c-16.8-7.9-21-7.8-25.7,0.6l-2.8,5l-15.8-0.1C449,500.5,439.8,500,437.2,499.6L437.2,499.6z"/>
<path id="path7563" fill="#4479FB" d="M155,680.5c-7.2-2.8-13.2-8.2-17.1-15.5l-3.5-6.5v-58.2c0-57.5,0-58.3,2.2-63
	c3.1-6.8,9.8-13.6,16.5-16.9l5.8-2.8l152.4-0.3l152.4-0.3l-12.2,20.7c-6.7,11.4-12.5,21.7-12.8,23c-1.3,5.1,0.3,6.9,21.1,22.2
	c11.3,8.3,20.6,15.4,20.8,15.7c0.2,0.4-0.1,4.7-0.7,9.6c-0.7,5.8-0.7,12-0.1,17.8l1,8.9l-19.7,14.6c-10.8,8-20.1,15.5-20.7,16.6
	c-1.7,3.1-1.3,7.9,1,12.4l2.1,4l-141.8,0C165.5,682.4,159.7,682.3,155,680.5L155,680.5z"/>
<path id="path7602" fill="#FFFFFF" d="M604.6,664.6c-24.6-6-40.4-29.6-36.7-55c4.9-33.7,40.9-52.2,71.6-36.8
	c18.2,9.1,29,30.2,26,50.9C661.3,652.7,633.3,671.5,604.6,664.6z"/>
</svg>
