<?xml version="1.0" encoding="utf-8"?>
<!-- Generator: Adobe Illustrator 25.0.0, SVG Export Plug-In . SVG Version: 6.00 Build 0)  -->
<svg version="1.1"
	 id="svg842" xmlns:inkscape="http://www.inkscape.org/namespaces/inkscape" xmlns:sodipodi="http://sodipodi.sourceforge.net/DTD/sodipodi-0.dtd" xmlns:svg="http://www.w3.org/2000/svg"
	 xmlns="http://www.w3.org/2000/svg" xmlns:xlink="http://www.w3.org/1999/xlink" x="0px" y="0px" viewBox="0 0 800 800"
	 enable-background="new 0 0 800 800" xml:space="preserve">
<sodipodi:namedview  bordercolor="#eeeeee" borderopacity="1" id="namedview844" inkscape:current-layer="svg842" inkscape:cx="392.29526" inkscape:cy="502.10903" inkscape:pagecheckerboard="0" inkscape:pageopacity="0" inkscape:pageshadow="0" inkscape:window-height="1001" inkscape:window-maximized="1" inkscape:window-width="1920" inkscape:window-x="-9" inkscape:window-y="-9" inkscape:zoom="0.69208076" pagecolor="#505050" showgrid="false">
	</sodipodi:namedview>
<path id="path840" fill="#646464" fill-opacity="0" d="M616.7,516.7c-55,0-100,45-100,100c0,55,45,100,100,100c55,0,100-45,100-100
	C716.7,561.7,671.7,516.7,616.7,516.7z M616.7,666.7c-28.3,0-50-21.7-50-50c0-28.3,21.7-50,50-50c28.3,0,50,21.7,50,50
	C666.7,645,645,666.7,616.7,666.7z"/>
<path id="path1447-4" sodipodi:nodetypes="sssssssss" fill="#4479FB" d="M632.3,229.8H441.5c-18.3,0-33.3,15-33.3,33.3V542
	c0,18.3,15,33.3,33.3,33.3h190.8c18.3,0,33.3-15,33.3-33.3V263.2C665.6,244.8,650.6,229.8,632.3,229.8z"/>
<path id="path7485" fill="#4479FB" d="M158.3,281.6c-9.1-2.5-17.6-9.8-21.8-18.9c-2.1-4.6-2.2-5.6-2.2-63v-58.2l2.5-5.1
	c3.5-7.2,11.1-14.2,17.9-16.8l5.7-2.1H400h239.5l5.7,2.1c6.9,2.6,14.4,9.6,17.9,16.8l2.5,5.1v58.2V258l-2.8,5.8
	c-3.3,6.7-10.1,13.4-16.9,16.5l-4.8,2.2L402,282.7C215.3,282.8,161.9,282.6,158.3,281.6L158.3,281.6z"/>
<path id="path7485-7" fill="#4479FB" d="M157.8,681.3c-9.1-2.5-17.6-9.8-21.8-18.9c-2.1-4.6-2.2-5.6-2.2-63v-58.2l2.5-5.1
	c3.5-7.2,11.1-14.2,17.9-16.8l5.7-2.1h239.5H639l5.7,2.1c6.9,2.6,14.4,9.6,17.9,16.8l2.5,5.1v58.2v58.2l-2.8,5.8
	c-3.3,6.7-10.1,13.4-16.9,16.5l-4.8,2.2l-239.1,0.2C214.8,682.5,161.4,682.2,157.8,681.3z"/>
</svg>
