<?xml version="1.0" encoding="utf-8"?>
<!-- Generator: Adobe Illustrator 25.0.0, SVG Export Plug-In . SVG Version: 6.00 Build 0)  -->
<svg version="1.1" id="图层_1" xmlns="http://www.w3.org/2000/svg" xmlns:xlink="http://www.w3.org/1999/xlink" x="0px" y="0px"
	 viewBox="0 0 128 128" enable-background="new 0 0 128 128" xml:space="preserve">
<g>
	<path fill="#174CCE" d="M44,69.3v7.8c0,1.7-1.9,2.6-3.2,1.7L22.2,65.6c-1.2-0.8-1.2-2.5,0-3.3l18.6-13.1c1.4-1,3.2,0,3.2,1.7v7.5
		h15.5V15.1c0-5.3-4.3-9.5-9.5-9.5H15c-5.3,0-9.5,4.3-9.5,9.5V113c0,5.3,4.3,9.5,9.5,9.5h35c5.3,0,9.5-4.3,9.5-9.5V69.3H44z"/>
	<path fill="#174CCE" d="M83.9,69.3v7.8c0,1.7,1.9,2.6,3.2,1.7l18.6-13.1c1.2-0.8,1.2-2.5,0-3.3L87.2,49.2c-1.4-1-3.2,0-3.2,1.7v7.5
		H68.6V15.1c0-5.3,4.3-9.5,9.5-9.5h35c5.3,0,9.5,4.3,9.5,9.5V113c0,5.3-4.3,9.5-9.5,9.5H78c-5.3,0-9.5-4.3-9.5-9.5V69.3H83.9z"/>
</g>
</svg>
