<?xml version="1.0" encoding="utf-8"?>
<!-- Generator: Adobe Illustrator 25.0.0, SVG Export Plug-In . SVG Version: 6.00 Build 0)  -->
<svg version="1.1" id="Layer_1" xmlns="http://www.w3.org/2000/svg" xmlns:xlink="http://www.w3.org/1999/xlink" x="0px" y="0px"
	 viewBox="0 0 16 16" enable-background="new 0 0 16 16" xml:space="preserve">
<g id="split_x5F_object_x5F_small">
	<path fill="#808080" d="M11,7.2c-0.3,0-0.5-0.2-0.5-0.5V4.6v-1c0-0.3-0.2-0.5-0.5-0.5H2.6C2.3,3,2.1,3.3,2.1,3.6l0,7.3
		c0,0.1,0,0.3,0.2,0.4c0.1,0.1,0.2,0.1,0.4,0.1h3.2l0,0c0.3,0,0.5,0.2,0.5,0.5s-0.2,0.5-0.5,0.5H3.7c0,0,0,0,0,0H2.6
		c-0.4,0-0.8-0.2-1.1-0.5C1.2,11.7,1,11.3,1,10.9l0-7.3C1,2.7,1.8,2,2.6,2h7.3c0.9,0,1.6,0.7,1.6,1.6v1v2.1C11.5,7,11.3,7.2,11,7.2z
		"/>
	<g>
		<path fill="#4479FB" d="M13.5,8H7.5C7.2,8,7,8.2,7,8.5v6.1C7,14.8,7.2,15,7.5,15h6.1c0.3,0,0.5-0.2,0.5-0.5V8.5
			C14,8.2,13.8,8,13.5,8z M12.4,12.7c0,1.1-0.6,1.6-1.9,1.6s-1.8-0.5-1.8-1.6v-2.3c0-1.2,0.5-1.6,1.8-1.6s1.9,0.5,1.9,1.6V12.7z"/>
		<path fill="#4479FB" d="M10.5,9.6c-0.7,0-0.9,0.3-0.9,0.8v2.2c0,0.5,0.1,0.8,0.9,0.8c0.7,0,0.9-0.3,0.9-0.8v-2.2
			C11.4,9.9,11.2,9.6,10.5,9.6z"/>
	</g>
</g>
</svg>
