<?xml version="1.0" encoding="utf-8"?>
<!-- Generator: Adobe Illustrator 25.0.0, SVG Export Plug-In . SVG Version: 6.00 Build 0)  -->
<svg version="1.1" id="图层_1" xmlns="http://www.w3.org/2000/svg" xmlns:xlink="http://www.w3.org/1999/xlink" x="0px" y="0px"
	 viewBox="0 0 16 16" enable-background="new 0 0 16 16" xml:space="preserve">
<g>
	<path fill="#4479FB" d="M13,10.9l1.2,1.2L13.4,13l-1.2-1.2L11,13l-0.8-0.8l1.2-1.2l-1.2-1.2L11,8.9l1.2,1.2l1.2-1.2l0.8,0.8
		L13,10.9z M13.9,13H6.5v-1.2l-1.5-1.1V13H4.3V9.2L2.9,8.1V13H1.4v1.5h13.2V13H13.9z M7.1,10.3c0.4,0.4,1.1,0.4,1.5,0l0,0l3.5-3.5
		c0.4-0.4,0.4-1.1,0-1.5l0,0L8.6,1.8c-0.4-0.4-1.1-0.4-1.5,0l0,0L3.6,5.3c-0.4,0.4-0.4,1.1,0,1.5l0,0L7.1,10.3z"/>
</g>
<g>
</g>
<g>
</g>
<g>
</g>
<g>
</g>
<g>
</g>
<g>
</g>
</svg>
