<?xml version="1.0" encoding="utf-8"?>
<!-- Generator: Adobe Illustrator 25.0.0, SVG Export Plug-In . SVG Version: 6.00 Build 0)  -->
<svg version="1.1" id="图层_1" xmlns="http://www.w3.org/2000/svg" xmlns:xlink="http://www.w3.org/1999/xlink" x="0px" y="0px"
	 viewBox="0 0 16 16" enable-background="new 0 0 16 16" xml:space="preserve">
<g>
	<path fill="#4479FB" d="M3.9,6.8c-0.4-0.4-0.4-1.1,0-1.5l0,0l3.5-3.5c0.4-0.4,1.1-0.4,1.5,0l0,0l3.5,3.5c0.4,0.4,0.4,1.1,0,1.5l0,0
		l-3.5,3.5c-0.4,0.4-1.1,0.4-1.5,0l0,0L3.9,6.8z M13.9,13v-5l-1.5,1.1V13h-1.5v-2.4l-1.5,1.1V13H7.3v-1.2l-1.5-1.1V13H4.3V9.2
		L2.9,8.1V13H1.4v1.5h13.2V13H13.9z"/>
</g>
<g>
</g>
<g>
</g>
<g>
</g>
<g>
</g>
<g>
</g>
<g>
</g>
</svg>
