<?xml version="1.0" encoding="utf-8"?>
<!-- Generator: Adobe Illustrator 25.0.0, SVG Export Plug-In . SVG Version: 6.00 Build 0)  -->
<svg version="1.1" id="图层_1" xmlns="http://www.w3.org/2000/svg" xmlns:xlink="http://www.w3.org/1999/xlink" x="0px" y="0px"
	 width="16px" height="16px" viewBox="0 0 16 16" enable-background="new 0 0 16 16" xml:space="preserve">
<path fill="#4479FB" d="M1,12c-0.5,0-1,0-1,0.5S0.5,13,1,13h5c0.5,0,1,0,1-0.5S6.5,12,6,12H1z"/>
<path fill="#808080" d="M6,0C4,0,3,1,3,3v5h1V3c0-1.3,0.7-2,2-2h7c1.3,0,2,0.7,2,2h1c0-2-1-3-3-3H6z M6,4L5,5v1l1,1h1v1H5v1h2l1-1V7
	L7,6H6V5h2V4H6z M9,4v4h1V4H9z M10,8v1h1V8H10z M11,8h1V4h-1V8z M14.5,4c-1,0-1.5,0.6-1.5,1.5v2C13,8.4,13.7,9,14.5,9H16V7h-1v1
	h-0.5C14.3,8,14,7.8,14,7.5v-2C14,5,14.3,5,14.5,5H16V4H14.5z M15,10c0,1.3-0.7,2-2,2H8v1h5c2,0,3-1,3-3H15z"/>
</svg>
