<?xml version="1.0" encoding="utf-8"?>
<!-- Generator: Adobe Illustrator 25.0.0, SVG Export Plug-In . SVG Version: 6.00 Build 0)  -->
<svg version="1.1" id="图层_1" xmlns="http://www.w3.org/2000/svg" xmlns:xlink="http://www.w3.org/1999/xlink" x="0px" y="0px"
	 width="16px" height="16px" viewBox="0 0 16 16" enable-background="new 0 0 16 16" xml:space="preserve">
<path fill="#4479FB" d="M3.5,9C1.6,9,0,10.6,0,12.5S1.6,16,3.5,16S7,14.4,7,12.5S5.4,9,3.5,9z M3.5,10.2c1.3,0,2.3,1,2.3,2.3
	c0,0.2,0,0.3-0.1,0.5L3,10.3C3.2,10.2,3.3,10.2,3.5,10.2z M2.5,10.4l3.1,3.1C5.3,14,5,14.4,4.5,14.6l-3.1-3.1
	C1.6,11,2,10.7,2.5,10.4z M1.2,12.1l2.7,2.7c-0.1,0-0.3,0-0.4,0c-1.3,0-2.3-1-2.3-2.3C1.2,12.3,1.2,12.2,1.2,12.1z"/>
<path fill="#808080" d="M6,0C4,0,3,1,3,3v5h1V3c0-1.3,0.7-2,2-2h7c1.3,0,2,0.7,2,2h1c0-2-1-3-3-3H6z M6,4L5,5v1l1,1h1v1H5v1h2l1-1V7
	L7,6H6V5h2V4H6z M9,4v4h1V4H9z M10,8v1h1V8H10z M11,8h1V4h-1V8z M14.5,4c-1,0-1.5,0.6-1.5,1.5v2C13,8.4,13.7,9,14.5,9H16V7h-1v1
	h-0.5C14.3,8,14,7.8,14,7.5v-2C14,5,14.3,5,14.5,5H16V4H14.5z M15,10c0,1.3-0.7,2-2,2H8v1h5c2,0,3-1,3-3H15z"/>
</svg>
