<?xml version="1.0" encoding="utf-8"?>
<!-- Generator: Adobe Illustrator 25.0.0, SVG Export Plug-In . SVG Version: 6.00 Build 0)  -->
<svg version="1.1" id="图层_1" xmlns="http://www.w3.org/2000/svg" xmlns:xlink="http://www.w3.org/1999/xlink" x="0px" y="0px"
	 viewBox="0 0 100 100" enable-background="new 0 0 100 100" xml:space="preserve">
<g>
	<path fill="#4479FB" d="M50,33.5c8.5,0,17,0,25.5,0c1.4,0,1.8,0.4,1.6,1.8c-0.6,4.9-1.2,9.9-1.9,14.8c-0.5,4.3-1.1,8.7-1.6,13
		c-0.5,4.4-1.1,8.8-1.7,13.2c-0.3,2.1-0.5,4.2-0.8,6.3c-0.6,3.2-3.3,5.5-6.6,5.5c-9.7,0-19.4,0-29.1,0c-3.6,0-6.4-2.8-6.7-6.3
		c-0.3-3.2-0.8-6.4-1.2-9.6c-0.4-3.5-0.9-7.1-1.3-10.6c-0.5-4-1-8-1.5-12.1c-0.5-4-1-8-1.5-12c-0.1-0.8-0.2-1.6-0.3-2.4
		c-0.1-1,0.4-1.5,1.4-1.5C32.9,33.5,41.5,33.5,50,33.5C50,33.5,50,33.5,50,33.5z M46.2,59.7c-2.1,2.1-4.1,4.1-6.1,6.2
		c-1.2,1.2-1.3,2.8-0.2,4c1.1,1.2,2.7,1.2,3.9,0c0.5-0.5,1-1,1.4-1.4c1.6-1.6,3.2-3.2,4.9-4.9c0.3,0.4,0.5,0.6,0.7,0.9
		c1.8,1.8,3.7,3.7,5.5,5.5c0.8,0.8,1.7,1,2.7,0.7c1-0.3,1.6-1,1.9-2c0.2-1-0.1-1.9-0.8-2.6c-2.1-2.1-4.1-4.1-6.3-6.3
		c0.3-0.2,0.5-0.3,0.7-0.5c1.9-1.9,3.7-3.7,5.6-5.6c1.2-1.2,1.3-2.9,0.1-4c-1.1-1.1-2.8-1-4,0.2c-1.9,1.9-3.8,3.8-5.6,5.6
		c-0.2,0.2-0.4,0.3-0.6,0.5c-2.1-2.1-4.1-4.1-6.1-6.2c-1.2-1.2-2.9-1.3-4-0.2c-1.1,1.1-1,2.8,0.2,4C42.1,55.6,44.1,57.6,46.2,59.7z"
		/>
	<path fill="#4479FB" d="M41.1,18.7c0-1.4,0-2.8,0-4.2c0-1.7,0.8-2.6,2.5-2.6c4.3,0,8.6,0,12.9,0c1.8,0,2.8,1.1,2.7,2.7
		c-0.1,1.3,0,2.6,0,4c0.3,0,0.6,0,0.8,0c6.3,0,12.7,0,19,0c2,0,2.8,0.7,2.8,2.8c0,1.3,0,2.6,0,3.9c0,1.5-0.9,2.4-2.4,2.4
		c-4,0-8.1,0-12.1,0c-15.4,0-30.9,0-46.3,0c-1.6,0-2.8-1-2.7-2.7c0.1-1.3,0-2.7,0-4c0-1.4,0.9-2.3,2.3-2.4c1.4,0,2.8,0,4.1,0
		c5.2,0,10.4,0,15.5,0C40.5,18.8,40.7,18.8,41.1,18.7z"/>
</g>
<g>
</g>
<g>
</g>
<g>
</g>
<g>
</g>
<g>
</g>
<g>
</g>
</svg>
