<?xml version="1.0" encoding="utf-8"?>
<!-- Generator: Adobe Illustrator 25.0.0, SVG Export Plug-In . SVG Version: 6.00 Build 0)  -->
<svg version="1.1" id="图层_1" xmlns="http://www.w3.org/2000/svg" xmlns:xlink="http://www.w3.org/1999/xlink" x="0px" y="0px"
	 viewBox="0 0 16 16" enable-background="new 0 0 16 16" xml:space="preserve">
<g>
	<path fill="#4479FB" d="M9.2,6.7l0-0.4l0.4-0.3c0-0.3-0.1-0.5-0.3-0.7L8.7,5.5L8.5,5.2l0.1-0.4C8.4,4.7,8.2,4.6,7.9,4.5L7.7,4.9
		l-0.4,0L7,4.5C6.7,4.6,6.5,4.7,6.3,4.9l0.1,0.5L6.1,5.6L5.7,5.5C5.5,5.8,5.4,5.9,5.4,6.2l0.4,0.2l0,0.4L5.4,7.1
		c0.1,0.2,0.2,0.5,0.3,0.7l0.4-0.1L6.5,8L6.4,8.4c0.2,0.1,0.4,0.2,0.7,0.3l0.2-0.4l0.4,0l0.3,0.4c0.2-0.1,0.5-0.1,0.7-0.3L8.6,7.9
		l0.2-0.3l0.5,0.1C9.4,7.5,9.5,7.3,9.6,7L9.2,6.7z M7.5,7.5C7,7.5,6.6,7.1,6.6,6.7c0-0.4,0.4-0.8,0.8-0.8c0.4,0,0.8,0.4,0.8,0.8
		C8.3,7.1,8,7.4,7.5,7.5"/>
	<rect x="4.1" y="13.6" fill="#4479FB" width="6.9" height="1.4"/>
	<rect x="6" y="12.1" transform="matrix(-1.836970e-16 1 -1 -1.836970e-16 20.3214 5.235)" fill="#4479FB" width="3" height="1.4"/>
	<g>
		<polygon fill="#4479FB" points="9.5,12.2 1,12.2 1,1 13.9,1 13.9,7.3 12.6,7.3 12.6,2.4 2.4,2.4 2.4,10.9 9.5,10.9 		"/>
	</g>
	<g>
		<polygon fill="#4479FB" points="11.6,12.3 10.2,12.3 10.2,8 14.5,8 14.5,9.4 11.6,9.4 		"/>
	</g>
	<g>
		<rect x="12" y="8" transform="matrix(0.7071 -0.7071 0.7071 0.7071 -3.706 12.0514)" fill="#4479FB" width="1.4" height="5.1"/>
	</g>
</g>
</svg>
