<?xml version="1.0" encoding="utf-8"?>
<!-- Generator: Adobe Illustrator 25.0.0, SVG Export Plug-In . SVG Version: 6.00 Build 0)  -->
<svg version="1.1" id="图层_1" xmlns="http://www.w3.org/2000/svg" xmlns:xlink="http://www.w3.org/1999/xlink" x="0px" y="0px"
	 viewBox="0 0 16 16" enable-background="new 0 0 16 16" xml:space="preserve">
<g>
	<polygon fill="#4479FB" points="14.9,12.9 11.1,12.9 11.1,11.4 13.4,11.4 13.4,5.2 11.1,5.2 11.1,3.7 14.9,3.7 	"/>
	<polygon fill="#4479FB" points="1,12.9 4.9,12.9 4.9,11.4 2.6,11.4 2.6,5.2 4.9,5.2 4.9,3.7 1,3.7 	"/>
	<polygon fill="#4479FB" points="9.3,1 4.6,9.1 7.2,9.1 6.4,15 11,6.7 8.5,6.7 	"/>
	<path fill="#4479FB" d="M6.4,15l0.8-5.9H4.6l4.7-8L8.5,6.7H11l0,0L6.4,15z M4.6,9.1h2.6l0,0L6.4,15L11,6.7H8.5l0,0L9.3,1L4.6,9.1z"
		/>
</g>
<g>
</g>
<g>
</g>
<g>
</g>
<g>
</g>
<g>
</g>
<g>
</g>
</svg>
