<?xml version="1.0" encoding="utf-8"?>
<!-- Generator: Adobe Illustrator 25.0.0, SVG Export Plug-In . SVG Version: 6.00 Build 0)  -->
<svg version="1.1" id="图层_1" xmlns="http://www.w3.org/2000/svg" xmlns:xlink="http://www.w3.org/1999/xlink" x="0px" y="0px"
	 viewBox="0 0 16 16" enable-background="new 0 0 16 16" xml:space="preserve">
<g>
	<g>
		<path fill="#4479FB" d="M0.6,2.5C1.1,2.8,1.6,3,2.2,3.3c0.1,0.1,0.3,0.2,0.5,0.3C4,2,5.7,1,7.8,0.9c1.6-0.1,3.1,0.3,4.5,1.2
			c2.6,1.8,3.8,5.1,2.7,8.2c-1.1,3.1-4,4.9-6.7,4.8v-2.2c1.5-0.1,2.8-0.6,3.8-1.8c0.7-0.8,1.1-1.8,1.1-2.9c0.1-2.1-1.1-4.1-3.1-4.8
			C8.2,2.7,5.9,3.2,4.6,4.7l1.9,1.1C6.4,5.9,6.3,5.9,6.3,5.9C4.4,7,2.6,8,0.8,9.1c-0.1,0-0.1,0.1-0.2,0.1C0.6,9.2,0.6,2.5,0.6,2.5z"
			/>
	</g>
</g>
<g>
</g>
<g>
</g>
<g>
</g>
<g>
</g>
<g>
</g>
<g>
</g>
</svg>
