<?xml version="1.0" encoding="utf-8"?>
<!-- Generator: Adobe Illustrator 25.0.0, SVG Export Plug-In . SVG Version: 6.00 Build 0)  -->
<svg version="1.1" id="图层_1" xmlns="http://www.w3.org/2000/svg" xmlns:xlink="http://www.w3.org/1999/xlink" x="0px" y="0px"
	 viewBox="0 0 16 16" enable-background="new 0 0 16 16" xml:space="preserve">
<path fill="#4479FB" d="M8,0.6C3.9,0.6,0.6,3.9,0.6,8c0,4.1,3.3,7.4,7.4,7.4c4.1,0,7.4-3.3,7.4-7.4C15.4,3.9,12.1,0.6,8,0.6z
	 M10.2,8.4C10.1,8.5,10,8.5,9.9,8.5s-0.2,0-0.3-0.1L8.4,7.2c0,0-0.1,0-0.1,0.1v4.6c0,0.2-0.1,0.3-0.3,0.3S7.7,12,7.7,11.8V7.3
	c0-0.1-0.1-0.1-0.1-0.1L6.3,8.4C6.2,8.5,6,8.5,5.8,8.4C5.7,8.3,5.7,8,5.8,7.9L7.7,6C7.8,5.9,7.9,5.9,8,5.9c0.1,0,0.2,0,0.3,0.1
	l1.9,1.9C10.3,8,10.3,8.3,10.2,8.4z M11.2,4.7H4.8c-0.2,0-0.4-0.2-0.4-0.4s0.2-0.4,0.4-0.4h6.5c0.2,0,0.4,0.2,0.4,0.4
	S11.5,4.7,11.2,4.7z"/>
<g>
</g>
<g>
</g>
<g>
</g>
<g>
</g>
<g>
</g>
<g>
</g>
</svg>
