<?xml version="1.0" encoding="utf-8"?>
<!-- Generator: Adobe Illustrator 25.0.0, SVG Export Plug-In . SVG Version: 6.00 Build 0)  -->
<svg version="1.1" id="图层_1" xmlns="http://www.w3.org/2000/svg" xmlns:xlink="http://www.w3.org/1999/xlink" x="0px" y="0px"
	 viewBox="0 0 600 600" style="enable-background:new 0 0 600 600;" xml:space="preserve">
<circle style="fill:none;stroke:#808080;stroke-width:30;" cx="300" cy="300" r="265"/>
<g>
	<g>
		<g>
			<path style="fill:#808080;" d="M335.1,403.4V376v-44.1c0-4.8,2.6-9.2,6.7-11.6l58.6-33.8l26.9-15.5v-43.4
				c0-9.6-5.1-18.4-13.4-23.2l-119.6-69.1c-8.3-4.8-18.5-4.8-26.8,0l-119.6,69.1c-8.3,4.8-13.4,13.6-13.4,23.2v138.1
				c0,9.6,5.1,18.4,13.4,23.2L267.4,458c8.3,4.8,18.5,4.8,26.8,0l40.9-23.6l0,0V403.4z M294.2,273.5c-8.3,4.8-13.4,13.6-13.4,23.2
				v114.8c0,10.3-11.2,16.8-20.1,11.6l-92.8-53.6c-4.2-2.4-6.7-6.8-6.7-11.6V235.3c0-4.8,2.6-9.2,6.7-11.6l106.2-61.3
				c4.2-2.4,9.3-2.4,13.4,0l79.4,45.8c8.9,5.2,8.9,18.1,0,23.2L294.2,273.5z"/>
		</g>
		<path style="fill:#808080;" d="M445.5,260.4L427.3,271v37.8v3.7v45.7v15.6c0,4.7-2.6,9-6.7,11.3l0,0l-1.4,0.8l-2,1.1l-16.9,9.7
			l-10.9,6.3l-54.4,31.4l0,0v13.3v6.4v0.2c0,0,0,0,0,0v0.8c0.2,10,10.7,16.3,19.7,11.8l0.5-0.2l10.8-6.2l92.9-53.9
			c4.1-2.4,6.7-6.8,6.7-11.6V272C465.6,261.7,454.5,255.3,445.5,260.4z"/>
	</g>
</g>
</svg>
