<?xml version="1.0" standalone="no"?><!DOCTYPE svg PUBLIC "-//W3C//DTD SVG 1.1//EN" "http://www.w3.org/Graphics/SVG/1.1/DTD/svg11.dtd"><svg t="1687913925905" class="icon" viewBox="0 0 1024 1024" version="1.1" xmlns="http://www.w3.org/2000/svg" p-id="8764" xmlns:xlink="http://www.w3.org/1999/xlink" width="200" height="200"><path d="M264.153704 952.655092 64.311213 952.655092 64.311213 224.110197l199.843514 0L264.154727 952.655092 264.153704 952.655092zM229.954811 261.241886 98.815051 261.241886l0 67.14219 131.139759 0L229.954811 261.241886 229.954811 261.241886zM326.469981 64.541969l198.266599 0 0 888.044562L326.469981 952.58653 326.469981 64.541969 326.469981 64.541969zM495.458767 98.756211 360.142895 98.756211l0 69.234851 135.314849 0L495.457744 98.756211 495.458767 98.756211zM954.857758 892.768143l-190.012611 61.911048-225.718835-692.706665 190.010565-61.911048L954.857758 892.768143 954.857758 892.768143zM708.125331 245.963924 583.437517 286.590204l20.798698 63.833841 124.685767-40.627303L708.125331 245.963924 708.125331 245.963924zM708.125331 245.963924" fill="#4479FB" p-id="8765"></path></svg>