<?xml version="1.0" encoding="utf-8"?>
<!-- Generator: Adobe Illustrator 25.0.0, SVG Export Plug-In . SVG Version: 6.00 Build 0)  -->
<svg version="1.1" id="图层_1" xmlns="http://www.w3.org/2000/svg" xmlns:xlink="http://www.w3.org/1999/xlink" x="0px" y="0px"
	 width="16px" height="16px" viewBox="0 0 16 16" enable-background="new 0 0 16 16" xml:space="preserve">
<g id="number_x5F_of_x5F_copies_4_">
	<g>
		<path fill="#808080" d="M13,2c0.6,0,1,0.5,1,1v10c0,0.6-0.4,1-1,1H3c-0.5,0-1-0.4-1-1V3c0-0.5,0.5-1,1-1H13 M13,1H3
			C1.9,1,1,1.9,1,3v10c0,1.1,0.9,2,2,2h10c1.1,0,2-0.9,2-2V3C15,1.9,14.1,1,13,1L13,1z"/>
	</g>
	<g>
		<path fill="#4479FB" d="M6,4.5H4C3.7,4.5,3.5,4.3,3.5,4S3.7,3.5,4,3.5h2c0.3,0,0.5,0.2,0.5,0.5S6.3,4.5,6,4.5z"/>
	</g>
	<g>
		<path fill="#808080" d="M12,8.5H8C7.7,8.5,7.5,8.3,7.5,8S7.7,7.5,8,7.5h4c0.3,0,0.5,0.2,0.5,0.5C12.5,8.3,12.3,8.5,12,8.5z"/>
	</g>
	<g>
		<path fill="#4479FB" d="M6,12.5H4c-0.3,0-0.5-0.2-0.5-0.5s0.2-0.5,0.5-0.5h2c0.3,0,0.5,0.2,0.5,0.5S6.3,12.5,6,12.5z"/>
	</g>
	<g>
		<path fill="#4479FB" d="M5,12.5c-0.3,0-0.5-0.2-0.5-0.5V4c0-0.3,0.2-0.5,0.5-0.5S5.5,3.7,5.5,4v8C5.5,12.3,5.3,12.5,5,12.5z"/>
	</g>
	<g>
		<path fill="#808080" d="M10,10.5c-0.3,0-0.5-0.2-0.5-0.5V6c0-0.3,0.2-0.5,0.5-0.5s0.5,0.2,0.5,0.5v4C10.5,10.3,10.3,10.5,10,10.5z
			"/>
	</g>
</g>
</svg>
