####
#
# OBJ File Generated by Meshlab
#
####
# Object U_overhang.obj
#
# Vertices: 16
# Faces: 28
#
####
vn 1.570797 1.570796 1.570796
v 10.000000 10.000000 11.000000
vn 4.712389 1.570796 -1.570796
v 10.000000 1.000000 10.000000
vn 1.570796 1.570796 -1.570796
v 10.000000 10.000000 10.000000
vn 1.570796 -1.570796 1.570796
v 10.000000 0.000000 11.000000
vn 4.712389 1.570796 1.570796
v 10.000000 1.000000 1.000000
vn 1.570797 1.570796 -1.570796
v 10.000000 10.000000 0.000000
vn 1.570796 1.570796 1.570796
v 10.000000 10.000000 1.000000
vn 1.570796 -1.570796 -1.570796
v 10.000000 0.000000 0.000000
vn -1.570796 1.570796 1.570796
v 0.000000 10.000000 1.000000
vn -4.712389 1.570796 1.570796
v 0.000000 1.000000 1.000000
vn -1.570796 -1.570796 -1.570796
v 0.000000 0.000000 0.000000
vn -1.570797 1.570796 -1.570796
v 0.000000 10.000000 0.000000
vn -4.712389 1.570796 -1.570796
v 0.000000 1.000000 10.000000
vn -1.570797 1.570796 1.570796
v 0.000000 10.000000 11.000000
vn -1.570796 1.570796 -1.570796
v 0.000000 10.000000 10.000000
vn -1.570796 -1.570796 1.570796
v 0.000000 0.000000 11.000000
# 16 vertices, 0 vertices normals

f 1//1 2//2 3//3
f 2//2 4//4 5//5
f 4//4 2//2 1//1
f 5//5 6//6 7//7
f 5//5 8//8 6//6
f 8//8 5//5 4//4
f 9//9 5//5 7//7
f 5//5 9//9 10//10
f 11//11 6//6 8//8
f 6//6 11//11 12//12
f 12//12 10//10 9//9
f 10//10 11//11 13//13
f 11//11 10//10 12//12
f 13//13 14//14 15//15
f 13//13 16//16 14//14
f 16//16 13//13 11//11
f 6//6 9//9 7//7
f 9//9 6//6 12//12
f 11//11 4//4 16//16
f 4//4 11//11 8//8
f 13//13 3//3 2//2
f 3//3 13//13 15//15
f 5//5 13//13 2//2
f 13//13 5//5 10//10
f 14//14 4//4 1//1
f 4//4 14//14 16//16
f 3//3 14//14 1//1
f 14//14 3//3 15//15
# 28 faces, 0 coords texture

# End of File
